<?xml version="1.0" encoding="utf-8"?>
<!-- Generator: Adobe Illustrator 19.0.0, SVG Export Plug-In . SVG Version: 6.00 Build 0)  -->
<svg version="1.1" id="Layer_1" xmlns="http://www.w3.org/2000/svg" xmlns:xlink="http://www.w3.org/1999/xlink" x="0px" y="0px"
	 viewBox="-164 227.3 281.7 338.7" style="enable-background:new -164 227.3 281.7 338.7;" xml:space="preserve">
<style type="text/css">
	.st0{fill:#828282;}
	.st1{fill:#868687;}
	.st2{fill:#CCCCCC;}
</style>
<g>
	<path d="M-135.6,414.7v1.4c0,0.9-0.5,1.3-1.4,1.3h-0.3c-0.9,0-1.4-0.4-1.4-1.3v-4.5c0-0.9,0.5-1.3,1.4-1.3h0.3
		c0.9,0,1.4,0.4,1.4,1.3v1.3h-0.8v-1.3c0-0.4-0.2-0.5-0.6-0.5h-0.2c-0.4,0-0.6,0.2-0.6,0.5v4.6c0,0.4,0.2,0.5,0.6,0.5h0.2
		c0.4,0,0.6-0.2,0.6-0.5v-1.5H-135.6z"/>
	<path d="M-134,410.4v6.3h1.4v0.7h-2.3v-7H-134z"/>
	<path d="M-131.1,417.4h-0.9v-7h0.9V417.4z"/>
	<path d="M-127.9,410.4v0.7h-1.5v2.3h1.4v0.7h-1.4v2.5h1.5v0.7h-2.4v-7h2.4V410.4z"/>
	<path d="M-126.4,412v5.5h-0.8v-7h1.2l1.2,5v-5h0.8v7h-1L-126.4,412z"/>
	<path d="M-122.3,417.4v-6.3h-1.1v-0.7h3.1v0.7h-1.1v6.3H-122.3z"/>
	<path d="M-116.7,413.1c0-0.3-0.2-0.5-0.5-0.5h-0.1c-0.3,0-0.5,0.1-0.5,0.5v0.5c0,0.2,0.1,0.4,0.3,0.5l1,0.6
		c0.5,0.3,0.7,0.5,0.7,1.1v0.5c0,0.8-0.4,1.2-1.3,1.2h-0.2c-0.9,0-1.3-0.4-1.3-1.2v-0.8h0.8v0.8c0,0.3,0.2,0.5,0.5,0.5h0.2
		c0.3,0,0.5-0.1,0.5-0.5v-0.5c0-0.2-0.1-0.4-0.3-0.5l-1-0.6c-0.5-0.3-0.7-0.5-0.7-1.1v-0.5c0-0.8,0.4-1.2,1.3-1.2h0.1
		c0.9,0,1.3,0.4,1.3,1.2v0.8h-0.8V413.1z"/>
	<path d="M-115.2,410.6h0.9v0.8h-0.9V410.6z M-115.2,412h0.8v5.4h-0.8V412z"/>
	<path d="M-110.8,417.4h-0.8v-0.3c-0.2,0.2-0.5,0.4-1,0.4c-0.7,0-1-0.4-1-1.1V413c0-0.6,0.3-1.1,1-1.1c0.5,0,0.8,0.2,1,0.4v-2h0.8
		V417.4z M-111.6,413c-0.2-0.2-0.5-0.3-0.7-0.3c-0.3,0-0.5,0.1-0.5,0.4v3.2c0,0.3,0.2,0.4,0.5,0.4c0.3,0,0.5-0.1,0.7-0.3V413z"/>
	<path d="M-109.2,415v1.3c0,0.3,0.2,0.5,0.5,0.5h0.1c0.3,0,0.5-0.2,0.5-0.5v-0.6h0.8v0.6c0,0.8-0.4,1.2-1.3,1.2h-0.2
		c-0.9,0-1.3-0.4-1.3-1.2v-3.1c0-0.8,0.4-1.2,1.3-1.2h0.2c0.9,0,1.3,0.4,1.3,1.2v1.8H-109.2z M-109.2,414.3h1.2v-1.1
		c0-0.3-0.2-0.5-0.5-0.5h-0.1c-0.3,0-0.5,0.2-0.5,0.5L-109.2,414.3L-109.2,414.3z"/>
</g>
<g>
	<path d="M-135.9,255v1c0,0.9-0.4,1.3-1.3,1.3h-0.2c-0.9,0-1.3-0.4-1.3-1.3v-1.5h0.8v1.5c0,0.4,0.2,0.5,0.5,0.5h0.2
		c0.4,0,0.5-0.2,0.5-0.5v-1c0-0.3-0.1-0.5-0.3-0.7l-1-0.7c-0.5-0.4-0.7-0.7-0.7-1.3v-0.8c0-0.9,0.4-1.3,1.3-1.3h0.2
		c0.9,0,1.3,0.4,1.3,1.3v1.3h-0.8v-1.3c0-0.4-0.2-0.5-0.5-0.5h-0.1c-0.4,0-0.5,0.2-0.5,0.5v0.9c0,0.3,0.1,0.5,0.4,0.7l1,0.7
		C-136,254.1-135.9,254.4-135.9,255z"/>
	<path d="M-132.9,250.3v0.7h-1.4v2.3h1.3v0.7h-1.3v2.5h1.4v0.8h-2.2v-7H-132.9z"/>
	<path d="M-129.5,254.9v2.4h-0.8V255c0-0.4-0.2-0.6-0.6-0.6h-0.6v2.9h-0.8v-7h1.5c0.9,0,1.3,0.4,1.3,1.3v1.3c0,0.6-0.2,0.9-0.6,1.1
		C-129.7,254.1-129.5,254.4-129.5,254.9z M-130.8,251h-0.7v2.6h0.6c0.4,0,0.6-0.2,0.6-0.6v-1.5C-130.3,251.2-130.4,251-130.8,251z"
		/>
	<path d="M-127.9,257.3l-1.1-7h0.8l0.7,5.3l0.8-5.3h0.8l-1.1,7H-127.9z"/>
	<path d="M-123.2,250.3v0.7h-1.4v2.3h1.3v0.7h-1.3v2.5h1.4v0.8h-2.2v-7H-123.2z"/>
	<path d="M-119.7,254.9v2.4h-0.8V255c0-0.4-0.2-0.6-0.6-0.6h-0.6v2.9h-0.8v-7h1.5c0.9,0,1.3,0.4,1.3,1.3v1.3c0,0.6-0.2,0.9-0.6,1.1
		C-119.9,254.1-119.7,254.4-119.7,254.9z M-121,251h-0.7v2.6h0.6c0.4,0,0.6-0.2,0.6-0.6v-1.5C-120.5,251.2-120.7,251-121,251z"/>
	<path d="M-116,253c0-0.3-0.1-0.5-0.5-0.5h-0.1c-0.3,0-0.5,0.1-0.5,0.5v0.5c0,0.2,0.1,0.4,0.3,0.5l0.9,0.6c0.4,0.3,0.6,0.5,0.6,1.1
		v0.5c0,0.8-0.4,1.2-1.2,1.2h-0.1c-0.8,0-1.2-0.4-1.2-1.2v-0.8h0.7v0.8c0,0.3,0.1,0.5,0.5,0.5h0.1c0.3,0,0.5-0.1,0.5-0.5v-0.5
		c0-0.2-0.1-0.4-0.3-0.5l-0.9-0.6c-0.4-0.3-0.6-0.5-0.6-1.1V253c0-0.8,0.4-1.2,1.2-1.2h0.1c0.8,0,1.2,0.4,1.2,1.2v0.8h-0.7V253z"/>
	<path d="M-114.6,250.5h0.8v0.8h-0.8V250.5z M-114.6,251.9h0.8v5.4h-0.8V251.9z"/>
	<path d="M-110.5,257.3h-0.8V257c-0.2,0.2-0.5,0.4-0.9,0.4c-0.6,0-1-0.4-1-1.1v-3.4c0-0.6,0.3-1.1,1-1.1c0.4,0,0.7,0.2,0.9,0.4v-2
		h0.8V257.3z M-111.2,252.8c-0.2-0.2-0.5-0.3-0.7-0.3c-0.3,0-0.4,0.1-0.4,0.4v3.2c0,0.3,0.2,0.4,0.4,0.4s0.5-0.1,0.7-0.3V252.8z"/>
	<path d="M-109,254.9v1.3c0,0.3,0.2,0.5,0.5,0.5h0.1c0.3,0,0.5-0.2,0.5-0.5v-0.6h0.7v0.6c0,0.8-0.4,1.2-1.2,1.2h-0.2
		c-0.8,0-1.2-0.4-1.2-1.2v-3.1c0-0.8,0.4-1.2,1.2-1.2h0.2c0.8,0,1.2,0.4,1.2,1.2v1.8C-107.2,254.9-109,254.9-109,254.9z M-109,254.2
		h1.1v-1.1c0-0.3-0.2-0.5-0.5-0.5h-0.1c-0.3,0-0.5,0.2-0.5,0.5V254.2z"/>
</g>
<g>
	<path d="M-138,286.6c0.1,0.1,0.3,0.1,0.5,0.2c0.2,0,0.4,0.1,0.5,0.1c0.2,0,0.3,0,0.4,0c0.1,0,0.3-0.1,0.4-0.1
		c0.1-0.1,0.2-0.2,0.2-0.3c0.1-0.1,0.1-0.2,0.1-0.4c0-0.2-0.1-0.3-0.2-0.5c-0.1-0.1-0.3-0.2-0.5-0.3c-0.2-0.1-0.4-0.2-0.6-0.3
		c-0.2-0.1-0.4-0.2-0.6-0.3s-0.4-0.3-0.5-0.4c-0.1-0.2-0.2-0.4-0.2-0.7c0-0.2,0-0.4,0.1-0.5c0.1-0.2,0.2-0.3,0.3-0.4
		c0.1-0.1,0.3-0.2,0.5-0.2c0.2-0.1,0.4-0.1,0.7-0.1c0.3,0,0.5,0,0.8,0.1c0.2,0,0.4,0.1,0.5,0.2l0,0l0,0l0,0l0,0v1.1h-0.4v-0.7
		c-0.1,0-0.2-0.1-0.4-0.1c-0.2,0-0.3,0-0.4,0c-0.2,0-0.3,0-0.4,0.1c-0.1,0-0.2,0.1-0.3,0.2c-0.1,0.1-0.2,0.1-0.2,0.2
		c0,0.1-0.1,0.2-0.1,0.3c0,0.2,0.1,0.3,0.2,0.5c0.1,0.1,0.3,0.2,0.5,0.3c0.2,0.1,0.4,0.2,0.6,0.3c0.2,0.1,0.4,0.2,0.6,0.3
		c0.2,0.1,0.4,0.3,0.5,0.4c0.1,0.2,0.2,0.4,0.2,0.6c0,0.2,0,0.4-0.1,0.6c-0.1,0.2-0.2,0.3-0.3,0.4c-0.1,0.1-0.3,0.2-0.5,0.3
		c-0.2,0.1-0.4,0.1-0.7,0.1c-0.2,0-0.3,0-0.5,0c-0.2,0-0.3-0.1-0.4-0.1s-0.3-0.1-0.4-0.1c-0.1,0-0.2-0.1-0.2-0.1l0,0v-1.1h0.3V286.6
		z"/>
	<path d="M-131.1,286.9c-0.1,0.1-0.2,0.1-0.3,0.2c-0.1,0.1-0.2,0.1-0.4,0.2c-0.1,0-0.2,0-0.4,0c-0.1,0-0.3,0-0.4,0
		c-0.3,0-0.5,0-0.7-0.1s-0.4-0.2-0.5-0.4c-0.1-0.2-0.3-0.4-0.3-0.6c-0.1-0.2-0.1-0.5-0.1-0.8c0-0.3,0-0.6,0.1-0.8
		c0.1-0.2,0.2-0.4,0.4-0.6c0.2-0.2,0.3-0.3,0.6-0.4c0.3-0.1,0.5-0.1,0.7-0.1c0.2,0,0.4,0,0.6,0.1c0.2,0.1,0.4,0.1,0.5,0.3
		c0.1,0.1,0.3,0.3,0.3,0.6c0.1,0.2,0.1,0.6,0.1,1h-2.7c0,0.4,0.1,0.7,0.3,0.9c0.2,0.2,0.5,0.3,0.9,0.3c0.1,0,0.2,0,0.4,0
		c0.1,0,0.2-0.1,0.4-0.1c0.2,0,0.2-0.1,0.3-0.1c0.1-0.1,0.2-0.1,0.2-0.1V286.9z M-132.6,284.2c-0.2,0-0.3,0-0.4,0s-0.3,0.1-0.4,0.2
		c-0.1,0.1-0.2,0.2-0.3,0.3c-0.1,0.1-0.1,0.3-0.1,0.5h2.2c0-0.3-0.1-0.5-0.3-0.7C-132.1,284.3-132.3,284.2-132.6,284.2z"/>
	<path d="M-130.1,287.3v-0.5h0.9v-2.5h-0.9v-0.5h1.3l0.1,0.5l0,0c0.2-0.1,0.3-0.3,0.5-0.4s0.4-0.2,0.7-0.2c0.2,0,0.3,0,0.4,0.1
		s0.2,0.1,0.2,0.3c0,0.2,0.1,0.3,0.1,0.4c0,0.2,0,0.4,0,0.6h-0.5c0-0.3,0-0.5-0.1-0.7c-0.1-0.1-0.2-0.2-0.3-0.2s-0.3,0-0.4,0.1
		c-0.1,0.1-0.2,0.1-0.3,0.2c-0.1,0.1-0.2,0.1-0.2,0.2c-0.1,0.1-0.1,0.1-0.1,0.2v2.1h1.3v0.3H-130.1z"/>
	<path d="M-124.3,286.6L-124.3,286.6l1.2-2.8h0.6l-1.5,3.5h-0.6l-1.5-3.5h0.6L-124.3,286.6z"/>
	<path d="M-118.5,286.9c-0.1,0.1-0.2,0.1-0.3,0.2c-0.1,0.1-0.2,0.1-0.4,0.2c-0.1,0-0.3,0.1-0.4,0.1c-0.1,0-0.3,0-0.4,0
		c-0.3,0-0.5,0-0.7-0.1s-0.4-0.2-0.5-0.4c-0.1-0.2-0.3-0.4-0.3-0.6c-0.1-0.2-0.1-0.5-0.1-0.8c0-0.3,0-0.6,0.1-0.8
		c0.1-0.2,0.2-0.4,0.4-0.6c0.2-0.2,0.3-0.3,0.6-0.4c0.3-0.1,0.5-0.1,0.7-0.1s0.4,0,0.6,0.1s0.4,0.1,0.5,0.3c0.1,0.1,0.3,0.3,0.3,0.6
		c0.1,0.2,0.1,0.6,0.1,1h-2.7c0,0.4,0.1,0.7,0.3,0.9c0.2,0.2,0.5,0.3,0.9,0.3c0.1,0,0.2,0,0.4,0c0.1,0,0.2-0.1,0.4-0.1
		c0.2,0,0.2-0.1,0.3-0.1c0.1-0.1,0.2-0.1,0.2-0.1V286.9z M-120,284.2c-0.2,0-0.3,0-0.4,0s-0.3,0.1-0.4,0.2c-0.1,0.1-0.2,0.2-0.3,0.3
		c-0.1,0.1-0.1,0.3-0.1,0.5h2.2c0-0.3-0.1-0.5-0.3-0.7C-119.5,284.3-119.7,284.2-120,284.2z"/>
	<path d="M-117.5,287.3v-0.5h0.9v-2.5h-0.9v-0.5h1.3l0.1,0.5l0,0c0.2-0.1,0.3-0.3,0.5-0.4c0.2-0.1,0.4-0.2,0.7-0.2
		c0.2,0,0.3,0,0.4,0.1c0.1,0.1,0.2,0.1,0.2,0.3c0,0.2,0.1,0.3,0.1,0.4c0,0.2,0,0.4,0,0.6h-0.5c0-0.3,0-0.5-0.1-0.7
		c-0.1-0.1-0.2-0.2-0.3-0.2s-0.3,0-0.4,0.1c-0.1,0.1-0.2,0.1-0.3,0.2c-0.1,0.1-0.2,0.1-0.2,0.2c-0.1,0.1-0.1,0.1-0.1,0.2v2.1h1.3
		v0.3H-117.5z"/>
	<path d="M-113.1,282.4h2.9v0.5h-2.3v1.6h2.1v0.5h-2.1v1.7h2.3v0.6h-2.9V282.4z"/>
	<path d="M-108.9,285c0,0,0-0.1,0-0.2s0-0.1,0-0.2c0-0.1,0-0.1,0-0.2s0-0.1,0-0.2h-0.5v-0.5h0.9l0.1,0.6l0,0c0-0.1,0.1-0.2,0.2-0.2
		c0.1-0.1,0.2-0.1,0.3-0.2s0.2-0.1,0.3-0.2c0.1,0,0.3-0.1,0.4-0.1c0.2,0,0.4,0,0.6,0.1c0.2,0,0.3,0.1,0.4,0.2
		c0.1,0.1,0.2,0.3,0.2,0.5c0.1,0.2,0.1,0.5,0.1,0.8v2h-0.6v-1.9c0-0.4-0.1-0.7-0.2-0.9c-0.1-0.2-0.4-0.3-0.7-0.3
		c-0.1,0-0.2,0-0.4,0.1c-0.1,0-0.2,0.1-0.3,0.2c-0.1,0.1-0.2,0.2-0.2,0.3c-0.1,0.1-0.1,0.2-0.2,0.3v2.3h-0.5L-108.9,285L-108.9,285z
		"/>
	<path d="M-101.7,287.5c0,0.2,0,0.4-0.1,0.6c-0.1,0.2-0.2,0.3-0.3,0.4c-0.1,0.1-0.3,0.2-0.5,0.2c-0.2,0.1-0.4,0.1-0.6,0.1
		c-0.3,0-0.5,0-0.7-0.1c-0.2-0.1-0.4-0.1-0.5-0.2l0.3-0.5c0,0,0.1,0.1,0.2,0.1c0.1,0,0.1,0.1,0.2,0.1s0.2,0.1,0.3,0.1
		c0.1,0,0.2,0,0.3,0c0.2,0,0.4,0,0.5-0.1c0.1,0,0.2-0.1,0.3-0.2c0.1-0.1,0.1-0.2,0.2-0.3s0.1-0.3,0.1-0.5v-0.4l0,0
		c-0.1,0.2-0.2,0.3-0.4,0.4s-0.4,0.1-0.6,0.1c-0.5,0-0.9-0.1-1.2-0.4c-0.3-0.3-0.4-0.8-0.4-1.4c0-0.6,0.2-1,0.5-1.4
		c0.3-0.4,0.8-0.5,1.4-0.5c0.3,0,0.5,0,0.7,0.1c0.2,0,0.4,0.1,0.6,0.2v3.6H-101.7z M-103.3,286.9c0.3,0,0.5-0.1,0.7-0.2
		s0.3-0.4,0.3-0.7v-1.7c-0.2-0.1-0.5-0.1-0.9-0.1c-0.4,0-0.7,0.1-0.9,0.3c-0.2,0.2-0.3,0.6-0.3,1c0,0.2,0,0.4,0.1,0.5
		c0,0.2,0.1,0.3,0.2,0.4c0.1,0.1,0.2,0.2,0.3,0.3C-103.7,286.9-103.5,286.9-103.3,286.9z"/>
	<path d="M-100.5,287.3v-0.5h1.2v-2.5h-1.2v-0.5h1.8v3h1.2v0.5H-100.5z M-99.4,282.8c0-0.1,0-0.2,0.1-0.3c0.1-0.1,0.2-0.1,0.3-0.1
		c0.1,0,0.2,0,0.3,0.1c0.1,0.1,0.1,0.2,0.1,0.3s0,0.2-0.1,0.3c-0.1,0.1-0.2,0.1-0.3,0.1c-0.1,0-0.2,0-0.3-0.1
		C-99.4,283-99.4,282.9-99.4,282.8z"/>
	<path d="M-96.3,285c0,0,0-0.1,0-0.2s0-0.1,0-0.2c0-0.1,0-0.1,0-0.2s0-0.1,0-0.2h-0.5v-0.5h0.9l0.1,0.6l0,0c0-0.1,0.1-0.2,0.2-0.2
		c0.1-0.1,0.2-0.1,0.3-0.2c0.1-0.1,0.2-0.1,0.3-0.2c0.1,0,0.3-0.1,0.4-0.1c0.2,0,0.4,0,0.6,0.1c0.2,0,0.3,0.1,0.4,0.2
		c0.1,0.1,0.2,0.3,0.2,0.5c0.1,0.2,0.1,0.5,0.1,0.8v2h-0.6v-1.9c0-0.4-0.1-0.7-0.2-0.9c-0.1-0.2-0.4-0.3-0.7-0.3
		c-0.1,0-0.2,0-0.4,0.1c-0.1,0-0.2,0.1-0.3,0.2c-0.1,0.1-0.2,0.2-0.2,0.3c-0.1,0.1-0.1,0.2-0.2,0.3v2.3h-0.5L-96.3,285L-96.3,285z"
		/>
	<path d="M-89.1,286.9c-0.1,0.1-0.2,0.1-0.3,0.2c-0.1,0.1-0.2,0.1-0.4,0.2c-0.1,0-0.2,0-0.4,0c-0.1,0-0.3,0-0.4,0
		c-0.3,0-0.5,0-0.7-0.1s-0.4-0.2-0.5-0.4s-0.3-0.4-0.3-0.6c-0.1-0.2-0.1-0.5-0.1-0.8c0-0.3,0-0.6,0.1-0.8c0.1-0.2,0.2-0.4,0.4-0.6
		c0.2-0.2,0.3-0.3,0.6-0.4c0.3-0.1,0.5-0.1,0.7-0.1s0.4,0,0.6,0.1c0.2,0.1,0.4,0.1,0.5,0.3c0.1,0.1,0.3,0.3,0.3,0.6
		c0.1,0.2,0.1,0.6,0.1,1h-2.7c0,0.4,0.1,0.7,0.3,0.9c0.2,0.2,0.5,0.3,0.9,0.3c0.1,0,0.2,0,0.4,0c0.1,0,0.2-0.1,0.4-0.1
		s0.2-0.1,0.3-0.1c0.1-0.1,0.2-0.1,0.2-0.1L-89.1,286.9z M-90.6,284.2c-0.2,0-0.3,0-0.4,0s-0.3,0.1-0.4,0.2s-0.2,0.2-0.3,0.3
		s-0.1,0.3-0.1,0.5h2.2c0-0.3-0.1-0.5-0.3-0.7C-90.1,284.3-90.3,284.2-90.6,284.2z"/>
</g>
<g>
	<path d="M-115.9,302.9c-0.2,0-0.4,0-0.6,0s-0.4,0-0.6,0.1c-0.2,0.1-0.3,0.2-0.5,0.3s-0.2,0.4-0.3,0.6c-0.1,0.3-0.1,0.6-0.1,1
		c0,0.7,0.1,1.2,0.4,1.5c0.3,0.3,0.6,0.5,1.1,0.5c0.3,0,0.6-0.1,0.8-0.2v-1.4h-1v-0.5h1.5v2.2c-0.1,0.1-0.2,0.1-0.3,0.2
		c-0.1,0-0.2,0.1-0.3,0.1s-0.2,0.1-0.4,0.1c-0.1,0-0.3,0-0.4,0c-0.3,0-0.6-0.1-0.8-0.2c-0.2-0.1-0.5-0.3-0.6-0.5
		c-0.2-0.2-0.3-0.5-0.4-0.8c-0.1-0.3-0.1-0.7-0.1-1.1c0-0.5,0.1-0.8,0.2-1.2c0.1-0.3,0.3-0.6,0.5-0.8s0.4-0.4,0.7-0.4
		c0.2-0.1,0.5-0.1,0.8-0.1s0.5,0,0.7,0c0.2,0,0.3,0.1,0.5,0.1l0,0v1.2h-0.5v-0.7H-115.9z"/>
	<path d="M-114,304.1c0.2-0.1,0.4-0.2,0.7-0.3c0.3-0.1,0.5-0.1,0.7-0.1s0.4,0,0.6,0.1s0.3,0.2,0.4,0.3c0.1,0.1,0.1,0.3,0.2,0.4
		c0,0.2,0,0.3,0,0.5c0,0.2,0,0.4,0,0.6c0,0.2,0,0.4,0,0.6c0,0.2,0,0.5,0,0.7h0.4v0.4h-0.9l-0.1-0.5l0,0c0,0-0.1,0.1-0.1,0.2
		c-0.1,0.1-0.1,0.1-0.2,0.2c-0.1,0.1-0.2,0.1-0.3,0.2c-0.1,0-0.3,0.1-0.5,0.1c-0.3,0-0.6-0.1-0.8-0.3c-0.2-0.2-0.3-0.4-0.3-0.7
		c0-0.2,0.1-0.4,0.2-0.6c0.1-0.2,0.3-0.3,0.5-0.4c0.2-0.1,0.3-0.2,0.5-0.2c0.3,0,0.6,0,0.9,0.1c0-0.2,0-0.4,0-0.5s-0.1-0.3-0.1-0.3
		s-0.1-0.3-0.2-0.3s-0.2-0.1-0.4-0.1s-0.4,0-0.6,0.1c-0.2,0.1-0.4,0.1-0.5,0.2L-114,304.1z M-113,306.9c0.1,0,0.3,0,0.4-0.1
		c0.1,0,0.2-0.1,0.3-0.2c0.1-0.1,0.2-0.1,0.2-0.2c0.1-0.1,0.1-0.2,0.1-0.2v-0.5c-0.2,0-0.5-0.1-0.7-0.1c-0.2,0-0.4,0-0.5,0.1
		c-0.1,0.1-0.3,0.1-0.4,0.2c-0.1,0.1-0.1,0.2-0.1,0.4s0.1,0.3,0.2,0.4C-113.4,306.8-113.3,306.9-113,306.9z"/>
	<path d="M-108.8,307.3V305c0-0.1,0-0.2,0-0.3s0-0.2,0-0.2c0-0.1-0.1-0.1-0.1-0.2c0,0-0.1-0.1-0.2-0.1c-0.2,0-0.3,0.1-0.4,0.2
		c-0.1,0.1-0.2,0.3-0.2,0.5v2.4h-0.5v-3.5h0.4l0.1,0.4l0,0c0-0.1,0.1-0.1,0.1-0.2c0-0.1,0.1-0.1,0.2-0.2c0.1,0,0.1-0.1,0.2-0.1
		c0.1,0,0.2,0,0.3,0s0.1,0,0.2,0c0.1,0,0.1,0.1,0.2,0.1s0.1,0.1,0.2,0.2c0,0.1,0.1,0.2,0.1,0.3c0.1-0.2,0.2-0.3,0.4-0.4
		c0.1-0.1,0.3-0.2,0.5-0.2c0.2,0,0.3,0,0.4,0.1c0.1,0.1,0.2,0.1,0.2,0.2c0,0.1,0.1,0.2,0.1,0.3s0,0.3,0,0.4v2.6h-0.5v-2.4
		c0-0.1,0-0.2,0-0.3c0-0.1,0-0.2-0.1-0.2s-0.1-0.1-0.2-0.1c0,0-0.1-0.1-0.2-0.1c-0.2,0-0.3,0.1-0.4,0.2c-0.1,0.1-0.2,0.3-0.3,0.6
		v2.3H-108.8z"/>
	<path d="M-102.7,306.9c-0.1,0.1-0.2,0.1-0.3,0.2c-0.1,0.1-0.2,0.1-0.4,0.2c-0.1,0-0.3,0.1-0.4,0.1c-0.1,0-0.3,0-0.4,0
		c-0.3,0-0.5,0-0.7-0.1c-0.2-0.1-0.4-0.2-0.5-0.4c-0.1-0.2-0.3-0.4-0.3-0.6c-0.1-0.2-0.1-0.5-0.1-0.8c0-0.3,0-0.6,0.1-0.8
		c0.1-0.2,0.2-0.4,0.4-0.6s0.3-0.3,0.6-0.4s0.5-0.1,0.7-0.1c0.2,0,0.4,0,0.6,0.1s0.4,0.1,0.5,0.3c0.1,0.1,0.3,0.3,0.3,0.6
		c0.1,0.2,0.1,0.6,0.1,1h-2.7c0,0.4,0.1,0.7,0.3,0.9c0.2,0.2,0.5,0.3,0.9,0.3c0.1,0,0.2,0,0.4,0c0.1,0,0.2-0.1,0.4-0.1
		s0.2-0.1,0.3-0.1c0.1-0.1,0.2-0.1,0.2-0.1L-102.7,306.9z M-104.2,304.2c-0.2,0-0.3,0-0.4,0c-0.1,0-0.3,0.1-0.4,0.2
		c-0.1,0.1-0.2,0.2-0.3,0.3s-0.1,0.3-0.1,0.5h2.2c0-0.3-0.1-0.5-0.3-0.7C-103.7,304.3-103.9,304.2-104.2,304.2z"/>
	<path d="M-101.5,302.4h2.9v0.5h-2.3v1.6h2.1v0.5h-2.1v1.7h2.3v0.6h-2.9C-101.5,307.3-101.5,302.4-101.5,302.4z"/>
	<path d="M-97.3,305c0,0,0-0.1,0-0.2s0-0.1,0-0.2c0-0.1,0-0.1,0-0.2s0-0.1,0-0.2h-0.5v-0.5h0.9l0.1,0.6l0,0c0-0.1,0.1-0.2,0.2-0.2
		c0.1-0.1,0.2-0.1,0.3-0.2c0.1-0.1,0.2-0.1,0.3-0.2c0.1,0,0.3-0.1,0.4-0.1c0.2,0,0.4,0,0.6,0.1c0.2,0,0.3,0.1,0.4,0.2
		s0.2,0.3,0.2,0.5c0.1,0.2,0.1,0.5,0.1,0.8v2h-0.6v-1.9c0-0.4-0.1-0.7-0.2-0.9c-0.1-0.2-0.4-0.3-0.7-0.3c-0.1,0-0.2,0-0.4,0.1
		c-0.1,0-0.2,0.1-0.3,0.2c-0.1,0.1-0.2,0.2-0.2,0.3c-0.1,0.1-0.1,0.2-0.2,0.3v2.3h-0.5L-97.3,305L-97.3,305z"/>
	<path d="M-90.1,307.5c0,0.2,0,0.4-0.1,0.6c-0.1,0.2-0.2,0.3-0.3,0.4c-0.1,0.1-0.3,0.2-0.5,0.2c-0.2,0.1-0.4,0.1-0.6,0.1
		c-0.3,0-0.5,0-0.7-0.1s-0.4-0.1-0.5-0.2l0.3-0.5c0,0,0.1,0.1,0.2,0.1s0.1,0.1,0.2,0.1s0.2,0.1,0.3,0.1c0.1,0,0.2,0,0.3,0
		c0.2,0,0.4,0,0.5-0.1c0.1,0,0.2-0.1,0.3-0.2c0.1-0.1,0.1-0.2,0.2-0.3s0.1-0.3,0.1-0.5v-0.4l0,0c-0.1,0.2-0.2,0.3-0.4,0.4
		s-0.4,0.1-0.6,0.1c-0.5,0-0.9-0.1-1.2-0.4c-0.3-0.3-0.4-0.8-0.4-1.4s0.2-1,0.5-1.4s0.8-0.5,1.4-0.5c0.3,0,0.5,0,0.7,0.1
		c0.2,0,0.4,0.1,0.6,0.2v3.6H-90.1z M-91.7,306.9c0.3,0,0.5-0.1,0.7-0.2s0.3-0.4,0.3-0.7v-1.7c-0.2-0.1-0.5-0.1-0.9-0.1
		s-0.7,0.1-0.9,0.3c-0.2,0.2-0.3,0.6-0.3,1c0,0.2,0,0.4,0.1,0.5c0,0.2,0.1,0.3,0.2,0.4s0.2,0.2,0.3,0.3
		C-92.1,306.9-91.9,306.9-91.7,306.9z"/>
	<path d="M-88.9,307.3v-0.5h1.2v-2.5h-1.2v-0.5h1.8v3h1.2v0.5H-88.9z M-87.8,302.8c0-0.1,0-0.2,0.1-0.3c0.1-0.1,0.2-0.1,0.3-0.1
		c0.1,0,0.2,0,0.3,0.1c0.1,0.1,0.1,0.2,0.1,0.3s0,0.2-0.1,0.3c-0.1,0.1-0.2,0.1-0.3,0.1c-0.1,0-0.2,0-0.3-0.1
		C-87.8,303-87.8,302.9-87.8,302.8z"/>
	<path d="M-84.7,305c0,0,0-0.1,0-0.2s0-0.1,0-0.2c0-0.1,0-0.1,0-0.2s0-0.1,0-0.2h-0.5v-0.5h0.9l0.1,0.6l0,0c0-0.1,0.1-0.2,0.2-0.2
		c0.1-0.1,0.2-0.1,0.3-0.2c0.1-0.1,0.2-0.1,0.3-0.2c0.1,0,0.3-0.1,0.4-0.1c0.2,0,0.4,0,0.6,0.1c0.2,0,0.3,0.1,0.4,0.2
		s0.2,0.3,0.2,0.5c0.1,0.2,0.1,0.5,0.1,0.8v2h-0.6v-1.9c0-0.4-0.1-0.7-0.2-0.9c-0.1-0.2-0.4-0.3-0.7-0.3c-0.1,0-0.2,0-0.4,0.1
		c-0.1,0-0.2,0.1-0.3,0.2c-0.1,0.1-0.2,0.2-0.2,0.3c-0.1,0.1-0.1,0.2-0.2,0.3v2.3h-0.5L-84.7,305L-84.7,305z"/>
	<path d="M-77.5,306.9c-0.1,0.1-0.2,0.1-0.3,0.2c-0.1,0.1-0.2,0.1-0.4,0.2c-0.1,0-0.3,0.1-0.4,0.1s-0.3,0-0.4,0
		c-0.3,0-0.5,0-0.7-0.1c-0.2-0.1-0.4-0.2-0.5-0.4c-0.1-0.2-0.3-0.4-0.3-0.6c-0.1-0.2-0.1-0.5-0.1-0.8c0-0.3,0-0.6,0.1-0.8
		c0.1-0.2,0.2-0.4,0.4-0.6c0.2-0.2,0.3-0.3,0.6-0.4s0.5-0.1,0.7-0.1s0.4,0,0.6,0.1s0.4,0.1,0.5,0.3c0.1,0.1,0.3,0.3,0.3,0.6
		c0.1,0.2,0.1,0.6,0.1,1H-80c0,0.4,0.1,0.7,0.3,0.9c0.2,0.2,0.5,0.3,0.9,0.3c0.1,0,0.2,0,0.4,0c0.1,0,0.2-0.1,0.4-0.1
		s0.2-0.1,0.3-0.1c0.1-0.1,0.2-0.1,0.2-0.1V306.9z M-79,304.2c-0.2,0-0.3,0-0.4,0s-0.3,0.1-0.4,0.2s-0.2,0.2-0.3,0.3
		s-0.1,0.3-0.1,0.5h2.2c0-0.3-0.1-0.5-0.3-0.7C-78.5,304.3-78.7,304.2-79,304.2z"/>
</g>
<g>
	<path d="M-95.9,322.9c-0.2,0-0.4,0-0.6,0s-0.4,0-0.6,0.1c-0.2,0.1-0.3,0.2-0.5,0.3s-0.2,0.4-0.3,0.6c-0.1,0.3-0.1,0.6-0.1,1
		c0,0.7,0.1,1.2,0.4,1.5c0.3,0.3,0.6,0.5,1.1,0.5c0.3,0,0.6-0.1,0.8-0.2v-1.4h-1v-0.5h1.5v2.2c-0.1,0.1-0.2,0.1-0.3,0.2
		c-0.1,0-0.2,0.1-0.3,0.1c-0.1,0-0.2,0.1-0.4,0.1c-0.1,0-0.3,0-0.4,0c-0.3,0-0.6-0.1-0.8-0.2c-0.2-0.1-0.5-0.3-0.6-0.5
		c-0.2-0.2-0.3-0.5-0.4-0.8c-0.1-0.3-0.1-0.7-0.1-1.1c0-0.5,0.1-0.8,0.2-1.2c0.1-0.3,0.3-0.6,0.5-0.8s0.4-0.4,0.7-0.4
		c0.2-0.1,0.5-0.1,0.8-0.1s0.5,0,0.7,0s0.3,0.1,0.5,0.1l0,0v1.2h-0.5v-0.7H-95.9z"/>
	<path d="M-94,324.1c0.2-0.1,0.4-0.2,0.7-0.3s0.5-0.1,0.7-0.1s0.4,0,0.6,0.1s0.3,0.2,0.4,0.3c0.1,0.1,0.1,0.3,0.2,0.4
		c0,0.2,0,0.3,0,0.5c0,0.2,0,0.4,0,0.6c0,0.2,0,0.4,0,0.6c0,0.2,0,0.5,0,0.7h0.4v0.5h-0.9l-0.1-0.6l0,0c0,0-0.1,0.1-0.1,0.2
		c-0.1,0.1-0.1,0.1-0.2,0.2s-0.2,0.1-0.3,0.2c-0.1,0-0.3,0.1-0.5,0.1c-0.3,0-0.6-0.1-0.8-0.3c-0.2-0.2-0.3-0.4-0.3-0.7
		c0-0.2,0.1-0.4,0.2-0.6c0.1-0.2,0.3-0.3,0.5-0.4s0.3-0.2,0.5-0.2c0.3,0,0.6,0,0.9,0.1c0-0.2,0-0.4,0-0.5s-0.1-0.3-0.1-0.3
		s-0.1-0.3-0.2-0.3s-0.2-0.1-0.4-0.1c-0.2,0-0.4,0-0.6,0.1s-0.4,0.1-0.5,0.2L-94,324.1z M-93,326.9c0.1,0,0.3,0,0.4-0.1
		c0.1,0,0.2-0.1,0.3-0.2c0.1-0.1,0.2-0.1,0.2-0.2c0.1-0.1,0.1-0.2,0.1-0.2v-0.5c-0.2,0-0.5-0.1-0.7-0.1s-0.4,0-0.5,0.1
		c-0.1,0.1-0.3,0.1-0.4,0.2s-0.1,0.2-0.1,0.4s0.1,0.3,0.2,0.4C-93.4,326.8-93.3,326.9-93,326.9z"/>
	<path d="M-88.8,327.3V325c0-0.1,0-0.2,0-0.3s0-0.2,0-0.2c0-0.1-0.1-0.1-0.1-0.2c0,0-0.1-0.1-0.2-0.1c-0.2,0-0.3,0.1-0.4,0.2
		s-0.2,0.3-0.2,0.5v2.4h-0.5v-3.5h0.4l0.1,0.4l0,0c0-0.1,0.1-0.1,0.1-0.2c0-0.1,0.1-0.1,0.2-0.2c0.1,0,0.1-0.1,0.2-0.1s0.2,0,0.3,0
		c0.1,0,0.1,0,0.2,0s0.1,0.1,0.2,0.1s0.1,0.1,0.2,0.2c0,0.1,0.1,0.2,0.1,0.3c0.1-0.2,0.2-0.3,0.4-0.4c0.1-0.1,0.3-0.2,0.5-0.2
		s0.3,0,0.4,0.1c0.1,0.1,0.2,0.1,0.2,0.2c0,0.1,0.1,0.2,0.1,0.3s0,0.3,0,0.4v2.5h-0.5v-2.4c0-0.1,0-0.2,0-0.3s0-0.2-0.1-0.2
		s-0.1,0-0.2,0c0,0-0.1-0.1-0.2-0.1c-0.2,0-0.3,0.1-0.4,0.2s-0.2,0.3-0.3,0.6v2.3H-88.8z"/>
	<path d="M-82.7,326.9c-0.1,0.1-0.2,0.1-0.3,0.2c-0.1,0.1-0.2,0.1-0.4,0.2c-0.1,0-0.3,0.1-0.4,0.1s-0.3,0-0.4,0
		c-0.3,0-0.5,0-0.7-0.1c-0.2-0.1-0.4-0.2-0.5-0.4c-0.1-0.2-0.3-0.4-0.3-0.6c-0.1-0.2-0.1-0.5-0.1-0.8c0-0.3,0-0.6,0.1-0.8
		c0.1-0.2,0.2-0.4,0.4-0.6c0.2-0.2,0.3-0.3,0.6-0.4s0.5-0.1,0.7-0.1s0.4,0,0.6,0.1s0.4,0.1,0.5,0.3c0.1,0.1,0.3,0.3,0.3,0.6
		c0.1,0.2,0.1,0.6,0.1,1h-2.7c0,0.4,0.1,0.7,0.3,0.9c0.2,0.2,0.5,0.3,0.9,0.3c0.1,0,0.2,0,0.4,0c0.1,0,0.2-0.1,0.4-0.1
		s0.2-0.1,0.3-0.1c0.1-0.1,0.2-0.1,0.2-0.1V326.9z M-84.2,324.2c-0.2,0-0.3,0-0.4,0s-0.3,0.1-0.4,0.2s-0.2,0.2-0.3,0.3
		s-0.1,0.3-0.1,0.5h2.2c0-0.3-0.1-0.5-0.3-0.7C-83.7,324.3-83.9,324.2-84.2,324.2z"/>
	<path d="M-81,325.9v0.5l0,0V325.9l0.6-1.9h0.5l0.5,1.9l0.1,0.5l0,0v-0.5l0.5-3.5h0.5l-0.8,4.9h-0.6l-0.3-2l-0.1-0.5l0,0l-0.1,0.5
		l-0.6,2h-0.6l-0.8-4.9h0.6L-81,325.9z"/>
	<path d="M-77.6,325.5c0-0.6,0.1-1,0.4-1.3s0.7-0.5,1.3-0.5c0.3,0,0.5,0,0.8,0.1c0.3,0.1,0.4,0.2,0.5,0.4c0.1,0.2,0.2,0.4,0.3,0.6
		c0.1,0.2,0.1,0.5,0.1,0.7c0,0.3,0,0.5-0.1,0.8c-0.1,0.2-0.2,0.4-0.3,0.6c-0.1,0.2-0.3,0.3-0.5,0.4c-0.2,0.1-0.5,0.1-0.7,0.1
		c-0.3,0-0.5,0-0.8-0.1c-0.2-0.1-0.4-0.2-0.5-0.4c-0.1-0.2-0.2-0.4-0.3-0.6C-77.6,326-77.6,325.8-77.6,325.5z M-77,325.5
		c0,0.2,0,0.3,0.1,0.5c0,0.2,0.1,0.3,0.2,0.4s0.2,0.2,0.3,0.3c0.1,0.1,0.3,0.1,0.5,0.1c0.4,0,0.7-0.1,0.8-0.3c0.2-0.2,0.3-0.6,0.3-1
		c0-0.2,0-0.3-0.1-0.5c0-0.2-0.1-0.3-0.2-0.4c-0.1-0.1-0.2-0.2-0.3-0.3c-0.1-0.1-0.3-0.1-0.5-0.1c-0.4,0-0.7,0.1-0.8,0.3
		C-76.9,324.8-77,325.1-77,325.5z"/>
	<path d="M-73.3,327.3v-0.5h0.9v-2.5h-0.9v-0.5h1.3l0.1,0.5l0,0c0.2-0.1,0.3-0.3,0.5-0.4s0.4-0.2,0.7-0.2c0.2,0,0.3,0,0.4,0.1
		s0.2,0.1,0.2,0.3c0,0.2,0.1,0.3,0.1,0.4c0,0.2,0,0.4,0,0.6h-0.5c0-0.3,0-0.5-0.1-0.7c-0.1-0.1-0.2-0.2-0.3-0.2
		c-0.1,0-0.3,0-0.4,0.1c-0.1,0.1-0.2,0.1-0.3,0.2c-0.1,0.1-0.2,0.1-0.2,0.2c-0.1,0.1-0.1,0.1-0.1,0.2v2.1h1.3v0.5h-2.7V327.3z"/>
	<path d="M-68.8,322.4h1.2v3.7c0,0.3,0,0.5,0.1,0.6s0.2,0.2,0.4,0.2c0.1,0,0.3,0,0.4-0.1c0.1,0,0.3-0.1,0.4-0.2l0.3,0.4
		c-0.1,0.1-0.2,0.1-0.2,0.2s-0.2,0.1-0.3,0.1s-0.2,0.1-0.3,0.1c-0.1,0-0.2,0-0.3,0c-0.2,0-0.3,0-0.5-0.1c-0.2-0.1-0.2-0.1-0.3-0.2
		c-0.1-0.1-0.2-0.2-0.2-0.4c0-0.2-0.1-0.4-0.1-0.6v-3.3h-0.6V322.4z"/>
	<path d="M-63,322.4h1.1v3.7c0,0,0,0.1,0,0.2c0,0.1,0,0.1,0,0.2s0,0.1,0,0.2s0,0.1,0,0.2h0.5v0.5h-0.9l-0.1-0.5l0,0
		c-0.1,0.2-0.3,0.3-0.5,0.4c-0.2,0.1-0.4,0.2-0.7,0.2c-0.5,0-0.9-0.1-1.2-0.4c-0.3-0.3-0.2-0.9-0.2-1.5c0-0.3,0-0.6,0.1-0.8
		s0.2-0.4,0.4-0.6c0.2-0.2,0.3-0.3,0.6-0.3c0.2-0.1,0.5-0.1,0.7-0.1c0.1,0,0.2,0,0.3,0c0.1,0,0.1,0,0.2,0s0.1,0,0.2,0s0.1,0,0.2,0.1
		v-1H-63V322.4z M-63.4,326.9c0.3,0,0.5-0.1,0.7-0.2s0.3-0.4,0.3-0.7v-1.6c-0.1-0.1-0.2-0.1-0.3-0.2c-0.1-0.1-0.3,0-0.5,0
		c-0.4,0-0.7,0.1-0.9,0.3c-0.2,0.2-0.3,0.6-0.3,1c0,0.2,0,0.4,0.1,0.5c0,0.2,0.1,0.3,0.2,0.4s0.2,0.2,0.3,0.3
		C-63.7,326.9-63.6,326.9-63.4,326.9z"/>
</g>
<g>
	<path d="M-25.9,389c0-0.1-0.1-0.3-0.2-0.3c-0.1-0.1-0.3-0.1-0.4-0.2c-0.2,0-0.4-0.1-0.6-0.1c-0.2,0-0.4-0.1-0.6-0.2
		s-0.3-0.2-0.4-0.3c-0.1-0.1-0.2-0.3-0.2-0.5c0-0.2,0-0.3,0.1-0.5c0.1-0.1,0.2-0.2,0.3-0.3s0.3-0.1,0.4-0.2c0.1-0.1,0.3-0.1,0.5-0.1
		c0.3,0,0.6,0,0.8,0.1c0.2,0.1,0.4,0.2,0.6,0.3l-0.2,0.4c-0.2-0.1-0.3-0.2-0.5-0.2c-0.2-0.1-0.4-0.1-0.7-0.1c-0.1,0-0.2,0-0.3,0
		s-0.2,0.1-0.3,0.1s-0.1,0.1-0.2,0.2c0,0.1-0.1,0.2-0.1,0.2c0,0.1,0.1,0.2,0.2,0.3c0.1,0.1,0.3,0.1,0.4,0.2c0.2,0,0.4,0.1,0.6,0.1
		c0.2,0,0.4,0.1,0.6,0.2s0.3,0.2,0.4,0.3c0.1,0.1,0.2,0.3,0.2,0.5c0,0.3-0.1,0.6-0.4,0.8s-0.6,0.3-1.1,0.3c-0.2,0-0.3,0-0.5,0
		s-0.3-0.1-0.4-0.1c-0.1,0-0.2-0.1-0.4-0.2c-0.1-0.1-0.2-0.1-0.3-0.2l0.3-0.5c0.1,0.1,0.1,0.1,0.2,0.2c0.1,0.1,0.2,0.1,0.3,0.2
		c0.1,0,0.2,0.1,0.4,0.1c0.1,0,0.3,0,0.4,0c0.1,0,0.2,0,0.4,0s0.2-0.1,0.3-0.1s0.2-0.1,0.2-0.2C-26,389.2-25.9,389.1-25.9,389z"/>
	<path d="M-22.6,389.5h0.3l0.9-3h0.6l-1,3.1c-0.1,0.2-0.1,0.3-0.2,0.6c-0.1,0.2-0.1,0.4-0.2,0.6c-0.1,0.2-0.2,0.3-0.4,0.5
		c-0.2,0.2-0.4,0.2-0.7,0.2c-0.1,0-0.1,0-0.2,0c-0.1,0-0.1,0-0.2-0.1s-0.1,0-0.2-0.1c-0.1,0-0.1-0.1-0.1-0.1l0.2-0.5
		c0,0,0.1,0,0.1,0.1c0,0,0.1,0,0.2,0.1c0.1,0,0.1,0,0.2,0c0.1,0,0.1,0,0.1,0c0.4,0,0.6-0.3,0.7-0.9H-23l-1.5-3.5h0.6L-22.6,389.5z"
		/>
	<path d="M-19.9,387.7c0,0,0-0.1,0-0.2c0-0.1,0-0.1,0-0.2c0-0.1,0-0.1,0-0.2c0-0.1,0-0.1,0-0.2h-0.5v-0.5h0.9l0.1,0.6l0,0
		c0-0.1,0.1-0.2,0.2-0.2c0.1-0.1,0.2-0.1,0.3-0.2s0.2-0.1,0.3-0.2c0.1,0,0.3-0.1,0.4-0.1c0.2,0,0.4,0,0.6,0.1c0.2,0,0.3,0.1,0.4,0.2
		c0.1,0.1,0.2,0.3,0.2,0.5c0.1,0.2,0.1,0.5,0.1,0.8v2h-0.6V388c0-0.4-0.1-0.7-0.2-0.9c-0.1-0.2-0.4-0.3-0.7-0.3
		c-0.1,0-0.2,0-0.4,0.1c-0.1,0-0.2,0.1-0.3,0.2c-0.1,0.1-0.2,0.2-0.2,0.3c-0.1,0.1-0.1,0.2-0.2,0.3v2.2H-20L-19.9,387.7L-19.9,387.7
		z"/>
	<path d="M-13.3,387c-0.1,0-0.2-0.1-0.3-0.1s-0.2,0-0.4,0c-0.5,0-0.8,0.1-1,0.3s-0.3,0.6-0.3,1c0,0.2,0,0.4,0.1,0.6s0.2,0.3,0.3,0.4
		s0.3,0.2,0.4,0.3c0.2,0.1,0.4,0.1,0.6,0.1c0.2,0,0.4,0,0.6-0.1c0.2-0.1,0.4-0.2,0.5-0.3l0.2,0.4c-0.1,0.1-0.1,0.1-0.2,0.2
		c-0.1,0.1-0.2,0.1-0.3,0.2s-0.3,0.1-0.4,0.1c-0.2,0-0.3,0-0.5,0c-0.3,0-0.6,0-0.8-0.1s-0.4-0.2-0.6-0.4c-0.2-0.2-0.3-0.4-0.4-0.6
		c-0.1-0.2-0.1-0.5-0.1-0.8c0-0.3,0-0.6,0.1-0.8s0.2-0.4,0.4-0.6c0.2-0.2,0.3-0.3,0.6-0.4s0.5-0.1,0.7-0.1c0.3,0,0.6,0,0.8,0.1
		s0.4,0.1,0.5,0.2l0,0v1h-0.5L-13.3,387L-13.3,387z"/>
	<path d="M-11.5,390v-0.5h1.2v-2.6h-1.2v-0.5h1.8v3h1.2v0.5h-3V390z M-10.4,385.5c0-0.1,0-0.2,0.1-0.3s0.2-0.1,0.3-0.1
		s0.2,0,0.3,0.1s0.1,0.2,0.1,0.3c0,0.1,0,0.2-0.1,0.3s-0.2,0.1-0.3,0.1s-0.2,0-0.3-0.1S-10.4,385.6-10.4,385.5z"/>
	<path d="M-7.3,387.7c0,0,0-0.1,0-0.2c0-0.1,0-0.1,0-0.2c0-0.1,0-0.1,0-0.2c0-0.1,0-0.1,0-0.2h-0.5v-0.5h0.9l0.1,0.6l0,0
		c0-0.1,0.1-0.2,0.2-0.2c0.1-0.1,0.2-0.1,0.3-0.2s0.2-0.1,0.3-0.2c0.1,0,0.3-0.1,0.4-0.1c0.2,0,0.4,0,0.6,0.1c0.2,0,0.3,0.1,0.4,0.2
		c0.1,0.1,0.2,0.3,0.2,0.5c0.1,0.2,0.1,0.5,0.1,0.8v2h-0.6V388c0-0.4-0.1-0.7-0.2-0.9c-0.1-0.2-0.4-0.3-0.7-0.3
		c-0.1,0-0.2,0-0.4,0.1c-0.1,0-0.2,0.1-0.3,0.2c-0.1,0.1-0.2,0.2-0.2,0.3c-0.1,0.1-0.1,0.2-0.2,0.3v2.2h-0.5L-7.3,387.7L-7.3,387.7z
		"/>
	<path d="M-0.1,390.2c0,0.2,0,0.4-0.1,0.6s-0.2,0.3-0.3,0.4s-0.3,0.2-0.5,0.2c-0.2,0.1-0.4,0.1-0.6,0.1c-0.3,0-0.5,0-0.7-0.1
		c-0.2-0.1-0.4-0.1-0.5-0.2l0.3-0.5c0,0,0.1,0.1,0.2,0.1s0.1,0.1,0.2,0.1s0.2,0.1,0.3,0.1s0.2,0,0.3,0c0.2,0,0.4,0,0.5-0.1
		c0.1,0,0.2-0.1,0.3-0.2c0.1-0.1,0.1-0.2,0.2-0.3s0.1-0.3,0.1-0.5v-0.4l0,0c-0.1,0.2-0.2,0.3-0.4,0.4s-0.4,0.1-0.6,0.1
		c-0.5,0-0.9-0.1-1.2-0.4s-0.4-0.8-0.4-1.4c0-0.6,0.2-1,0.5-1.4s0.8-0.5,1.4-0.5c0.3,0,0.5,0,0.7,0.1c0.2,0,0.4,0.1,0.6,0.2v3.6
		H-0.1z M-1.7,389.6c0.3,0,0.5-0.1,0.7-0.2s0.3-0.4,0.3-0.7V387c-0.2-0.1-0.5-0.1-0.9-0.1s-0.7,0.1-0.9,0.3c-0.2,0.2-0.3,0.6-0.3,1
		c0,0.2,0,0.4,0.1,0.5c0,0.2,0.1,0.3,0.2,0.4c0.1,0.1,0.2,0.2,0.3,0.3C-2.1,389.6-1.9,389.6-1.7,389.6z"/>
</g>
<g>
	<path d="M-118,466.6c0.1,0.1,0.3,0.1,0.5,0.2c0.2,0,0.4,0.1,0.5,0.1c0.2,0,0.3,0,0.4,0s0.3-0.1,0.4-0.1c0.1-0.1,0.2-0.2,0.2-0.3
		c0.1-0.1,0.1-0.2,0.1-0.4c0-0.2-0.1-0.3-0.2-0.5c-0.1-0.1-0.3-0.2-0.5-0.3s-0.4-0.2-0.6-0.3c-0.2-0.1-0.4-0.2-0.6-0.3
		c-0.2-0.1-0.4-0.3-0.5-0.4c-0.1-0.2-0.2-0.4-0.2-0.7c0-0.2,0-0.4,0.1-0.5c0.1-0.2,0.2-0.3,0.3-0.4c0.1-0.1,0.3-0.2,0.5-0.2
		c0.2-0.1,0.4-0.1,0.7-0.1c0.3,0,0.5,0,0.8,0.1c0.2,0,0.4,0.1,0.5,0.2l0,0l0,0l0,0l0,0v1.1h-0.4v-0.7c-0.1,0-0.2-0.1-0.4-0.1
		s-0.3,0-0.4,0c-0.2,0-0.3,0-0.4,0.1c-0.1,0-0.2,0.1-0.3,0.2c-0.1,0.1-0.2,0.1-0.2,0.2c0,0.1-0.1,0.2-0.1,0.3c0,0.2,0.1,0.3,0.2,0.5
		c0.1,0.1,0.3,0.2,0.5,0.3c0.2,0.1,0.4,0.2,0.6,0.3c0.2,0.1,0.4,0.2,0.6,0.3c0.2,0.1,0.4,0.3,0.5,0.4c0.1,0.2,0.2,0.4,0.2,0.6
		s0,0.4-0.1,0.6c-0.1,0.2-0.2,0.3-0.3,0.4c-0.1,0.1-0.3,0.2-0.5,0.3c-0.2,0.1-0.4,0.1-0.7,0.1c-0.2,0-0.3,0-0.5,0s-0.3-0.1-0.4-0.1
		s-0.3-0.1-0.4-0.1c-0.1,0-0.2-0.1-0.2-0.1l0,0v-1.1h0.3V466.6z"/>
	<path d="M-112.6,466.8h0.3l0.9-3h0.6l-1,3.1c-0.1,0.2-0.1,0.3-0.2,0.6c-0.1,0.2-0.1,0.4-0.2,0.6c-0.1,0.2-0.2,0.3-0.4,0.5
		c-0.2,0.2-0.4,0.2-0.7,0.2c-0.1,0-0.1,0-0.2,0c-0.1,0-0.1,0-0.2-0.1c-0.1-0.1-0.1,0-0.2-0.1c-0.1,0-0.1-0.1-0.1-0.1l0.2-0.5
		c0,0,0.1,0,0.1,0.1c0,0,0.1,0,0.2,0.1c0.1,0,0.1,0,0.2,0c0.1,0,0.1,0,0.1,0c0.4,0,0.6-0.3,0.7-0.9h-0.5l-1.5-3.5h0.6L-112.6,466.8z
		"/>
	<path d="M-109.9,465c0,0,0-0.1,0-0.2s0-0.1,0-0.2c0-0.1,0-0.1,0-0.2s0-0.1,0-0.2h-0.5v-0.5h0.9l0.1,0.6l0,0c0-0.1,0.1-0.2,0.2-0.2
		c0.1-0.1,0.2-0.1,0.3-0.2c0.1-0.1,0.2-0.1,0.3-0.2c0.1,0,0.3-0.1,0.4-0.1c0.2,0,0.4,0,0.6,0.1c0.2,0,0.3,0.1,0.4,0.2
		c0.1,0.1,0.2,0.3,0.2,0.5c0.1,0.2,0.1,0.5,0.1,0.8v2h-0.6v-1.9c0-0.4-0.1-0.7-0.2-0.9c-0.1-0.2-0.4-0.3-0.7-0.3
		c-0.1,0-0.2,0-0.4,0.1c-0.1,0-0.2,0.1-0.3,0.2c-0.1,0.1-0.2,0.2-0.2,0.3c-0.1,0.1-0.1,0.2-0.2,0.3v2.2h-0.5L-109.9,465L-109.9,465z
		"/>
	<path d="M-103.3,464.3c-0.1,0-0.2-0.1-0.3-0.1s-0.2,0-0.4,0c-0.5,0-0.8,0.1-1,0.3c-0.2,0.2-0.3,0.6-0.3,1c0,0.2,0,0.4,0.1,0.6
		c0.1,0.2,0.2,0.3,0.3,0.4c0.1,0.1,0.3,0.2,0.4,0.3c0.2,0.1,0.4,0.1,0.6,0.1c0.2,0,0.4,0,0.6-0.1s0.4-0.2,0.5-0.3l0.2,0.4
		c-0.1,0.1-0.1,0.1-0.2,0.2c-0.1,0.1-0.2,0.1-0.3,0.2c-0.1,0.1-0.3,0.1-0.4,0.1c-0.2,0-0.3,0-0.5,0c-0.3,0-0.6,0-0.8-0.1
		c-0.2-0.1-0.4-0.2-0.6-0.4c-0.2-0.2-0.3-0.4-0.4-0.6c-0.1-0.2-0.1-0.5-0.1-0.8s0-0.6,0.1-0.8c0.1-0.2,0.2-0.4,0.4-0.6
		s0.3-0.3,0.6-0.4c0.3-0.1,0.5-0.1,0.7-0.1c0.3,0,0.6,0,0.8,0.1c0.2,0.1,0.4,0.1,0.5,0.2l0,0v1h-0.5
		C-103.3,464.9-103.3,464.3-103.3,464.3z"/>
	<path d="M-101.2,466.6c0.1,0.1,0.3,0.1,0.5,0.2c0.2,0,0.4,0.1,0.5,0.1c0.2,0,0.3,0,0.4,0s0.3-0.1,0.4-0.1c0.1-0.1,0.2-0.2,0.2-0.3
		c0.1-0.1,0.1-0.2,0.1-0.4c0-0.2-0.1-0.3-0.2-0.5c-0.1-0.1-0.3-0.2-0.5-0.3s-0.4-0.2-0.6-0.3c-0.2-0.1-0.4-0.2-0.6-0.3
		s-0.4-0.3-0.5-0.4c-0.1-0.2-0.2-0.4-0.2-0.7c0-0.2,0-0.4,0.1-0.5c0.1-0.2,0.2-0.3,0.3-0.4c0.1-0.1,0.3-0.2,0.5-0.2
		c0.2-0.1,0.4-0.1,0.7-0.1c0.3,0,0.5,0,0.8,0.1c0.2,0,0.4,0.1,0.5,0.2l0,0l0,0l0,0l0,0v1.1h-0.5v-0.7c-0.1,0-0.2-0.1-0.4-0.1
		s-0.3,0-0.4,0c-0.2,0-0.3,0-0.4,0.1c-0.1,0-0.2,0.1-0.3,0.2c-0.1,0.1-0.2,0.1-0.2,0.2c0,0.1-0.1,0.2-0.1,0.3c0,0.2,0.1,0.3,0.2,0.5
		c0.1,0.1,0.3,0.2,0.5,0.3c0.2,0.1,0.4,0.2,0.6,0.3c0.2,0.1,0.4,0.2,0.6,0.3s0.4,0.3,0.5,0.4c0.1,0.2,0.2,0.4,0.2,0.6s0,0.4-0.1,0.6
		c-0.1,0.2-0.2,0.3-0.3,0.4c-0.1,0.1-0.3,0.2-0.5,0.3c-0.2,0.1-0.4,0.1-0.7,0.1c-0.2,0-0.3,0-0.5,0c-0.2,0-0.3-0.1-0.4-0.1
		c-0.1,0-0.3-0.1-0.4-0.1c-0.1,0-0.2-0.1-0.2-0.1l0,0v-1.1h0.5L-101.2,466.6L-101.2,466.6z"/>
	<path d="M-97.8,463.8h0.8v-0.7l0.6-0.2v0.8h1.9v0.5h-1.9v1.7c0,0.3,0.1,0.6,0.2,0.8c0.2,0.2,0.4,0.2,0.7,0.2c0.2,0,0.4,0,0.5-0.1
		c0.2-0.1,0.3-0.2,0.4-0.3l0.2,0.4c-0.2,0.1-0.4,0.2-0.6,0.3s-0.5,0.1-0.7,0.1s-0.4,0-0.5-0.1c-0.2-0.1-0.3-0.1-0.4-0.2
		c-0.1-0.1-0.2-0.3-0.3-0.4c-0.1-0.1-0.1-0.4-0.1-0.6v-1.7h-0.8C-97.8,464.3-97.8,463.8-97.8,463.8z"/>
	<path d="M-93.3,467.3v-0.5h0.9v-2.5h-0.9v-0.5h1.3l0.1,0.5l0,0c0.2-0.1,0.3-0.3,0.5-0.4s0.4-0.2,0.7-0.2c0.2,0,0.3,0,0.4,0.1
		c0.1,0.1,0.2,0.1,0.2,0.3s0.1,0.3,0.1,0.4c0,0.2,0,0.4,0,0.6h-0.5c0-0.3,0-0.5-0.1-0.7c-0.1-0.1-0.2-0.2-0.3-0.2
		c-0.1,0-0.3,0-0.4,0.1s-0.2,0.1-0.3,0.2c-0.1,0.1-0.2,0.1-0.2,0.2c-0.1,0.1-0.1,0.1-0.1,0.2v2.1h1.3v0.5h-2.7V467.3z"/>
	<path d="M-88.8,464.1c0.2-0.1,0.4-0.2,0.7-0.3s0.5-0.1,0.7-0.1s0.4,0,0.6,0.1s0.3,0.2,0.4,0.3c0.1,0.1,0.1,0.3,0.2,0.4
		c0,0.2,0,0.3,0,0.5c0,0.2,0,0.4,0,0.6s0,0.4,0,0.6c0,0.2,0,0.5,0,0.7h0.5v0.5h-0.9l-0.1-0.5l0,0c0,0-0.1,0.1-0.1,0.2
		c-0.1,0.1-0.1,0.1-0.2,0.2s-0.2,0.1-0.3,0.2c-0.1,0-0.3,0.1-0.5,0.1c-0.3,0-0.6-0.1-0.8-0.3c-0.2-0.2-0.3-0.4-0.3-0.7
		c0-0.2,0.1-0.4,0.2-0.6s0.3-0.3,0.5-0.4c0.2-0.1,0.4-0.1,0.7-0.1c0.3,0,0.6,0,0.9,0.1c0-0.2,0-0.4,0-0.5c0-0.1-0.1-0.3-0.1-0.3
		s-0.1-0.1-0.2-0.2c-0.1,0-0.2-0.1-0.4-0.1c-0.2,0-0.4,0-0.6,0.1c-0.2,0.1-0.4,0.1-0.5,0.2L-88.8,464.1z M-87.8,466.9
		c0.1,0,0.3,0,0.4-0.1c0.1,0,0.2-0.1,0.3-0.2c0.1-0.1,0.2-0.1,0.2-0.2c0.1-0.1,0.1-0.2,0.1-0.2v-0.5c-0.2,0-0.5-0.1-0.7-0.1
		s-0.4,0-0.5,0.1c-0.1,0.1-0.3,0.1-0.4,0.2s-0.1,0.2-0.1,0.4s0.1,0.3,0.2,0.4C-88.2,466.8-88.1,466.9-87.8,466.9z"/>
	<path d="M-85.2,463.8h0.8v-0.7l0.6-0.2v0.8h1.9v0.5h-1.9v1.7c0,0.3,0.1,0.6,0.2,0.8c0.2,0.2,0.4,0.2,0.7,0.2c0.2,0,0.4,0,0.5-0.1
		c0.2-0.1,0.3-0.2,0.4-0.3l0.2,0.4c-0.2,0.1-0.4,0.2-0.6,0.3s-0.5,0.1-0.7,0.1s-0.4,0-0.5-0.1c-0.2-0.1-0.3-0.1-0.4-0.2
		c-0.1-0.1-0.2-0.3-0.3-0.4c-0.1-0.1-0.1-0.4-0.1-0.6v-1.7h-0.8C-85.2,464.3-85.2,463.8-85.2,463.8z"/>
	<path d="M-77.5,466.9c-0.1,0.1-0.2,0.1-0.3,0.2c-0.1,0.1-0.2,0.1-0.4,0.2c-0.1,0-0.3,0.1-0.4,0.1s-0.3,0-0.4,0
		c-0.3,0-0.5,0-0.7-0.1s-0.4-0.2-0.5-0.4s-0.3-0.4-0.3-0.6c-0.1-0.2-0.1-0.5-0.1-0.8c0-0.3,0-0.6,0.1-0.8s0.2-0.4,0.4-0.6
		c0.2-0.2,0.3-0.3,0.6-0.4s0.5-0.1,0.7-0.1s0.4,0,0.6,0.1s0.4,0.1,0.5,0.3c0.1,0.1,0.3,0.3,0.3,0.6c0.1,0.2,0.1,0.6,0.1,1H-80
		c0,0.4,0.1,0.7,0.3,0.9c0.2,0.2,0.5,0.3,0.9,0.3c0.1,0,0.2,0,0.4,0c0.1,0,0.2-0.1,0.4-0.1s0.2-0.1,0.3-0.1c0.1-0.1,0.2-0.1,0.2-0.1
		V466.9z M-79,464.2c-0.2,0-0.3,0-0.4,0s-0.3,0.1-0.4,0.2c-0.1,0.1-0.2,0.2-0.3,0.3s-0.1,0.3-0.1,0.5h2.2c0-0.3-0.1-0.5-0.3-0.7
		C-78.5,464.3-78.7,464.2-79,464.2z"/>
	<path d="M-73.3,467.5c0,0.2,0,0.4-0.1,0.6s-0.2,0.3-0.3,0.4c-0.1,0.1-0.3,0.2-0.5,0.2c-0.2,0.1-0.4,0.1-0.6,0.1
		c-0.3,0-0.5,0-0.7-0.1s-0.4-0.1-0.5-0.2l0.3-0.5c0,0,0.1,0.1,0.2,0.1s0.1,0.1,0.2,0.1s0.2,0.1,0.3,0.1c0.1,0,0.2,0,0.3,0
		c0.2,0,0.4,0,0.5-0.1c0.1,0,0.2-0.1,0.3-0.2c0.1-0.1,0.1-0.2,0.2-0.3c0.1-0.1,0.1-0.3,0.1-0.5v-0.4l0,0c-0.1,0.2-0.2,0.3-0.4,0.4
		c-0.2,0.1-0.4,0.1-0.6,0.1c-0.5,0-0.9-0.1-1.2-0.4s-0.4-0.8-0.4-1.4c0-0.6,0.2-1,0.5-1.4c0.3-0.4,0.8-0.5,1.4-0.5
		c0.3,0,0.5,0,0.7,0.1c0.2,0,0.4,0.1,0.6,0.2v3.6H-73.3z M-74.9,466.9c0.3,0,0.5-0.1,0.7-0.2c0.2-0.1,0.3-0.4,0.3-0.7v-1.7
		c-0.2-0.1-0.5-0.1-0.9-0.1s-0.7,0.1-0.9,0.3c-0.2,0.2-0.3,0.6-0.3,1c0,0.2,0,0.4,0.1,0.5c0,0.2,0.1,0.3,0.2,0.4s0.2,0.2,0.3,0.3
		C-75.3,466.9-75.1,466.9-74.9,466.9z"/>
	<path d="M-70.6,466.8h0.3l0.9-3h0.6l-1,3.1c-0.1,0.2-0.1,0.3-0.2,0.6c-0.1,0.2-0.1,0.4-0.2,0.6c-0.1,0.2-0.2,0.3-0.4,0.5
		s-0.4,0.2-0.7,0.2c-0.1,0-0.1,0-0.2,0s-0.1,0-0.2-0.1c-0.1-0.1-0.1,0-0.2-0.1c-0.1,0-0.1-0.1-0.1-0.1l0.2-0.5c0,0,0.1,0,0.1,0.1
		c0,0,0.1,0,0.2,0.1c0.1,0,0.1,0,0.2,0s0.1,0,0.1,0c0.4,0,0.6-0.3,0.7-0.9H-71l-1.5-3.5h0.6L-70.6,466.8z"/>
</g>
<g>
	<path d="M-135.8,442.9c-0.1,0-0.2-0.1-0.3-0.1c-0.1,0-0.2,0-0.3,0c-0.2,0-0.4,0-0.6,0.1s-0.3,0.2-0.5,0.3c-0.1,0.2-0.3,0.4-0.3,0.6
		c-0.1,0.3-0.1,0.6-0.1,0.9s0,0.6,0.1,0.9c0.1,0.3,0.2,0.5,0.3,0.6c0.1,0.1,0.3,0.3,0.5,0.4c0.2,0.1,0.4,0.1,0.6,0.1
		c0.1,0,0.2,0,0.3,0c0.1,0,0.2-0.1,0.3-0.1v-0.7h0.5v0.9l0,0c-0.1,0.1-0.3,0.2-0.5,0.3c-0.2,0.1-0.5,0.1-0.8,0.1
		c-0.3,0-0.6-0.1-0.8-0.2c-0.2-0.1-0.5-0.3-0.6-0.5c-0.2-0.2-0.3-0.5-0.4-0.8c-0.1-0.3-0.2-0.7-0.2-1.1c0-0.5,0.1-0.8,0.2-1.2
		c0.1-0.3,0.3-0.6,0.5-0.8c0.2-0.2,0.4-0.4,0.7-0.4c0.3-0.1,0.5-0.1,0.8-0.1c0.2,0,0.3,0,0.4,0s0.2,0,0.3,0c0.1,0,0.2,0,0.2,0.1
		c0.1,0,0.1,0.1,0.2,0.1l0,0v1.1h-0.5C-135.8,443.4-135.8,442.9-135.8,442.9z"/>
	<path d="M-134,442.4h1.2v3.7c0,0.3,0,0.5,0.1,0.6c0.1,0.1,0.2,0.2,0.4,0.2c0.1,0,0.3,0,0.4-0.1c0.1,0,0.3-0.1,0.4-0.2l0.3,0.4
		c-0.1,0.1-0.2,0.1-0.2,0.2s-0.2,0.1-0.3,0.1s-0.2,0.1-0.3,0.1c-0.1,0-0.2,0-0.3,0c-0.2,0-0.3,0-0.5-0.1c-0.2-0.1-0.2-0.1-0.3-0.2
		c-0.1-0.1-0.2-0.2-0.2-0.4c0-0.2-0.1-0.4-0.1-0.6v-3.3h-0.6V442.4z"/>
	<path d="M-129.9,447.3v-0.5h1.2v-2.5h-1.2v-0.5h1.8v3h1.2v0.5H-129.9z M-128.8,442.8c0-0.1,0-0.2,0.1-0.3c0.1-0.1,0.2-0.1,0.3-0.1
		c0.1,0,0.2,0,0.3,0.1c0.1,0.1,0.1,0.2,0.1,0.3s0,0.2-0.1,0.3c-0.1,0.1-0.2,0.1-0.3,0.1c-0.1,0-0.2,0-0.3-0.1
		C-128.8,443-128.8,442.9-128.8,442.8z"/>
	<path d="M-122.7,446.9c-0.1,0.1-0.2,0.1-0.3,0.2c-0.1,0.1-0.2,0.1-0.4,0.2c-0.1,0-0.3,0.1-0.4,0.1c-0.1,0-0.3,0-0.4,0
		c-0.3,0-0.5,0-0.7-0.1c-0.2-0.1-0.4-0.2-0.5-0.4c-0.1-0.2-0.3-0.4-0.3-0.6c-0.1-0.2-0.1-0.5-0.1-0.8c0-0.3,0-0.6,0.1-0.8
		s0.2-0.4,0.4-0.6s0.3-0.3,0.6-0.4s0.5-0.1,0.7-0.1c0.2,0,0.4,0,0.6,0.1s0.4,0.1,0.5,0.3c0.1,0.1,0.3,0.3,0.3,0.6
		c0.1,0.2,0.1,0.6,0.1,1h-2.7c0,0.4,0.1,0.7,0.3,0.9c0.2,0.2,0.5,0.3,0.9,0.3c0.1,0,0.2,0,0.4,0c0.1,0,0.2-0.1,0.4-0.1
		s0.2-0.1,0.3-0.1c0.1-0.1,0.2-0.1,0.2-0.1L-122.7,446.9z M-124.2,444.2c-0.2,0-0.3,0-0.4,0c-0.1,0-0.3,0.1-0.4,0.2
		c-0.1,0.1-0.2,0.2-0.3,0.3s-0.1,0.3-0.1,0.5h2.2c0-0.3-0.1-0.5-0.3-0.7C-123.7,444.3-123.9,444.2-124.2,444.2z"/>
	<path d="M-121.5,445c0,0,0-0.1,0-0.2s0-0.1,0-0.2c0-0.1,0-0.1,0-0.2s0-0.1,0-0.2h-0.5v-0.5h0.9l0.1,0.6l0,0c0-0.1,0.1-0.2,0.2-0.2
		c0.1-0.1,0.2-0.1,0.3-0.2c0.1-0.1,0.2-0.1,0.3-0.2c0.1,0,0.3-0.1,0.4-0.1c0.2,0,0.4,0,0.6,0.1c0.2,0,0.3,0.1,0.4,0.2
		c0.1,0.1,0.2,0.3,0.2,0.5c0.1,0.2,0.1,0.5,0.1,0.8v2h-0.6v-1.9c0-0.4-0.1-0.7-0.2-0.9c-0.1-0.2-0.4-0.3-0.7-0.3
		c-0.1,0-0.2,0-0.4,0.1c-0.1,0-0.2,0.1-0.3,0.2c-0.1,0.1-0.2,0.2-0.2,0.3c-0.1,0.1-0.1,0.2-0.2,0.3v2.2h-0.5V445H-121.5z"/>
	<path d="M-117.8,443.8h0.8v-0.7l0.6-0.2v0.8h1.9v0.5h-1.9v1.7c0,0.3,0.1,0.6,0.2,0.8c0.2,0.2,0.4,0.2,0.7,0.2c0.2,0,0.4,0,0.5-0.1
		c0.2-0.1,0.3-0.2,0.4-0.3l0.2,0.4c-0.2,0.1-0.4,0.2-0.6,0.3s-0.5,0.1-0.7,0.1s-0.4,0-0.5-0.1c-0.2-0.1-0.3-0.1-0.4-0.2
		c-0.1-0.1-0.2-0.3-0.3-0.4c-0.1-0.1-0.1-0.4-0.1-0.6v-1.7h-0.8C-117.8,444.3-117.8,443.8-117.8,443.8z"/>
	<path d="M-113.1,442.4h2.9v0.5h-2.3v1.6h2.1v0.5h-2.1v1.7h2.3v0.5h-2.9V442.4z"/>
	<path d="M-108.9,445c0,0,0-0.1,0-0.2s0-0.1,0-0.2c0-0.1,0-0.1,0-0.2s0-0.1,0-0.2h-0.5v-0.5h0.9l0.1,0.6l0,0c0-0.1,0.1-0.2,0.2-0.2
		c0.1-0.1,0.2-0.1,0.3-0.2c0.1-0.1,0.2-0.1,0.3-0.2c0.1,0,0.3-0.1,0.4-0.1c0.2,0,0.4,0,0.6,0.1c0.2,0,0.3,0.1,0.4,0.2
		c0.1,0.1,0.2,0.3,0.2,0.5c0.1,0.2,0.1,0.5,0.1,0.8v2h-0.6v-1.9c0-0.4-0.1-0.7-0.2-0.9c-0.1-0.2-0.4-0.3-0.7-0.3
		c-0.1,0-0.2,0-0.4,0.1c-0.1,0-0.2,0.1-0.3,0.2c-0.1,0.1-0.2,0.2-0.2,0.3c-0.1,0.1-0.1,0.2-0.2,0.3v2.2h-0.5L-108.9,445L-108.9,445z
		"/>
	<path d="M-101.7,447.5c0,0.2,0,0.4-0.1,0.6c-0.1,0.2-0.2,0.3-0.3,0.4c-0.1,0.1-0.3,0.2-0.5,0.2c-0.2,0.1-0.4,0.1-0.6,0.1
		c-0.3,0-0.5,0-0.7-0.1c-0.2-0.1-0.4-0.1-0.5-0.2l0.3-0.5c0,0,0.1,0.1,0.2,0.1c0.1,0,0.1,0.1,0.2,0.1s0.2,0.1,0.3,0.1
		c0.1,0,0.2,0,0.3,0c0.2,0,0.4,0,0.5-0.1c0.1,0,0.2-0.1,0.3-0.2c0.1-0.1,0.1-0.2,0.2-0.3c0.1-0.1,0.1-0.3,0.1-0.5v-0.4l0,0
		c-0.1,0.2-0.2,0.3-0.4,0.4c-0.2,0.1-0.4,0.1-0.6,0.1c-0.5,0-0.9-0.1-1.2-0.4c-0.3-0.3-0.4-0.8-0.4-1.4c0-0.6,0.2-1,0.5-1.4
		c0.3-0.4,0.8-0.5,1.4-0.5c0.3,0,0.5,0,0.7,0.1c0.2,0,0.4,0.1,0.6,0.2v3.6H-101.7z M-103.3,446.9c0.3,0,0.5-0.1,0.7-0.2
		c0.2-0.1,0.3-0.4,0.3-0.7v-1.7c-0.2-0.1-0.5-0.1-0.9-0.1c-0.4,0-0.7,0.1-0.9,0.3c-0.2,0.2-0.3,0.6-0.3,1c0,0.2,0,0.4,0.1,0.5
		c0,0.2,0.1,0.3,0.2,0.4c0.1,0.1,0.2,0.2,0.3,0.3C-103.7,446.9-103.5,446.9-103.3,446.9z"/>
	<path d="M-100.5,447.3v-0.5h1.2v-2.5h-1.2v-0.5h1.8v3h1.2v0.5H-100.5z M-99.4,442.8c0-0.1,0-0.2,0.1-0.3c0.1-0.1,0.2-0.1,0.3-0.1
		c0.1,0,0.2,0,0.3,0.1c0.1,0.1,0.1,0.2,0.1,0.3s0,0.2-0.1,0.3c-0.1,0.1-0.2,0.1-0.3,0.1c-0.1,0-0.2,0-0.3-0.1
		C-99.4,443-99.4,442.9-99.4,442.8z"/>
	<path d="M-96.3,445c0,0,0-0.1,0-0.2s0-0.1,0-0.2c0-0.1,0-0.1,0-0.2s0-0.1,0-0.2h-0.5v-0.5h0.9l0.1,0.6l0,0c0-0.1,0.1-0.2,0.2-0.2
		c0.1-0.1,0.2-0.1,0.3-0.2c0.1-0.1,0.2-0.1,0.3-0.2c0.1,0,0.3-0.1,0.4-0.1c0.2,0,0.4,0,0.6,0.1c0.2,0,0.3,0.1,0.4,0.2
		c0.1,0.1,0.2,0.3,0.2,0.5c0.1,0.2,0.1,0.5,0.1,0.8v2h-0.6v-1.9c0-0.4-0.1-0.7-0.2-0.9s-0.4-0.3-0.7-0.3c-0.1,0-0.2,0-0.4,0.1
		c-0.1,0-0.2,0.1-0.3,0.2c-0.1,0.1-0.2,0.2-0.2,0.3c-0.1,0.1-0.1,0.2-0.2,0.3v2.2h-0.5L-96.3,445L-96.3,445z"/>
	<path d="M-89.1,446.9c-0.1,0.1-0.2,0.1-0.3,0.2c-0.1,0.1-0.2,0.1-0.4,0.2c-0.1,0-0.3,0.1-0.4,0.1s-0.3,0-0.4,0
		c-0.3,0-0.5,0-0.7-0.1s-0.4-0.2-0.5-0.4s-0.3-0.4-0.3-0.6c-0.1-0.2-0.1-0.5-0.1-0.8c0-0.3,0-0.6,0.1-0.8s0.2-0.4,0.4-0.6
		c0.2-0.2,0.3-0.3,0.6-0.4s0.5-0.1,0.7-0.1s0.4,0,0.6,0.1s0.4,0.1,0.5,0.3c0.1,0.1,0.3,0.3,0.3,0.6c0.1,0.2,0.1,0.6,0.1,1h-2.7
		c0,0.4,0.1,0.7,0.3,0.9c0.2,0.2,0.5,0.3,0.9,0.3c0.1,0,0.2,0,0.4,0c0.1,0,0.2-0.1,0.4-0.1s0.2-0.1,0.3-0.1c0.1-0.1,0.2-0.1,0.2-0.1
		V446.9z M-90.6,444.2c-0.2,0-0.3,0-0.4,0s-0.3,0.1-0.4,0.2c-0.1,0.1-0.2,0.2-0.3,0.3s-0.1,0.3-0.1,0.5h2.2c0-0.3-0.1-0.5-0.3-0.7
		C-90.1,444.3-90.3,444.2-90.6,444.2z"/>
</g>
<g>
	<path d="M4.1,462.9c-0.2,0-0.4,0-0.6,0c-0.2,0-0.4,0-0.6,0.1c-0.2,0.1-0.3,0.2-0.5,0.3c-0.2,0.1-0.2,0.4-0.3,0.6
		c-0.1,0.3-0.1,0.6-0.1,1c0,0.7,0.1,1.2,0.4,1.5c0.3,0.3,0.6,0.5,1.1,0.5c0.3,0,0.6-0.1,0.8-0.2v-1.4h-1v-0.5h1.5v2.2
		c-0.1,0.1-0.2,0.1-0.3,0.2c-0.1,0-0.2,0.1-0.3,0.1s-0.2,0.1-0.4,0.1c-0.1,0-0.3,0-0.4,0c-0.3,0-0.6-0.1-0.8-0.2
		c-0.2-0.1-0.5-0.3-0.6-0.5c-0.2-0.2-0.3-0.5-0.4-0.8c-0.1-0.3-0.1-0.7-0.1-1.1c0-0.5,0.1-0.8,0.2-1.2c0.1-0.3,0.3-0.6,0.5-0.8
		s0.4-0.4,0.7-0.4c0.2-0.1,0.5-0.1,0.8-0.1s0.5,0,0.7,0s0.3,0.1,0.5,0.1l0,0v1.2H4.4v-0.7H4.1z"/>
	<path d="M6,464.1c0.2-0.1,0.4-0.2,0.7-0.3s0.5-0.1,0.7-0.1s0.4,0,0.6,0.1c0.2,0.1,0.3,0.2,0.4,0.3c0.1,0.1,0.1,0.3,0.2,0.4
		c0,0.2,0,0.3,0,0.5c0,0.2,0,0.4,0,0.6s0,0.4,0,0.6c0,0.2,0,0.5,0,0.7h0.5v0.5H8.2l-0.1-0.5l0,0c0,0-0.1,0.1-0.1,0.2
		c-0.1,0.1-0.1,0.1-0.2,0.2s-0.2,0.1-0.3,0.2c-0.1,0-0.3,0.1-0.5,0.1c-0.3,0-0.6-0.1-0.8-0.3s-0.3-0.4-0.3-0.7
		c0-0.2,0.1-0.4,0.2-0.6c0.1-0.2,0.3-0.3,0.5-0.4c0.2-0.1,0.4-0.1,0.7-0.1s0.6,0,0.9,0.1c0-0.2,0-0.4,0-0.5c0-0.1-0.1-0.3-0.1-0.3
		s-0.1-0.1-0.2-0.2c-0.1,0-0.2-0.1-0.4-0.1s-0.4,0-0.6,0.1c-0.2,0.1-0.4,0.1-0.5,0.2L6,464.1z M7,466.9c0.1,0,0.3,0,0.4-0.1
		c0.1,0,0.2-0.1,0.3-0.2c0.1-0.1,0.2-0.1,0.2-0.2c0.1-0.1,0.1-0.2,0.1-0.2v-0.5c-0.2,0-0.5-0.1-0.7-0.1s-0.4,0-0.5,0.1
		c-0.1,0.1-0.3,0.1-0.4,0.2c-0.1,0.1-0.1,0.2-0.1,0.4s0.1,0.3,0.2,0.4C6.6,466.8,6.7,466.9,7,466.9z"/>
	<path d="M11.2,467.3V465c0-0.1,0-0.2,0-0.3s0-0.2,0-0.2c0-0.1-0.1-0.1-0.1-0.2c0,0-0.1-0.1-0.2-0.1c-0.2,0-0.3,0.1-0.4,0.2
		c-0.1,0.1-0.2,0.3-0.2,0.5v2.4H9.8v-3.5h0.4l0.1,0.4l0,0c0-0.1,0.1-0.1,0.1-0.2s0.1-0.1,0.2-0.2c0.1,0,0.1-0.1,0.2-0.1
		c0.1,0,0.2,0,0.3,0s0.1,0,0.2,0s0.1,0.1,0.2,0.1s0.1,0.1,0.2,0.2c0,0.1,0.1,0.2,0.1,0.3c0.1-0.2,0.2-0.3,0.4-0.4
		c0.1-0.1,0.3-0.2,0.5-0.2s0.3,0,0.4,0.1s0.2,0.1,0.2,0.2c0,0.1,0.1,0.2,0.1,0.3s0,0.3,0,0.4v2.5h-0.5v-2.4c0-0.1,0-0.2,0-0.3
		c0-0.1,0-0.2-0.1-0.2s-0.1-0.1-0.1-0.2c0,0-0.1-0.1-0.2-0.1c-0.2,0-0.3,0.1-0.4,0.2c-0.1,0.1-0.2,0.3-0.3,0.6v2.3h-0.6V467.3z"/>
	<path d="M17.3,466.9c-0.1,0.1-0.2,0.1-0.3,0.2c-0.1,0.1-0.2,0.1-0.4,0.2c-0.1,0-0.3,0.1-0.4,0.1c-0.1,0-0.3,0-0.4,0
		c-0.3,0-0.5,0-0.7-0.1s-0.4-0.2-0.5-0.4s-0.3-0.4-0.3-0.6c-0.1-0.2-0.1-0.5-0.1-0.8c0-0.3,0-0.6,0.1-0.8s0.2-0.4,0.4-0.6
		s0.3-0.3,0.6-0.4s0.5-0.1,0.7-0.1s0.4,0,0.6,0.1s0.4,0.1,0.5,0.3c0.1,0.1,0.3,0.3,0.3,0.6c0.1,0.2,0.1,0.6,0.1,1h-2.7
		c0,0.4,0.1,0.7,0.3,0.9c0.2,0.2,0.5,0.3,0.9,0.3c0.1,0,0.2,0,0.4,0c0.1,0,0.2-0.1,0.4-0.1s0.2-0.1,0.3-0.1c0.1-0.1,0.2-0.1,0.2-0.1
		L17.3,466.9z M15.8,464.2c-0.2,0-0.3,0-0.4,0c-0.1,0-0.3,0.1-0.4,0.2c-0.1,0.1-0.2,0.2-0.3,0.3s-0.1,0.3-0.1,0.5h2.2
		c0-0.3-0.1-0.5-0.3-0.7C16.3,464.3,16.1,464.2,15.8,464.2z"/>
	<path d="M18.5,462.4h2.9v0.5h-2.3v1.6h2.1v0.5h-2.1v1.7h2.3v0.5h-2.9V462.4z"/>
	<path d="M22.7,465c0,0,0-0.1,0-0.2s0-0.1,0-0.2c0-0.1,0-0.1,0-0.2s0-0.1,0-0.2h-0.5v-0.5h0.9l0.1,0.6l0,0c0-0.1,0.1-0.2,0.2-0.2
		c0.1-0.1,0.2-0.1,0.3-0.2c0.1-0.1,0.2-0.1,0.3-0.2c0.1,0,0.3-0.1,0.4-0.1c0.2,0,0.4,0,0.6,0.1c0.2,0,0.3,0.1,0.4,0.2
		c0.1,0.1,0.2,0.3,0.2,0.5c0.1,0.2,0.1,0.5,0.1,0.8v2h-0.6v-1.9c0-0.4-0.1-0.7-0.2-0.9c-0.1-0.2-0.4-0.3-0.7-0.3
		c-0.1,0-0.2,0-0.4,0.1c-0.1,0-0.2,0.1-0.3,0.2c-0.1,0.1-0.2,0.2-0.2,0.3c-0.1,0.1-0.1,0.2-0.2,0.3v2.2h-0.5L22.7,465L22.7,465z"/>
	<path d="M29.9,467.5c0,0.2,0,0.4-0.1,0.6s-0.2,0.3-0.3,0.4c-0.1,0.1-0.3,0.2-0.5,0.2c-0.2,0.1-0.4,0.1-0.6,0.1
		c-0.3,0-0.5,0-0.7-0.1s-0.4-0.1-0.5-0.2l0.3-0.5c0,0,0.1,0.1,0.2,0.1s0.1,0.1,0.2,0.1s0.2,0.1,0.3,0.1s0.2,0,0.3,0
		c0.2,0,0.4,0,0.5-0.1c0.1,0,0.2-0.1,0.3-0.2c0.1-0.1,0.1-0.2,0.2-0.3c0.1-0.1,0.1-0.3,0.1-0.5v-0.4l0,0c-0.1,0.2-0.2,0.3-0.4,0.4
		c-0.2,0.1-0.4,0.1-0.6,0.1c-0.5,0-0.9-0.1-1.2-0.4s-0.4-0.8-0.4-1.4c0-0.6,0.2-1,0.5-1.4c0.3-0.4,0.8-0.5,1.4-0.5
		c0.3,0,0.5,0,0.7,0.1c0.2,0,0.4,0.1,0.6,0.2v3.6H29.9z M28.3,466.9c0.3,0,0.5-0.1,0.7-0.2c0.2-0.1,0.3-0.4,0.3-0.7v-1.7
		c-0.2-0.1-0.5-0.1-0.9-0.1s-0.7,0.1-0.9,0.3s-0.3,0.6-0.3,1c0,0.2,0,0.4,0.1,0.5c0,0.2,0.1,0.3,0.2,0.4c0.1,0.1,0.2,0.2,0.3,0.3
		C27.9,466.9,28.1,466.9,28.3,466.9z"/>
	<path d="M31.1,467.3v-0.5h1.2v-2.5h-1.2v-0.5h1.8v3h1.2v0.5H31.1z M32.2,462.8c0-0.1,0-0.2,0.1-0.3c0.1-0.1,0.2-0.1,0.3-0.1
		s0.2,0,0.3,0.1c0.1,0.1,0.1,0.2,0.1,0.3s0,0.2-0.1,0.3c-0.1,0.1-0.2,0.1-0.3,0.1s-0.2,0-0.3-0.1C32.2,463,32.2,462.9,32.2,462.8z"
		/>
	<path d="M35.3,465c0,0,0-0.1,0-0.2s0-0.1,0-0.2c0-0.1,0-0.1,0-0.2s0-0.1,0-0.2h-0.5v-0.5h0.9l0.1,0.6l0,0c0-0.1,0.1-0.2,0.2-0.2
		c0.1-0.1,0.2-0.1,0.3-0.2c0.1-0.1,0.2-0.1,0.3-0.2c0.1,0,0.3-0.1,0.4-0.1c0.2,0,0.4,0,0.6,0.1c0.2,0,0.3,0.1,0.4,0.2
		c0.1,0.1,0.2,0.3,0.2,0.5c0.1,0.2,0.1,0.5,0.1,0.8v2h-0.6v-1.9c0-0.4-0.1-0.7-0.2-0.9c-0.1-0.2-0.4-0.3-0.7-0.3
		c-0.1,0-0.2,0-0.4,0.1c-0.1,0-0.2,0.1-0.3,0.2c-0.1,0.1-0.2,0.2-0.2,0.3c-0.1,0.1-0.1,0.2-0.2,0.3v2.2h-0.5L35.3,465L35.3,465z"/>
	<path d="M42.5,466.9c-0.1,0.1-0.2,0.1-0.3,0.2c-0.1,0.1-0.2,0.1-0.4,0.2c-0.1,0-0.3,0.1-0.4,0.1c-0.1,0-0.3,0-0.4,0
		c-0.3,0-0.5,0-0.7-0.1s-0.4-0.2-0.5-0.4s-0.3-0.4-0.3-0.6c-0.1-0.2-0.1-0.5-0.1-0.8c0-0.3,0-0.6,0.1-0.8s0.2-0.4,0.4-0.6
		s0.3-0.3,0.6-0.4s0.5-0.1,0.7-0.1s0.4,0,0.6,0.1s0.4,0.1,0.5,0.3c0.1,0.1,0.3,0.3,0.3,0.6c0.1,0.2,0.1,0.6,0.1,1H40
		c0,0.4,0.1,0.7,0.3,0.9c0.2,0.2,0.5,0.3,0.9,0.3c0.1,0,0.2,0,0.4,0c0.1,0,0.2-0.1,0.4-0.1s0.2-0.1,0.3-0.1c0.1-0.1,0.2-0.1,0.2-0.1
		L42.5,466.9z M41,464.2c-0.2,0-0.3,0-0.4,0c-0.1,0-0.3,0.1-0.4,0.2c-0.1,0.1-0.2,0.2-0.3,0.3s-0.1,0.3-0.1,0.5H42
		c0-0.3-0.1-0.5-0.3-0.7C41.5,464.3,41.3,464.2,41,464.2z"/>
</g>
<g>
	<path d="M24.1,482.9c-0.2,0-0.4,0-0.6,0c-0.2,0-0.4,0-0.6,0.1c-0.2,0.1-0.3,0.2-0.5,0.3s-0.2,0.4-0.3,0.6c-0.1,0.3-0.1,0.6-0.1,1
		c0,0.7,0.1,1.2,0.4,1.5c0.3,0.3,0.6,0.5,1.1,0.5c0.3,0,0.6-0.1,0.8-0.2v-1.4h-1v-0.5h1.5v2.2c-0.1,0.1-0.2,0.1-0.3,0.2
		c-0.1,0-0.2,0.1-0.3,0.1s-0.2,0.1-0.4,0.1c-0.1,0-0.3,0-0.4,0c-0.3,0-0.6-0.1-0.8-0.2s-0.5-0.3-0.6-0.5c-0.2-0.2-0.3-0.5-0.4-0.8
		c-0.1-0.3-0.1-0.7-0.1-1.1c0-0.5,0.1-0.8,0.2-1.2c0.1-0.3,0.3-0.6,0.5-0.8c0.2-0.2,0.4-0.4,0.7-0.4c0.2-0.1,0.5-0.1,0.8-0.1
		s0.5,0,0.7,0s0.3,0.1,0.5,0.1l0,0v1.2h-0.5v-0.7H24.1z"/>
	<path d="M26,484.1c0.2-0.1,0.4-0.2,0.7-0.3s0.5-0.1,0.7-0.1s0.4,0,0.6,0.1c0.2,0.1,0.3,0.2,0.4,0.3c0.1,0.1,0.1,0.3,0.2,0.4
		c0,0.2,0,0.3,0,0.5s0,0.4,0,0.6s0,0.4,0,0.6s0,0.5,0,0.7h0.5v0.5h-0.9l-0.1-0.5l0,0c0,0-0.1,0.1-0.1,0.2c-0.1,0.1-0.1,0.1-0.2,0.2
		s-0.2,0.1-0.3,0.2c-0.1,0-0.3,0.1-0.5,0.1c-0.3,0-0.6-0.1-0.8-0.3c-0.2-0.2-0.3-0.4-0.3-0.7c0-0.2,0.1-0.4,0.2-0.6
		c0.1-0.2,0.3-0.3,0.5-0.4s0.4-0.1,0.7-0.1s0.6,0,0.9,0.1c0-0.2,0-0.4,0-0.5s-0.1-0.3-0.1-0.3s-0.1-0.1-0.2-0.2
		c-0.1,0-0.2-0.1-0.4-0.1s-0.4,0-0.6,0.1c-0.2,0.1-0.4,0.1-0.5,0.2L26,484.1z M27,486.9c0.1,0,0.3,0,0.4-0.1c0.1,0,0.2-0.1,0.3-0.2
		s0.2-0.1,0.2-0.2c0.1-0.1,0.1-0.2,0.1-0.2v-0.5c-0.2,0-0.5-0.1-0.7-0.1s-0.4,0-0.5,0.1s-0.3,0.1-0.4,0.2c-0.1,0.1-0.1,0.2-0.1,0.4
		c0,0.2,0.1,0.3,0.2,0.4C26.6,486.8,26.7,486.9,27,486.9z"/>
	<path d="M31.2,487.3V485c0-0.1,0-0.2,0-0.3c0-0.1,0-0.2,0-0.2c0-0.1-0.1-0.1-0.1-0.2c0,0-0.1-0.1-0.2-0.1c-0.2,0-0.3,0.1-0.4,0.2
		c-0.1,0.1-0.2,0.3-0.2,0.5v2.4h-0.5v-3.5h0.4l0.1,0.4l0,0c0-0.1,0.1-0.1,0.1-0.2s0.1-0.1,0.2-0.2c0.1,0,0.1-0.1,0.2-0.1
		c0.1,0,0.2,0,0.3,0s0.1,0,0.2,0s0.1,0.1,0.2,0.1s0.1,0.1,0.2,0.2c0,0.1,0.1,0.2,0.1,0.3c0.1-0.2,0.2-0.3,0.4-0.4
		c0.1-0.1,0.3-0.2,0.5-0.2s0.3,0,0.4,0.1s0.2,0.1,0.2,0.2s0.1,0.2,0.1,0.3c0,0.1,0,0.3,0,0.4v2.5h-0.5v-2.4c0-0.1,0-0.2,0-0.3
		c0-0.1,0-0.2-0.1-0.2s-0.1-0.1-0.1-0.2c0,0-0.1-0.1-0.2-0.1c-0.2,0-0.3,0.1-0.4,0.2c-0.1,0.1-0.2,0.3-0.3,0.6v2.3h-0.6V487.3z"/>
	<path d="M37.3,486.9c-0.1,0.1-0.2,0.1-0.3,0.2s-0.2,0.1-0.4,0.2c-0.1,0-0.3,0.1-0.4,0.1c-0.1,0-0.3,0-0.4,0c-0.3,0-0.5,0-0.7-0.1
		s-0.4-0.2-0.5-0.4s-0.3-0.4-0.3-0.6c-0.1-0.2-0.1-0.5-0.1-0.8s0-0.6,0.1-0.8c0.1-0.2,0.2-0.4,0.4-0.6s0.3-0.3,0.6-0.4
		s0.5-0.1,0.7-0.1s0.4,0,0.6,0.1s0.4,0.1,0.5,0.3c0.1,0.1,0.3,0.3,0.3,0.6c0.1,0.2,0.1,0.6,0.1,1h-2.7c0,0.4,0.1,0.7,0.3,0.9
		c0.2,0.2,0.5,0.3,0.9,0.3c0.1,0,0.2,0,0.4,0c0.1,0,0.2-0.1,0.4-0.1s0.2-0.1,0.3-0.1c0.1-0.1,0.2-0.1,0.2-0.1L37.3,486.9z
		 M35.8,484.2c-0.2,0-0.3,0-0.4,0c-0.1,0-0.3,0.1-0.4,0.2c-0.1,0.1-0.2,0.2-0.3,0.3s-0.1,0.3-0.1,0.5h2.2c0-0.3-0.1-0.5-0.3-0.7
		C36.3,484.3,36.1,484.2,35.8,484.2z"/>
	<path d="M39,485.9v0.5l0,0l0.1-0.5l0.5-1.9h0.5l0.5,1.9l0.1,0.5l0,0v-0.5l0.5-3.5h0.5l-0.8,4.9h-0.6l-0.6-2l-0.1-0.5l0,0l-0.1,0.5
		l-0.6,2h-0.6l-0.8-4.9h0.6L39,485.9z"/>
	<path d="M42.4,485.5c0-0.6,0.1-1,0.4-1.3c0.3-0.3,0.7-0.5,1.3-0.5c0.3,0,0.5,0,0.8,0.1s0.4,0.2,0.5,0.4c0.1,0.2,0.2,0.4,0.3,0.6
		s0.1,0.5,0.1,0.7c0,0.3,0,0.5-0.1,0.8c-0.1,0.2-0.2,0.4-0.3,0.6s-0.3,0.3-0.5,0.4s-0.5,0.1-0.7,0.1c-0.3,0-0.5,0-0.8-0.1
		c-0.2-0.1-0.4-0.2-0.5-0.4c-0.1-0.2-0.2-0.4-0.3-0.6C42.4,486,42.4,485.8,42.4,485.5z M43,485.5c0,0.2,0,0.3,0.1,0.5
		c0,0.2,0.1,0.3,0.2,0.4c0.1,0.1,0.2,0.2,0.3,0.3c0.1,0.1,0.3,0.1,0.5,0.1c0.4,0,0.7-0.1,0.8-0.3c0.2-0.2,0.3-0.6,0.3-1
		c0-0.2,0-0.3-0.1-0.5c0-0.2-0.1-0.3-0.2-0.4c-0.1-0.1-0.2-0.2-0.3-0.3c-0.1-0.1-0.3-0.1-0.5-0.1c-0.4,0-0.7,0.1-0.8,0.3
		C43.1,484.8,43,485.1,43,485.5z"/>
	<path d="M46.7,487.3v-0.5h0.9v-2.5h-0.9v-0.5H48l0.1,0.5l0,0c0.2-0.1,0.3-0.3,0.5-0.4s0.4-0.2,0.7-0.2c0.2,0,0.3,0,0.4,0.1
		c0.1,0.1,0.2,0.1,0.2,0.3s0.1,0.3,0.1,0.4c0,0.2,0,0.4,0,0.6h-0.5c0-0.3,0-0.5-0.1-0.7c-0.1-0.1-0.2-0.2-0.3-0.2s-0.3,0-0.4,0.1
		s-0.2,0.1-0.3,0.2s-0.2,0.1-0.2,0.2c-0.1,0.1-0.1,0.1-0.1,0.2v2.1h1.3v0.5h-2.7V487.3z"/>
	<path d="M51.2,482.4h1.2v3.7c0,0.3,0,0.5,0.1,0.6s0.2,0.2,0.4,0.2c0.1,0,0.3,0,0.4-0.1c0.1,0,0.3-0.1,0.4-0.2L54,487
		c-0.1,0.1-0.2,0.1-0.2,0.2s-0.2,0.1-0.3,0.1s-0.2,0.1-0.3,0.1s-0.2,0-0.3,0c-0.2,0-0.3,0-0.5-0.1s-0.2-0.1-0.3-0.2
		s-0.2-0.2-0.2-0.4c0-0.2-0.1-0.4-0.1-0.6v-3.3h-0.6L51.2,482.4L51.2,482.4z"/>
	<path d="M57,482.4h1.1v3.7c0,0,0,0.1,0,0.2s0,0.1,0,0.2s0,0.1,0,0.2s0,0.1,0,0.2h0.5v0.5h-0.9l-0.1-0.5l0,0
		c-0.1,0.2-0.3,0.3-0.5,0.4s-0.4,0.2-0.7,0.2c-0.5,0-0.9-0.1-1.2-0.4s-0.4-0.8-0.4-1.4c0-0.3,0-0.6,0.1-0.8c0.1-0.2,0.2-0.4,0.4-0.6
		s0.3-0.3,0.6-0.3c0.2-0.1,0.5-0.1,0.7-0.1c0.1,0,0.2,0,0.3,0s0.1,0,0.2,0c0.1,0,0.1,0,0.2,0c0.1,0,0.1,0,0.2,0.1v-1H57V482.4z
		 M56.6,486.9c0.3,0,0.5-0.1,0.7-0.2s0.3-0.4,0.3-0.7v-1.6c-0.1-0.1-0.2-0.1-0.3-0.2s-0.3,0-0.5,0c-0.4,0-0.7,0.1-0.9,0.3
		c-0.2,0.2-0.3,0.6-0.3,1c0,0.2,0,0.4,0.1,0.5c0,0.2,0.1,0.3,0.2,0.4c0.1,0.1,0.2,0.2,0.3,0.3C56.3,486.9,56.4,486.9,56.6,486.9z"/>
</g>
<g>
	<path class="st0" d="M-42.3,344.2H-119c-3,0-5.5-2.5-5.5-5.5v-36.4c0-3,2.5-5.5,5.5-5.5h76.7c3,0,5.5,2.5,5.5,5.5v36.4
		C-36.8,341.7-39.3,344.2-42.3,344.2z M-119,297.8c-2.5,0-4.5,2-4.5,4.5v36.4c0,2.5,2,4.5,4.5,4.5h76.7c2.5,0,4.5-2,4.5-4.5v-36.4
		c0-2.5-2-4.5-4.5-4.5H-119z"/>
</g>
<g>
	<path class="st0" d="M77.7,504.9H1c-3,0-5.5-2.5-5.5-5.5V463c0-3,2.5-5.5,5.5-5.5h76.7c3,0,5.5,2.5,5.5,5.5v36.4
		C83.2,502.4,80.7,504.9,77.7,504.9z M1,458.5c-2.5,0-4.5,2-4.5,4.5v36.4c0,2.5,2,4.5,4.5,4.5h76.7c2.5,0,4.5-2,4.5-4.5V463
		c0-2.5-2-4.5-4.5-4.5H1L1,458.5z"/>
</g>
<g>
	<path class="st0" d="M-37.3,349.2H-139c-3,0-5.5-2.5-5.5-5.5v-61.4c0-3,2.5-5.5,5.5-5.5h101.7c3,0,5.5,2.5,5.5,5.5v61.4
		C-31.8,346.7-34.3,349.2-37.3,349.2z M-139,277.8c-2.5,0-4.5,2-4.5,4.5v61.4c0,2.5,2,4.5,4.5,4.5h101.7c2.5,0,4.5-2,4.5-4.5v-61.4
		c0-2.5-2-4.5-4.5-4.5H-139z"/>
</g>
<g>
	<path class="st0" d="M82.7,509.2H-139c-3,0-5.5-2.5-5.5-5.5v-61.4c0-3,2.5-5.5,5.5-5.5H82.7c3,0,5.5,2.5,5.5,5.5v61.4
		C88.2,506.7,85.7,509.2,82.7,509.2z M-139,437.8c-2.5,0-4.5,2-4.5,4.5v61.4c0,2.5,2,4.5,4.5,4.5H82.7c2.5,0,4.5-2,4.5-4.5v-61.4
		c0-2.5-2-4.5-4.5-4.5H-139z"/>
</g>
<g>
	<path d="M31.7,519c0.2,0,0.4-0.1,0.6-0.1c0.2,0,0.4,0,0.6,0c0.2,0,0.4,0,0.6,0.1c0.2,0,0.4,0.1,0.5,0.2s0.3,0.2,0.4,0.4
		c0.1,0.2,0.1,0.4,0.1,0.6s0,0.4-0.1,0.5s-0.1,0.3-0.2,0.4c-0.1,0.1-0.2,0.2-0.3,0.3s-0.2,0.1-0.3,0.1l1.3,2.3h-0.7l-1.2-2.2h-0.9
		v2.2h-0.6V519H31.7z M33,519.4c-0.1,0-0.1,0-0.2,0s-0.1,0-0.2,0c-0.1,0-0.1,0-0.2,0c-0.1,0-0.1,0-0.1,0v1.8h0.5
		c0.3,0,0.6-0.1,0.8-0.2c0.2-0.1,0.3-0.4,0.3-0.7c0-0.3-0.1-0.5-0.3-0.6C33.5,519.5,33.3,519.4,33,519.4z"/>
	<path d="M38.9,523.4c-0.1,0.1-0.2,0.1-0.3,0.2c-0.1,0.1-0.2,0.1-0.4,0.2c-0.1,0-0.3,0.1-0.4,0.1c-0.1,0-0.3,0-0.4,0
		c-0.3,0-0.5,0-0.7-0.1c-0.2-0.1-0.4-0.2-0.5-0.4s-0.3-0.4-0.3-0.6c-0.1-0.2-0.1-0.5-0.1-0.8c0-0.3,0-0.6,0.1-0.8
		c0.1-0.2,0.2-0.4,0.4-0.6s0.3-0.3,0.6-0.4c0.3-0.1,0.5-0.1,0.7-0.1s0.4,0,0.6,0.1c0.2,0.1,0.4,0.1,0.5,0.3c0.1,0.1,0.3,0.3,0.3,0.6
		c0.1,0.2,0.1,0.6,0.1,1h-2.7c0,0.4,0.1,0.7,0.3,0.9c0.2,0.2,0.5,0.3,0.9,0.3c0.1,0,0.2,0,0.4,0c0.1,0,0.2-0.1,0.4-0.1
		s0.2-0.1,0.3-0.1c0.1-0.1,0.2-0.1,0.2-0.1L38.9,523.4z M37.4,520.8c-0.2,0-0.3,0-0.4,0c-0.1,0-0.3,0.1-0.4,0.2
		c-0.1,0.1-0.2,0.2-0.3,0.3s-0.1,0.3-0.1,0.5h2.2c0-0.3-0.1-0.5-0.3-0.7C37.9,520.8,37.7,520.8,37.4,520.8z"/>
	<path d="M40.1,521.6c0,0,0-0.1,0-0.2s0-0.1,0-0.2s0-0.1,0-0.2s0-0.1,0-0.2h-0.5v-0.5h0.9l0.1,0.6l0,0c0-0.1,0.1-0.2,0.2-0.2
		c0.1-0.1,0.2-0.1,0.3-0.2c0.1-0.1,0.2-0.1,0.3-0.2c0.1,0,0.3-0.1,0.4-0.1c0.2,0,0.4,0,0.6,0.1c0.2,0,0.3,0.1,0.4,0.2
		c0.1,0.1,0.2,0.3,0.2,0.5c0.1,0.2,0.1,0.5,0.1,0.8v2h-0.6v-1.9c0-0.4-0.1-0.7-0.2-0.9c-0.1-0.2-0.4-0.3-0.7-0.3
		c-0.1,0-0.2,0-0.4,0.1c-0.1,0-0.2,0.1-0.3,0.2s-0.2,0.2-0.2,0.3c-0.1,0.1-0.1,0.2-0.2,0.3v2.2H40L40.1,521.6L40.1,521.6z"/>
	<path d="M46,519h1.1v3.7c0,0,0,0.1,0,0.2s0,0.1,0,0.2s0,0.1,0,0.2s0,0.1,0,0.2h0.5v0.5h-0.9l-0.1-0.5l0,0c-0.1,0.2-0.3,0.3-0.5,0.4
		c-0.2,0.1-0.4,0.2-0.7,0.2c-0.5,0-0.9-0.1-1.2-0.4s-0.4-0.8-0.4-1.4c0-0.3,0-0.6,0.1-0.8c0.1-0.2,0.2-0.4,0.4-0.6s0.3-0.3,0.6-0.3
		c0.2-0.1,0.5-0.1,0.7-0.1c0.1,0,0.2,0,0.3,0s0.1,0,0.2,0c0.1,0,0.1,0,0.2,0c0.1,0,0.1,0,0.2,0.1v-1H46V519z M45.6,523.5
		c0.3,0,0.5-0.1,0.7-0.2s0.3-0.4,0.3-0.7V521c-0.1-0.1-0.2-0.1-0.3-0.2c-0.1-0.1-0.3,0-0.5,0c-0.4,0-0.7,0.1-0.9,0.3
		c-0.2,0.2-0.3,0.6-0.3,1c0,0.2,0,0.4,0.1,0.5c0,0.2,0.1,0.3,0.2,0.4c0.1,0.1,0.2,0.2,0.3,0.3C45.3,523.5,45.4,523.5,45.6,523.5z"/>
	<path d="M51.5,523.4c-0.1,0.1-0.2,0.1-0.3,0.2c-0.1,0.1-0.2,0.1-0.4,0.2c-0.1,0-0.3,0.1-0.4,0.1c-0.1,0-0.3,0-0.4,0
		c-0.3,0-0.5,0-0.7-0.1c-0.2-0.1-0.4-0.2-0.5-0.4s-0.3-0.4-0.3-0.6c-0.1-0.2-0.1-0.5-0.1-0.8c0-0.3,0-0.6,0.1-0.8
		c0.1-0.2,0.2-0.4,0.4-0.6s0.3-0.3,0.6-0.4c0.3-0.1,0.5-0.1,0.7-0.1s0.4,0,0.6,0.1c0.2,0.1,0.4,0.1,0.5,0.3c0.1,0.1,0.3,0.3,0.3,0.6
		c0.1,0.2,0.1,0.6,0.1,1H49c0,0.4,0.1,0.7,0.3,0.9c0.2,0.2,0.5,0.3,0.9,0.3c0.1,0,0.2,0,0.4,0c0.1,0,0.2-0.1,0.4-0.1
		s0.2-0.1,0.3-0.1c0.1-0.1,0.2-0.1,0.2-0.1L51.5,523.4z M50,520.8c-0.2,0-0.3,0-0.4,0c-0.1,0-0.3,0.1-0.4,0.2
		c-0.1,0.1-0.2,0.2-0.3,0.3s-0.1,0.3-0.1,0.5H51c0-0.3-0.1-0.5-0.3-0.7C50.5,520.8,50.3,520.8,50,520.8z"/>
	<path d="M52.5,523.9v-0.5h0.9v-2.6h-0.9v-0.5h1.3l0.1,0.5l0,0c0.2-0.1,0.3-0.3,0.5-0.4c0.2-0.1,0.4-0.2,0.7-0.2
		c0.2,0,0.3,0,0.4,0.1c0.1,0.1,0.2,0.1,0.2,0.3s0.1,0.3,0.1,0.4c0,0.2,0,0.4,0,0.6h-0.5c0-0.3,0-0.5-0.1-0.7
		c-0.1-0.1-0.2-0.2-0.3-0.2s-0.3,0-0.4,0.1c-0.1,0.1-0.2,0.1-0.3,0.2c-0.1,0.1-0.2,0.1-0.2,0.2c-0.1,0.1-0.1,0.1-0.1,0.2v2.1h1.3
		v0.5L52.5,523.9L52.5,523.9z"/>
	<path d="M59.9,523.4c-0.1,0.1-0.2,0.1-0.3,0.2c-0.1,0.1-0.2,0.1-0.4,0.2c-0.1,0-0.3,0.1-0.4,0.1c-0.1,0-0.3,0-0.4,0
		c-0.3,0-0.5,0-0.7-0.1c-0.2-0.1-0.4-0.2-0.5-0.4s-0.3-0.4-0.3-0.6c-0.1-0.2-0.1-0.5-0.1-0.8c0-0.3,0-0.6,0.1-0.8
		c0.1-0.2,0.2-0.4,0.4-0.6s0.3-0.3,0.6-0.4c0.3-0.1,0.5-0.1,0.7-0.1s0.4,0,0.6,0.1c0.2,0.1,0.4,0.1,0.5,0.3c0.1,0.1,0.3,0.3,0.3,0.6
		c0.1,0.2,0.1,0.6,0.1,1h-2.7c0,0.4,0.1,0.7,0.3,0.9c0.2,0.2,0.5,0.3,0.9,0.3c0.1,0,0.2,0,0.4,0c0.1,0,0.2-0.1,0.4-0.1
		s0.2-0.1,0.3-0.1c0.1-0.1,0.2-0.1,0.2-0.1L59.9,523.4z M58.4,520.8c-0.2,0-0.3,0-0.4,0c-0.1,0-0.3,0.1-0.4,0.2
		c-0.1,0.1-0.2,0.2-0.3,0.3s-0.1,0.3-0.1,0.5h2.2c0-0.3-0.1-0.5-0.3-0.7C58.9,520.8,58.7,520.8,58.4,520.8z"/>
	<path d="M60.9,523.9v-0.5h0.9v-2.6h-0.9v-0.5h1.3l0.1,0.5l0,0c0.2-0.1,0.3-0.3,0.5-0.4c0.2-0.1,0.4-0.2,0.7-0.2
		c0.2,0,0.3,0,0.4,0.1c0.1,0.1,0.2,0.1,0.2,0.3s0.1,0.3,0.1,0.4c0,0.2,0,0.4,0,0.6h-0.5c0-0.3,0-0.5-0.1-0.7
		c-0.1-0.1-0.2-0.2-0.3-0.2s-0.3,0-0.4,0.1c-0.1,0.1-0.2,0.1-0.3,0.2c-0.1,0.1-0.2,0.1-0.2,0.2c-0.1,0.1-0.1,0.1-0.1,0.2v2.1h1.3
		v0.5L60.9,523.9L60.9,523.9z"/>
</g>
<g>
	<path class="st1" d="M82.7,513.6H71v-14.2h-2v14.2H31c-3.3,0-6,2.7-6,6V531c0,3.3,2.7,6,6,6h51.7c3.3,0,6-2.7,6-6v-11.4
		C88.7,516.3,86,513.6,82.7,513.6z M86.7,531c0,2.2-1.8,4-4,4H31c-2.2,0-4-1.8-4-4v-11.4c0-2.2,1.8-4,4-4h51.7c2.2,0,4,1.8,4,4V531z
		"/>
</g>
<path class="st2" d="M72.7,476.5H21c-3.6,0-6.5,2.9-6.5,6.5v4.2h-50.3v-24.9c0-3.6-2.9-6.5-6.5-6.5h-15.2v-59.5
	c1.1-0.5,1.9-1.5,2-2.8h34.7c0.3,0,0.5-0.2,0.5-0.5c0-0.3-0.2-0.5-0.5-0.5h-34.7c-0.2-1.2-1-2.3-2-2.8v-49.5h10.2
	c3.5,0,6.5-2.9,6.5-6.5v-11.4c0-3.6-2.9-6.5-6.5-6.5H-99c-3.6,0-6.5,2.9-6.5,6.5v11.4c0,3.6,2.9,6.5,6.5,6.5h38.5v49.5
	c-1.2,0.6-2.1,1.8-2.1,3.3s0.9,2.7,2.1,3.3v59.5H-119c-3.6,0-6.5,2.9-6.5,6.5v36.4c0,3.6,2.9,6.5,6.5,6.5h76.7
	c3.5,0,6.5-2.9,6.5-6.5v-8.5h50.3v4.2c0,3.6,2.9,6.5,6.5,6.5h51.7c3.5,0,6.5-2.9,6.5-6.5V483C79.2,479.4,76.3,476.5,72.7,476.5z
	 M-102.5,333.7v-11.4c0-1.9,1.6-3.5,3.5-3.5h51.7c1.9,0,3.5,1.6,3.5,3.5v11.4c0,1.9-1.6,3.5-3.5,3.5H-99
	C-100.9,337.2-102.5,335.6-102.5,333.7z M-38.8,498.7c0,1.9-1.6,3.5-3.5,3.5H-119c-1.9,0-3.5-1.6-3.5-3.5v-36.4
	c0-1.9,1.6-3.5,3.5-3.5h76.7c1.9,0,3.5,1.6,3.5,3.5V498.7z M76.2,494.4c0,1.9-1.6,3.5-3.5,3.5H21c-1.9,0-3.5-1.6-3.5-3.5V483
	c0-1.9,1.6-3.5,3.5-3.5h51.7c1.9,0,3.5,1.6,3.5,3.5V494.4z"/>
</svg>
