<?xml version="1.0" encoding="utf-8"?>
<!-- Generator: Adobe Illustrator 19.0.0, SVG Export Plug-In . SVG Version: 6.00 Build 0)  -->
<svg version="1.1" id="Layer_1" xmlns="http://www.w3.org/2000/svg" xmlns:xlink="http://www.w3.org/1999/xlink" x="0px" y="0px"
	 viewBox="-164 288 281.7 218" style="enable-background:new -164 288 281.7 218;" xml:space="preserve">
<style type="text/css">
	.st0{fill:#E6E7E8;}
	.st1{opacity:0.5;fill:#F1F2F2;enable-background:new    ;}
	.st2{fill:#F1F2F2;stroke:#E6E7E8;stroke-width:3;stroke-miterlimit:10;}
	.st3{fill:#D1D3D4;}
	.st4{fill:#A7A9AC;}
	.st5{opacity:0.5;}
</style>
<path class="st0" d="M-231.4,651.2h-17.5c-4.6,0-8.3-3.8-8.3-8.3v-17.5c0-4.6,3.8-8.3,8.3-8.3h17.5c4.6,0,8.3,3.8,8.3,8.3v17.5
	C-223.1,647.5-226.8,651.2-231.4,651.2z"/>
<path class="st1" d="M-238.4,613.6h-17.5c-4.6,0-8.3-3.8-8.3-8.3v-17.5c0-4.6,3.8-8.3,8.3-8.3h17.5c4.6,0,8.3,3.8,8.3,8.3v17.5
	C-230,609.8-233.8,613.6-238.4,613.6z"/>
<path class="st1" d="M-201.6,613.6h-17.5c-4.6,0-8.3-3.8-8.3-8.3v-17.5c0-4.6,3.8-8.3,8.3-8.3h17.5c4.6,0,8.3,3.8,8.3,8.3v17.5
	C-193.3,609.8-197,613.6-201.6,613.6z"/>
<path class="st1" d="M-164.1,613.6h-17.5c-4.6,0-8.3-3.8-8.3-8.3v-17.5c0-4.6,3.8-8.3,8.3-8.3h17.5c4.6,0,8.3,3.8,8.3,8.3v17.5
	C-155.8,609.8-159.6,613.6-164.1,613.6z"/>
<path class="st1" d="M-125.4,613.6h-17.5c-4.6,0-8.3-3.8-8.3-8.3v-17.5c0-4.6,3.8-8.3,8.3-8.3h17.5c4.6,0,8.3,3.8,8.3,8.3v17.5
	C-117,609.8-120.8,613.6-125.4,613.6z"/>
<path class="st1" d="M-212,689h-17.5c-4.6,0-8.3-3.8-8.3-8.3v-17.5c0-4.6,3.8-8.3,8.3-8.3h17.5c4.6,0,8.3,3.8,8.3,8.3v17.5
	C-203.6,685.2-207.4,689-212,689z"/>
<path class="st1" d="M-174.6,689h-17.5c-4.6,0-8.3-3.8-8.3-8.3v-17.5c0-4.6,3.8-8.3,8.3-8.3h17.5c4.6,0,8.3,3.8,8.3,8.3v17.5
	C-166.2,685.2-169.9,689-174.6,689z"/>
<path class="st1" d="M-135.7,689h-17.5c-4.6,0-8.3-3.8-8.3-8.3v-17.5c0-4.6,3.8-8.3,8.3-8.3h17.5c4.6,0,8.3,3.8,8.3,8.3v17.5
	C-127.4,685.2-131.1,689-135.7,689z"/>
<path class="st0" d="M-193.8,651.2h-17.5c-4.6,0-8.3-3.8-8.3-8.3v-17.5c0-4.6,3.8-8.3,8.3-8.3h17.5c4.6,0,8.3,3.8,8.3,8.3v17.5
	C-185.4,647.5-189.2,651.2-193.8,651.2z"/>
<path class="st0" d="M-156.1,651.2h-17.5c-4.6,0-8.3-3.8-8.3-8.3v-17.5c0-4.6,3.8-8.3,8.3-8.3h17.5c4.6,0,8.3,3.8,8.3,8.3v17.5
	C-147.7,647.5-151.5,651.2-156.1,651.2z"/>
<path class="st0" d="M-118.4,651.2h-17.5c-4.6,0-8.3-3.8-8.3-8.3v-17.5c0-4.6,3.8-8.3,8.3-8.3h17.5c4.6,0,8.3,3.8,8.3,8.3v17.5
	C-110.1,647.5-113.8,651.2-118.4,651.2z"/>
<polyline class="st2" points="-231.2,706.8 -141.9,706.8 -141.9,717.1 -119.7,689 -141.9,660.8 -141.9,671.1 -231.2,671.1 "/>
<path class="st3" d="M-256.2,723.5v-63.7c0-8.8,7.2-16,16-16l0,0c8.8,0,16,7.2,16,16v63.7"/>
<path class="st0" d="M-240.2,674.9L-240.2,674.9c-11.1,0-11.1-5-11.1-11.1v-6c0-6.1,5-11.1,11.1-11.1l0,0c6.1,0,11.1,5,11.1,11.1v6
	C-229.1,669.9-229.5,674.9-240.2,674.9z"/>
<path class="st4" d="M-251.3,716.3c0,0,0-0.1,0-0.3c0-0.2,0.1-0.5,0.2-0.8c0.1-0.3,0.4-0.7,0.8-1c0.3-0.3,0.8-0.6,1.4-0.9
	c0.6-0.3,1.2-0.5,1.8-0.7c0.7-0.2,1.4-0.3,2.2-0.5c0.8-0.1,1.5-0.2,2.3-0.3c0.8-0.1,1.6-0.1,2.4-0.1s1.6,0.1,2.4,0.1
	c0.8,0.1,1.5,0.1,2.3,0.3c0.8,0.1,1.5,0.3,2.2,0.5c0.7,0.2,1.3,0.4,1.8,0.7c0.6,0.3,1,0.6,1.4,0.9c0.4,0.3,0.6,0.7,0.8,1
	c0.1,0.3,0.2,0.6,0.2,0.8c0,0.2,0,0.3,0,0.3s0-0.1-0.1-0.3c0-0.2-0.1-0.4-0.3-0.7c-0.2-0.3-0.5-0.6-0.8-0.8
	c-0.2-0.1-0.4-0.3-0.6-0.3c-0.2-0.1-0.5-0.2-0.8-0.3c-0.6-0.2-1.2-0.4-1.8-0.6c-0.6-0.1-1.4-0.3-2.1-0.3c-0.7-0.1-1.5-0.1-2.3-0.2
	c-0.8-0.1-1.5-0.1-2.4-0.1c-0.8,0-1.6,0-2.4,0.1c-0.8,0.1-1.5,0.1-2.3,0.2c-0.7,0.1-1.5,0.2-2.1,0.3s-1.3,0.3-1.8,0.6
	c-0.3,0.1-0.6,0.2-0.8,0.3c-0.2,0.1-0.5,0.3-0.6,0.3c-0.4,0.3-0.7,0.6-0.8,0.8c-0.1,0.3-0.3,0.6-0.3,0.7
	C-251.3,716.2-251.3,716.3-251.3,716.3z"/>
<path class="st4" d="M-251.3,723.2c0,0,0-0.1,0-0.3c0.1-0.1,0.2-0.4,0.5-0.6c0.6-0.4,1.4-0.8,2.5-1s2.4-0.5,3.8-0.6
	c1.4-0.1,2.9-0.2,4.4-0.2s3,0.1,4.4,0.2c1.4,0.1,2.6,0.3,3.8,0.6c1.1,0.3,1.9,0.6,2.5,1c0.3,0.2,0.4,0.4,0.5,0.6
	c0.1,0.1,0,0.3,0,0.3s0-0.1-0.1-0.3c-0.1-0.1-0.2-0.3-0.5-0.5c-0.6-0.3-1.5-0.6-2.5-0.8c-1.1-0.2-2.4-0.3-3.8-0.4
	c-1.4-0.1-2.9-0.1-4.3-0.1c-1.4,0-2.9,0.1-4.3,0.1c-1.4,0.1-2.6,0.2-3.8,0.4c-1,0.2-1.9,0.4-2.5,0.8c-0.3,0.1-0.4,0.3-0.5,0.5
	C-251.3,723.2-251.3,723.2-251.3,723.2z"/>
<path class="st4" d="M-251.3,719.8c0,0,0-0.1,0-0.3c0-0.1,0-0.1,0-0.1c0-0.1,0.1-0.1,0.1-0.1c0.1-0.1,0.1-0.3,0.2-0.4
	c0.1-0.1,0.1-0.1,0.1-0.2c0.1-0.1,0.1-0.1,0.2-0.2s0.3-0.3,0.6-0.4c0.4-0.3,0.9-0.5,1.5-0.7c0.6-0.2,1.2-0.4,1.8-0.6
	c0.6-0.1,1.3-0.3,2.1-0.4c1.5-0.2,3-0.3,4.6-0.3c1.5,0,3.1,0.1,4.6,0.3c0.7,0.1,1.4,0.2,2.1,0.4c0.6,0.1,1.3,0.3,1.8,0.6
	c0.6,0.2,1,0.4,1.5,0.7c0.2,0.1,0.4,0.3,0.6,0.4c0.1,0.1,0.1,0.1,0.2,0.2s0.1,0.1,0.1,0.2c0.1,0.1,0.1,0.3,0.2,0.4
	c0,0.1,0.1,0.1,0.1,0.1c0,0.1,0,0.1,0,0.1c0,0.2,0,0.3,0,0.3s0-0.1-0.1-0.3c0-0.1,0-0.1,0-0.1c0-0.1-0.1-0.1-0.1-0.1
	c-0.1-0.1-0.1-0.2-0.3-0.3c-0.1-0.1-0.1-0.1-0.1-0.2c-0.1-0.1-0.1-0.1-0.2-0.1c-0.1-0.1-0.3-0.2-0.6-0.3c-0.4-0.2-0.9-0.4-1.5-0.6
	c-0.6-0.1-1.1-0.3-1.8-0.4c-0.6-0.1-1.3-0.2-2-0.3c-1.4-0.1-2.9-0.2-4.4-0.2c-0.8,0-1.5,0-2.3,0.1c-0.8,0.1-1.5,0.1-2.2,0.1
	c-0.7,0.1-1.4,0.1-2,0.3c-0.6,0.1-1.3,0.3-1.8,0.4c-0.6,0.2-1,0.3-1.5,0.6c-0.2,0.1-0.4,0.2-0.6,0.3c-0.1,0.1-0.1,0.1-0.2,0.1
	c-0.1,0.1-0.1,0.1-0.1,0.2c-0.1,0.1-0.2,0.2-0.3,0.3c0,0.1-0.1,0.1-0.1,0.1c0,0.1,0,0.1,0,0.1C-251.3,719.7-251.3,719.8-251.3,719.8
	z"/>
<path class="st5" d="M-238.1,627.1v1.5h-2.7v4.7h2.6v1.5h-2.6v6.4h-1.6v-14H-238.1z"/>
<path class="st5" d="M-202.5,635.2v-1.5h2.9v5c0,1.7-0.9,2.6-2.6,2.6h-0.6c-1.8,0-2.6-0.9-2.6-2.6v-9c0-1.7,0.9-2.6,2.6-2.6h0.6
	c1.7,0,2.6,0.9,2.6,2.6v1.9h-1.6v-2c0-0.7-0.3-1.1-1.1-1.1h-0.5c-0.7,0-1.1,0.3-1.1,1.1v9.2c0,0.7,0.3,1.1,1.1,1.1h0.5
	c0.7,0,1.1-0.3,1.1-1.1v-3.6H-202.5z"/>
<path class="st5" d="M-163.5,633.3v-6.1h1.6v14h-1.6v-6.4h-2.6v6.4h-1.6v-14h1.6v6.1H-163.5z"/>
<path class="st5" d="M-125.3,638.6c0,1.7-0.9,2.6-2.6,2.6h-1v-1.5h0.9c0.7,0,1.1-0.4,1.1-1.1v-11.4h1.6V638.6z"/>
</svg>
