<?xml version="1.0" encoding="utf-8"?>
<!-- Generator: Adobe Illustrator 19.0.0, SVG Export Plug-In . SVG Version: 6.00 Build 0)  -->
<svg version="1.1" id="Layer_1" xmlns="http://www.w3.org/2000/svg" xmlns:xlink="http://www.w3.org/1999/xlink" x="0px" y="0px"
	 viewBox="-164 254.4 281.7 218" style="enable-background:new -164 254.4 281.7 218;" xml:space="preserve">
<style type="text/css">
	.st0{fill:#E6E7E8;}
	.st1{opacity:0.5;fill:#F1F2F2;enable-background:new    ;}
	.st2{fill:#6D6E71;}
	.st3{fill:#F1F2F2;stroke:#E6E7E8;stroke-width:3;stroke-miterlimit:10;}
	.st4{fill:#D1D3D4;}
	.st5{fill:#A7A9AC;}
</style>
<path class="st0" d="M-67.4,363.2h-17.5c-4.6,0-8.3-3.8-8.3-8.3v-17.5c0-4.6,3.8-8.3,8.3-8.3h17.5c4.6,0,8.3,3.8,8.3,8.3v17.5
	C-59.1,359.5-62.8,363.2-67.4,363.2z"/>
<path class="st1" d="M-74.4,325.6h-17.5c-4.6,0-8.3-3.8-8.3-8.3v-17.5c0-4.6,3.8-8.3,8.3-8.3h17.5c4.6,0,8.3,3.8,8.3,8.3v17.5
	C-66,321.8-69.8,325.6-74.4,325.6z"/>
<path class="st1" d="M-37.6,325.6h-17.5c-4.6,0-8.3-3.8-8.3-8.3v-17.5c0-4.6,3.8-8.3,8.3-8.3h17.5c4.6,0,8.3,3.8,8.3,8.3v17.5
	C-29.3,321.8-33,325.6-37.6,325.6z"/>
<path class="st1" d="M-0.1,325.6h-17.5c-4.6,0-8.3-3.8-8.3-8.3v-17.5c0-4.6,3.8-8.3,8.3-8.3h17.5c4.6,0,8.3,3.8,8.3,8.3v17.5
	C8.2,321.8,4.4,325.6-0.1,325.6z"/>
<path class="st1" d="M38.6,325.6H21.1c-4.6,0-8.3-3.8-8.3-8.3v-17.5c0-4.6,3.8-8.3,8.3-8.3h17.5c4.6,0,8.3,3.8,8.3,8.3v17.5
	C47,321.8,43.2,325.6,38.6,325.6z"/>
<path class="st1" d="M-48,401h-17.5c-4.6,0-8.3-3.8-8.3-8.3v-17.5c0-4.6,3.8-8.3,8.3-8.3H-48c4.6,0,8.3,3.8,8.3,8.3v17.5
	C-39.6,397.2-43.4,401-48,401z"/>
<path class="st1" d="M-10.6,401h-17.5c-4.6,0-8.3-3.8-8.3-8.3v-17.5c0-4.6,3.8-8.3,8.3-8.3h17.5c4.6,0,8.3,3.8,8.3,8.3v17.5
	C-2.2,397.2-5.9,401-10.6,401z"/>
<path class="st1" d="M28.3,401H10.8c-4.6,0-8.3-3.8-8.3-8.3v-17.5c0-4.6,3.8-8.3,8.3-8.3h17.5c4.6,0,8.3,3.8,8.3,8.3v17.5
	C36.6,397.2,32.9,401,28.3,401z"/>
<path class="st0" d="M-29.8,363.2h-17.5c-4.6,0-8.3-3.8-8.3-8.3v-17.5c0-4.6,3.8-8.3,8.3-8.3h17.5c4.6,0,8.3,3.8,8.3,8.3v17.5
	C-21.4,359.5-25.2,363.2-29.8,363.2z"/>
<path class="st0" d="M7.9,363.2H-9.6c-4.6,0-8.3-3.8-8.3-8.3v-17.5c0-4.6,3.8-8.3,8.3-8.3H7.9c4.6,0,8.3,3.8,8.3,8.3v17.5
	C16.3,359.5,12.5,363.2,7.9,363.2z"/>
<path class="st0" d="M45.6,363.2H28.1c-4.6,0-8.3-3.8-8.3-8.3v-17.5c0-4.6,3.8-8.3,8.3-8.3h17.5c4.6,0,8.3,3.8,8.3,8.3v17.5
	C53.9,359.5,50.2,363.2,45.6,363.2z"/>
<g>
	<path class="st2" d="M-74.7,352.5l-0.3-2.2h-2.4l-0.3,2.2H-79l1.9-12.8h1.9l1.9,12.8H-74.7z M-77.2,349h2l-1-7L-77.2,349z"/>
</g>
<g>
	<path class="st2" d="M-35.9,348.7v1.9c0,1.6-0.8,2.4-2.4,2.4h-0.4c-1.6,0-2.4-0.8-2.4-2.4v-2.6h1.4v2.7c0,0.6,0.3,1,1,1h0.3
		c0.6,0,1-0.3,1-1v-1.9c0-0.6-0.2-0.9-0.6-1.3l-1.8-1.3c-1-0.7-1.3-1.3-1.3-2.4v-1.5c0-1.6,0.8-2.4,2.4-2.4h0.3
		c1.6,0,2.4,0.8,2.4,2.4v2.3h-1.4v-2.4c0-0.6-0.3-1-1-1h-0.3c-0.6,0-1,0.3-1,1v1.6c0,0.6,0.2,0.9,0.6,1.3l1.7,1.3
		C-36.2,347-35.9,347.7-35.9,348.7z"/>
</g>
<g>
	<path class="st2" d="M-3.4,340.1H-1c1.9,0,2.9,0.9,2.9,2.9v7.1c0,1.9-0.9,2.9-2.9,2.9h-2.4V340.1z M-1.9,351.5H-1
		c1,0,1.5-0.5,1.5-1.5v-7.2c0-1-0.5-1.5-1.5-1.5h-0.9V351.5z"/>
</g>
<g>
	<path class="st2" d="M38.8,340.1v1.3h-2.4v4.2h2.4v1.3h-2.4v5.8h-1.5v-12.7C34.9,340.1,38.8,340.1,38.8,340.1z"/>
</g>
<polyline class="st3" points="-67.2,418.8 22.1,418.8 22.1,429.1 44.3,401 22.1,372.8 22.1,383.1 -67.2,383.1 "/>
<path class="st4" d="M-92.2,435.5v-63.7c0-8.8,7.2-16,16-16l0,0c8.8,0,16,7.2,16,16v63.7"/>
<path class="st0" d="M-76.2,386.9L-76.2,386.9c-11.1,0-11.1-5-11.1-11.1v-6c0-6.1,5-11.1,11.1-11.1l0,0c6.1,0,11.1,5,11.1,11.1v6
	C-65.1,381.9-65.5,386.9-76.2,386.9z"/>
<path class="st5" d="M-87.3,428.3c0,0,0-0.1,0-0.3c0-0.2,0.1-0.5,0.2-0.8s0.4-0.7,0.8-1c0.3-0.3,0.8-0.6,1.4-0.9
	c0.6-0.3,1.2-0.5,1.8-0.7c0.7-0.2,1.4-0.3,2.2-0.5c0.8-0.1,1.5-0.2,2.3-0.3c0.8-0.1,1.6-0.1,2.4-0.1c0.8,0,1.6,0.1,2.4,0.1
	c0.8,0.1,1.5,0.1,2.3,0.3c0.8,0.1,1.5,0.3,2.2,0.5c0.7,0.2,1.3,0.4,1.8,0.7c0.6,0.3,1,0.6,1.4,0.9c0.4,0.3,0.6,0.7,0.8,1
	c0.1,0.3,0.2,0.6,0.2,0.8c0,0.2,0,0.3,0,0.3s0-0.1-0.1-0.3c0-0.2-0.1-0.4-0.3-0.7c-0.2-0.3-0.5-0.6-0.8-0.8
	c-0.2-0.1-0.4-0.3-0.6-0.3c-0.2-0.1-0.5-0.2-0.8-0.3c-0.6-0.2-1.2-0.4-1.8-0.6c-0.6-0.1-1.4-0.3-2.1-0.3c-0.7-0.1-1.5-0.1-2.3-0.2
	c-0.8-0.1-1.5-0.1-2.4-0.1c-0.8,0-1.6,0-2.4,0.1s-1.5,0.1-2.3,0.2c-0.7,0.1-1.5,0.2-2.1,0.3c-0.6,0.1-1.3,0.3-1.8,0.6
	c-0.3,0.1-0.6,0.2-0.8,0.3c-0.2,0.1-0.5,0.3-0.6,0.3c-0.4,0.3-0.7,0.6-0.8,0.8c-0.1,0.3-0.3,0.6-0.3,0.7
	C-87.3,428.2-87.3,428.3-87.3,428.3z"/>
<path class="st5" d="M-87.3,435.2c0,0,0-0.1,0-0.3c0.1-0.1,0.2-0.4,0.5-0.6c0.6-0.4,1.4-0.8,2.5-1s2.4-0.5,3.8-0.6
	c1.4-0.1,2.9-0.2,4.4-0.2c1.5,0,3,0.1,4.4,0.2c1.4,0.1,2.6,0.3,3.8,0.6c1.1,0.3,1.9,0.6,2.5,1c0.3,0.2,0.4,0.4,0.5,0.6
	c0.1,0.1,0,0.3,0,0.3s0-0.1-0.1-0.3c-0.1-0.1-0.2-0.3-0.5-0.5c-0.6-0.3-1.5-0.6-2.5-0.8c-1.1-0.2-2.4-0.3-3.8-0.4
	c-1.4-0.1-2.9-0.1-4.3-0.1s-2.9,0.1-4.3,0.1c-1.4,0.1-2.6,0.2-3.8,0.4c-1,0.2-1.9,0.4-2.5,0.8c-0.3,0.1-0.4,0.3-0.5,0.5
	C-87.3,435.2-87.3,435.2-87.3,435.2z"/>
<path class="st5" d="M-87.3,431.8c0,0,0-0.1,0-0.3c0-0.1,0-0.1,0-0.1c0-0.1,0.1-0.1,0.1-0.1c0.1-0.1,0.1-0.3,0.2-0.4
	c0.1-0.1,0.1-0.1,0.1-0.2c0.1-0.1,0.1-0.1,0.2-0.2c0.1-0.1,0.3-0.3,0.6-0.4c0.4-0.3,0.9-0.5,1.5-0.7c0.6-0.2,1.2-0.4,1.8-0.6
	c0.6-0.1,1.3-0.3,2.1-0.4c1.5-0.2,3-0.3,4.6-0.3c1.5,0,3.1,0.1,4.6,0.3c0.7,0.1,1.4,0.2,2.1,0.4c0.6,0.1,1.3,0.3,1.8,0.6
	c0.6,0.2,1,0.4,1.5,0.7c0.2,0.1,0.4,0.3,0.6,0.4c0.1,0.1,0.1,0.1,0.2,0.2c0.1,0.1,0.1,0.1,0.1,0.2c0.1,0.1,0.1,0.3,0.2,0.4
	c0,0.1,0.1,0.1,0.1,0.1c0,0.1,0,0.1,0,0.1c0,0.2,0,0.3,0,0.3s0-0.1-0.1-0.3c0-0.1,0-0.1,0-0.1c0-0.1-0.1-0.1-0.1-0.1
	c-0.1-0.1-0.1-0.2-0.3-0.3c-0.1-0.1-0.1-0.1-0.1-0.2c-0.1-0.1-0.1-0.1-0.2-0.1c-0.1-0.1-0.3-0.2-0.6-0.3c-0.4-0.2-0.9-0.4-1.5-0.6
	c-0.6-0.1-1.1-0.3-1.8-0.4c-0.6-0.1-1.3-0.2-2-0.3c-1.4-0.1-2.9-0.2-4.4-0.2c-0.8,0-1.5,0-2.3,0.1s-1.5,0.1-2.2,0.1
	c-0.7,0.1-1.4,0.1-2,0.3c-0.6,0.1-1.3,0.3-1.8,0.4c-0.6,0.2-1,0.3-1.5,0.6c-0.2,0.1-0.4,0.2-0.6,0.3c-0.1,0.1-0.1,0.1-0.2,0.1
	c-0.1,0.1-0.1,0.1-0.1,0.2c-0.1,0.1-0.2,0.2-0.3,0.3c0,0.1-0.1,0.1-0.1,0.1c0,0.1,0,0.1,0,0.1C-87.3,431.7-87.3,431.8-87.3,431.8z"
	/>
</svg>
