<?xml version="1.0" encoding="utf-8"?>
<!-- Generator: Adobe Illustrator 19.0.0, SVG Export Plug-In . SVG Version: 6.00 Build 0)  -->
<svg version="1.1" id="Layer_1" xmlns="http://www.w3.org/2000/svg" xmlns:xlink="http://www.w3.org/1999/xlink" x="0px" y="0px"
	 viewBox="-164 254.4 281.7 285.6" style="enable-background:new -164 254.4 281.7 285.6;" xml:space="preserve">
<style type="text/css">
	.st0{fill:#E6E7E8;}
	.st1{fill:#6D6E71;}
	.st2{enable-background:new    ;}
</style>
<g>
	<rect x="-248.6" y="586.1" class="st0" width="38.4" height="124.7"/>
</g>
<g>
	<rect x="-164.1" y="617" class="st0" width="38.4" height="93.8"/>
</g>
<g>
	<g>
		<g>
			<rect x="-187.5" y="617" class="st1" width="0.7" height="60.8"/>
		</g>
		<g>
			<g>
				<polygon class="st1" points="-189.4,673.7 -188.7,673.5 -187.1,677.8 -185.6,673.5 -184.9,673.7 -187.1,679.9 				"/>
			</g>
		</g>
	</g>
</g>
<g class="st2">
	<path d="M-239.7,722.3c0-0.4,0-0.8,0.1-1.1c0.1-0.3,0.2-0.6,0.3-0.8c0.1-0.2,0.3-0.4,0.5-0.5c0.2-0.1,0.5-0.2,0.8-0.2
		c0.3,0,0.6,0.1,0.8,0.2c0.2,0.1,0.4,0.3,0.5,0.5c0.1,0.2,0.2,0.5,0.3,0.8s0.1,0.7,0.1,1.1c0,0.4,0,0.8-0.1,1.1
		c-0.1,0.3-0.2,0.6-0.3,0.8s-0.3,0.4-0.5,0.5c-0.2,0.1-0.5,0.2-0.8,0.2c-0.3,0-0.6-0.1-0.8-0.2c-0.2-0.1-0.4-0.3-0.5-0.5
		c-0.1-0.2-0.2-0.5-0.3-0.8C-239.6,723-239.7,722.7-239.7,722.3z M-239.1,722.3c0,0.1,0,0.2,0,0.3c0,0.1,0,0.2,0,0.3l2.1-1.9
		c-0.1-0.3-0.2-0.5-0.4-0.6c-0.2-0.2-0.4-0.2-0.6-0.2c-0.4,0-0.7,0.2-0.9,0.5C-239,721.1-239.1,721.6-239.1,722.3z M-236.8,722.3
		c0-0.3,0-0.5,0-0.7l-2.1,1.9c0.1,0.3,0.2,0.5,0.4,0.6c0.2,0.2,0.4,0.2,0.6,0.2c0.4,0,0.7-0.2,0.9-0.5
		C-236.9,723.5-236.8,723-236.8,722.3z"/>
	<path d="M-232.6,719.7l0.4,0.2l-2.6,5.9l-0.4-0.2L-232.6,719.7z"/>
	<path d="M-228,721c0,0.4-0.2,0.9-0.6,1.5c-0.4,0.5-1,1.1-1.7,1.8h2.5v0.5h-3.2v-0.5c0.1-0.1,0.2-0.2,0.4-0.3
		c0.2-0.1,0.3-0.3,0.5-0.5c0.2-0.2,0.4-0.3,0.6-0.5c0.2-0.2,0.4-0.4,0.5-0.6c0.2-0.2,0.3-0.4,0.4-0.6c0.1-0.2,0.1-0.4,0.1-0.6
		c0-0.3-0.1-0.5-0.2-0.7s-0.4-0.2-0.7-0.2c-0.3,0-0.5,0-0.6,0.1c-0.1,0.1-0.3,0.1-0.5,0.2l-0.2-0.4c0.2-0.2,0.4-0.3,0.7-0.3
		c0.2-0.1,0.5-0.1,0.8-0.1c0.4,0,0.8,0.1,1,0.4C-228.1,720.3-228,720.6-228,721z"/>
	<path d="M-226.9,722.3c0-0.4,0-0.8,0.1-1.1s0.2-0.6,0.3-0.8c0.1-0.2,0.3-0.4,0.5-0.5c0.2-0.1,0.5-0.2,0.8-0.2
		c0.3,0,0.6,0.1,0.8,0.2s0.4,0.3,0.5,0.5c0.1,0.2,0.2,0.5,0.3,0.8s0.1,0.7,0.1,1.1c0,0.4,0,0.8-0.1,1.1c-0.1,0.3-0.2,0.6-0.3,0.8
		c-0.1,0.2-0.3,0.4-0.5,0.5s-0.5,0.2-0.8,0.2c-0.3,0-0.6-0.1-0.8-0.2c-0.2-0.1-0.4-0.3-0.5-0.5c-0.1-0.2-0.2-0.5-0.3-0.8
		C-226.8,723-226.9,722.7-226.9,722.3z M-226.3,722.3c0,0.1,0,0.2,0,0.3c0,0.1,0,0.2,0,0.3l2.1-1.9c-0.1-0.3-0.2-0.5-0.4-0.6
		c-0.2-0.2-0.4-0.2-0.6-0.2c-0.4,0-0.7,0.2-0.9,0.5C-226.2,721.1-226.3,721.6-226.3,722.3z M-224,722.3c0-0.3,0-0.5,0-0.7l-2.1,1.9
		c0.1,0.3,0.2,0.5,0.4,0.6c0.2,0.2,0.4,0.2,0.6,0.2c0.4,0,0.7-0.2,0.9-0.5C-224,723.5-224,723-224,722.3z"/>
	<path d="M-222.6,722.3c0-0.4,0-0.8,0.1-1.1s0.2-0.6,0.3-0.8c0.1-0.2,0.3-0.4,0.5-0.5s0.5-0.2,0.8-0.2c0.3,0,0.6,0.1,0.8,0.2
		c0.2,0.1,0.4,0.3,0.5,0.5c0.1,0.2,0.2,0.5,0.3,0.8s0.1,0.7,0.1,1.1c0,0.4,0,0.8-0.1,1.1c-0.1,0.3-0.2,0.6-0.3,0.8
		c-0.1,0.2-0.3,0.4-0.5,0.5c-0.2,0.1-0.5,0.2-0.8,0.2c-0.3,0-0.6-0.1-0.8-0.2s-0.4-0.3-0.5-0.5c-0.1-0.2-0.2-0.5-0.3-0.8
		C-222.5,723-222.6,722.7-222.6,722.3z M-222,722.3c0,0.1,0,0.2,0,0.3c0,0.1,0,0.2,0,0.3l2.1-1.9c-0.1-0.3-0.2-0.5-0.4-0.6
		c-0.2-0.2-0.4-0.2-0.6-0.2c-0.4,0-0.7,0.2-0.9,0.5C-221.9,721.1-222,721.6-222,722.3z M-219.7,722.3c0-0.3,0-0.5,0-0.7l-2.1,1.9
		c0.1,0.3,0.2,0.5,0.4,0.6c0.2,0.2,0.4,0.2,0.6,0.2c0.4,0,0.7-0.2,0.9-0.5C-219.8,723.5-219.7,723-219.7,722.3z"/>
</g>
<g class="st2">
	<path d="M-239.7,734.3c0-0.4,0-0.8,0.1-1.1c0.1-0.3,0.2-0.6,0.3-0.8c0.1-0.2,0.3-0.4,0.5-0.5c0.2-0.1,0.5-0.2,0.8-0.2
		c0.3,0,0.6,0.1,0.8,0.2c0.2,0.1,0.4,0.3,0.5,0.5c0.1,0.2,0.2,0.5,0.3,0.8s0.1,0.7,0.1,1.1c0,0.4,0,0.8-0.1,1.1
		c-0.1,0.3-0.2,0.6-0.3,0.8s-0.3,0.4-0.5,0.5c-0.2,0.1-0.5,0.2-0.8,0.2c-0.3,0-0.6-0.1-0.8-0.2c-0.2-0.1-0.4-0.3-0.5-0.5
		c-0.1-0.2-0.2-0.5-0.3-0.8S-239.7,734.7-239.7,734.3z M-239.1,734.3c0,0.1,0,0.2,0,0.3c0,0.1,0,0.2,0,0.3l2.1-1.9
		c-0.1-0.3-0.2-0.5-0.4-0.6c-0.2-0.2-0.4-0.2-0.6-0.2c-0.4,0-0.7,0.2-0.9,0.5C-239,733.1-239.1,733.6-239.1,734.3z M-236.8,734.3
		c0-0.3,0-0.5,0-0.7l-2.1,1.9c0.1,0.3,0.2,0.5,0.4,0.6c0.2,0.2,0.4,0.2,0.6,0.2c0.4,0,0.7-0.2,0.9-0.5
		C-236.9,735.5-236.8,735-236.8,734.3z"/>
	<path d="M-232.2,733.1c0,0.4-0.2,0.9-0.6,1.5c-0.4,0.5-1,1.1-1.7,1.8h2.5v0.5h-3.2v-0.5c0.1-0.1,0.2-0.2,0.4-0.3
		c0.2-0.1,0.3-0.3,0.5-0.5s0.4-0.3,0.6-0.5c0.2-0.2,0.4-0.4,0.5-0.6c0.2-0.2,0.3-0.4,0.4-0.6s0.1-0.4,0.1-0.6c0-0.3-0.1-0.5-0.2-0.7
		c-0.1-0.2-0.4-0.2-0.7-0.2c-0.3,0-0.5,0-0.6,0.1c-0.2,0.1-0.3,0.1-0.5,0.2l-0.2-0.4c0.2-0.2,0.4-0.3,0.7-0.3
		c0.2-0.1,0.5-0.1,0.8-0.1c0.4,0,0.8,0.1,1,0.4C-232.3,732.3-232.2,732.6-232.2,733.1z"/>
	<path d="M-230.6,731.9c0-0.1,0-0.2,0.1-0.3c0.1-0.1,0.2-0.1,0.3-0.1c0.2,0,0.3,0.1,0.4,0.1c0.1,0.1,0.1,0.2,0.1,0.4
		c0,0.2,0,0.4-0.1,0.5c-0.1,0.1-0.1,0.3-0.2,0.4c-0.1,0.1-0.2,0.2-0.2,0.2c-0.1,0.1-0.2,0.1-0.2,0.1l-0.2-0.3
		c0.1-0.1,0.2-0.2,0.3-0.3c0.1-0.1,0.1-0.2,0.1-0.4c0,0,0,0-0.1,0c-0.1,0-0.2,0-0.3-0.1C-230.5,732.2-230.6,732.1-230.6,731.9z
		 M-229.2,731.9c0-0.1,0-0.2,0.1-0.3c0.1-0.1,0.2-0.1,0.3-0.1c0.2,0,0.3,0.1,0.4,0.1c0.1,0.1,0.1,0.2,0.1,0.4c0,0.2,0,0.4-0.1,0.5
		c-0.1,0.1-0.1,0.3-0.2,0.4s-0.2,0.2-0.2,0.2c-0.1,0.1-0.2,0.1-0.2,0.1l-0.2-0.3c0.1-0.1,0.2-0.2,0.3-0.3c0.1-0.1,0.1-0.2,0.1-0.4
		c0,0,0,0-0.1,0s-0.2,0-0.3-0.1C-229.1,732.2-229.2,732.1-229.2,731.9z"/>
	<path d="M-226.9,734.3c0-0.4,0-0.8,0.1-1.1s0.2-0.6,0.3-0.8c0.1-0.2,0.3-0.4,0.5-0.5c0.2-0.1,0.5-0.2,0.8-0.2
		c0.3,0,0.6,0.1,0.8,0.2s0.4,0.3,0.5,0.5c0.1,0.2,0.2,0.5,0.3,0.8s0.1,0.7,0.1,1.1c0,0.4,0,0.8-0.1,1.1c-0.1,0.3-0.2,0.6-0.3,0.8
		c-0.1,0.2-0.3,0.4-0.5,0.5s-0.5,0.2-0.8,0.2c-0.3,0-0.6-0.1-0.8-0.2c-0.2-0.1-0.4-0.3-0.5-0.5c-0.1-0.2-0.2-0.5-0.3-0.8
		C-226.8,735-226.9,734.7-226.9,734.3z M-226.3,734.3c0,0.1,0,0.2,0,0.3c0,0.1,0,0.2,0,0.3l2.1-1.9c-0.1-0.3-0.2-0.5-0.4-0.6
		c-0.2-0.2-0.4-0.2-0.6-0.2c-0.4,0-0.7,0.2-0.9,0.5C-226.2,733.1-226.3,733.6-226.3,734.3z M-224,734.3c0-0.3,0-0.5,0-0.7l-2.1,1.9
		c0.1,0.3,0.2,0.5,0.4,0.6c0.2,0.2,0.4,0.2,0.6,0.2c0.4,0,0.7-0.2,0.9-0.5C-224,735.5-224,735-224,734.3z"/>
	<path d="M-222.6,734.3c0-0.4,0-0.8,0.1-1.1s0.2-0.6,0.3-0.8c0.1-0.2,0.3-0.4,0.5-0.5s0.5-0.2,0.8-0.2c0.3,0,0.6,0.1,0.8,0.2
		c0.2,0.1,0.4,0.3,0.5,0.5c0.1,0.2,0.2,0.5,0.3,0.8s0.1,0.7,0.1,1.1c0,0.4,0,0.8-0.1,1.1c-0.1,0.3-0.2,0.6-0.3,0.8
		c-0.1,0.2-0.3,0.4-0.5,0.5c-0.2,0.1-0.5,0.2-0.8,0.2c-0.3,0-0.6-0.1-0.8-0.2s-0.4-0.3-0.5-0.5c-0.1-0.2-0.2-0.5-0.3-0.8
		C-222.5,735-222.6,734.7-222.6,734.3z M-222,734.3c0,0.1,0,0.2,0,0.3c0,0.1,0,0.2,0,0.3l2.1-1.9c-0.1-0.3-0.2-0.5-0.4-0.6
		c-0.2-0.2-0.4-0.2-0.6-0.2c-0.4,0-0.7,0.2-0.9,0.5C-221.9,733.1-222,733.6-222,734.3z M-219.7,734.3c0-0.3,0-0.5,0-0.7l-2.1,1.9
		c0.1,0.3,0.2,0.5,0.4,0.6c0.2,0.2,0.4,0.2,0.6,0.2c0.4,0,0.7-0.2,0.9-0.5C-219.8,735.5-219.7,735-219.7,734.3z"/>
</g>
<g class="st2">
	<path d="M-155.9,724.4c0.2,0,0.4,0,0.5-0.1c0.2,0,0.3-0.1,0.4-0.2c0.1-0.1,0.2-0.2,0.3-0.3c0.1-0.1,0.1-0.3,0.1-0.4
		c0-0.3-0.1-0.6-0.3-0.7c-0.2-0.1-0.5-0.2-0.9-0.2h-0.5v-0.3l1.4-1.8h-2.2v-0.5h2.8v0.5l-1.4,1.6h0.1c0.2,0,0.4,0,0.6,0.1
		s0.3,0.1,0.5,0.3c0.1,0.1,0.2,0.3,0.3,0.4c0.1,0.2,0.1,0.3,0.1,0.5c0,0.3-0.1,0.5-0.1,0.7c-0.1,0.2-0.2,0.4-0.4,0.5
		c-0.2,0.1-0.4,0.2-0.6,0.3s-0.5,0.1-0.7,0.1c-0.2,0-0.5,0-0.6-0.1c-0.2,0-0.3-0.1-0.5-0.1l0.1-0.5c0.1,0.1,0.3,0.1,0.4,0.1
		C-156.3,724.3-156.1,724.4-155.9,724.4z"/>
	<path d="M-153,722.3c0-0.4,0-0.8,0.1-1.1c0.1-0.3,0.2-0.6,0.3-0.8c0.1-0.2,0.3-0.4,0.5-0.5c0.2-0.1,0.5-0.2,0.8-0.2
		s0.6,0.1,0.8,0.2s0.4,0.3,0.5,0.5s0.2,0.5,0.3,0.8c0.1,0.3,0.1,0.7,0.1,1.1c0,0.4,0,0.8-0.1,1.1c-0.1,0.3-0.2,0.6-0.3,0.8
		s-0.3,0.4-0.5,0.5s-0.5,0.2-0.8,0.2s-0.6-0.1-0.8-0.2c-0.2-0.1-0.4-0.3-0.5-0.5c-0.1-0.2-0.2-0.5-0.3-0.8
		C-153,723-153,722.7-153,722.3z M-152.4,722.3c0,0.1,0,0.2,0,0.3c0,0.1,0,0.2,0,0.3l2.1-1.9c-0.1-0.3-0.2-0.5-0.4-0.6
		c-0.2-0.2-0.4-0.2-0.6-0.2c-0.4,0-0.7,0.2-0.9,0.5C-152.4,721.1-152.4,721.6-152.4,722.3z M-150.1,722.3c0-0.3,0-0.5,0-0.7
		l-2.1,1.9c0.1,0.3,0.2,0.5,0.4,0.6c0.2,0.2,0.4,0.2,0.6,0.2c0.4,0,0.7-0.2,0.9-0.5C-150.2,723.5-150.1,723-150.1,722.3z"/>
	<path d="M-145.9,719.7l0.4,0.2l-2.6,5.9l-0.4-0.2L-145.9,719.7z"/>
	<path d="M-141.3,721c0,0.4-0.2,0.9-0.6,1.5c-0.4,0.5-1,1.1-1.7,1.8h2.5v0.5h-3.2v-0.5c0.1-0.1,0.2-0.2,0.4-0.3
		c0.2-0.1,0.3-0.3,0.5-0.5c0.2-0.2,0.4-0.3,0.6-0.5c0.2-0.2,0.4-0.4,0.5-0.6c0.2-0.2,0.3-0.4,0.4-0.6c0.1-0.2,0.1-0.4,0.1-0.6
		c0-0.3-0.1-0.5-0.2-0.7s-0.4-0.2-0.7-0.2s-0.5,0-0.6,0.1c-0.2,0.1-0.3,0.1-0.5,0.2l-0.2-0.4c0.2-0.2,0.4-0.3,0.7-0.3
		c0.2-0.1,0.5-0.1,0.8-0.1c0.4,0,0.8,0.1,1,0.4C-141.4,720.3-141.3,720.6-141.3,721z"/>
	<path d="M-140.2,722.3c0-0.4,0-0.8,0.1-1.1c0.1-0.3,0.2-0.6,0.3-0.8c0.1-0.2,0.3-0.4,0.5-0.5s0.5-0.2,0.8-0.2s0.6,0.1,0.8,0.2
		s0.4,0.3,0.5,0.5c0.1,0.2,0.2,0.5,0.3,0.8c0.1,0.3,0.1,0.7,0.1,1.1c0,0.4,0,0.8-0.1,1.1c-0.1,0.3-0.2,0.6-0.3,0.8
		c-0.1,0.2-0.3,0.4-0.5,0.5c-0.2,0.1-0.5,0.2-0.8,0.2s-0.6-0.1-0.8-0.2s-0.4-0.3-0.5-0.5c-0.1-0.2-0.2-0.5-0.3-0.8
		C-140.2,723-140.2,722.7-140.2,722.3z M-139.6,722.3c0,0.1,0,0.2,0,0.3c0,0.1,0,0.2,0,0.3l2.1-1.9c-0.1-0.3-0.2-0.5-0.4-0.6
		c-0.2-0.2-0.4-0.2-0.6-0.2c-0.4,0-0.7,0.2-0.9,0.5C-139.5,721.1-139.6,721.6-139.6,722.3z M-137.3,722.3c0-0.3,0-0.5,0-0.7
		l-2.1,1.9c0.1,0.3,0.2,0.5,0.4,0.6c0.2,0.1,0.4,0.2,0.6,0.2c0.4,0,0.7-0.2,0.9-0.5C-137.4,723.5-137.3,723-137.3,722.3z"/>
	<path d="M-135.9,722.3c0-0.4,0-0.8,0.1-1.1c0.1-0.3,0.2-0.6,0.3-0.8c0.1-0.2,0.3-0.4,0.5-0.5s0.5-0.2,0.8-0.2s0.6,0.1,0.8,0.2
		c0.2,0.1,0.4,0.3,0.5,0.5c0.1,0.2,0.2,0.5,0.3,0.8c0.1,0.3,0.1,0.7,0.1,1.1c0,0.4,0,0.8-0.1,1.1c-0.1,0.3-0.2,0.6-0.3,0.8
		c-0.1,0.2-0.3,0.4-0.5,0.5c-0.2,0.1-0.5,0.2-0.8,0.2s-0.6-0.1-0.8-0.2s-0.4-0.3-0.5-0.5s-0.2-0.5-0.3-0.8
		C-135.9,723-135.9,722.7-135.9,722.3z M-135.3,722.3c0,0.1,0,0.2,0,0.3c0,0.1,0,0.2,0,0.3l2.1-1.9c-0.1-0.3-0.2-0.5-0.4-0.6
		c-0.2-0.2-0.4-0.2-0.6-0.2c-0.4,0-0.7,0.2-0.9,0.5C-135.3,721.1-135.3,721.6-135.3,722.3z M-133,722.3c0-0.3,0-0.5,0-0.7l-2.1,1.9
		c0.1,0.3,0.2,0.5,0.4,0.6c0.2,0.2,0.4,0.2,0.6,0.2c0.4,0,0.7-0.2,0.9-0.5C-133.1,723.5-133,723-133,722.3z"/>
</g>
<g class="st2">
	<path d="M-155.2,734.3c0-0.4,0-0.8,0.1-1.1c0.1-0.3,0.2-0.6,0.3-0.8c0.1-0.2,0.3-0.4,0.5-0.5s0.5-0.2,0.8-0.2s0.6,0.1,0.8,0.2
		s0.4,0.3,0.5,0.5c0.1,0.2,0.2,0.5,0.3,0.8c0.1,0.3,0.1,0.7,0.1,1.1c0,0.4,0,0.8-0.1,1.1c-0.1,0.3-0.2,0.6-0.3,0.8
		c-0.1,0.2-0.3,0.4-0.5,0.5s-0.5,0.2-0.8,0.2s-0.6-0.1-0.8-0.2s-0.4-0.3-0.5-0.5c-0.1-0.2-0.2-0.5-0.3-0.8
		C-155.1,735-155.2,734.7-155.2,734.3z M-154.6,734.3c0,0.1,0,0.2,0,0.3c0,0.1,0,0.2,0,0.3l2.1-1.9c-0.1-0.3-0.2-0.5-0.4-0.6
		c-0.2-0.2-0.4-0.2-0.6-0.2c-0.4,0-0.7,0.2-0.9,0.5C-154.5,733.1-154.6,733.6-154.6,734.3z M-152.3,734.3c0-0.3,0-0.5,0-0.7
		l-2.1,1.9c0.1,0.3,0.2,0.5,0.4,0.6c0.2,0.2,0.4,0.2,0.6,0.2c0.4,0,0.7-0.2,0.9-0.5C-152.4,735.5-152.3,735-152.3,734.3z"/>
	<path d="M-147.7,733.1c0,0.4-0.2,0.9-0.6,1.5c-0.4,0.5-1,1.1-1.7,1.8h2.5v0.5h-3.2v-0.5c0.1-0.1,0.2-0.2,0.4-0.3
		c0.2-0.1,0.3-0.3,0.5-0.5s0.4-0.3,0.6-0.5s0.4-0.4,0.5-0.6c0.2-0.2,0.3-0.4,0.4-0.6c0.1-0.2,0.1-0.4,0.1-0.6c0-0.3-0.1-0.5-0.2-0.7
		c-0.1-0.2-0.4-0.2-0.7-0.2c-0.3,0-0.5,0-0.6,0.1c-0.2,0.1-0.3,0.1-0.5,0.2l-0.2-0.4c0.2-0.2,0.4-0.3,0.7-0.3
		c0.2-0.1,0.5-0.1,0.8-0.1c0.4,0,0.8,0.1,1,0.4C-147.8,732.3-147.7,732.6-147.7,733.1z"/>
	<path d="M-146.1,731.9c0-0.1,0-0.2,0.1-0.3c0.1-0.1,0.2-0.1,0.3-0.1c0.2,0,0.3,0.1,0.4,0.1c0.1,0.1,0.1,0.2,0.1,0.4
		c0,0.2,0,0.4-0.1,0.5c-0.1,0.1-0.1,0.3-0.2,0.4s-0.2,0.2-0.2,0.2c-0.1,0.1-0.2,0.1-0.2,0.1l-0.2-0.3c0.1-0.1,0.2-0.2,0.3-0.3
		c0.1-0.1,0.1-0.2,0.1-0.4c0,0,0,0-0.1,0c-0.1,0-0.2,0-0.3-0.1C-146,732.2-146.1,732.1-146.1,731.9z M-144.6,731.9
		c0-0.1,0-0.2,0.1-0.3c0.1-0.1,0.2-0.1,0.3-0.1c0.2,0,0.3,0.1,0.4,0.1c0.1,0.1,0.1,0.2,0.1,0.4c0,0.2,0,0.4-0.1,0.5
		c-0.1,0.1-0.1,0.3-0.2,0.4s-0.2,0.2-0.2,0.2c-0.1,0.1-0.2,0.1-0.2,0.1l-0.2-0.3c0.1-0.1,0.2-0.2,0.3-0.3c0.1-0.1,0.1-0.2,0.1-0.4
		c0,0,0,0-0.1,0c-0.1,0-0.2,0-0.3-0.1C-144.6,732.2-144.6,732.1-144.6,731.9z"/>
	<path d="M-142.3,734.3c0-0.4,0-0.8,0.1-1.1c0.1-0.3,0.2-0.6,0.3-0.8c0.1-0.2,0.3-0.4,0.5-0.5c0.2-0.1,0.5-0.2,0.8-0.2
		c0.3,0,0.6,0.1,0.8,0.2s0.4,0.3,0.5,0.5c0.1,0.2,0.2,0.5,0.3,0.8c0.1,0.3,0.1,0.7,0.1,1.1c0,0.4,0,0.8-0.1,1.1
		c-0.1,0.3-0.2,0.6-0.3,0.8c-0.1,0.2-0.3,0.4-0.5,0.5s-0.5,0.2-0.8,0.2c-0.3,0-0.6-0.1-0.8-0.2c-0.2-0.1-0.4-0.3-0.5-0.5
		c-0.1-0.2-0.2-0.5-0.3-0.8C-142.3,735.1-142.3,734.7-142.3,734.3z M-141.8,734.3c0,0.1,0,0.2,0,0.3c0,0.1,0,0.2,0,0.3l2.1-1.9
		c-0.1-0.3-0.2-0.5-0.4-0.6c-0.2-0.2-0.4-0.2-0.6-0.2c-0.4,0-0.7,0.2-0.9,0.5C-141.7,733.1-141.8,733.6-141.8,734.3z M-139.4,734.3
		c0-0.3,0-0.5,0-0.7l-2.1,1.9c0.1,0.3,0.2,0.5,0.4,0.6c0.2,0.2,0.4,0.2,0.6,0.2c0.4,0,0.7-0.2,0.9-0.5
		C-139.5,735.5-139.4,735-139.4,734.3z"/>
	<path d="M-138.1,734.3c0-0.4,0-0.8,0.1-1.1s0.2-0.6,0.3-0.8c0.1-0.2,0.3-0.4,0.5-0.5s0.5-0.2,0.8-0.2c0.3,0,0.6,0.1,0.8,0.2
		s0.4,0.3,0.5,0.5c0.1,0.2,0.2,0.5,0.3,0.8s0.1,0.7,0.1,1.1c0,0.4,0,0.8-0.1,1.1c-0.1,0.3-0.2,0.6-0.3,0.8c-0.1,0.2-0.3,0.4-0.5,0.5
		c-0.2,0.1-0.5,0.2-0.8,0.2c-0.3,0-0.6-0.1-0.8-0.2s-0.4-0.3-0.5-0.5c-0.1-0.2-0.2-0.5-0.3-0.8S-138.1,734.7-138.1,734.3z
		 M-137.5,734.3c0,0.1,0,0.2,0,0.3c0,0.1,0,0.2,0,0.3l2.1-1.9c-0.1-0.3-0.2-0.5-0.4-0.6c-0.2-0.2-0.4-0.2-0.6-0.2
		c-0.4,0-0.7,0.2-0.9,0.5C-137.4,733.1-137.5,733.6-137.5,734.3z M-135.2,734.3c0-0.3,0-0.5,0-0.7l-2.1,1.9c0.1,0.3,0.2,0.5,0.4,0.6
		c0.2,0.2,0.4,0.2,0.6,0.2c0.4,0,0.7-0.2,0.9-0.5C-135.3,735.5-135.2,735-135.2,734.3z"/>
</g>
<g class="st2">
	<path d="M-245.8,562.1c0,0,0-0.1,0-0.2s0-0.1,0-0.2s0-0.1,0-0.2s0-0.1,0-0.2h-0.5v-0.5h0.9l0.1,0.5l0,0c0.1-0.2,0.3-0.3,0.5-0.4
		c0.2-0.1,0.4-0.2,0.7-0.2c0.5,0,0.9,0.1,1.1,0.4c0.3,0.3,0.4,0.7,0.4,1.4c0,0.3,0,0.6-0.1,0.8c-0.1,0.2-0.2,0.4-0.4,0.6
		c-0.2,0.2-0.4,0.3-0.6,0.4c-0.2,0.1-0.5,0.1-0.8,0.1c-0.1,0-0.2,0-0.3,0c-0.1,0-0.1,0-0.2,0c-0.1,0-0.1,0-0.2,0
		c-0.1,0-0.1,0-0.2-0.1v1.5h-0.5L-245.8,562.1L-245.8,562.1z M-244.2,561.3c-0.1,0-0.3,0-0.4,0.1c-0.1,0.1-0.2,0.1-0.3,0.2
		s-0.2,0.2-0.2,0.3c-0.1,0.1-0.1,0.2-0.1,0.3v1.6c0.1,0.1,0.2,0.1,0.4,0.2c0.1,0,0.3,0.1,0.5,0.1c0.4,0,0.7-0.1,0.9-0.4
		c0.2-0.2,0.3-0.6,0.3-1.1c0-0.4-0.1-0.7-0.2-0.9C-243.5,561.4-243.8,561.3-244.2,561.3z"/>
	<path d="M-241.4,559.4h1.2v3.8c0,0.3,0,0.5,0.1,0.6c0.1,0.1,0.2,0.2,0.4,0.2c0.1,0,0.3,0,0.4-0.1s0.3-0.1,0.4-0.2l0.3,0.4
		c-0.1,0.1-0.2,0.1-0.3,0.2c-0.1,0.1-0.2,0.1-0.3,0.1c-0.1,0-0.2,0.1-0.3,0.1s-0.2,0-0.3,0c-0.2,0-0.3,0-0.5-0.1
		c-0.1,0-0.3-0.1-0.3-0.2c-0.1-0.1-0.2-0.2-0.2-0.4c0-0.2-0.1-0.4-0.1-0.6v-3.3h-0.6v-0.5H-241.4z"/>
	<path d="M-237.2,561.1c0.2-0.1,0.4-0.2,0.7-0.3c0.3-0.1,0.5-0.1,0.8-0.1c0.2,0,0.4,0,0.6,0.1c0.2,0.1,0.3,0.2,0.4,0.3
		c0.1,0.1,0.1,0.3,0.2,0.4c0,0.2,0,0.3,0,0.5c0,0.2,0,0.4,0,0.6s0,0.4,0,0.6c0,0.2,0,0.5,0,0.7h0.5v0.5h-1l-0.1-0.5l0,0
		c0,0-0.1,0.1-0.1,0.2c-0.1,0.1-0.1,0.1-0.2,0.2c-0.1,0.1-0.2,0.1-0.3,0.2c-0.1,0-0.3,0.1-0.5,0.1c-0.4,0-0.6-0.1-0.8-0.3
		c-0.2-0.2-0.3-0.4-0.3-0.7c0-0.2,0.1-0.4,0.2-0.6c0.1-0.2,0.3-0.3,0.5-0.4s0.4-0.1,0.7-0.1s0.6,0,1,0.1c0-0.2,0-0.4,0-0.5
		s-0.1-0.3-0.1-0.3c-0.1-0.1-0.1-0.1-0.3-0.2c-0.1,0-0.2-0.1-0.4-0.1c-0.2,0-0.4,0-0.6,0.1c-0.2,0.1-0.4,0.1-0.5,0.2L-237.2,561.1z
		 M-236.1,564c0.1,0,0.3,0,0.4-0.1c0.1,0,0.2-0.1,0.3-0.2s0.2-0.1,0.2-0.2c0.1-0.1,0.1-0.2,0.1-0.2v-0.5c-0.2,0-0.5-0.1-0.7-0.1
		c-0.2,0-0.4,0-0.5,0.1c-0.2,0-0.3,0.1-0.4,0.2s-0.1,0.2-0.1,0.4c0,0.2,0.1,0.3,0.2,0.4C-236.5,563.9-236.4,564-236.1,564z"/>
	<path d="M-231.4,563.9h0.3l0.9-3h0.6l-1,3.2c-0.1,0.2-0.1,0.4-0.2,0.6c-0.1,0.2-0.1,0.4-0.2,0.6c-0.1,0.2-0.2,0.3-0.4,0.5
		c-0.2,0.1-0.4,0.2-0.7,0.2c-0.1,0-0.1,0-0.2,0s-0.1,0-0.2-0.1c-0.1,0-0.1,0-0.2-0.1c-0.1,0-0.1-0.1-0.1-0.1l0.2-0.5
		c0,0,0.1,0,0.1,0.1c0,0,0.1,0,0.2,0.1c0.1,0,0.1,0,0.2,0s0.1,0,0.1,0c0.4,0,0.6-0.3,0.7-0.9h-0.5l-1.5-3.6h0.6L-231.4,563.9z"/>
	<path d="M-225.6,564c-0.1,0.1-0.2,0.1-0.3,0.2c-0.1,0.1-0.2,0.1-0.4,0.2c-0.2,0.1-0.3,0.1-0.4,0.1c-0.1,0-0.3,0-0.5,0
		c-0.3,0-0.5,0-0.8-0.1c-0.2-0.1-0.4-0.2-0.5-0.4s-0.3-0.4-0.3-0.6c-0.1-0.2-0.1-0.5-0.1-0.8c0-0.3,0-0.6,0.1-0.8
		c0.1-0.2,0.2-0.4,0.4-0.6c0.2-0.2,0.3-0.3,0.6-0.4c0.2-0.1,0.5-0.1,0.7-0.1c0.2,0,0.4,0,0.6,0.1c0.2,0.1,0.4,0.2,0.5,0.3
		c0.1,0.1,0.3,0.3,0.3,0.6c0.1,0.3,0.1,0.6,0.1,1h-2.7c0,0.4,0.1,0.7,0.3,1c0.2,0.2,0.5,0.3,0.9,0.3c0.1,0,0.3,0,0.4,0
		c0.1,0,0.2-0.1,0.4-0.1c0.1,0,0.2-0.1,0.3-0.1c0.1-0.1,0.2-0.1,0.2-0.1L-225.6,564z M-227.1,561.2c-0.2,0-0.3,0-0.4,0.1
		c-0.1,0-0.3,0.1-0.4,0.2c-0.1,0.1-0.2,0.2-0.3,0.3c-0.1,0.1-0.1,0.3-0.1,0.5h2.2c0-0.3-0.1-0.6-0.3-0.7
		C-226.6,561.3-226.8,561.2-227.1,561.2z"/>
	<path d="M-224.6,564.4v-0.5h1v-2.6h-1v-0.5h1.3l0.1,0.5l0,0c0.2-0.1,0.3-0.3,0.5-0.4s0.4-0.2,0.7-0.2c0.2,0,0.3,0,0.4,0.1
		c0.1,0.1,0.2,0.2,0.2,0.3c0.1,0.1,0.1,0.3,0.1,0.4c0,0.2,0,0.4,0,0.6h-0.5c0-0.3,0-0.5-0.1-0.7c-0.1-0.1-0.2-0.2-0.3-0.2
		s-0.3,0-0.4,0.1c-0.1,0-0.2,0.1-0.3,0.2c-0.1,0.1-0.2,0.1-0.2,0.2c-0.1,0.1-0.1,0.1-0.1,0.2v2.1h1.4v0.5L-224.6,564.4L-224.6,564.4
		z"/>
	<path d="M-215.7,563.9h1.1v-3.7l-1.1,0.8l-0.3-0.4l1.6-1.1h0.4v4.5h1.1v0.5h-2.8V563.9z"/>
</g>
<g class="st2">
	<path d="M-161.3,562.1c0,0,0-0.1,0-0.2s0-0.1,0-0.2s0-0.1,0-0.2s0-0.1,0-0.2h-0.5v-0.5h0.9l0.1,0.5l0,0c0.1-0.2,0.3-0.3,0.5-0.4
		c0.2-0.1,0.4-0.2,0.7-0.2c0.5,0,0.9,0.1,1.1,0.4c0.3,0.3,0.4,0.7,0.4,1.4c0,0.3,0,0.6-0.1,0.8c-0.1,0.2-0.2,0.4-0.4,0.6
		c-0.2,0.2-0.4,0.3-0.6,0.4c-0.2,0.1-0.5,0.1-0.8,0.1c-0.1,0-0.2,0-0.3,0c-0.1,0-0.1,0-0.2,0s-0.1,0-0.2,0c-0.1,0-0.1,0-0.2-0.1v1.5
		h-0.4V562.1z M-159.7,561.3c-0.1,0-0.3,0-0.4,0.1c-0.1,0.1-0.2,0.1-0.3,0.2c-0.1,0.1-0.2,0.2-0.2,0.3c-0.1,0.1-0.1,0.2-0.1,0.3v1.6
		c0.1,0.1,0.2,0.1,0.4,0.2c0.1,0,0.3,0.1,0.5,0.1c0.4,0,0.7-0.1,0.9-0.4c0.2-0.2,0.3-0.6,0.3-1.1c0-0.4-0.1-0.7-0.2-0.9
		C-159,561.4-159.3,561.3-159.7,561.3z"/>
	<path d="M-156.9,559.4h1.2v3.8c0,0.3,0,0.5,0.1,0.6c0.1,0.1,0.2,0.2,0.4,0.2c0.1,0,0.3,0,0.4-0.1c0.1,0,0.3-0.1,0.4-0.2l0.3,0.4
		c-0.1,0.1-0.2,0.1-0.2,0.2c-0.1,0.1-0.2,0.1-0.3,0.1c-0.1,0-0.2,0.1-0.3,0.1c-0.1,0-0.2,0-0.3,0c-0.2,0-0.3,0-0.5-0.1
		c-0.1,0-0.3-0.1-0.3-0.2c-0.1-0.1-0.2-0.2-0.2-0.4c0-0.2-0.1-0.4-0.1-0.6v-3.3h-0.6V559.4z"/>
	<path d="M-152.7,561.1c0.2-0.1,0.4-0.2,0.7-0.3s0.5-0.1,0.8-0.1c0.2,0,0.4,0,0.6,0.1c0.2,0.1,0.3,0.2,0.4,0.3
		c0.1,0.1,0.1,0.3,0.2,0.4c0,0.2,0,0.3,0,0.5c0,0.2,0,0.4,0,0.6s0,0.4,0,0.6c0,0.2,0,0.5,0,0.7h0.5v0.5h-0.9l-0.1-0.5l0,0
		c0,0-0.1,0.1-0.1,0.2c-0.1,0.1-0.1,0.1-0.2,0.2c-0.1,0.1-0.2,0.1-0.3,0.2c-0.1,0-0.3,0.1-0.5,0.1c-0.4,0-0.6-0.1-0.8-0.3
		c-0.2-0.2-0.3-0.4-0.3-0.7c0-0.2,0.1-0.4,0.2-0.6c0.1-0.2,0.3-0.3,0.5-0.4s0.4-0.1,0.7-0.1s0.6,0,1,0.1c0-0.2,0-0.4,0-0.5
		s-0.1-0.3-0.1-0.3c-0.1-0.1-0.1-0.1-0.3-0.2c-0.1,0-0.2-0.1-0.4-0.1c-0.2,0-0.4,0-0.6,0.1s-0.4,0.1-0.5,0.2L-152.7,561.1z
		 M-151.6,564c0.1,0,0.3,0,0.4-0.1c0.1,0,0.2-0.1,0.3-0.2c0.1-0.1,0.2-0.1,0.2-0.2c0.1-0.1,0.1-0.2,0.1-0.2v-0.5
		c-0.2,0-0.5-0.1-0.7-0.1s-0.4,0-0.5,0.1c-0.2,0-0.3,0.1-0.4,0.2c-0.1,0.1-0.1,0.2-0.1,0.4c0,0.2,0.1,0.3,0.2,0.4
		C-152,563.9-151.9,564-151.6,564z"/>
	<path d="M-146.9,563.9h0.3l0.9-3h0.6l-1,3.2c-0.1,0.2-0.1,0.4-0.2,0.6c-0.1,0.2-0.1,0.4-0.2,0.6s-0.2,0.3-0.4,0.5
		c-0.2,0.1-0.4,0.2-0.7,0.2c-0.1,0-0.1,0-0.2,0s-0.1,0-0.2-0.1c-0.1,0-0.1,0-0.2-0.1c-0.1,0-0.1-0.1-0.1-0.1l0.2-0.5
		c0,0,0.1,0,0.1,0.1c0,0,0.1,0,0.2,0.1c0.1,0,0.1,0,0.2,0c0.1,0,0.1,0,0.1,0c0.4,0,0.6-0.3,0.7-0.9h-0.5l-1.5-3.6h0.6L-146.9,563.9z
		"/>
	<path d="M-141.1,564c-0.1,0.1-0.2,0.1-0.3,0.2c-0.1,0.1-0.2,0.1-0.4,0.2c-0.1,0-0.3,0.1-0.4,0.1c-0.1,0-0.3,0-0.5,0
		c-0.3,0-0.5,0-0.8-0.1c-0.2-0.1-0.4-0.2-0.5-0.4s-0.3-0.4-0.3-0.6c-0.1-0.2-0.1-0.5-0.1-0.8c0-0.3,0-0.6,0.1-0.8
		c0.1-0.2,0.2-0.4,0.4-0.6s0.3-0.3,0.6-0.4c0.2-0.1,0.5-0.1,0.7-0.1c0.2,0,0.4,0,0.6,0.1c0.2,0.1,0.4,0.2,0.5,0.3
		c0.1,0.1,0.3,0.3,0.3,0.6c0.1,0.3,0.1,0.6,0.1,1h-2.7c0,0.4,0.1,0.7,0.3,1c0.2,0.2,0.5,0.3,0.9,0.3c0.1,0,0.3,0,0.4,0
		c0.1,0,0.2-0.1,0.4-0.1c0.1,0,0.2-0.1,0.3-0.1c0.1-0.1,0.2-0.1,0.2-0.1L-141.1,564z M-142.6,561.2c-0.2,0-0.3,0-0.4,0.1
		c-0.1,0-0.3,0.1-0.4,0.2c-0.1,0.1-0.2,0.2-0.3,0.3c-0.1,0.1-0.1,0.3-0.1,0.5h2.2c0-0.3-0.1-0.6-0.3-0.7
		C-142.1,561.3-142.3,561.2-142.6,561.2z"/>
	<path d="M-140.1,564.4v-0.5h1v-2.6h-1v-0.5h1.3l0.1,0.5l0,0c0.2-0.1,0.3-0.3,0.5-0.4s0.4-0.2,0.7-0.2c0.2,0,0.3,0,0.4,0.1
		c0.1,0.1,0.2,0.2,0.2,0.3c0.1,0.1,0.1,0.3,0.1,0.4c0,0.2,0,0.4,0,0.6h-0.5c0-0.3,0-0.5-0.1-0.7c-0.1-0.1-0.2-0.2-0.3-0.2
		c-0.1,0-0.3,0-0.4,0.1c-0.1,0-0.2,0.1-0.3,0.2c-0.1,0.1-0.2,0.1-0.2,0.2c-0.1,0.1-0.1,0.1-0.1,0.2v2.1h1.4v0.5L-140.1,564.4
		L-140.1,564.4z"/>
	<path d="M-128.5,560.7c0,0.4-0.2,0.9-0.6,1.5c-0.4,0.5-1,1.1-1.7,1.8h2.5v0.5h-3.2V564c0.1-0.1,0.2-0.2,0.4-0.3
		c0.2-0.1,0.3-0.3,0.5-0.5c0.2-0.2,0.4-0.3,0.6-0.5s0.4-0.4,0.5-0.6c0.2-0.2,0.3-0.4,0.4-0.6c0.1-0.2,0.1-0.4,0.1-0.6
		c0-0.3-0.1-0.5-0.2-0.7c-0.1-0.2-0.4-0.2-0.7-0.2c-0.3,0-0.5,0-0.6,0.1c-0.2,0.1-0.3,0.1-0.5,0.2l-0.2-0.4c0.2-0.2,0.4-0.3,0.7-0.3
		c0.2-0.1,0.5-0.1,0.8-0.1c0.4,0,0.8,0.1,1,0.4C-128.6,559.9-128.5,560.3-128.5,560.7z"/>
</g>
</svg>
