<?xml version="1.0" encoding="utf-8"?>
<!-- Generator: Adobe Illustrator 19.0.0, SVG Export Plug-In . SVG Version: 6.00 Build 0)  -->
<svg version="1.1" id="Layer_1" xmlns="http://www.w3.org/2000/svg" xmlns:xlink="http://www.w3.org/1999/xlink" x="0px" y="0px"
	 viewBox="-319 41.9 281.7 285.6" style="enable-background:new -319 41.9 281.7 285.6;" xml:space="preserve">
<style type="text/css">
	.st0{fill:#E6E7E8;}
	.st1{fill:#6D6E71;}
	.st2{enable-background:new    ;}
</style>
<g>
	<rect x="-239.6" y="122.6" class="st0" width="38.4" height="124.7"/>
</g>
<g>
	<rect x="-155.1" y="153.6" class="st0" width="38.4" height="93.8"/>
</g>
<g>
	<g>
		<g>
			<rect x="-178.5" y="153.6" class="st1" width="0.7" height="60.8"/>
		</g>
		<g>
			<g>
				<polygon class="st1" points="-180.4,210.3 -179.7,210.1 -178.1,214.3 -176.6,210.1 -175.9,210.3 -178.1,216.5 				"/>
			</g>
		</g>
	</g>
</g>
<g class="st2">
	<path d="M-230.7,258.8c0-0.4,0-0.8,0.1-1.1s0.2-0.6,0.3-0.8s0.3-0.4,0.5-0.5s0.5-0.2,0.8-0.2s0.6,0.1,0.8,0.2
		c0.2,0.1,0.4,0.3,0.5,0.5s0.2,0.5,0.3,0.8s0.1,0.7,0.1,1.1c0,0.4,0,0.8-0.1,1.1s-0.2,0.6-0.3,0.8s-0.3,0.4-0.5,0.5
		s-0.5,0.2-0.8,0.2s-0.6-0.1-0.8-0.2c-0.2-0.1-0.4-0.3-0.5-0.5s-0.2-0.5-0.3-0.8C-230.6,259.5-230.7,259.2-230.7,258.8z
		 M-230.1,258.8c0,0.1,0,0.2,0,0.3s0,0.2,0,0.3l2.1-1.9c-0.1-0.3-0.2-0.5-0.4-0.6c-0.2-0.2-0.4-0.2-0.6-0.2c-0.4,0-0.7,0.2-0.9,0.5
		C-230,257.6-230.1,258.1-230.1,258.8z M-227.8,258.8c0-0.3,0-0.5,0-0.7l-2.1,1.9c0.1,0.3,0.2,0.5,0.4,0.6c0.2,0.2,0.4,0.2,0.6,0.2
		c0.4,0,0.7-0.2,0.9-0.5C-227.9,260-227.8,259.5-227.8,258.8z"/>
	<path d="M-223.6,256.2l0.4,0.2l-2.6,5.9l-0.4-0.2L-223.6,256.2z"/>
	<path d="M-219,257.5c0,0.4-0.2,0.9-0.6,1.5c-0.4,0.5-1,1.1-1.7,1.8h2.5v0.5h-3.2v-0.5c0.1-0.1,0.2-0.2,0.4-0.3s0.3-0.3,0.5-0.5
		s0.4-0.3,0.6-0.5c0.2-0.2,0.4-0.4,0.5-0.6c0.2-0.2,0.3-0.4,0.4-0.6c0.1-0.2,0.1-0.4,0.1-0.6c0-0.3-0.1-0.5-0.2-0.7
		s-0.4-0.2-0.7-0.2s-0.5,0-0.6,0.1s-0.3,0.1-0.5,0.2l-0.2-0.4c0.2-0.2,0.4-0.3,0.7-0.3c0.2-0.1,0.5-0.1,0.8-0.1c0.4,0,0.8,0.1,1,0.4
		C-219.1,256.8-219,257.1-219,257.5z"/>
	<path d="M-217.9,258.8c0-0.4,0-0.8,0.1-1.1s0.2-0.6,0.3-0.8s0.3-0.4,0.5-0.5s0.5-0.2,0.8-0.2s0.6,0.1,0.8,0.2s0.4,0.3,0.5,0.5
		s0.2,0.5,0.3,0.8s0.1,0.7,0.1,1.1c0,0.4,0,0.8-0.1,1.1s-0.2,0.6-0.3,0.8s-0.3,0.4-0.5,0.5s-0.5,0.2-0.8,0.2s-0.6-0.1-0.8-0.2
		c-0.2-0.1-0.4-0.3-0.5-0.5s-0.2-0.5-0.3-0.8C-217.8,259.5-217.9,259.2-217.9,258.8z M-217.3,258.8c0,0.1,0,0.2,0,0.3s0,0.2,0,0.3
		l2.1-1.9c-0.1-0.3-0.2-0.5-0.4-0.6c-0.2-0.2-0.4-0.2-0.6-0.2c-0.4,0-0.7,0.2-0.9,0.5C-217.2,257.6-217.3,258.1-217.3,258.8z
		 M-215,258.8c0-0.3,0-0.5,0-0.7l-2.1,1.9c0.1,0.3,0.2,0.5,0.4,0.6c0.2,0.2,0.4,0.2,0.6,0.2c0.4,0,0.7-0.2,0.9-0.5
		C-215,260-215,259.5-215,258.8z"/>
	<path d="M-213.6,258.8c0-0.4,0-0.8,0.1-1.1s0.2-0.6,0.3-0.8s0.3-0.4,0.5-0.5s0.5-0.2,0.8-0.2s0.6,0.1,0.8,0.2
		c0.2,0.1,0.4,0.3,0.5,0.5s0.2,0.5,0.3,0.8s0.1,0.7,0.1,1.1c0,0.4,0,0.8-0.1,1.1s-0.2,0.6-0.3,0.8s-0.3,0.4-0.5,0.5
		s-0.5,0.2-0.8,0.2s-0.6-0.1-0.8-0.2s-0.4-0.3-0.5-0.5s-0.2-0.5-0.3-0.8C-213.5,259.5-213.6,259.2-213.6,258.8z M-213,258.8
		c0,0.1,0,0.2,0,0.3s0,0.2,0,0.3l2.1-1.9c-0.1-0.3-0.2-0.5-0.4-0.6c-0.2-0.2-0.4-0.2-0.6-0.2c-0.4,0-0.7,0.2-0.9,0.5
		C-212.9,257.6-213,258.1-213,258.8z M-210.7,258.8c0-0.3,0-0.5,0-0.7l-2.1,1.9c0.1,0.3,0.2,0.5,0.4,0.6c0.2,0.2,0.4,0.2,0.6,0.2
		c0.4,0,0.7-0.2,0.9-0.5C-210.8,260-210.7,259.5-210.7,258.8z"/>
</g>
<g class="st2">
	<path d="M-230.7,270.8c0-0.4,0-0.8,0.1-1.1s0.2-0.6,0.3-0.8s0.3-0.4,0.5-0.5s0.5-0.2,0.8-0.2s0.6,0.1,0.8,0.2
		c0.2,0.1,0.4,0.3,0.5,0.5s0.2,0.5,0.3,0.8s0.1,0.7,0.1,1.1c0,0.4,0,0.8-0.1,1.1s-0.2,0.6-0.3,0.8s-0.3,0.4-0.5,0.5
		s-0.5,0.2-0.8,0.2s-0.6-0.1-0.8-0.2c-0.2-0.1-0.4-0.3-0.5-0.5s-0.2-0.5-0.3-0.8S-230.7,271.2-230.7,270.8z M-230.1,270.8
		c0,0.1,0,0.2,0,0.3s0,0.2,0,0.3l2.1-1.9c-0.1-0.3-0.2-0.5-0.4-0.6c-0.2-0.2-0.4-0.2-0.6-0.2c-0.4,0-0.7,0.2-0.9,0.5
		C-230,269.6-230.1,270.1-230.1,270.8z M-227.8,270.8c0-0.3,0-0.5,0-0.7l-2.1,1.9c0.1,0.3,0.2,0.5,0.4,0.6c0.2,0.2,0.4,0.2,0.6,0.2
		c0.4,0,0.7-0.2,0.9-0.5C-227.9,272-227.8,271.5-227.8,270.8z"/>
	<path d="M-223.2,269.6c0,0.4-0.2,0.9-0.6,1.5c-0.4,0.5-1,1.1-1.7,1.8h2.5v0.5h-3.2v-0.5c0.1-0.1,0.2-0.2,0.4-0.3s0.3-0.3,0.5-0.5
		s0.4-0.3,0.6-0.5c0.2-0.2,0.4-0.4,0.5-0.6c0.2-0.2,0.3-0.4,0.4-0.6s0.1-0.4,0.1-0.6c0-0.3-0.1-0.5-0.2-0.7
		c-0.1-0.2-0.4-0.2-0.7-0.2s-0.5,0-0.6,0.1c-0.2,0.1-0.3,0.1-0.5,0.2l-0.2-0.4c0.2-0.2,0.4-0.3,0.7-0.3c0.2-0.1,0.5-0.1,0.8-0.1
		c0.4,0,0.8,0.1,1,0.4C-223.3,268.8-223.2,269.1-223.2,269.6z"/>
	<path d="M-221.6,268.5c0-0.1,0-0.2,0.1-0.3s0.2-0.1,0.3-0.1c0.2,0,0.3,0.1,0.4,0.1c0.1,0.1,0.1,0.2,0.1,0.4s0,0.4-0.1,0.5
		s-0.1,0.3-0.2,0.4c-0.1,0.1-0.2,0.2-0.2,0.2c-0.1,0.1-0.2,0.1-0.2,0.1l-0.2-0.3c0.1-0.1,0.2-0.2,0.3-0.3s0.1-0.2,0.1-0.4
		c0,0,0,0-0.1,0s-0.2,0-0.3-0.1C-221.5,268.8-221.6,268.6-221.6,268.5z M-220.2,268.5c0-0.1,0-0.2,0.1-0.3s0.2-0.1,0.3-0.1
		c0.2,0,0.3,0.1,0.4,0.1c0.1,0.1,0.1,0.2,0.1,0.4s0,0.4-0.1,0.5s-0.1,0.3-0.2,0.4s-0.2,0.2-0.2,0.2c-0.1,0.1-0.2,0.1-0.2,0.1
		l-0.2-0.3c0.1-0.1,0.2-0.2,0.3-0.3s0.1-0.2,0.1-0.4c0,0,0,0-0.1,0s-0.2,0-0.3-0.1C-220.1,268.8-220.2,268.6-220.2,268.5z"/>
	<path d="M-217.9,270.8c0-0.4,0-0.8,0.1-1.1s0.2-0.6,0.3-0.8s0.3-0.4,0.5-0.5s0.5-0.2,0.8-0.2s0.6,0.1,0.8,0.2s0.4,0.3,0.5,0.5
		s0.2,0.5,0.3,0.8s0.1,0.7,0.1,1.1c0,0.4,0,0.8-0.1,1.1s-0.2,0.6-0.3,0.8s-0.3,0.4-0.5,0.5s-0.5,0.2-0.8,0.2s-0.6-0.1-0.8-0.2
		c-0.2-0.1-0.4-0.3-0.5-0.5s-0.2-0.5-0.3-0.8C-217.8,271.5-217.9,271.2-217.9,270.8z M-217.3,270.8c0,0.1,0,0.2,0,0.3s0,0.2,0,0.3
		l2.1-1.9c-0.1-0.3-0.2-0.5-0.4-0.6c-0.2-0.2-0.4-0.2-0.6-0.2c-0.4,0-0.7,0.2-0.9,0.5C-217.2,269.6-217.3,270.1-217.3,270.8z
		 M-215,270.8c0-0.3,0-0.5,0-0.7l-2.1,1.9c0.1,0.3,0.2,0.5,0.4,0.6c0.2,0.2,0.4,0.2,0.6,0.2c0.4,0,0.7-0.2,0.9-0.5
		C-215,272-215,271.5-215,270.8z"/>
	<path d="M-213.6,270.8c0-0.4,0-0.8,0.1-1.1s0.2-0.6,0.3-0.8s0.3-0.4,0.5-0.5s0.5-0.2,0.8-0.2s0.6,0.1,0.8,0.2
		c0.2,0.1,0.4,0.3,0.5,0.5s0.2,0.5,0.3,0.8s0.1,0.7,0.1,1.1c0,0.4,0,0.8-0.1,1.1s-0.2,0.6-0.3,0.8s-0.3,0.4-0.5,0.5
		s-0.5,0.2-0.8,0.2s-0.6-0.1-0.8-0.2s-0.4-0.3-0.5-0.5s-0.2-0.5-0.3-0.8C-213.5,271.5-213.6,271.2-213.6,270.8z M-213,270.8
		c0,0.1,0,0.2,0,0.3s0,0.2,0,0.3l2.1-1.9c-0.1-0.3-0.2-0.5-0.4-0.6c-0.2-0.2-0.4-0.2-0.6-0.2c-0.4,0-0.7,0.2-0.9,0.5
		C-212.9,269.6-213,270.1-213,270.8z M-210.7,270.8c0-0.3,0-0.5,0-0.7l-2.1,1.9c0.1,0.3,0.2,0.5,0.4,0.6c0.2,0.2,0.4,0.2,0.6,0.2
		c0.4,0,0.7-0.2,0.9-0.5C-210.8,272-210.7,271.5-210.7,270.8z"/>
</g>
<g class="st2">
	<path d="M-146.9,261c0.2,0,0.4,0,0.5-0.1c0.2,0,0.3-0.1,0.4-0.2c0.1-0.1,0.2-0.2,0.3-0.3s0.1-0.3,0.1-0.4c0-0.3-0.1-0.6-0.3-0.7
		c-0.2-0.1-0.5-0.2-0.9-0.2h-0.5v-0.3l1.4-1.8h-2.2v-0.5h2.8v0.5l-1.4,1.6h0.1c0.2,0,0.4,0,0.6,0.1s0.3,0.1,0.5,0.3
		c0.1,0.1,0.2,0.3,0.3,0.4c0.1,0.2,0.1,0.3,0.1,0.5c0,0.3-0.1,0.5-0.1,0.7c-0.1,0.2-0.2,0.4-0.4,0.5s-0.4,0.2-0.6,0.3
		s-0.5,0.1-0.7,0.1s-0.5,0-0.6-0.1c-0.2,0-0.3-0.1-0.5-0.1l0.1-0.5c0.1,0.1,0.3,0.1,0.4,0.1C-147.3,260.8-147.1,261-146.9,261z"/>
	<path d="M-144,258.8c0-0.4,0-0.8,0.1-1.1s0.2-0.6,0.3-0.8s0.3-0.4,0.5-0.5s0.5-0.2,0.8-0.2s0.6,0.1,0.8,0.2s0.4,0.3,0.5,0.5
		s0.2,0.5,0.3,0.8s0.1,0.7,0.1,1.1c0,0.4,0,0.8-0.1,1.1s-0.2,0.6-0.3,0.8s-0.3,0.4-0.5,0.5s-0.5,0.2-0.8,0.2s-0.6-0.1-0.8-0.2
		c-0.2-0.1-0.4-0.3-0.5-0.5s-0.2-0.5-0.3-0.8C-144,259.5-144,259.2-144,258.8z M-143.4,258.8c0,0.1,0,0.2,0,0.3s0,0.2,0,0.3l2.1-1.9
		c-0.1-0.3-0.2-0.5-0.4-0.6c-0.2-0.2-0.4-0.2-0.6-0.2c-0.4,0-0.7,0.2-0.9,0.5C-143.4,257.6-143.4,258.1-143.4,258.8z M-141.1,258.8
		c0-0.3,0-0.5,0-0.7l-2.1,1.9c0.1,0.3,0.2,0.5,0.4,0.6c0.2,0.2,0.4,0.2,0.6,0.2c0.4,0,0.7-0.2,0.9-0.5
		C-141.2,260-141.1,259.5-141.1,258.8z"/>
	<path d="M-136.9,256.2l0.4,0.2l-2.6,5.9l-0.4-0.2L-136.9,256.2z"/>
	<path d="M-132.3,257.5c0,0.4-0.2,0.9-0.6,1.5c-0.4,0.5-1,1.1-1.7,1.8h2.5v0.5h-3.2v-0.5c0.1-0.1,0.2-0.2,0.4-0.3s0.3-0.3,0.5-0.5
		s0.4-0.3,0.6-0.5c0.2-0.2,0.4-0.4,0.5-0.6c0.2-0.2,0.3-0.4,0.4-0.6c0.1-0.2,0.1-0.4,0.1-0.6c0-0.3-0.1-0.5-0.2-0.7
		s-0.4-0.2-0.7-0.2s-0.5,0-0.6,0.1c-0.2,0.1-0.3,0.1-0.5,0.2l-0.2-0.4c0.2-0.2,0.4-0.3,0.7-0.3c0.2-0.1,0.5-0.1,0.8-0.1
		c0.4,0,0.8,0.1,1,0.4C-132.4,256.8-132.3,257.1-132.3,257.5z"/>
	<path d="M-131.2,258.8c0-0.4,0-0.8,0.1-1.1s0.2-0.6,0.3-0.8s0.3-0.4,0.5-0.5s0.5-0.2,0.8-0.2s0.6,0.1,0.8,0.2s0.4,0.3,0.5,0.5
		s0.2,0.5,0.3,0.8s0.1,0.7,0.1,1.1c0,0.4,0,0.8-0.1,1.1s-0.2,0.6-0.3,0.8s-0.3,0.4-0.5,0.5s-0.5,0.2-0.8,0.2s-0.6-0.1-0.8-0.2
		s-0.4-0.3-0.5-0.5s-0.2-0.5-0.3-0.8C-131.2,259.5-131.2,259.2-131.2,258.8z M-130.6,258.8c0,0.1,0,0.2,0,0.3s0,0.2,0,0.3l2.1-1.9
		c-0.1-0.3-0.2-0.5-0.4-0.6c-0.2-0.2-0.4-0.2-0.6-0.2c-0.4,0-0.7,0.2-0.9,0.5C-130.5,257.6-130.6,258.1-130.6,258.8z M-128.3,258.8
		c0-0.3,0-0.5,0-0.7l-2.1,1.9c0.1,0.3,0.2,0.5,0.4,0.6s0.4,0.2,0.6,0.2c0.4,0,0.7-0.2,0.9-0.5C-128.4,260-128.3,259.5-128.3,258.8z"
		/>
	<path d="M-126.9,258.8c0-0.4,0-0.8,0.1-1.1s0.2-0.6,0.3-0.8s0.3-0.4,0.5-0.5s0.5-0.2,0.8-0.2s0.6,0.1,0.8,0.2
		c0.2,0.1,0.4,0.3,0.5,0.5s0.2,0.5,0.3,0.8s0.1,0.7,0.1,1.1c0,0.4,0,0.8-0.1,1.1s-0.2,0.6-0.3,0.8s-0.3,0.4-0.5,0.5
		s-0.5,0.2-0.8,0.2s-0.6-0.1-0.8-0.2s-0.4-0.3-0.5-0.5s-0.2-0.5-0.3-0.8C-126.9,259.5-126.9,259.2-126.9,258.8z M-126.3,258.8
		c0,0.1,0,0.2,0,0.3s0,0.2,0,0.3l2.1-1.9c-0.1-0.3-0.2-0.5-0.4-0.6c-0.2-0.2-0.4-0.2-0.6-0.2c-0.4,0-0.7,0.2-0.9,0.5
		C-126.3,257.6-126.3,258.1-126.3,258.8z M-124,258.8c0-0.3,0-0.5,0-0.7l-2.1,1.9c0.1,0.3,0.2,0.5,0.4,0.6c0.2,0.2,0.4,0.2,0.6,0.2
		c0.4,0,0.7-0.2,0.9-0.5C-124.1,260-124,259.5-124,258.8z"/>
</g>
<g class="st2">
	<path d="M-146.2,270.8c0-0.4,0-0.8,0.1-1.1s0.2-0.6,0.3-0.8s0.3-0.4,0.5-0.5s0.5-0.2,0.8-0.2s0.6,0.1,0.8,0.2s0.4,0.3,0.5,0.5
		s0.2,0.5,0.3,0.8s0.1,0.7,0.1,1.1c0,0.4,0,0.8-0.1,1.1s-0.2,0.6-0.3,0.8s-0.3,0.4-0.5,0.5s-0.5,0.2-0.8,0.2s-0.6-0.1-0.8-0.2
		s-0.4-0.3-0.5-0.5s-0.2-0.5-0.3-0.8C-146.1,271.5-146.2,271.2-146.2,270.8z M-145.6,270.8c0,0.1,0,0.2,0,0.3s0,0.2,0,0.3l2.1-1.9
		c-0.1-0.3-0.2-0.5-0.4-0.6c-0.2-0.2-0.4-0.2-0.6-0.2c-0.4,0-0.7,0.2-0.9,0.5C-145.5,269.6-145.6,270.1-145.6,270.8z M-143.3,270.8
		c0-0.3,0-0.5,0-0.7l-2.1,1.9c0.1,0.3,0.2,0.5,0.4,0.6c0.2,0.2,0.4,0.2,0.6,0.2c0.4,0,0.7-0.2,0.9-0.5
		C-143.4,272-143.3,271.5-143.3,270.8z"/>
	<path d="M-138.7,269.6c0,0.4-0.2,0.9-0.6,1.5c-0.4,0.5-1,1.1-1.7,1.8h2.5v0.5h-3.2v-0.5c0.1-0.1,0.2-0.2,0.4-0.3s0.3-0.3,0.5-0.5
		s0.4-0.3,0.6-0.5s0.4-0.4,0.5-0.6c0.2-0.2,0.3-0.4,0.4-0.6c0.1-0.2,0.1-0.4,0.1-0.6c0-0.3-0.1-0.5-0.2-0.7
		c-0.1-0.2-0.4-0.2-0.7-0.2s-0.5,0-0.6,0.1c-0.2,0.1-0.3,0.1-0.5,0.2l-0.2-0.4c0.2-0.2,0.4-0.3,0.7-0.3c0.2-0.1,0.5-0.1,0.8-0.1
		c0.4,0,0.8,0.1,1,0.4C-138.8,268.8-138.7,269.1-138.7,269.6z"/>
	<path d="M-137.1,268.5c0-0.1,0-0.2,0.1-0.3s0.2-0.1,0.3-0.1c0.2,0,0.3,0.1,0.4,0.1c0.1,0.1,0.1,0.2,0.1,0.4s0,0.4-0.1,0.5
		s-0.1,0.3-0.2,0.4s-0.2,0.2-0.2,0.2c-0.1,0.1-0.2,0.1-0.2,0.1l-0.2-0.3c0.1-0.1,0.2-0.2,0.3-0.3s0.1-0.2,0.1-0.4c0,0,0,0-0.1,0
		s-0.2,0-0.3-0.1C-137,268.8-137.1,268.6-137.1,268.5z M-135.6,268.5c0-0.1,0-0.2,0.1-0.3s0.2-0.1,0.3-0.1c0.2,0,0.3,0.1,0.4,0.1
		c0.1,0.1,0.1,0.2,0.1,0.4s0,0.4-0.1,0.5s-0.1,0.3-0.2,0.4s-0.2,0.2-0.2,0.2c-0.1,0.1-0.2,0.1-0.2,0.1l-0.2-0.3
		c0.1-0.1,0.2-0.2,0.3-0.3s0.1-0.2,0.1-0.4c0,0,0,0-0.1,0s-0.2,0-0.3-0.1C-135.6,268.8-135.6,268.6-135.6,268.5z"/>
	<path d="M-133.3,270.8c0-0.4,0-0.8,0.1-1.1s0.2-0.6,0.3-0.8s0.3-0.4,0.5-0.5s0.5-0.2,0.8-0.2s0.6,0.1,0.8,0.2s0.4,0.3,0.5,0.5
		s0.2,0.5,0.3,0.8s0.1,0.7,0.1,1.1c0,0.4,0,0.8-0.1,1.1s-0.2,0.6-0.3,0.8s-0.3,0.4-0.5,0.5s-0.5,0.2-0.8,0.2s-0.6-0.1-0.8-0.2
		c-0.2-0.1-0.4-0.3-0.5-0.5s-0.2-0.5-0.3-0.8S-133.3,271.2-133.3,270.8z M-132.8,270.8c0,0.1,0,0.2,0,0.3s0,0.2,0,0.3l2.1-1.9
		c-0.1-0.3-0.2-0.5-0.4-0.6c-0.2-0.2-0.4-0.2-0.6-0.2c-0.4,0-0.7,0.2-0.9,0.5C-132.7,269.6-132.8,270.1-132.8,270.8z M-130.4,270.8
		c0-0.3,0-0.5,0-0.7l-2.1,1.9c0.1,0.3,0.2,0.5,0.4,0.6c0.2,0.2,0.4,0.2,0.6,0.2c0.4,0,0.7-0.2,0.9-0.5
		C-130.5,272-130.4,271.5-130.4,270.8z"/>
	<path d="M-129.1,270.8c0-0.4,0-0.8,0.1-1.1s0.2-0.6,0.3-0.8s0.3-0.4,0.5-0.5s0.5-0.2,0.8-0.2s0.6,0.1,0.8,0.2s0.4,0.3,0.5,0.5
		s0.2,0.5,0.3,0.8s0.1,0.7,0.1,1.1c0,0.4,0,0.8-0.1,1.1s-0.2,0.6-0.3,0.8s-0.3,0.4-0.5,0.5s-0.5,0.2-0.8,0.2s-0.6-0.1-0.8-0.2
		s-0.4-0.3-0.5-0.5s-0.2-0.5-0.3-0.8S-129.1,271.2-129.1,270.8z M-128.5,270.8c0,0.1,0,0.2,0,0.3s0,0.2,0,0.3l2.1-1.9
		c-0.1-0.3-0.2-0.5-0.4-0.6c-0.2-0.2-0.4-0.2-0.6-0.2c-0.4,0-0.7,0.2-0.9,0.5C-128.4,269.6-128.5,270.1-128.5,270.8z M-126.2,270.8
		c0-0.3,0-0.5,0-0.7l-2.1,1.9c0.1,0.3,0.2,0.5,0.4,0.6c0.2,0.2,0.4,0.2,0.6,0.2c0.4,0,0.7-0.2,0.9-0.5
		C-126.3,272-126.2,271.5-126.2,270.8z"/>
</g>
<g class="st2">
	<path d="M-236.8,98.6c0,0,0-0.1,0-0.2s0-0.1,0-0.2s0-0.1,0-0.2s0-0.1,0-0.2h-0.5v-0.5h0.9l0.1,0.5l0,0c0.1-0.2,0.3-0.3,0.5-0.4
		c0.2-0.1,0.4-0.2,0.7-0.2c0.5,0,0.9,0.1,1.1,0.4c0.3,0.3,0.4,0.7,0.4,1.4c0,0.3,0,0.6-0.1,0.8s-0.2,0.4-0.4,0.6
		c-0.2,0.2-0.4,0.3-0.6,0.4c-0.2,0.1-0.5,0.1-0.8,0.1c-0.1,0-0.2,0-0.3,0s-0.1,0-0.2,0c-0.1,0-0.1,0-0.2,0c-0.1,0-0.1,0-0.2-0.1v1.5
		h-0.5L-236.8,98.6L-236.8,98.6z M-235.2,97.8c-0.1,0-0.3,0-0.4,0.1c-0.1,0.1-0.2,0.1-0.3,0.2s-0.2,0.2-0.2,0.3
		c-0.1,0.1-0.1,0.2-0.1,0.3v1.6c0.1,0.1,0.2,0.1,0.4,0.2c0.1,0,0.3,0.1,0.5,0.1c0.4,0,0.7-0.1,0.9-0.4c0.2-0.2,0.3-0.6,0.3-1.1
		c0-0.4-0.1-0.7-0.2-0.9C-234.5,98-234.8,97.8-235.2,97.8z"/>
	<path d="M-232.4,96h1.2v3.8c0,0.3,0,0.5,0.1,0.6s0.2,0.2,0.4,0.2c0.1,0,0.3,0,0.4-0.1s0.3-0.1,0.4-0.2l0.3,0.4
		c-0.1,0.1-0.2,0.1-0.3,0.2c-0.1,0.1-0.2,0.1-0.3,0.1s-0.2,0.1-0.3,0.1s-0.2,0-0.3,0c-0.2,0-0.3,0-0.5-0.1c-0.1,0-0.3-0.1-0.3-0.2
		c-0.1-0.1-0.2-0.2-0.2-0.4s-0.1-0.4-0.1-0.6v-3.3h-0.6V96H-232.4z"/>
	<path d="M-228.2,97.6c0.2-0.1,0.4-0.2,0.7-0.3s0.5-0.1,0.8-0.1c0.2,0,0.4,0,0.6,0.1c0.2,0.1,0.3,0.2,0.4,0.3
		c0.1,0.1,0.1,0.3,0.2,0.4c0,0.2,0,0.3,0,0.5s0,0.4,0,0.6s0,0.4,0,0.6c0,0.2,0,0.5,0,0.7h0.5v0.5h-1l-0.1-0.5l0,0
		c0,0-0.1,0.1-0.1,0.2c-0.1,0.1-0.1,0.1-0.2,0.2c-0.1,0.1-0.2,0.1-0.3,0.2c-0.1,0-0.3,0.1-0.5,0.1c-0.4,0-0.6-0.1-0.8-0.3
		s-0.3-0.4-0.3-0.7c0-0.2,0.1-0.4,0.2-0.6c0.1-0.2,0.3-0.3,0.5-0.4s0.4-0.1,0.7-0.1s0.6,0,1,0.1c0-0.2,0-0.4,0-0.5s-0.1-0.3-0.1-0.3
		c-0.1-0.1-0.1-0.1-0.3-0.2c-0.1,0-0.2-0.1-0.4-0.1s-0.4,0-0.6,0.1c-0.2,0.1-0.4,0.1-0.5,0.2L-228.2,97.6z M-227.1,100.6
		c0.1,0,0.3,0,0.4-0.1c0.1,0,0.2-0.1,0.3-0.2s0.2-0.1,0.2-0.2c0.1-0.1,0.1-0.2,0.1-0.2v-0.5c-0.2,0-0.5-0.1-0.7-0.1s-0.4,0-0.5,0.1
		c-0.2,0-0.3,0.1-0.4,0.2s-0.1,0.2-0.1,0.4s0.1,0.3,0.2,0.4C-227.5,100.5-227.4,100.6-227.1,100.6z"/>
	<path d="M-222.4,100.5h0.3l0.9-3h0.6l-1,3.2c-0.1,0.2-0.1,0.4-0.2,0.6c-0.1,0.2-0.1,0.4-0.2,0.6c-0.1,0.2-0.2,0.3-0.4,0.5
		c-0.2,0.1-0.4,0.2-0.7,0.2c-0.1,0-0.1,0-0.2,0s-0.1,0-0.2-0.1c-0.1,0-0.1,0-0.2-0.1c-0.1,0-0.1-0.1-0.1-0.1l0.2-0.5
		c0,0,0.1,0,0.1,0.1c0,0,0.1,0,0.2,0.1c0.1,0,0.1,0,0.2,0s0.1,0,0.1,0c0.4,0,0.6-0.3,0.7-0.9h-0.5l-1.5-3.6h0.6L-222.4,100.5z"/>
	<path d="M-216.6,100.6c-0.1,0.1-0.2,0.1-0.3,0.2c-0.1,0.1-0.2,0.1-0.4,0.2c-0.2,0.1-0.3,0.1-0.4,0.1c-0.1,0-0.3,0-0.5,0
		c-0.3,0-0.5,0-0.8-0.1c-0.2-0.1-0.4-0.2-0.5-0.4s-0.3-0.4-0.3-0.6c-0.1-0.2-0.1-0.5-0.1-0.8s0-0.6,0.1-0.8s0.2-0.4,0.4-0.6
		c0.2-0.2,0.3-0.3,0.6-0.4c0.2-0.1,0.5-0.1,0.7-0.1s0.4,0,0.6,0.1c0.2,0.1,0.4,0.2,0.5,0.3s0.3,0.3,0.3,0.6c0.1,0.3,0.1,0.6,0.1,1
		h-2.7c0,0.4,0.1,0.7,0.3,1c0.2,0.2,0.5,0.3,0.9,0.3c0.1,0,0.3,0,0.4,0c0.1,0,0.2-0.1,0.4-0.1c0.1,0,0.2-0.1,0.3-0.1
		c0.1-0.1,0.2-0.1,0.2-0.1L-216.6,100.6z M-218.1,97.8c-0.2,0-0.3,0-0.4,0.1c-0.1,0-0.3,0.1-0.4,0.2c-0.1,0.1-0.2,0.2-0.3,0.3
		s-0.1,0.3-0.1,0.5h2.2c0-0.3-0.1-0.6-0.3-0.7C-217.6,97.8-217.8,97.8-218.1,97.8z"/>
	<path d="M-215.6,101v-0.5h1v-2.6h-1v-0.5h1.3l0.1,0.5l0,0c0.2-0.1,0.3-0.3,0.5-0.4s0.4-0.2,0.7-0.2c0.2,0,0.3,0,0.4,0.1
		c0.1,0.1,0.2,0.2,0.2,0.3c0.1,0.1,0.1,0.3,0.1,0.4c0,0.2,0,0.4,0,0.6h-0.5c0-0.3,0-0.5-0.1-0.7c-0.1-0.1-0.2-0.2-0.3-0.2
		s-0.3,0-0.4,0.1c-0.1,0-0.2,0.1-0.3,0.2c-0.1,0.1-0.2,0.1-0.2,0.2c-0.1,0.1-0.1,0.1-0.1,0.2v2.1h1.4v0.5L-215.6,101L-215.6,101z"/>
	<path d="M-206.7,100.5h1.1v-3.7l-1.1,0.8l-0.3-0.4l1.6-1.1h0.4v4.5h1.1v0.5h-2.8V100.5z"/>
</g>
<g class="st2">
	<path d="M-152.3,98.6c0,0,0-0.1,0-0.2s0-0.1,0-0.2s0-0.1,0-0.2s0-0.1,0-0.2h-0.5v-0.5h0.9l0.1,0.5l0,0c0.1-0.2,0.3-0.3,0.5-0.4
		c0.2-0.1,0.4-0.2,0.7-0.2c0.5,0,0.9,0.1,1.1,0.4c0.3,0.3,0.4,0.7,0.4,1.4c0,0.3,0,0.6-0.1,0.8s-0.2,0.4-0.4,0.6
		c-0.2,0.2-0.4,0.3-0.6,0.4c-0.2,0.1-0.5,0.1-0.8,0.1c-0.1,0-0.2,0-0.3,0s-0.1,0-0.2,0s-0.1,0-0.2,0c-0.1,0-0.1,0-0.2-0.1v1.5h-0.4
		V98.6z M-150.7,97.8c-0.1,0-0.3,0-0.4,0.1c-0.1,0.1-0.2,0.1-0.3,0.2c-0.1,0.1-0.2,0.2-0.2,0.3c-0.1,0.1-0.1,0.2-0.1,0.3v1.6
		c0.1,0.1,0.2,0.1,0.4,0.2c0.1,0,0.3,0.1,0.5,0.1c0.4,0,0.7-0.1,0.9-0.4c0.2-0.2,0.3-0.6,0.3-1.1c0-0.4-0.1-0.7-0.2-0.9
		C-150,98-150.3,97.8-150.7,97.8z"/>
	<path d="M-147.9,96h1.2v3.8c0,0.3,0,0.5,0.1,0.6s0.2,0.2,0.4,0.2c0.1,0,0.3,0,0.4-0.1c0.1,0,0.3-0.1,0.4-0.2l0.3,0.4
		c-0.1,0.1-0.2,0.1-0.2,0.2c-0.1,0.1-0.2,0.1-0.3,0.1s-0.2,0.1-0.3,0.1s-0.2,0-0.3,0c-0.2,0-0.3,0-0.5-0.1c-0.1,0-0.3-0.1-0.3-0.2
		c-0.1-0.1-0.2-0.2-0.2-0.4s-0.1-0.4-0.1-0.6v-3.3h-0.6L-147.9,96L-147.9,96z"/>
	<path d="M-143.7,97.6c0.2-0.1,0.4-0.2,0.7-0.3s0.5-0.1,0.8-0.1c0.2,0,0.4,0,0.6,0.1c0.2,0.1,0.3,0.2,0.4,0.3
		c0.1,0.1,0.1,0.3,0.2,0.4c0,0.2,0,0.3,0,0.5s0,0.4,0,0.6s0,0.4,0,0.6c0,0.2,0,0.5,0,0.7h0.5v0.5h-0.9l-0.1-0.5l0,0
		c0,0-0.1,0.1-0.1,0.2c-0.1,0.1-0.1,0.1-0.2,0.2c-0.1,0.1-0.2,0.1-0.3,0.2c-0.1,0-0.3,0.1-0.5,0.1c-0.4,0-0.6-0.1-0.8-0.3
		s-0.3-0.4-0.3-0.7c0-0.2,0.1-0.4,0.2-0.6c0.1-0.2,0.3-0.3,0.5-0.4s0.4-0.1,0.7-0.1s0.6,0,1,0.1c0-0.2,0-0.4,0-0.5s-0.1-0.3-0.1-0.3
		c-0.1-0.1-0.1-0.1-0.3-0.2c-0.1,0-0.2-0.1-0.4-0.1s-0.4,0-0.6,0.1s-0.4,0.1-0.5,0.2L-143.7,97.6z M-142.6,100.6
		c0.1,0,0.3,0,0.4-0.1c0.1,0,0.2-0.1,0.3-0.2c0.1-0.1,0.2-0.1,0.2-0.2c0.1-0.1,0.1-0.2,0.1-0.2v-0.5c-0.2,0-0.5-0.1-0.7-0.1
		s-0.4,0-0.5,0.1c-0.2,0-0.3,0.1-0.4,0.2c-0.1,0.1-0.1,0.2-0.1,0.4s0.1,0.3,0.2,0.4C-143,100.5-142.9,100.6-142.6,100.6z"/>
	<path d="M-137.9,100.5h0.3l0.9-3h0.6l-1,3.2c-0.1,0.2-0.1,0.4-0.2,0.6c-0.1,0.2-0.1,0.4-0.2,0.6s-0.2,0.3-0.4,0.5
		c-0.2,0.1-0.4,0.2-0.7,0.2c-0.1,0-0.1,0-0.2,0s-0.1,0-0.2-0.1c-0.1,0-0.1,0-0.2-0.1c-0.1,0-0.1-0.1-0.1-0.1l0.2-0.5
		c0,0,0.1,0,0.1,0.1c0,0,0.1,0,0.2,0.1c0.1,0,0.1,0,0.2,0c0.1,0,0.1,0,0.1,0c0.4,0,0.6-0.3,0.7-0.9h-0.5l-1.5-3.6h0.6L-137.9,100.5z
		"/>
	<path d="M-132.1,100.6c-0.1,0.1-0.2,0.1-0.3,0.2c-0.1,0.1-0.2,0.1-0.4,0.2c-0.1,0-0.3,0.1-0.4,0.1c-0.1,0-0.3,0-0.5,0
		c-0.3,0-0.5,0-0.8-0.1c-0.2-0.1-0.4-0.2-0.5-0.4s-0.3-0.4-0.3-0.6c-0.1-0.2-0.1-0.5-0.1-0.8s0-0.6,0.1-0.8s0.2-0.4,0.4-0.6
		s0.3-0.3,0.6-0.4c0.2-0.1,0.5-0.1,0.7-0.1s0.4,0,0.6,0.1c0.2,0.1,0.4,0.2,0.5,0.3s0.3,0.3,0.3,0.6c0.1,0.3,0.1,0.6,0.1,1h-2.7
		c0,0.4,0.1,0.7,0.3,1c0.2,0.2,0.5,0.3,0.9,0.3c0.1,0,0.3,0,0.4,0c0.1,0,0.2-0.1,0.4-0.1c0.1,0,0.2-0.1,0.3-0.1
		c0.1-0.1,0.2-0.1,0.2-0.1L-132.1,100.6z M-133.6,97.8c-0.2,0-0.3,0-0.4,0.1c-0.1,0-0.3,0.1-0.4,0.2c-0.1,0.1-0.2,0.2-0.3,0.3
		s-0.1,0.3-0.1,0.5h2.2c0-0.3-0.1-0.6-0.3-0.7C-133.1,97.8-133.3,97.8-133.6,97.8z"/>
	<path d="M-131.1,101v-0.5h1v-2.6h-1v-0.5h1.3l0.1,0.5l0,0c0.2-0.1,0.3-0.3,0.5-0.4s0.4-0.2,0.7-0.2c0.2,0,0.3,0,0.4,0.1
		c0.1,0.1,0.2,0.2,0.2,0.3c0.1,0.1,0.1,0.3,0.1,0.4c0,0.2,0,0.4,0,0.6h-0.5c0-0.3,0-0.5-0.1-0.7c-0.1-0.1-0.2-0.2-0.3-0.2
		s-0.3,0-0.4,0.1c-0.1,0-0.2,0.1-0.3,0.2c-0.1,0.1-0.2,0.1-0.2,0.2c-0.1,0.1-0.1,0.1-0.1,0.2v2.1h1.4v0.5L-131.1,101L-131.1,101z"/>
	<path d="M-119.5,97.3c0,0.4-0.2,0.9-0.6,1.5c-0.4,0.5-1,1.1-1.7,1.8h2.5v0.5h-3.2v-0.5c0.1-0.1,0.2-0.2,0.4-0.3s0.3-0.3,0.5-0.5
		s0.4-0.3,0.6-0.5s0.4-0.4,0.5-0.6c0.2-0.2,0.3-0.4,0.4-0.6c0.1-0.2,0.1-0.4,0.1-0.6c0-0.3-0.1-0.5-0.2-0.7
		c-0.1-0.2-0.4-0.2-0.7-0.2s-0.5,0-0.6,0.1c-0.2,0.1-0.3,0.1-0.5,0.2l-0.2-0.4c0.2-0.2,0.4-0.3,0.7-0.3c0.2-0.1,0.5-0.1,0.8-0.1
		c0.4,0,0.8,0.1,1,0.4C-119.6,96.5-119.5,96.8-119.5,97.3z"/>
</g>
</svg>
