<?xml version="1.0" encoding="utf-8"?>
<!-- Generator: Adobe Illustrator 19.0.0, SVG Export Plug-In . SVG Version: 6.00 Build 0)  -->
<svg version="1.1" id="Layer_1" xmlns="http://www.w3.org/2000/svg" xmlns:xlink="http://www.w3.org/1999/xlink" x="0px" y="0px"
	 viewBox="-164 254.4 281.7 285.6" style="enable-background:new -164 254.4 281.7 285.6;" xml:space="preserve">
<style type="text/css">
	.st0{fill:#E6E7E8;}
	.st1{fill:#6D6E71;}
	.st2{enable-background:new    ;}
</style>
<g>
	<rect x="-84.6" y="331.7" class="st0" width="38.4" height="124.7"/>
</g>
<g>
	<rect x="-0.1" y="362.6" class="st0" width="38.4" height="93.8"/>
</g>
<g>
	<g>
		<g>
			<rect x="-23.5" y="362.6" class="st1" width="0.7" height="60.8"/>
		</g>
		<g>
			<g>
				<polygon class="st1" points="-25.4,419.3 -24.7,419.1 -23.1,423.4 -21.6,419.1 -20.9,419.3 -23.1,425.5 				"/>
			</g>
		</g>
	</g>
</g>
<g class="st2">
	<path d="M-75.7,467.9c0-0.4,0-0.8,0.1-1.1c0.1-0.3,0.2-0.6,0.3-0.8c0.1-0.2,0.3-0.4,0.5-0.5c0.2-0.1,0.5-0.2,0.8-0.2
		c0.3,0,0.6,0.1,0.8,0.2c0.2,0.1,0.4,0.3,0.5,0.5c0.1,0.2,0.2,0.5,0.3,0.8c0.1,0.3,0.1,0.7,0.1,1.1c0,0.4,0,0.8-0.1,1.1
		c-0.1,0.3-0.2,0.6-0.3,0.8c-0.1,0.2-0.3,0.4-0.5,0.5c-0.2,0.1-0.5,0.2-0.8,0.2c-0.3,0-0.6-0.1-0.8-0.2c-0.2-0.1-0.4-0.3-0.5-0.5
		c-0.1-0.2-0.2-0.5-0.3-0.8C-75.6,468.6-75.7,468.3-75.7,467.9z M-75.1,467.9c0,0.1,0,0.2,0,0.3c0,0.1,0,0.2,0,0.3l2.1-1.9
		c-0.1-0.3-0.2-0.5-0.4-0.6c-0.2-0.2-0.4-0.2-0.6-0.2c-0.4,0-0.7,0.2-0.9,0.5C-75,466.7-75.1,467.2-75.1,467.9z M-72.8,467.9
		c0-0.3,0-0.5,0-0.7l-2.1,1.9c0.1,0.3,0.2,0.5,0.4,0.6c0.2,0.2,0.4,0.2,0.6,0.2c0.4,0,0.7-0.2,0.9-0.5
		C-72.9,469.1-72.8,468.6-72.8,467.9z"/>
	<path d="M-68.6,465.3l0.4,0.2l-2.6,5.9l-0.4-0.2L-68.6,465.3z"/>
	<path d="M-64,466.6c0,0.4-0.2,0.9-0.6,1.5c-0.4,0.5-1,1.1-1.7,1.8h2.5v0.5H-67v-0.5c0.1-0.1,0.2-0.2,0.4-0.3
		c0.2-0.1,0.3-0.3,0.5-0.5c0.2-0.2,0.4-0.3,0.6-0.5c0.2-0.2,0.4-0.4,0.5-0.6c0.2-0.2,0.3-0.4,0.4-0.6c0.1-0.2,0.1-0.4,0.1-0.6
		c0-0.3-0.1-0.5-0.2-0.7c-0.1-0.2-0.4-0.2-0.7-0.2c-0.3,0-0.5,0-0.6,0.1s-0.3,0.1-0.5,0.2l-0.2-0.4c0.2-0.2,0.4-0.3,0.7-0.3
		c0.2-0.1,0.5-0.1,0.8-0.1c0.4,0,0.8,0.1,1,0.4C-64.1,465.9-64,466.2-64,466.6z"/>
	<path d="M-62.9,467.9c0-0.4,0-0.8,0.1-1.1c0.1-0.3,0.2-0.6,0.3-0.8c0.1-0.2,0.3-0.4,0.5-0.5c0.2-0.1,0.5-0.2,0.8-0.2
		c0.3,0,0.6,0.1,0.8,0.2c0.2,0.1,0.4,0.3,0.5,0.5c0.1,0.2,0.2,0.5,0.3,0.8c0.1,0.3,0.1,0.7,0.1,1.1c0,0.4,0,0.8-0.1,1.1
		c-0.1,0.3-0.2,0.6-0.3,0.8c-0.1,0.2-0.3,0.4-0.5,0.5c-0.2,0.1-0.5,0.2-0.8,0.2c-0.3,0-0.6-0.1-0.8-0.2c-0.2-0.1-0.4-0.3-0.5-0.5
		c-0.1-0.2-0.2-0.5-0.3-0.8C-62.8,468.6-62.9,468.3-62.9,467.9z M-62.3,467.9c0,0.1,0,0.2,0,0.3c0,0.1,0,0.2,0,0.3l2.1-1.9
		c-0.1-0.3-0.2-0.5-0.4-0.6c-0.2-0.2-0.4-0.2-0.6-0.2c-0.4,0-0.7,0.2-0.9,0.5C-62.2,466.7-62.3,467.2-62.3,467.9z M-60,467.9
		c0-0.3,0-0.5,0-0.7l-2.1,1.9c0.1,0.3,0.2,0.5,0.4,0.6c0.2,0.2,0.4,0.2,0.6,0.2c0.4,0,0.7-0.2,0.9-0.5C-60,469.1-60,468.6-60,467.9z
		"/>
	<path d="M-58.6,467.9c0-0.4,0-0.8,0.1-1.1c0.1-0.3,0.2-0.6,0.3-0.8c0.1-0.2,0.3-0.4,0.5-0.5c0.2-0.1,0.5-0.2,0.8-0.2
		c0.3,0,0.6,0.1,0.8,0.2c0.2,0.1,0.4,0.3,0.5,0.5c0.1,0.2,0.2,0.5,0.3,0.8c0.1,0.3,0.1,0.7,0.1,1.1c0,0.4,0,0.8-0.1,1.1
		c-0.1,0.3-0.2,0.6-0.3,0.8c-0.1,0.2-0.3,0.4-0.5,0.5c-0.2,0.1-0.5,0.2-0.8,0.2c-0.3,0-0.6-0.1-0.8-0.2c-0.2-0.1-0.4-0.3-0.5-0.5
		c-0.1-0.2-0.2-0.5-0.3-0.8C-58.5,468.6-58.6,468.3-58.6,467.9z M-58,467.9c0,0.1,0,0.2,0,0.3c0,0.1,0,0.2,0,0.3l2.1-1.9
		c-0.1-0.3-0.2-0.5-0.4-0.6c-0.2-0.2-0.4-0.2-0.6-0.2c-0.4,0-0.7,0.2-0.9,0.5C-57.9,466.7-58,467.2-58,467.9z M-55.7,467.9
		c0-0.3,0-0.5,0-0.7l-2.1,1.9c0.1,0.3,0.2,0.5,0.4,0.6c0.2,0.2,0.4,0.2,0.6,0.2c0.4,0,0.7-0.2,0.9-0.5
		C-55.8,469.1-55.7,468.6-55.7,467.9z"/>
</g>
<g class="st2">
	<path d="M-75.7,479.9c0-0.4,0-0.8,0.1-1.1c0.1-0.3,0.2-0.6,0.3-0.8c0.1-0.2,0.3-0.4,0.5-0.5c0.2-0.1,0.5-0.2,0.8-0.2
		c0.3,0,0.6,0.1,0.8,0.2c0.2,0.1,0.4,0.3,0.5,0.5c0.1,0.2,0.2,0.5,0.3,0.8s0.1,0.7,0.1,1.1c0,0.4,0,0.8-0.1,1.1
		c-0.1,0.3-0.2,0.6-0.3,0.8s-0.3,0.4-0.5,0.5c-0.2,0.1-0.5,0.2-0.8,0.2c-0.3,0-0.6-0.1-0.8-0.2c-0.2-0.1-0.4-0.3-0.5-0.5
		c-0.1-0.2-0.2-0.5-0.3-0.8S-75.7,480.3-75.7,479.9z M-75.1,479.9c0,0.1,0,0.2,0,0.3c0,0.1,0,0.2,0,0.3l2.1-1.9
		c-0.1-0.3-0.2-0.5-0.4-0.6c-0.2-0.2-0.4-0.2-0.6-0.2c-0.4,0-0.7,0.2-0.9,0.5C-75,478.7-75.1,479.2-75.1,479.9z M-72.8,479.9
		c0-0.3,0-0.5,0-0.7l-2.1,1.9c0.1,0.3,0.2,0.5,0.4,0.6c0.2,0.2,0.4,0.2,0.6,0.2c0.4,0,0.7-0.2,0.9-0.5
		C-72.9,481.1-72.8,480.6-72.8,479.9z"/>
	<path d="M-68.2,478.7c0,0.4-0.2,0.9-0.6,1.5c-0.4,0.5-1,1.1-1.7,1.8h2.5v0.5h-3.2v-0.5c0.1-0.1,0.2-0.2,0.4-0.3
		c0.2-0.1,0.3-0.3,0.5-0.5c0.2-0.2,0.4-0.3,0.6-0.5c0.2-0.2,0.4-0.4,0.5-0.6c0.2-0.2,0.3-0.4,0.4-0.6c0.1-0.2,0.1-0.4,0.1-0.6
		c0-0.3-0.1-0.5-0.2-0.7c-0.1-0.2-0.4-0.2-0.7-0.2c-0.3,0-0.5,0-0.6,0.1c-0.2,0.1-0.3,0.1-0.5,0.2l-0.2-0.4c0.2-0.2,0.4-0.3,0.7-0.3
		c0.2-0.1,0.5-0.1,0.8-0.1c0.4,0,0.8,0.1,1,0.4C-68.3,477.9-68.2,478.2-68.2,478.7z"/>
	<path d="M-66.6,477.5c0-0.1,0-0.2,0.1-0.3c0.1-0.1,0.2-0.1,0.3-0.1c0.2,0,0.3,0.1,0.4,0.1c0.1,0.1,0.1,0.2,0.1,0.4
		c0,0.2,0,0.4-0.1,0.5c-0.1,0.1-0.1,0.3-0.2,0.4c-0.1,0.1-0.2,0.2-0.2,0.2c-0.1,0.1-0.2,0.1-0.2,0.1l-0.2-0.3
		c0.1-0.1,0.2-0.2,0.3-0.3c0.1-0.1,0.1-0.2,0.1-0.4c0,0,0,0-0.1,0c-0.1,0-0.2,0-0.3-0.1C-66.5,477.8-66.6,477.7-66.6,477.5z
		 M-65.2,477.5c0-0.1,0-0.2,0.1-0.3c0.1-0.1,0.2-0.1,0.3-0.1c0.2,0,0.3,0.1,0.4,0.1c0.1,0.1,0.1,0.2,0.1,0.4c0,0.2,0,0.4-0.1,0.5
		c-0.1,0.1-0.1,0.3-0.2,0.4c-0.1,0.1-0.2,0.2-0.2,0.2c-0.1,0.1-0.2,0.1-0.2,0.1l-0.2-0.3c0.1-0.1,0.2-0.2,0.3-0.3
		c0.1-0.1,0.1-0.2,0.1-0.4c0,0,0,0-0.1,0c-0.1,0-0.2,0-0.3-0.1C-65.1,477.8-65.2,477.7-65.2,477.5z"/>
	<path d="M-62.9,479.9c0-0.4,0-0.8,0.1-1.1c0.1-0.3,0.2-0.6,0.3-0.8c0.1-0.2,0.3-0.4,0.5-0.5c0.2-0.1,0.5-0.2,0.8-0.2
		c0.3,0,0.6,0.1,0.8,0.2c0.2,0.1,0.4,0.3,0.5,0.5c0.1,0.2,0.2,0.5,0.3,0.8c0.1,0.3,0.1,0.7,0.1,1.1c0,0.4,0,0.8-0.1,1.1
		c-0.1,0.3-0.2,0.6-0.3,0.8c-0.1,0.2-0.3,0.4-0.5,0.5c-0.2,0.1-0.5,0.2-0.8,0.2c-0.3,0-0.6-0.1-0.8-0.2c-0.2-0.1-0.4-0.3-0.5-0.5
		c-0.1-0.2-0.2-0.5-0.3-0.8C-62.8,480.6-62.9,480.3-62.9,479.9z M-62.3,479.9c0,0.1,0,0.2,0,0.3c0,0.1,0,0.2,0,0.3l2.1-1.9
		c-0.1-0.3-0.2-0.5-0.4-0.6c-0.2-0.2-0.4-0.2-0.6-0.2c-0.4,0-0.7,0.2-0.9,0.5C-62.2,478.7-62.3,479.2-62.3,479.9z M-60,479.9
		c0-0.3,0-0.5,0-0.7l-2.1,1.9c0.1,0.3,0.2,0.5,0.4,0.6c0.2,0.2,0.4,0.2,0.6,0.2c0.4,0,0.7-0.2,0.9-0.5C-60,481.1-60,480.6-60,479.9z
		"/>
	<path d="M-58.6,479.9c0-0.4,0-0.8,0.1-1.1c0.1-0.3,0.2-0.6,0.3-0.8c0.1-0.2,0.3-0.4,0.5-0.5c0.2-0.1,0.5-0.2,0.8-0.2
		c0.3,0,0.6,0.1,0.8,0.2c0.2,0.1,0.4,0.3,0.5,0.5c0.1,0.2,0.2,0.5,0.3,0.8c0.1,0.3,0.1,0.7,0.1,1.1c0,0.4,0,0.8-0.1,1.1
		c-0.1,0.3-0.2,0.6-0.3,0.8c-0.1,0.2-0.3,0.4-0.5,0.5c-0.2,0.1-0.5,0.2-0.8,0.2c-0.3,0-0.6-0.1-0.8-0.2c-0.2-0.1-0.4-0.3-0.5-0.5
		c-0.1-0.2-0.2-0.5-0.3-0.8C-58.5,480.6-58.6,480.3-58.6,479.9z M-58,479.9c0,0.1,0,0.2,0,0.3c0,0.1,0,0.2,0,0.3l2.1-1.9
		c-0.1-0.3-0.2-0.5-0.4-0.6c-0.2-0.2-0.4-0.2-0.6-0.2c-0.4,0-0.7,0.2-0.9,0.5C-57.9,478.7-58,479.2-58,479.9z M-55.7,479.9
		c0-0.3,0-0.5,0-0.7l-2.1,1.9c0.1,0.3,0.2,0.5,0.4,0.6c0.2,0.2,0.4,0.2,0.6,0.2c0.4,0,0.7-0.2,0.9-0.5
		C-55.8,481.1-55.7,480.6-55.7,479.9z"/>
</g>
<g class="st2">
	<path d="M8.1,470c0.2,0,0.4,0,0.5-0.1c0.2,0,0.3-0.1,0.4-0.2c0.1-0.1,0.2-0.2,0.3-0.3c0.1-0.1,0.1-0.3,0.1-0.4
		c0-0.3-0.1-0.6-0.3-0.7c-0.2-0.1-0.5-0.2-0.9-0.2H7.7v-0.3l1.4-1.8H6.9v-0.5h2.8v0.5l-1.4,1.6h0.1c0.2,0,0.4,0,0.6,0.1
		c0.2,0.1,0.3,0.1,0.5,0.3c0.1,0.1,0.2,0.3,0.3,0.4c0.1,0.2,0.1,0.3,0.1,0.5c0,0.3-0.1,0.5-0.1,0.7c-0.1,0.2-0.2,0.4-0.4,0.5
		c-0.2,0.1-0.4,0.2-0.6,0.3c-0.2,0.1-0.5,0.1-0.7,0.1c-0.2,0-0.5,0-0.6-0.1c-0.2,0-0.3-0.1-0.5-0.1l0.1-0.5c0.1,0.1,0.3,0.1,0.4,0.1
		C7.7,469.9,7.9,470,8.1,470z"/>
	<path d="M11,467.9c0-0.4,0-0.8,0.1-1.1c0.1-0.3,0.2-0.6,0.3-0.8c0.1-0.2,0.3-0.4,0.5-0.5s0.5-0.2,0.8-0.2c0.3,0,0.6,0.1,0.8,0.2
		c0.2,0.1,0.4,0.3,0.5,0.5c0.1,0.2,0.2,0.5,0.3,0.8c0.1,0.3,0.1,0.7,0.1,1.1c0,0.4,0,0.8-0.1,1.1c-0.1,0.3-0.2,0.6-0.3,0.8
		c-0.1,0.2-0.3,0.4-0.5,0.5c-0.2,0.1-0.5,0.2-0.8,0.2c-0.3,0-0.6-0.1-0.8-0.2c-0.2-0.1-0.4-0.3-0.5-0.5c-0.1-0.2-0.2-0.5-0.3-0.8
		C11,468.6,11,468.3,11,467.9z M11.6,467.9c0,0.1,0,0.2,0,0.3c0,0.1,0,0.2,0,0.3l2.1-1.9c-0.1-0.3-0.2-0.5-0.4-0.6
		c-0.2-0.2-0.4-0.2-0.6-0.2c-0.4,0-0.7,0.2-0.9,0.5C11.6,466.7,11.6,467.2,11.6,467.9z M13.9,467.9c0-0.3,0-0.5,0-0.7l-2.1,1.9
		c0.1,0.3,0.2,0.5,0.4,0.6c0.2,0.2,0.4,0.2,0.6,0.2c0.4,0,0.7-0.2,0.9-0.5C13.8,469.1,13.9,468.6,13.9,467.9z"/>
	<path d="M18.1,465.3l0.4,0.2l-2.6,5.9l-0.4-0.2L18.1,465.3z"/>
	<path d="M22.7,466.6c0,0.4-0.2,0.9-0.6,1.5c-0.4,0.5-1,1.1-1.7,1.8h2.5v0.5h-3.2v-0.5c0.1-0.1,0.2-0.2,0.4-0.3
		c0.2-0.1,0.3-0.3,0.5-0.5c0.2-0.2,0.4-0.3,0.6-0.5c0.2-0.2,0.4-0.4,0.5-0.6c0.2-0.2,0.3-0.4,0.4-0.6c0.1-0.2,0.1-0.4,0.1-0.6
		c0-0.3-0.1-0.5-0.2-0.7c-0.1-0.2-0.4-0.2-0.7-0.2c-0.3,0-0.5,0-0.6,0.1c-0.2,0.1-0.3,0.1-0.5,0.2l-0.2-0.4c0.2-0.2,0.4-0.3,0.7-0.3
		c0.2-0.1,0.5-0.1,0.8-0.1c0.4,0,0.8,0.1,1,0.4C22.6,465.9,22.7,466.2,22.7,466.6z"/>
	<path d="M23.8,467.9c0-0.4,0-0.8,0.1-1.1c0.1-0.3,0.2-0.6,0.3-0.8c0.1-0.2,0.3-0.4,0.5-0.5c0.2-0.1,0.5-0.2,0.8-0.2
		c0.3,0,0.6,0.1,0.8,0.2c0.2,0.1,0.4,0.3,0.5,0.5c0.1,0.2,0.2,0.5,0.3,0.8c0.1,0.3,0.1,0.7,0.1,1.1c0,0.4,0,0.8-0.1,1.1
		c-0.1,0.3-0.2,0.6-0.3,0.8c-0.1,0.2-0.3,0.4-0.5,0.5s-0.5,0.2-0.8,0.2c-0.3,0-0.6-0.1-0.8-0.2c-0.2-0.1-0.4-0.3-0.5-0.5
		c-0.1-0.2-0.2-0.5-0.3-0.8C23.8,468.6,23.8,468.3,23.8,467.9z M24.4,467.9c0,0.1,0,0.2,0,0.3c0,0.1,0,0.2,0,0.3l2.1-1.9
		c-0.1-0.3-0.2-0.5-0.4-0.6c-0.2-0.2-0.4-0.2-0.6-0.2c-0.4,0-0.7,0.2-0.9,0.5C24.5,466.7,24.4,467.2,24.4,467.9z M26.7,467.9
		c0-0.3,0-0.5,0-0.7l-2.1,1.9c0.1,0.3,0.2,0.5,0.4,0.6s0.4,0.2,0.6,0.2c0.4,0,0.7-0.2,0.9-0.5C26.6,469.1,26.7,468.6,26.7,467.9z"/>
	<path d="M28.1,467.9c0-0.4,0-0.8,0.1-1.1c0.1-0.3,0.2-0.6,0.3-0.8c0.1-0.2,0.3-0.4,0.5-0.5c0.2-0.1,0.5-0.2,0.8-0.2
		c0.3,0,0.6,0.1,0.8,0.2c0.2,0.1,0.4,0.3,0.5,0.5c0.1,0.2,0.2,0.5,0.3,0.8c0.1,0.3,0.1,0.7,0.1,1.1c0,0.4,0,0.8-0.1,1.1
		c-0.1,0.3-0.2,0.6-0.3,0.8c-0.1,0.2-0.3,0.4-0.5,0.5s-0.5,0.2-0.8,0.2c-0.3,0-0.6-0.1-0.8-0.2c-0.2-0.1-0.4-0.3-0.5-0.5
		c-0.1-0.2-0.2-0.5-0.3-0.8C28.1,468.6,28.1,468.3,28.1,467.9z M28.7,467.9c0,0.1,0,0.2,0,0.3c0,0.1,0,0.2,0,0.3l2.1-1.9
		c-0.1-0.3-0.2-0.5-0.4-0.6c-0.2-0.2-0.4-0.2-0.6-0.2c-0.4,0-0.7,0.2-0.9,0.5C28.7,466.7,28.7,467.2,28.7,467.9z M31,467.9
		c0-0.3,0-0.5,0-0.7l-2.1,1.9c0.1,0.3,0.2,0.5,0.4,0.6c0.2,0.2,0.4,0.2,0.6,0.2c0.4,0,0.7-0.2,0.9-0.5C30.9,469.1,31,468.6,31,467.9
		z"/>
</g>
<g class="st2">
	<path d="M8.8,479.9c0-0.4,0-0.8,0.1-1.1c0.1-0.3,0.2-0.6,0.3-0.8c0.1-0.2,0.3-0.4,0.5-0.5c0.2-0.1,0.5-0.2,0.8-0.2
		c0.3,0,0.6,0.1,0.8,0.2c0.2,0.1,0.4,0.3,0.5,0.5c0.1,0.2,0.2,0.5,0.3,0.8s0.1,0.7,0.1,1.1c0,0.4,0,0.8-0.1,1.1
		c-0.1,0.3-0.2,0.6-0.3,0.8c-0.1,0.2-0.3,0.4-0.5,0.5c-0.2,0.1-0.5,0.2-0.8,0.2c-0.3,0-0.6-0.1-0.8-0.2c-0.2-0.1-0.4-0.3-0.5-0.5
		c-0.1-0.2-0.2-0.5-0.3-0.8C8.9,480.6,8.8,480.3,8.8,479.9z M9.4,479.9c0,0.1,0,0.2,0,0.3c0,0.1,0,0.2,0,0.3l2.1-1.9
		c-0.1-0.3-0.2-0.5-0.4-0.6c-0.2-0.2-0.4-0.2-0.6-0.2c-0.4,0-0.7,0.2-0.9,0.5C9.5,478.7,9.4,479.2,9.4,479.9z M11.7,479.9
		c0-0.3,0-0.5,0-0.7l-2.1,1.9c0.1,0.3,0.2,0.5,0.4,0.6c0.2,0.2,0.4,0.2,0.6,0.2c0.4,0,0.7-0.2,0.9-0.5
		C11.6,481.1,11.7,480.6,11.7,479.9z"/>
	<path d="M16.3,478.7c0,0.4-0.2,0.9-0.6,1.5c-0.4,0.5-1,1.1-1.7,1.8h2.5v0.5h-3.2v-0.5c0.1-0.1,0.2-0.2,0.4-0.3
		c0.2-0.1,0.3-0.3,0.5-0.5c0.2-0.2,0.4-0.3,0.6-0.5c0.2-0.2,0.4-0.4,0.5-0.6c0.2-0.2,0.3-0.4,0.4-0.6c0.1-0.2,0.1-0.4,0.1-0.6
		c0-0.3-0.1-0.5-0.2-0.7c-0.1-0.2-0.4-0.2-0.7-0.2c-0.3,0-0.5,0-0.6,0.1c-0.2,0.1-0.3,0.1-0.5,0.2l-0.2-0.4c0.2-0.2,0.4-0.3,0.7-0.3
		c0.2-0.1,0.5-0.1,0.8-0.1c0.4,0,0.8,0.1,1,0.4C16.2,477.9,16.3,478.2,16.3,478.7z"/>
	<path d="M17.9,477.5c0-0.1,0-0.2,0.1-0.3c0.1-0.1,0.2-0.1,0.3-0.1c0.2,0,0.3,0.1,0.4,0.1c0.1,0.1,0.1,0.2,0.1,0.4
		c0,0.2,0,0.4-0.1,0.5c-0.1,0.1-0.1,0.3-0.2,0.4c-0.1,0.1-0.2,0.2-0.2,0.2c-0.1,0.1-0.2,0.1-0.2,0.1l-0.2-0.3
		c0.1-0.1,0.2-0.2,0.3-0.3c0.1-0.1,0.1-0.2,0.1-0.4c0,0,0,0-0.1,0c-0.1,0-0.2,0-0.3-0.1C18,477.8,17.9,477.7,17.9,477.5z
		 M19.4,477.5c0-0.1,0-0.2,0.1-0.3c0.1-0.1,0.2-0.1,0.3-0.1c0.2,0,0.3,0.1,0.4,0.1c0.1,0.1,0.1,0.2,0.1,0.4c0,0.2,0,0.4-0.1,0.5
		c-0.1,0.1-0.1,0.3-0.2,0.4c-0.1,0.1-0.2,0.2-0.2,0.2c-0.1,0.1-0.2,0.1-0.2,0.1l-0.2-0.3c0.1-0.1,0.2-0.2,0.3-0.3
		c0.1-0.1,0.1-0.2,0.1-0.4c0,0,0,0-0.1,0c-0.1,0-0.2,0-0.3-0.1C19.4,477.8,19.4,477.7,19.4,477.5z"/>
	<path d="M21.7,479.9c0-0.4,0-0.8,0.1-1.1c0.1-0.3,0.2-0.6,0.3-0.8s0.3-0.4,0.5-0.5c0.2-0.1,0.5-0.2,0.8-0.2c0.3,0,0.6,0.1,0.8,0.2
		s0.4,0.3,0.5,0.5c0.1,0.2,0.2,0.5,0.3,0.8s0.1,0.7,0.1,1.1c0,0.4,0,0.8-0.1,1.1c-0.1,0.3-0.2,0.6-0.3,0.8s-0.3,0.4-0.5,0.5
		c-0.2,0.1-0.5,0.2-0.8,0.2c-0.3,0-0.6-0.1-0.8-0.2c-0.2-0.1-0.4-0.3-0.5-0.5c-0.1-0.2-0.2-0.5-0.3-0.8S21.7,480.3,21.7,479.9z
		 M22.2,479.9c0,0.1,0,0.2,0,0.3c0,0.1,0,0.2,0,0.3l2.1-1.9c-0.1-0.3-0.2-0.5-0.4-0.6c-0.2-0.2-0.4-0.2-0.6-0.2
		c-0.4,0-0.7,0.2-0.9,0.5C22.3,478.7,22.2,479.2,22.2,479.9z M24.6,479.9c0-0.3,0-0.5,0-0.7l-2.1,1.9c0.1,0.3,0.2,0.5,0.4,0.6
		c0.2,0.2,0.4,0.2,0.6,0.2c0.4,0,0.7-0.2,0.9-0.5C24.5,481.1,24.6,480.6,24.6,479.9z"/>
	<path d="M25.9,479.9c0-0.4,0-0.8,0.1-1.1c0.1-0.3,0.2-0.6,0.3-0.8s0.3-0.4,0.5-0.5c0.2-0.1,0.5-0.2,0.8-0.2c0.3,0,0.6,0.1,0.8,0.2
		s0.4,0.3,0.5,0.5c0.1,0.2,0.2,0.5,0.3,0.8s0.1,0.7,0.1,1.1c0,0.4,0,0.8-0.1,1.1c-0.1,0.3-0.2,0.6-0.3,0.8s-0.3,0.4-0.5,0.5
		c-0.2,0.1-0.5,0.2-0.8,0.2c-0.3,0-0.6-0.1-0.8-0.2c-0.2-0.1-0.4-0.3-0.5-0.5c-0.1-0.2-0.2-0.5-0.3-0.8S25.9,480.3,25.9,479.9z
		 M26.5,479.9c0,0.1,0,0.2,0,0.3c0,0.1,0,0.2,0,0.3l2.1-1.9c-0.1-0.3-0.2-0.5-0.4-0.6c-0.2-0.2-0.4-0.2-0.6-0.2
		c-0.4,0-0.7,0.2-0.9,0.5C26.6,478.7,26.5,479.2,26.5,479.9z M28.8,479.9c0-0.3,0-0.5,0-0.7l-2.1,1.9c0.1,0.3,0.2,0.5,0.4,0.6
		c0.2,0.2,0.4,0.2,0.6,0.2c0.4,0,0.7-0.2,0.9-0.5C28.7,481.1,28.8,480.6,28.8,479.9z"/>
</g>
<g class="st2">
	<path d="M-81.8,307.7c0,0,0-0.1,0-0.2c0-0.1,0-0.1,0-0.2c0-0.1,0-0.1,0-0.2c0-0.1,0-0.1,0-0.2h-0.5v-0.5h0.9l0.1,0.5h0
		c0.1-0.2,0.3-0.3,0.5-0.4c0.2-0.1,0.4-0.2,0.7-0.2c0.5,0,0.9,0.1,1.1,0.4c0.3,0.3,0.4,0.7,0.4,1.4c0,0.3,0,0.6-0.1,0.8
		c-0.1,0.2-0.2,0.4-0.4,0.6c-0.2,0.2-0.4,0.3-0.6,0.4c-0.2,0.1-0.5,0.1-0.8,0.1c-0.1,0-0.2,0-0.3,0c-0.1,0-0.1,0-0.2,0
		c-0.1,0-0.1,0-0.2,0c-0.1,0-0.1,0-0.2-0.1v1.5h-0.5V307.7z M-80.2,306.9c-0.1,0-0.3,0-0.4,0.1c-0.1,0.1-0.2,0.1-0.3,0.2
		c-0.1,0.1-0.2,0.2-0.2,0.3c-0.1,0.1-0.1,0.2-0.1,0.3v1.6c0.1,0.1,0.2,0.1,0.4,0.2c0.1,0,0.3,0.1,0.5,0.1c0.4,0,0.7-0.1,0.9-0.4
		c0.2-0.2,0.3-0.6,0.3-1.1c0-0.4-0.1-0.7-0.2-0.9C-79.5,307-79.8,306.9-80.2,306.9z"/>
	<path d="M-77.4,305h1.2v3.8c0,0.3,0,0.5,0.1,0.6c0.1,0.1,0.2,0.2,0.4,0.2c0.1,0,0.3,0,0.4-0.1s0.3-0.1,0.4-0.2l0.3,0.4
		c-0.1,0.1-0.2,0.1-0.3,0.2c-0.1,0.1-0.2,0.1-0.3,0.1c-0.1,0-0.2,0.1-0.3,0.1c-0.1,0-0.2,0-0.3,0c-0.2,0-0.3,0-0.5-0.1
		c-0.1,0-0.3-0.1-0.3-0.2c-0.1-0.1-0.2-0.2-0.2-0.4c0-0.2-0.1-0.4-0.1-0.6v-3.3h-0.6V305z"/>
	<path d="M-73.2,306.7c0.2-0.1,0.4-0.2,0.7-0.3c0.3-0.1,0.5-0.1,0.8-0.1c0.2,0,0.4,0,0.6,0.1c0.2,0.1,0.3,0.2,0.4,0.3
		c0.1,0.1,0.1,0.3,0.2,0.4c0,0.2,0,0.3,0,0.5c0,0.2,0,0.4,0,0.6c0,0.2,0,0.4,0,0.6c0,0.2,0,0.5,0,0.7h0.5v0.5H-71l-0.1-0.5h0
		c0,0-0.1,0.1-0.1,0.2c-0.1,0.1-0.1,0.1-0.2,0.2s-0.2,0.1-0.3,0.2c-0.1,0-0.3,0.1-0.5,0.1c-0.4,0-0.6-0.1-0.8-0.3
		c-0.2-0.2-0.3-0.4-0.3-0.7c0-0.2,0.1-0.4,0.2-0.6c0.1-0.2,0.3-0.3,0.5-0.4c0.2-0.1,0.4-0.1,0.7-0.1c0.3,0,0.6,0,1,0.1
		c0-0.2,0-0.4,0-0.5c0-0.1-0.1-0.3-0.1-0.3c-0.1-0.1-0.1-0.1-0.3-0.2c-0.1,0-0.2-0.1-0.4-0.1c-0.2,0-0.4,0-0.6,0.1
		c-0.2,0.1-0.4,0.1-0.5,0.2L-73.2,306.7z M-72.1,309.6c0.1,0,0.3,0,0.4-0.1c0.1,0,0.2-0.1,0.3-0.2c0.1-0.1,0.2-0.1,0.2-0.2
		c0.1-0.1,0.1-0.2,0.1-0.2v-0.5c-0.2,0-0.5-0.1-0.7-0.1c-0.2,0-0.4,0-0.5,0.1c-0.2,0-0.3,0.1-0.4,0.2c-0.1,0.1-0.1,0.2-0.1,0.4
		c0,0.2,0.1,0.3,0.2,0.4C-72.5,309.5-72.4,309.6-72.1,309.6z"/>
	<path d="M-67.4,309.5h0.3l0.9-3h0.6l-1,3.2c-0.1,0.2-0.1,0.4-0.2,0.6c-0.1,0.2-0.1,0.4-0.2,0.6s-0.2,0.3-0.4,0.5
		c-0.2,0.1-0.4,0.2-0.7,0.2c-0.1,0-0.1,0-0.2,0c-0.1,0-0.1,0-0.2-0.1c-0.1,0-0.1,0-0.2-0.1c-0.1,0-0.1-0.1-0.1-0.1l0.2-0.5
		c0,0,0.1,0,0.1,0.1c0,0,0.1,0,0.2,0.1c0.1,0,0.1,0,0.2,0c0.1,0,0.1,0,0.1,0c0.4,0,0.6-0.3,0.7-0.9h-0.5l-1.5-3.6h0.6L-67.4,309.5z"
		/>
	<path d="M-61.6,309.6c-0.1,0.1-0.2,0.1-0.3,0.2c-0.1,0.1-0.2,0.1-0.4,0.2s-0.3,0.1-0.4,0.1c-0.1,0-0.3,0-0.5,0
		c-0.3,0-0.5,0-0.8-0.1c-0.2-0.1-0.4-0.2-0.5-0.4c-0.1-0.2-0.3-0.4-0.3-0.6c-0.1-0.2-0.1-0.5-0.1-0.8c0-0.3,0-0.6,0.1-0.8
		c0.1-0.2,0.2-0.4,0.4-0.6c0.2-0.2,0.3-0.3,0.6-0.4c0.2-0.1,0.5-0.1,0.7-0.1c0.2,0,0.4,0,0.6,0.1c0.2,0.1,0.4,0.2,0.5,0.3
		s0.3,0.3,0.3,0.6c0.1,0.3,0.1,0.6,0.1,1h-2.7c0,0.4,0.1,0.7,0.3,1c0.2,0.2,0.5,0.3,0.9,0.3c0.1,0,0.3,0,0.4,0
		c0.1,0,0.2-0.1,0.4-0.1c0.1,0,0.2-0.1,0.3-0.1c0.1-0.1,0.2-0.1,0.2-0.1L-61.6,309.6z M-63.1,306.8c-0.2,0-0.3,0-0.4,0.1
		c-0.1,0-0.3,0.1-0.4,0.2c-0.1,0.1-0.2,0.2-0.3,0.3c-0.1,0.1-0.1,0.3-0.1,0.5h2.2c0-0.3-0.1-0.6-0.3-0.7
		C-62.6,306.9-62.8,306.8-63.1,306.8z"/>
	<path d="M-60.6,310v-0.5h1v-2.6h-1v-0.5h1.3l0.1,0.5h0c0.2-0.1,0.3-0.3,0.5-0.4s0.4-0.2,0.7-0.2c0.2,0,0.3,0,0.4,0.1
		c0.1,0.1,0.2,0.2,0.2,0.3c0.1,0.1,0.1,0.3,0.1,0.4c0,0.2,0,0.4,0,0.6l-0.5,0c0-0.3,0-0.5-0.1-0.7c-0.1-0.1-0.2-0.2-0.3-0.2
		c-0.1,0-0.3,0-0.4,0.1c-0.1,0-0.2,0.1-0.3,0.2c-0.1,0.1-0.2,0.1-0.2,0.2c-0.1,0.1-0.1,0.1-0.1,0.2v2.1h1.4v0.5H-60.6z"/>
	<path d="M-51.7,309.5h1.1v-3.7l-1.1,0.8l-0.3-0.4l1.6-1.1h0.4v4.5h1.1v0.5h-2.8V309.5z"/>
</g>
<g class="st2">
	<path d="M2.7,307.7c0,0,0-0.1,0-0.2c0-0.1,0-0.1,0-0.2c0-0.1,0-0.1,0-0.2c0-0.1,0-0.1,0-0.2H2.2v-0.5h0.9l0.1,0.5h0
		c0.1-0.2,0.3-0.3,0.5-0.4c0.2-0.1,0.4-0.2,0.7-0.2c0.5,0,0.9,0.1,1.1,0.4c0.3,0.3,0.4,0.7,0.4,1.4c0,0.3,0,0.6-0.1,0.8
		c-0.1,0.2-0.2,0.4-0.4,0.6c-0.2,0.2-0.4,0.3-0.6,0.4c-0.2,0.1-0.5,0.1-0.8,0.1c-0.1,0-0.2,0-0.3,0c-0.1,0-0.1,0-0.2,0
		c-0.1,0-0.1,0-0.2,0c-0.1,0-0.1,0-0.2-0.1v1.5H2.7V307.7z M4.3,306.9c-0.1,0-0.3,0-0.4,0.1c-0.1,0.1-0.2,0.1-0.3,0.2
		c-0.1,0.1-0.2,0.2-0.2,0.3c-0.1,0.1-0.1,0.2-0.1,0.3v1.6c0.1,0.1,0.2,0.1,0.4,0.2c0.1,0,0.3,0.1,0.5,0.1c0.4,0,0.7-0.1,0.9-0.4
		c0.2-0.2,0.3-0.6,0.3-1.1c0-0.4-0.1-0.7-0.2-0.9C5,307,4.7,306.9,4.3,306.9z"/>
	<path d="M7.1,305h1.2v3.8c0,0.3,0,0.5,0.1,0.6c0.1,0.1,0.2,0.2,0.4,0.2c0.1,0,0.3,0,0.4-0.1c0.1,0,0.3-0.1,0.4-0.2l0.3,0.4
		c-0.1,0.1-0.2,0.1-0.2,0.2c-0.1,0.1-0.2,0.1-0.3,0.1c-0.1,0-0.2,0.1-0.3,0.1s-0.2,0-0.3,0c-0.2,0-0.3,0-0.5-0.1
		c-0.1,0-0.3-0.1-0.3-0.2c-0.1-0.1-0.2-0.2-0.2-0.4c0-0.2-0.1-0.4-0.1-0.6v-3.3H7.1V305z"/>
	<path d="M11.3,306.7c0.2-0.1,0.4-0.2,0.7-0.3c0.3-0.1,0.5-0.1,0.8-0.1c0.2,0,0.4,0,0.6,0.1c0.2,0.1,0.3,0.2,0.4,0.3
		c0.1,0.1,0.1,0.3,0.2,0.4c0,0.2,0,0.3,0,0.5c0,0.2,0,0.4,0,0.6c0,0.2,0,0.4,0,0.6c0,0.2,0,0.5,0,0.7h0.5v0.5h-0.9l-0.1-0.5h0
		c0,0-0.1,0.1-0.1,0.2c-0.1,0.1-0.1,0.1-0.2,0.2c-0.1,0.1-0.2,0.1-0.3,0.2c-0.1,0-0.3,0.1-0.5,0.1c-0.4,0-0.6-0.1-0.8-0.3
		c-0.2-0.2-0.3-0.4-0.3-0.7c0-0.2,0.1-0.4,0.2-0.6s0.3-0.3,0.5-0.4s0.4-0.1,0.7-0.1c0.3,0,0.6,0,1,0.1c0-0.2,0-0.4,0-0.5
		s-0.1-0.3-0.1-0.3c-0.1-0.1-0.1-0.1-0.3-0.2c-0.1,0-0.2-0.1-0.4-0.1c-0.2,0-0.4,0-0.6,0.1c-0.2,0.1-0.4,0.1-0.5,0.2L11.3,306.7z
		 M12.4,309.6c0.1,0,0.3,0,0.4-0.1c0.1,0,0.2-0.1,0.3-0.2c0.1-0.1,0.2-0.1,0.2-0.2c0.1-0.1,0.1-0.2,0.1-0.2v-0.5
		c-0.2,0-0.5-0.1-0.7-0.1c-0.2,0-0.4,0-0.5,0.1c-0.2,0-0.3,0.1-0.4,0.2c-0.1,0.1-0.1,0.2-0.1,0.4c0,0.2,0.1,0.3,0.2,0.4
		C12,309.5,12.1,309.6,12.4,309.6z"/>
	<path d="M17.1,309.5h0.3l0.9-3h0.6l-1,3.2c-0.1,0.2-0.1,0.4-0.2,0.6c-0.1,0.2-0.1,0.4-0.2,0.6c-0.1,0.2-0.2,0.3-0.4,0.5
		c-0.2,0.1-0.4,0.2-0.7,0.2c-0.1,0-0.1,0-0.2,0c-0.1,0-0.1,0-0.2-0.1c-0.1,0-0.1,0-0.2-0.1c-0.1,0-0.1-0.1-0.1-0.1l0.2-0.5
		c0,0,0.1,0,0.1,0.1c0,0,0.1,0,0.2,0.1c0.1,0,0.1,0,0.2,0c0.1,0,0.1,0,0.1,0c0.4,0,0.6-0.3,0.7-0.9h-0.5l-1.5-3.6h0.6L17.1,309.5z"
		/>
	<path d="M22.9,309.6c-0.1,0.1-0.2,0.1-0.3,0.2c-0.1,0.1-0.2,0.1-0.4,0.2c-0.1,0-0.3,0.1-0.4,0.1c-0.1,0-0.3,0-0.5,0
		c-0.3,0-0.5,0-0.8-0.1c-0.2-0.1-0.4-0.2-0.5-0.4c-0.1-0.2-0.3-0.4-0.3-0.6c-0.1-0.2-0.1-0.5-0.1-0.8c0-0.3,0-0.6,0.1-0.8
		c0.1-0.2,0.2-0.4,0.4-0.6c0.2-0.2,0.3-0.3,0.6-0.4c0.2-0.1,0.5-0.1,0.7-0.1c0.2,0,0.4,0,0.6,0.1c0.2,0.1,0.4,0.2,0.5,0.3
		c0.1,0.1,0.3,0.3,0.3,0.6c0.1,0.3,0.1,0.6,0.1,1h-2.7c0,0.4,0.1,0.7,0.3,1c0.2,0.2,0.5,0.3,0.9,0.3c0.1,0,0.3,0,0.4,0
		c0.1,0,0.2-0.1,0.4-0.1c0.1,0,0.2-0.1,0.3-0.1c0.1-0.1,0.2-0.1,0.2-0.1L22.9,309.6z M21.4,306.8c-0.2,0-0.3,0-0.4,0.1
		c-0.1,0-0.3,0.1-0.4,0.2c-0.1,0.1-0.2,0.2-0.3,0.3c-0.1,0.1-0.1,0.3-0.1,0.5h2.2c0-0.3-0.1-0.6-0.3-0.7
		C21.9,306.9,21.7,306.8,21.4,306.8z"/>
	<path d="M23.9,310v-0.5h1v-2.6h-1v-0.5h1.3l0.1,0.5h0c0.2-0.1,0.3-0.3,0.5-0.4c0.2-0.1,0.4-0.2,0.7-0.2c0.2,0,0.3,0,0.4,0.1
		s0.2,0.2,0.2,0.3c0.1,0.1,0.1,0.3,0.1,0.4c0,0.2,0,0.4,0,0.6l-0.5,0c0-0.3,0-0.5-0.1-0.7c-0.1-0.1-0.2-0.2-0.3-0.2
		c-0.1,0-0.3,0-0.4,0.1c-0.1,0-0.2,0.1-0.3,0.2c-0.1,0.1-0.2,0.1-0.2,0.2c-0.1,0.1-0.1,0.1-0.1,0.2v2.1h1.4v0.5H23.9z"/>
	<path d="M35.5,306.3c0,0.4-0.2,0.9-0.6,1.5c-0.4,0.5-1,1.1-1.7,1.8h2.5v0.5h-3.2v-0.5c0.1-0.1,0.2-0.2,0.4-0.3
		c0.2-0.1,0.3-0.3,0.5-0.5c0.2-0.2,0.4-0.3,0.6-0.5c0.2-0.2,0.4-0.4,0.5-0.6c0.2-0.2,0.3-0.4,0.4-0.6c0.1-0.2,0.1-0.4,0.1-0.6
		c0-0.3-0.1-0.5-0.2-0.7c-0.1-0.2-0.4-0.2-0.7-0.2c-0.3,0-0.5,0-0.6,0.1c-0.2,0.1-0.3,0.1-0.5,0.2l-0.2-0.4c0.2-0.2,0.4-0.3,0.7-0.3
		c0.2-0.1,0.5-0.1,0.8-0.1c0.4,0,0.8,0.1,1,0.4C35.4,305.5,35.5,305.9,35.5,306.3z"/>
</g>
</svg>
