<?xml version="1.0" encoding="utf-8"?>
<!-- Generator: Adobe Illustrator 19.0.0, SVG Export Plug-In . SVG Version: 6.00 Build 0)  -->
<svg version="1.1" id="Layer_1" xmlns="http://www.w3.org/2000/svg" xmlns:xlink="http://www.w3.org/1999/xlink" x="0px" y="0px"
	 viewBox="0 -16.1 512 519.1" style="enable-background:new 0 -16.1 512 519.1;" xml:space="preserve">
<style type="text/css">
	.st0{opacity:0.3;fill:#0071BC;enable-background:new    ;}
	.st1{opacity:0.3;fill:#009245;enable-background:new    ;}
	.st2{opacity:0.3;fill:#FF0000;enable-background:new    ;}
	.st3{fill:#0071BC;}
	.st4{opacity:0.3;}
	.st5{fill:#009245;}
	.st6{fill:#FFFFFF;}
	.st7{clip-path:url(#SVGID_2_);}
	.st8{clip-path:url(#SVGID_4_);}
	.st9{clip-path:url(#SVGID_6_);}
	.st10{clip-path:url(#SVGID_8_);}
	.st11{clip-path:url(#SVGID_10_);}
	.st12{clip-path:url(#SVGID_12_);}
	.st13{clip-path:url(#SVGID_14_);}
	.st14{clip-path:url(#SVGID_16_);}
	.st15{clip-path:url(#SVGID_18_);}
	.st16{clip-path:url(#SVGID_20_);}
	.st17{clip-path:url(#SVGID_22_);}
	.st18{clip-path:url(#SVGID_24_);}
	.st19{clip-path:url(#SVGID_26_);}
	.st20{clip-path:url(#SVGID_28_);}
	.st21{clip-path:url(#SVGID_30_);}
	.st22{clip-path:url(#SVGID_32_);}
	.st23{clip-path:url(#SVGID_34_);}
	.st24{fill:#FF0000;}
	.st25{clip-path:url(#SVGID_36_);}
</style>
<g id="Layer_1_1_">
</g>
<g id="Layer_2">
	<g id="XMLID_503_">
		<path id="XMLID_90_" class="st0" d="M324.8,371.7H54.4c-2.5,0-4.5-2-4.5-4.5V144.5c0-2.5,2-4.5,4.5-4.5h270.4c2.5,0,4.5,2,4.5,4.5
			v222.7C329.3,369.7,327.3,371.7,324.8,371.7z"/>
		<path id="XMLID_89_" class="st1" d="M505.1,322.5H367.6c-2.5,0-4.5-2-4.5-4.5V108.6c0-2.5,2-4.5,4.5-4.5H505c2.5,0,4.5,2,4.5,4.5
			v209.3C509.6,320.4,507.5,322.5,505.1,322.5z"/>
		<path id="XMLID_92_" class="st2" d="M324.5,106.1H7.1c-2.5,0-4.5-2-4.5-4.5V18.4c0-2.5,2-4.5,4.5-4.5h317.4c2.5,0,4.5,2,4.5,4.5
			v83.2C329,104.1,326.9,106.1,324.5,106.1z"/>
		<g id="XMLID_268_">
			<g id="XMLID_99_">
				<path id="XMLID_506_" class="st3" d="M240.1,441.6h-60.8c-8.2,0-14.9-6.7-14.9-14.9v-66.4h2.8v66.4c0,6.7,5.4,12.1,12.1,12.1
					h60.8L240.1,441.6L240.1,441.6z"/>
			</g>
			<g id="XMLID_91_" class="st4">
				<path id="XMLID_505_" class="st5" d="M423,441.4H266.3v-2.8H423c6.7,0,12.1-5.4,12.1-12.1v-104h2.8v104
					C437.9,434.7,431.2,441.4,423,441.4z"/>
			</g>
			<g id="XMLID_48_">
				<g id="XMLID_55_">
					<circle id="XMLID_502_" class="st3" cx="165.8" cy="328.5" r="3.2"/>
				</g>
				<g id="XMLID_49_">
					<path id="XMLID_501_" class="st3" d="M182.9,308.4h-34.1c-1.6,0-2.9,1.3-2.9,2.9v46c0,1.6,1.3,2.9,2.9,2.9h34.1
						c1.6,0,2.9-1.3,2.9-2.9v-46C185.7,309.7,184.5,308.4,182.9,308.4z M150.7,310.9c1.2,0,2.2,0.9,2.2,2.2c0,1.2-0.9,2.2-2.2,2.2
						s-2.2-0.9-2.2-2.2C148.5,311.9,149.5,310.9,150.7,310.9z M167.1,343.5c-0.5,0.1-0.9-0.5-0.8-1l2.4-7c0.3-0.7-0.7-1.3-1.2-0.7
						l-7.2,7.3c-0.2,0.2-0.6,0.3-0.9,0.1c-5.1-2.3-8.8-7.6-8.8-13.7c0-8,6.3-14.7,14.3-15.2c8.8-0.4,16,6.5,16,15.1
						C180.9,336.3,174.9,342.8,167.1,343.5z M180.3,357.6c-1.2,0-2.2-0.9-2.2-2.2c0-1.2,0.9-2.2,2.2-2.2s2.2,0.9,2.2,2.2
						S181.5,357.6,180.3,357.6z M180.3,315.3c-1.2,0-2.2-0.9-2.2-2.2c0-1.2,0.9-2.2,2.2-2.2s2.2,0.9,2.2,2.2
						C182.5,314.3,181.5,315.3,180.3,315.3z"/>
				</g>
			</g>
			<g id="XMLID_56_">
				<g id="XMLID_47_">
					<path id="XMLID_299_" d="M273.2,414.3H239c-1.6,0-2.9,1.3-2.9,2.9v46c0,1.6,1.3,2.9,2.9,2.9h34.1c1.6,0,2.9-1.3,2.9-2.9v-46
						C276,415.6,274.8,414.3,273.2,414.3z"/>
				</g>
				<g id="XMLID_46_">
					<rect id="XMLID_1069_" x="238.8" y="459.8" class="st6" width="3.6" height="3.6"/>
				</g>
				<g id="XMLID_45_">
					<rect id="XMLID_1067_" x="271.5" y="459.8" class="st6" width="1.8" height="3.6"/>
				</g>
				<g id="XMLID_44_">
					<rect id="XMLID_1065_" x="268.6" y="459.8" class="st6" width="1.8" height="3.6"/>
				</g>
				<g id="XMLID_43_">
					<rect id="XMLID_1063_" x="265.6" y="459.8" class="st6" width="1.8" height="3.6"/>
				</g>
				<g id="XMLID_42_">
					<rect id="XMLID_1061_" x="262.7" y="459.8" class="st6" width="1.8" height="3.6"/>
				</g>
				<g id="XMLID_41_">
					<rect id="XMLID_500_" x="235" y="456.3" class="st6" width="41" height="1"/>
				</g>
			</g>
			<g id="XMLID_88_">
				<path id="XMLID_494_" d="M69.9,175.7l-0.4-3.5h-3l-0.3,3.5h-4.3L65,152h6.5l3.1,23.7H69.9z M66.9,168.1H69l-1-10.3L66.9,168.1z"
					/>
			</g>
			<g id="XMLID_22_">
				<g id="XMLID_83_">
					<path id="XMLID_495_" class="st3" d="M132.7,290H66.2c-3.6,0-6.5-2.9-6.5-6.5V224c0-3.6,2.9-6.5,6.5-6.5h66.4
						c3.6,0,6.5,2.9,6.5,6.5v59.5C139.1,287.1,136.2,290,132.7,290z M66.2,220.3c-2,0-3.7,1.6-3.7,3.7v59.5c0,2,1.6,3.7,3.7,3.7
						h66.4c2,0,3.7-1.6,3.7-3.7V224c0-2-1.6-3.7-3.7-3.7L66.2,220.3L66.2,220.3z"/>
				</g>
				<g id="XMLID_255_">
					<path id="XMLID_319_" class="st6" d="M67.9,225.1v3.1h-0.5v-0.7c-0.2,0.3-0.3,0.4-0.6,0.6c-0.2,0.1-0.4,0.2-0.6,0.2
						s-0.3,0-0.5-0.1c-0.1-0.1-0.3-0.2-0.3-0.4c-0.1-0.2-0.1-0.5-0.1-0.9v-1.7h0.5v1.8c0,0.3,0,0.5,0,0.6s0.1,0.2,0.2,0.2
						c0.1,0.1,0.2,0.1,0.2,0.1c0.2,0,0.4-0.1,0.6-0.3s0.4-0.4,0.5-0.6v-1.8h0.6V225.1z"/>
					<path id="XMLID_321_" class="st6" d="M68.7,228v-0.5c0.2,0.1,0.4,0.2,0.7,0.3c0.2,0.1,0.4,0.1,0.6,0.1c0.3,0,0.4,0,0.6-0.1
						c0.1-0.1,0.2-0.2,0.2-0.3s0-0.2-0.1-0.2c-0.1-0.1-0.2-0.1-0.4-0.2l-0.2-0.1l-0.4-0.1c-0.4-0.1-0.6-0.3-0.7-0.4
						c-0.1-0.1-0.2-0.3-0.2-0.5c0-0.3,0.1-0.5,0.3-0.6c0.2-0.2,0.5-0.2,1-0.2c0.3,0,0.6,0,0.9,0.1v0.5c-0.3-0.1-0.7-0.2-1-0.2
						c-0.2,0-0.4,0-0.5,0.1s-0.2,0.2-0.2,0.3s0.1,0.2,0.2,0.3s0.3,0.1,0.5,0.2l0.3,0.1c0.3,0.1,0.5,0.2,0.7,0.4
						c0.1,0.1,0.2,0.3,0.2,0.5c0,0.3-0.1,0.5-0.3,0.7c-0.2,0.2-0.5,0.3-1,0.3C69.6,228.2,69.2,228.2,68.7,228z"/>
					<path id="XMLID_323_" class="st6" d="M74.7,228c-0.4,0.2-0.8,0.3-1.2,0.3c-0.3,0-0.5-0.1-0.7-0.2c-0.2-0.1-0.4-0.3-0.5-0.6
						s-0.2-0.5-0.2-0.8s0.1-0.6,0.2-0.8c0.1-0.3,0.3-0.5,0.5-0.6s0.5-0.2,0.7-0.2c0.4,0,0.7,0.1,0.9,0.4c0.2,0.3,0.3,0.7,0.3,1.2
						v0.1h-2.1c0,0.2,0,0.4,0.1,0.6c0.1,0.2,0.2,0.3,0.4,0.4c0.1,0.1,0.3,0.1,0.5,0.1c0.3,0,0.7-0.1,1.1-0.3
						C74.7,227.6,74.7,228,74.7,228z M72.6,226.3h1.5v-0.1c0-0.3-0.1-0.5-0.2-0.6s-0.3-0.2-0.5-0.2s-0.4,0.1-0.5,0.2
						C72.8,225.8,72.7,226,72.6,226.3z"/>
					<path id="XMLID_326_" class="st6" d="M75.7,228.2v-3.1h0.5v0.7c0.2-0.3,0.3-0.4,0.5-0.6c0.2-0.1,0.4-0.2,0.7-0.2
						c0.2,0,0.4,0,0.6,0.1v1.1h-0.5v-0.7c-0.1,0-0.2,0-0.2,0c-0.2,0-0.4,0.1-0.6,0.2c-0.2,0.2-0.4,0.4-0.5,0.7v1.8H75.7z"/>
					<path id="XMLID_328_" class="st6" d="M80.1,225.9c-0.1,0-0.2,0-0.3-0.1s-0.1-0.2-0.1-0.3s0-0.2,0.1-0.3s0.2-0.1,0.3-0.1
						s0.2,0,0.3,0.1c0.1,0.1,0.1,0.2,0.1,0.3s0,0.2-0.1,0.3S80.3,225.9,80.1,225.9z M80.1,228.3c-0.1,0-0.2,0-0.3-0.1
						c-0.1-0.1-0.1-0.2-0.1-0.3s0-0.2,0.1-0.3s0.2-0.1,0.3-0.1s0.2,0,0.3,0.1c0.1,0.1,0.1,0.2,0.1,0.3s0,0.2-0.1,0.3
						C80.4,228.2,80.3,228.3,80.1,228.3z"/>
					<path id="XMLID_331_" class="st6" d="M82,227L82,227c0-0.3,0.1-0.5,0.2-0.7s0.3-0.3,0.6-0.3c0.1,0,0.1,0,0.2,0s0.1,0,0.2,0.1
						c0.1,0,0.2,0.1,0.3,0.2l0.3,0.2c0.2,0.1,0.4,0.2,0.5,0.2s0.2,0,0.3-0.1c0.1-0.1,0.1-0.2,0.1-0.3l0,0H85l0,0
						c0,0.3-0.1,0.5-0.3,0.7c-0.2,0.1-0.4,0.2-0.6,0.2s-0.4-0.1-0.7-0.3l-0.3-0.2c-0.2-0.1-0.4-0.2-0.5-0.2s-0.1,0-0.2,0.1
						c-0.1,0-0.1,0.1-0.2,0.2c0,0.1-0.1,0.2-0.1,0.2l0,0L82,227L82,227z"/>
					<path id="XMLID_333_" class="st6" d="M89.5,225.8c0.2-0.3,0.3-0.5,0.6-0.6c0.2-0.1,0.4-0.2,0.6-0.2c0.3,0,0.5,0.1,0.7,0.3
						s0.3,0.6,0.3,1s-0.1,0.7-0.2,1s-0.3,0.5-0.5,0.7s-0.5,0.2-0.8,0.2c-0.1,0-0.2,0-0.4,0h-0.1H89v-4.4h0.5V225.8z M89.5,226.4v1.3
						c0.2,0,0.4,0.1,0.5,0.1c0.3,0,0.6-0.1,0.8-0.4c0.2-0.2,0.3-0.6,0.3-1c0-0.3-0.1-0.5-0.2-0.7s-0.2-0.2-0.4-0.2
						c-0.2,0-0.3,0.1-0.5,0.2C89.8,225.9,89.7,226.1,89.5,226.4z"/>
					<path id="XMLID_336_" class="st6" d="M93.2,228.2v-4h-0.9v-0.4h1.4v4h1v0.4H93.2z"/>
					<path id="XMLID_338_" class="st6" d="M97.8,227.5c-0.2,0.3-0.3,0.4-0.6,0.6c-0.2,0.1-0.4,0.2-0.6,0.2c-0.3,0-0.5-0.1-0.7-0.3
						s-0.3-0.6-0.3-1s0.1-0.7,0.2-1s0.3-0.5,0.5-0.7s0.5-0.2,0.8-0.2c0.1,0,0.2,0,0.4,0h0.1h0.5v2.2c0,0.4,0,0.7,0.1,0.9h-0.5
						C97.9,228,97.8,227.8,97.8,227.5z M97.8,226.9v-1.3c-0.2,0-0.4-0.1-0.5-0.1c-0.3,0-0.6,0.1-0.8,0.4c-0.2,0.2-0.3,0.6-0.3,1
						c0,0.3,0.1,0.5,0.2,0.7s0.2,0.2,0.4,0.2c0.2,0,0.3-0.1,0.5-0.2C97.5,227.3,97.7,227.1,97.8,226.9z"/>
					<path id="XMLID_341_" class="st6" d="M99.2,228.2v-4.4h0.5v2c0.1-0.2,0.3-0.4,0.5-0.6c0.2-0.1,0.4-0.2,0.6-0.2s0.3,0,0.5,0.1
						s0.2,0.2,0.3,0.3c0,0.1,0.1,0.2,0.1,0.3s0,0.3,0,0.7v1.7h-0.5v-1.8c0-0.3,0-0.5,0-0.6s-0.1-0.2-0.2-0.2
						c-0.1-0.1-0.2-0.1-0.2-0.1c-0.2,0-0.4,0.1-0.6,0.3s-0.4,0.4-0.5,0.6v1.8L99.2,228.2L99.2,228.2z"/>
					<path id="XMLID_343_" class="st6" d="M103.7,228.6v-0.4c-0.1,0-0.3,0-0.4,0s-0.3,0-0.4-0.1c-0.1,0-0.3-0.1-0.4-0.1v-0.5
						c0.1,0.1,0.2,0.1,0.4,0.2c0.1,0,0.2,0.1,0.4,0.1c0.1,0,0.3,0,0.4,0.1v-1.5l-0.3-0.2c-0.6-0.3-0.8-0.7-0.8-1.1
						c0-0.2,0.1-0.4,0.3-0.7c0.2-0.2,0.5-0.3,0.9-0.4v-0.5h0.4v0.5c0.2,0,0.5,0,0.8,0.1v0.5h-0.1c-0.3-0.1-0.5-0.1-0.7-0.1v1.5
						l0.3,0.2c0.3,0.2,0.5,0.3,0.6,0.5s0.2,0.3,0.2,0.5s0,0.3-0.1,0.5s-0.2,0.3-0.4,0.4c-0.2,0.1-0.4,0.2-0.6,0.2v0.5h-0.5V228.6z
						 M103.7,225.6v-1.3c-0.2,0-0.3,0.1-0.4,0.2c-0.1,0.1-0.2,0.2-0.2,0.3s0,0.2,0.1,0.4C103.4,225.3,103.5,225.5,103.7,225.6z
						 M104.1,226.4v1.3c0.2-0.1,0.3-0.2,0.4-0.3s0.1-0.2,0.1-0.3s0-0.2-0.1-0.3C104.5,226.7,104.3,226.6,104.1,226.4z"/>
					<path id="XMLID_347_" class="st6" d="M67.9,234.8c-0.2,0.1-0.4,0.2-0.5,0.2s-0.2,0-0.3,0c-0.2,0-0.4,0-0.6-0.1
						s-0.3-0.2-0.4-0.4s-0.1-0.4-0.1-0.7v-1.2h-0.8v-0.4H66V231h0.5v1.2h1.4v0.4h-1.4v1.2c0,0.2,0,0.4,0.1,0.5s0.1,0.2,0.2,0.2
						s0.2,0.1,0.3,0.1c0.2,0,0.5-0.1,0.8-0.2V234.8z"/>
					<path id="XMLID_349_" class="st6" d="M68.7,234.9v-4.4h0.5v2c0.1-0.2,0.3-0.4,0.5-0.6c0.2-0.1,0.4-0.2,0.6-0.2s0.3,0,0.5,0.1
						c0.1,0.1,0.2,0.2,0.3,0.3c0,0.1,0.1,0.2,0.1,0.3s0,0.3,0,0.7v1.7h-0.5V233c0-0.3,0-0.5,0-0.6s-0.1-0.2-0.2-0.2
						c-0.1-0.1-0.2-0.1-0.3-0.1c-0.2,0-0.4,0.1-0.6,0.3s-0.4,0.4-0.5,0.6v1.8L68.7,234.9L68.7,234.9z"/>
					<path id="XMLID_351_" class="st6" d="M73,234.9v-2.6h-0.9v-0.4h1.4v2.6h0.9v0.4H73z M72.9,230.7c0-0.1,0-0.2,0.1-0.3
						s0.2-0.1,0.2-0.1c0.1,0,0.1,0,0.2,0.1s0.1,0.1,0.1,0.3c0,0.1,0,0.2-0.1,0.3s-0.2,0.1-0.2,0.1c-0.1,0-0.1,0-0.2-0.1
						C72.9,230.9,72.9,230.9,72.9,230.7z"/>
					<path id="XMLID_354_" class="st6" d="M75.5,234.8v-0.5c0.2,0.1,0.4,0.2,0.7,0.3c0.2,0.1,0.4,0.1,0.6,0.1c0.3,0,0.4,0,0.6-0.1
						c0.1-0.1,0.2-0.2,0.2-0.3s0-0.2-0.1-0.2c-0.1-0.1-0.2-0.1-0.4-0.2l-0.2-0.1l-0.4-0.1c-0.4-0.1-0.6-0.3-0.7-0.4
						c-0.1-0.1-0.2-0.3-0.2-0.5c0-0.3,0.1-0.5,0.3-0.6c0.2-0.2,0.5-0.2,1-0.2c0.3,0,0.6,0,0.9,0.1v0.5c-0.3-0.1-0.7-0.2-1-0.2
						c-0.2,0-0.4,0-0.5,0.1s-0.2,0.2-0.2,0.3s0.1,0.2,0.2,0.3s0.3,0.1,0.5,0.2l0.3,0.1c0.3,0.1,0.5,0.2,0.7,0.4
						c0.1,0.1,0.2,0.3,0.2,0.5c0,0.3-0.1,0.5-0.3,0.7c-0.2,0.2-0.5,0.3-1,0.3C76.3,235,75.9,234.9,75.5,234.8z"/>
					<path id="XMLID_356_" class="st6" d="M83.1,234.9v-2.6h-0.9v-0.4h1.4v2.6h0.9v0.4H83.1z M83,230.7c0-0.1,0-0.2,0.1-0.3
						s0.2-0.1,0.2-0.1c0.1,0,0.1,0,0.2,0.1s0.1,0.1,0.1,0.3c0,0.1,0,0.2-0.1,0.3s-0.2,0.1-0.2,0.1c-0.1,0-0.1,0-0.2-0.1
						C83.1,230.9,83,230.9,83,230.7z"/>
					<path id="XMLID_359_" class="st6" d="M85.7,234.8v-0.5c0.2,0.1,0.4,0.2,0.7,0.3c0.2,0.1,0.4,0.1,0.6,0.1c0.3,0,0.4,0,0.6-0.1
						c0.1-0.1,0.2-0.2,0.2-0.3s0-0.2-0.1-0.2c-0.1-0.1-0.2-0.1-0.4-0.2l-0.2-0.1l-0.4-0.1c-0.4-0.1-0.6-0.3-0.7-0.4
						c-0.1-0.1-0.2-0.3-0.2-0.5c0-0.3,0.1-0.5,0.3-0.6c0.2-0.2,0.5-0.2,1-0.2c0.3,0,0.6,0,0.9,0.1v0.5c-0.3-0.1-0.7-0.2-1-0.2
						c-0.2,0-0.4,0-0.5,0.1s-0.2,0.2-0.2,0.3s0.1,0.2,0.2,0.3s0.3,0.1,0.5,0.2l0.3,0.1c0.3,0.1,0.5,0.2,0.7,0.4
						c0.1,0.1,0.2,0.3,0.2,0.5c0,0.3-0.1,0.5-0.3,0.7c-0.2,0.2-0.5,0.3-1,0.3C86.5,235,86.1,234.9,85.7,234.8z"/>
					<path id="XMLID_361_" class="st6" d="M95,234.8c-0.2,0.1-0.4,0.2-0.5,0.2s-0.2,0-0.3,0c-0.2,0-0.4,0-0.6-0.1s-0.3-0.2-0.4-0.4
						s-0.1-0.4-0.1-0.7v-1.2h-0.8v-0.4H93V231h0.5v1.2h1.4v0.4h-1.4v1.2c0,0.2,0,0.4,0.1,0.5s0.1,0.2,0.2,0.2s0.2,0.1,0.3,0.1
						c0.2,0,0.5-0.1,0.8-0.2L95,234.8L95,234.8z"/>
					<path id="XMLID_363_" class="st6" d="M95.8,234.9v-4.4h0.5v2c0.1-0.2,0.3-0.4,0.5-0.6c0.2-0.1,0.4-0.2,0.6-0.2s0.3,0,0.5,0.1
						c0.1,0.1,0.2,0.2,0.3,0.3c0,0.1,0.1,0.2,0.1,0.3s0,0.3,0,0.7v1.7h-0.5V233c0-0.3,0-0.5,0-0.6s-0.1-0.2-0.2-0.2
						c-0.1-0.1-0.2-0.1-0.3-0.1c-0.2,0-0.4,0.1-0.6,0.3s-0.4,0.4-0.5,0.6v1.8L95.8,234.9L95.8,234.9z"/>
					<path id="XMLID_365_" class="st6" d="M101.7,234.7c-0.4,0.2-0.8,0.3-1.2,0.3c-0.3,0-0.5-0.1-0.7-0.2c-0.2-0.1-0.4-0.3-0.5-0.6
						s-0.2-0.5-0.2-0.8s0.1-0.6,0.2-0.8c0.1-0.3,0.3-0.5,0.5-0.6s0.5-0.2,0.7-0.2c0.4,0,0.7,0.1,0.9,0.4c0.2,0.3,0.3,0.7,0.3,1.2
						v0.1h-2.1c0,0.2,0,0.4,0.1,0.6c0.1,0.2,0.2,0.3,0.4,0.4c0.1,0.1,0.3,0.1,0.5,0.1c0.3,0,0.7-0.1,1.1-0.3
						C101.7,234.3,101.7,234.7,101.7,234.7z M99.7,233.1h1.5V233c0-0.3-0.1-0.5-0.2-0.6s-0.3-0.2-0.5-0.2s-0.4,0.1-0.5,0.2
						C99.9,232.6,99.8,232.8,99.7,233.1z"/>
					<path id="XMLID_368_" class="st6" d="M108.5,234.8c-0.2,0.1-0.4,0.2-0.5,0.2s-0.2,0-0.3,0c-0.2,0-0.4,0-0.6-0.1
						s-0.3-0.2-0.4-0.4s-0.1-0.4-0.1-0.7v-1.2h-0.8v-0.4h0.8V231h0.5v1.2h1.4v0.4h-1.4v1.2c0,0.2,0,0.4,0.1,0.5s0.1,0.2,0.2,0.2
						s0.2,0.1,0.3,0.1c0.2,0,0.5-0.1,0.8-0.2V234.8z"/>
					<path id="XMLID_370_" class="st6" d="M111.9,234.7c-0.4,0.2-0.8,0.3-1.2,0.3c-0.3,0-0.5-0.1-0.7-0.2c-0.2-0.1-0.4-0.3-0.5-0.6
						s-0.2-0.5-0.2-0.8s0.1-0.6,0.2-0.8c0.1-0.3,0.3-0.5,0.5-0.6s0.5-0.2,0.7-0.2c0.4,0,0.7,0.1,0.9,0.4c0.2,0.3,0.3,0.7,0.3,1.2
						v0.1h-2.1c0,0.2,0,0.4,0.1,0.6c0.1,0.2,0.2,0.3,0.4,0.4c0.1,0.1,0.3,0.1,0.5,0.1c0.3,0,0.7-0.1,1.1-0.3
						C111.9,234.3,111.9,234.7,111.9,234.7z M109.8,233.1h1.5V233c0-0.3-0.1-0.5-0.2-0.6s-0.3-0.2-0.5-0.2s-0.4,0.1-0.5,0.2
						C110,232.6,109.9,232.8,109.8,233.1z"/>
					<path id="XMLID_373_" class="st6" d="M113,234.9v-3.1h0.5v0.7c0.2-0.3,0.3-0.4,0.5-0.6c0.2-0.1,0.4-0.2,0.7-0.2
						c0.2,0,0.4,0,0.6,0.1v1.1h-0.5v-0.6c-0.1,0-0.2,0-0.2,0c-0.2,0-0.4,0.1-0.6,0.2c-0.2,0.2-0.4,0.4-0.5,0.7v1.8L113,234.9
						L113,234.9z"/>
					<path id="XMLID_375_" class="st6" d="M115.9,234.9v-3.1h0.4v0.7c0.1-0.3,0.3-0.5,0.4-0.6s0.2-0.2,0.4-0.2
						c0.1,0,0.3,0.1,0.4,0.2c0.1,0.1,0.1,0.3,0.1,0.5v0.2c0.1-0.2,0.1-0.3,0.2-0.5c0.1-0.1,0.2-0.2,0.3-0.3c0.1-0.1,0.2-0.1,0.3-0.1
						c0.1,0,0.2,0.1,0.3,0.2c0.1,0.1,0.1,0.3,0.1,0.7v2.3h-0.4v-2.1c0-0.2,0-0.3,0-0.4c0-0.1,0-0.1-0.1-0.1h-0.1
						c-0.1,0-0.2,0.1-0.3,0.2c-0.1,0.1-0.2,0.4-0.3,0.7v1.7h-0.4v-2.1c0-0.3,0-0.4-0.1-0.5c-0.1,0-0.1-0.1-0.1-0.1
						c-0.1,0-0.2,0.1-0.3,0.2c-0.1,0.2-0.2,0.4-0.3,0.6v1.8h-0.5V234.9z"/>
					<path id="XMLID_377_" class="st6" d="M120.3,234.9v-2.6h-0.9v-0.4h1.4v2.6h0.9v0.4H120.3z M120.3,230.7c0-0.1,0-0.2,0.1-0.3
						s0.2-0.1,0.2-0.1c0.1,0,0.1,0,0.2,0.1s0.1,0.1,0.1,0.3c0,0.1,0,0.2-0.1,0.3s-0.2,0.1-0.2,0.1c-0.1,0-0.1,0-0.2-0.1
						C120.3,230.9,120.3,230.9,120.3,230.7z"/>
					<path id="XMLID_380_" class="st6" d="M122.9,234.9v-3.1h0.5v0.7c0.1-0.2,0.3-0.4,0.5-0.6c0.2-0.1,0.4-0.2,0.6-0.2
						s0.3,0,0.5,0.1c0.1,0.1,0.3,0.2,0.3,0.4c0.1,0.2,0.1,0.5,0.1,0.9v1.7h-0.5V233c0-0.3,0-0.5,0-0.6s-0.1-0.2-0.2-0.2
						c-0.1-0.1-0.2-0.1-0.3-0.1c-0.2,0-0.4,0.1-0.6,0.3s-0.4,0.4-0.5,0.6v1.8h-0.4V234.9z"/>
					<path id="XMLID_382_" class="st6" d="M128.3,234.2c-0.2,0.3-0.3,0.4-0.6,0.6c-0.2,0.1-0.4,0.2-0.6,0.2c-0.3,0-0.5-0.1-0.7-0.3
						s-0.3-0.6-0.3-1s0.1-0.7,0.2-1s0.3-0.5,0.5-0.7s0.5-0.2,0.8-0.2c0.1,0,0.2,0,0.4,0h0.1h0.5v2.2c0,0.4,0,0.7,0.1,0.9h-0.5
						C128.3,234.8,128.3,234.5,128.3,234.2z M128.3,233.6v-1.3c-0.2,0-0.4-0.1-0.5-0.1c-0.3,0-0.6,0.1-0.8,0.4
						c-0.2,0.2-0.3,0.6-0.3,1c0,0.3,0.1,0.5,0.2,0.7s0.2,0.2,0.4,0.2c0.2,0,0.3-0.1,0.5-0.2C128,234.1,128.1,233.9,128.3,233.6z"/>
					<path id="XMLID_385_" class="st6" d="M130.5,234.9v-4h-0.9v-0.4h1.4v4h1v0.4H130.5z"/>
					<path id="XMLID_387_" class="st6" d="M67.9,241.6c-0.2,0.1-0.4,0.2-0.5,0.2s-0.2,0-0.3,0c-0.2,0-0.4,0-0.6-0.1
						s-0.3-0.2-0.4-0.4s-0.1-0.4-0.1-0.7v-1.3h-0.8v-0.4H66v-1.2h0.5v1.2h1.4v0.4h-1.4v1.2c0,0.2,0,0.4,0.1,0.5s0.1,0.2,0.2,0.2
						s0.2,0.1,0.3,0.1c0.2,0,0.5-0.1,0.8-0.2V241.6z"/>
					<path id="XMLID_389_" class="st6" d="M68.7,241.7v-4.4h0.5v2c0.1-0.2,0.3-0.4,0.5-0.6c0.2-0.1,0.4-0.2,0.6-0.2s0.3,0,0.5,0.1
						c0.1,0.1,0.2,0.2,0.3,0.3c0,0.1,0.1,0.2,0.1,0.3s0,0.3,0,0.7v1.7h-0.5v-1.8c0-0.3,0-0.5,0-0.6s-0.1-0.2-0.2-0.2
						c-0.1-0.1-0.2-0.1-0.3-0.1c-0.2,0-0.4,0.1-0.6,0.3s-0.4,0.4-0.5,0.6v1.8L68.7,241.7L68.7,241.7z"/>
					<path id="XMLID_391_" class="st6" d="M73,241.7v-2.6h-0.9v-0.4h1.4v2.6h0.9v0.4H73z M72.9,237.5c0-0.1,0-0.2,0.1-0.3
						s0.2-0.1,0.2-0.1c0.1,0,0.1,0,0.2,0.1s0.1,0.1,0.1,0.3c0,0.1,0,0.2-0.1,0.3s-0.2,0.1-0.2,0.1c-0.1,0-0.1,0-0.2-0.1
						S72.9,237.6,72.9,237.5z"/>
					<path id="XMLID_394_" class="st6" d="M75.5,241.7v-3.1H76v0.7c0.1-0.2,0.3-0.4,0.5-0.6c0.2-0.1,0.4-0.2,0.6-0.2s0.3,0,0.5,0.1
						c0.1,0.1,0.3,0.2,0.3,0.4c0.1,0.2,0.1,0.5,0.1,0.9v1.7h-0.5v-1.8c0-0.3,0-0.5,0-0.6s-0.1-0.2-0.2-0.2c-0.1-0.1-0.2-0.1-0.3-0.1
						c-0.2,0-0.4,0.1-0.6,0.3s-0.4,0.4-0.5,0.6v1.8h-0.4V241.7z"/>
					<path id="XMLID_396_" class="st6" d="M80.9,241c-0.2,0.3-0.3,0.5-0.6,0.6c-0.2,0.1-0.4,0.2-0.6,0.2c-0.3,0-0.5-0.1-0.7-0.3
						s-0.3-0.6-0.3-1s0.1-0.7,0.2-1s0.3-0.5,0.5-0.7s0.5-0.2,0.8-0.2c0.1,0,0.2,0,0.4,0h0.1h0.5v2.2c0,0.5,0,0.8,0,0.9
						c0,0.1,0,0.2-0.1,0.3c-0.1,0.3-0.2,0.5-0.5,0.6c-0.3,0.2-0.6,0.2-0.9,0.2c-0.4,0-0.8-0.1-1.1-0.3V242c0.1,0.1,0.3,0.2,0.5,0.3
						s0.4,0.1,0.6,0.1s0.3,0,0.4-0.1s0.3-0.1,0.3-0.2c0.1-0.1,0.1-0.2,0.2-0.3c0-0.1,0-0.3,0-0.5V241H80.9z M80.9,240.4v-1.3
						c-0.2,0-0.4-0.1-0.5-0.1c-0.3,0-0.6,0.1-0.8,0.4c-0.2,0.2-0.3,0.6-0.3,1c0,0.3,0.1,0.5,0.2,0.7s0.2,0.2,0.4,0.2
						c0.2,0,0.3-0.1,0.5-0.2C80.6,240.9,80.8,240.7,80.9,240.4z"/>
					<path id="XMLID_399_" class="st6" d="M82.3,241.5V241c0.2,0.1,0.4,0.2,0.7,0.3c0.2,0.1,0.4,0.1,0.6,0.1c0.3,0,0.4,0,0.6-0.1
						c0.1-0.1,0.2-0.2,0.2-0.3s0-0.2-0.1-0.2c-0.1-0.1-0.2-0.1-0.4-0.2l-0.2-0.1l-0.4-0.1c-0.4-0.1-0.6-0.3-0.7-0.4
						c-0.1-0.1-0.2-0.3-0.2-0.5c0-0.3,0.1-0.5,0.3-0.6c0.2-0.2,0.5-0.2,1-0.2c0.3,0,0.6,0,0.9,0.1v0.5c-0.3-0.1-0.7-0.2-1-0.2
						c-0.2,0-0.4,0-0.5,0.1s-0.2,0.2-0.2,0.3s0.1,0.2,0.2,0.3s0.3,0.1,0.5,0.2l0.3,0.1c0.3,0.1,0.5,0.2,0.7,0.4
						c0.1,0.1,0.2,0.3,0.2,0.5c0,0.3-0.1,0.5-0.3,0.7c-0.2,0.2-0.5,0.3-1,0.3C83.1,241.8,82.7,241.7,82.3,241.5z"/>
					<path id="XMLID_401_" class="st6" d="M89.1,241.5V241c0.2,0.1,0.4,0.2,0.7,0.3c0.2,0.1,0.4,0.1,0.6,0.1c0.3,0,0.4,0,0.6-0.1
						c0.1-0.1,0.2-0.2,0.2-0.3s0-0.2-0.1-0.2c-0.1-0.1-0.2-0.1-0.4-0.2l-0.2-0.1l-0.5-0.2c-0.4-0.1-0.6-0.3-0.7-0.4
						c-0.1-0.1-0.2-0.3-0.2-0.5c0-0.3,0.1-0.5,0.3-0.6c0.2-0.2,0.5-0.2,1-0.2c0.3,0,0.6,0,0.9,0.1v0.5c-0.3-0.1-0.7-0.2-1-0.2
						c-0.2,0-0.4,0-0.5,0.1s-0.2,0.2-0.2,0.3s0.1,0.2,0.2,0.3s0.3,0.1,0.5,0.2l0.3,0.1c0.3,0.1,0.5,0.2,0.7,0.4
						c0.1,0.1,0.2,0.3,0.2,0.5c0,0.3-0.1,0.5-0.3,0.7c-0.2,0.2-0.5,0.3-1,0.3C89.9,241.8,89.5,241.7,89.1,241.5z"/>
					<path id="XMLID_403_" class="st6" d="M92.4,241.7v-4.4h0.5v2c0.1-0.2,0.3-0.4,0.5-0.6c0.2-0.1,0.4-0.2,0.6-0.2s0.3,0,0.5,0.1
						c0.1,0.1,0.2,0.2,0.3,0.3c0,0.1,0.1,0.2,0.1,0.3s0,0.3,0,0.7v1.7h-0.5v-1.8c0-0.3,0-0.5,0-0.6s-0.1-0.2-0.2-0.2
						c-0.1-0.1-0.2-0.1-0.2-0.1c-0.2,0-0.4,0.1-0.6,0.3s-0.4,0.4-0.5,0.6v1.8L92.4,241.7L92.4,241.7z"/>
					<path id="XMLID_405_" class="st6" d="M97.1,241.8c-0.4,0-0.8-0.2-1.1-0.5c-0.3-0.3-0.4-0.7-0.4-1.2s0.1-0.9,0.4-1.2
						s0.6-0.5,1.1-0.5c0.4,0,0.8,0.2,1.1,0.5c0.3,0.3,0.4,0.7,0.4,1.2s-0.1,0.9-0.4,1.2C97.8,241.6,97.5,241.8,97.1,241.8z
						 M97.1,241.4c0.3,0,0.5-0.1,0.7-0.3s0.2-0.5,0.2-0.9s-0.1-0.7-0.2-0.9c-0.2-0.2-0.4-0.3-0.7-0.3c-0.3,0-0.5,0.1-0.7,0.3
						s-0.2,0.5-0.2,0.9s0.1,0.7,0.2,0.9C96.6,241.2,96.8,241.4,97.1,241.4z"/>
					<path id="XMLID_408_" class="st6" d="M99.3,241.7l-0.5-3.1h0.5l0.3,1.9l0.1,0.4l0.1-0.4l0.5-1.9h0.5l0.6,1.9l0.1,0.4l0.1-0.4
						l0.3-1.9h0.4l-0.5,3.1h-0.5l-0.6-2l-0.1-0.4l0,0l-0.1,0.4l-0.5,2H99.3z"/>
					<path id="XMLID_410_" class="st6" d="M108.5,238.6v3.1H108V241c-0.2,0.3-0.3,0.4-0.6,0.6c-0.2,0.1-0.4,0.2-0.6,0.2
						s-0.3,0-0.5-0.1c-0.1-0.1-0.3-0.2-0.3-0.4c-0.1-0.2-0.1-0.5-0.1-0.9v-1.7h0.5v1.8c0,0.3,0,0.5,0,0.6s0.1,0.2,0.2,0.2
						c0.1,0.1,0.2,0.1,0.2,0.1c0.2,0,0.4-0.1,0.6-0.3s0.4-0.4,0.5-0.6v-1.8h0.6V238.6z"/>
					<path id="XMLID_412_" class="st6" d="M109.8,239.3c0.2-0.3,0.3-0.5,0.6-0.6c0.2-0.1,0.4-0.2,0.6-0.2c0.3,0,0.5,0.1,0.7,0.3
						s0.3,0.6,0.3,1s-0.1,0.7-0.2,1s-0.3,0.5-0.5,0.7s-0.5,0.2-0.8,0.2c-0.1,0-0.2,0-0.4,0H110v1.2h-0.5v-4.3h0.5v0.7H109.8z
						 M109.8,239.9v1.3c0.2,0,0.4,0.1,0.5,0.1c0.3,0,0.6-0.1,0.8-0.4c0.2-0.2,0.3-0.6,0.3-1c0-0.3-0.1-0.5-0.2-0.7s-0.2-0.2-0.4-0.2
						c-0.2,0-0.3,0.1-0.5,0.2C110.1,239.4,110,239.6,109.8,239.9z"/>
					<path id="XMLID_415_" class="st6" d="M116.1,241.7v-4.4h0.5v2c0.1-0.2,0.3-0.4,0.5-0.6c0.2-0.1,0.4-0.2,0.6-0.2s0.3,0,0.5,0.1
						c0.1,0.1,0.2,0.2,0.3,0.3c0,0.1,0.1,0.2,0.1,0.3s0,0.3,0,0.7v1.7h-0.5v-1.8c0-0.3,0-0.5,0-0.6s-0.1-0.2-0.2-0.2
						c-0.1-0.1-0.2-0.1-0.3-0.1c-0.2,0-0.4,0.1-0.6,0.3s-0.4,0.4-0.5,0.6v1.8L116.1,241.7L116.1,241.7z"/>
					<path id="XMLID_417_" class="st6" d="M122,241.5c-0.4,0.2-0.8,0.3-1.2,0.3c-0.3,0-0.5-0.1-0.7-0.2c-0.2-0.1-0.4-0.3-0.5-0.6
						s-0.2-0.5-0.2-0.8s0.1-0.6,0.2-0.8c0.1-0.3,0.3-0.5,0.5-0.6s0.5-0.2,0.7-0.2c0.4,0,0.7,0.1,0.9,0.4c0.2,0.3,0.3,0.7,0.3,1.2
						v0.1h-2c0,0.2,0,0.4,0.1,0.6c0.1,0.2,0.2,0.3,0.4,0.4c0.1,0.1,0.3,0.1,0.5,0.1c0.3,0,0.7-0.1,1.1-0.3L122,241.5L122,241.5z
						 M120,239.9h1.5v-0.1c0-0.3-0.1-0.5-0.2-0.6s-0.3-0.2-0.5-0.2s-0.4,0.1-0.5,0.2C120.2,239.3,120.1,239.6,120,239.9z"/>
					<path id="XMLID_420_" class="st6" d="M123.1,241.7v-3.1h0.5v0.7c0.2-0.3,0.3-0.4,0.5-0.6c0.2-0.1,0.4-0.2,0.7-0.2
						c0.2,0,0.4,0,0.6,0.1v1.1h-0.5V239c-0.1,0-0.2,0-0.2,0c-0.2,0-0.4,0.1-0.6,0.2c-0.2,0.2-0.4,0.4-0.5,0.7v1.8H123.1z"/>
					<path id="XMLID_422_" class="st6" d="M128.8,241.5c-0.4,0.2-0.8,0.3-1.2,0.3c-0.3,0-0.5-0.1-0.7-0.2c-0.2-0.1-0.4-0.3-0.5-0.6
						s-0.2-0.5-0.2-0.8s0.1-0.6,0.2-0.8c0.1-0.3,0.3-0.5,0.5-0.6s0.5-0.2,0.7-0.2c0.4,0,0.7,0.1,0.9,0.4c0.2,0.3,0.3,0.7,0.3,1.2
						v0.1h-2.1c0,0.2,0,0.4,0.1,0.6c0.1,0.2,0.2,0.3,0.4,0.4c0.1,0.1,0.3,0.1,0.5,0.1c0.3,0,0.7-0.1,1.1-0.3V241.5z M126.8,239.9
						h1.5v-0.1c0-0.3-0.1-0.5-0.2-0.6c-0.1-0.1-0.3-0.2-0.5-0.2s-0.4,0.1-0.5,0.2C126.9,239.3,126.8,239.6,126.8,239.9z"/>
					<path id="XMLID_425_" class="st6" d="M67.4,247.8c-0.2,0.3-0.3,0.4-0.6,0.6s-0.4,0.2-0.6,0.2c-0.3,0-0.5-0.1-0.7-0.3
						s-0.3-0.6-0.3-1s0.1-0.7,0.2-1s0.3-0.5,0.5-0.7s0.5-0.2,0.8-0.2c0.1,0,0.2,0,0.4,0h0.1h0.5v2.2c0,0.4,0,0.7,0.1,0.9h-0.5
						C67.4,248.3,67.4,248.1,67.4,247.8z M67.4,247.2v-1.3c-0.2,0-0.4-0.1-0.5-0.1c-0.3,0-0.6,0.1-0.8,0.4s-0.3,0.6-0.3,1
						c0,0.3,0.1,0.5,0.2,0.7s0.2,0.2,0.4,0.2c0.2,0,0.3-0.1,0.5-0.2C67,247.7,67.2,247.4,67.4,247.2z"/>
					<path id="XMLID_428_" class="st6" d="M68.7,248.5v-3.1h0.5v0.7c0.1-0.2,0.3-0.4,0.5-0.6c0.2-0.1,0.4-0.2,0.6-0.2s0.3,0,0.5,0.1
						c0.1,0.1,0.3,0.2,0.3,0.4c0.1,0.2,0.1,0.5,0.1,0.9v1.7h-0.5v-1.8c0-0.3,0-0.5,0-0.6s-0.1-0.2-0.2-0.2c-0.1-0.1-0.2-0.1-0.3-0.1
						c-0.2,0-0.4,0.1-0.6,0.3s-0.4,0.4-0.5,0.6v1.8h-0.4V248.5z"/>
					<path id="XMLID_430_" class="st6" d="M74.2,247.8c-0.2,0.3-0.3,0.5-0.6,0.6c-0.2,0.1-0.4,0.2-0.6,0.2c-0.3,0-0.5-0.1-0.7-0.3
						s-0.3-0.6-0.3-1s0.1-0.7,0.2-1s0.3-0.5,0.5-0.7s0.5-0.2,0.8-0.2c0.1,0,0.2,0,0.4,0H74V244h0.5v4.4H74v-0.6H74.2z M74.2,247.2
						v-1.3c-0.2,0-0.4-0.1-0.5-0.1c-0.3,0-0.6,0.1-0.8,0.4s-0.3,0.6-0.3,1c0,0.3,0.1,0.5,0.2,0.7s0.2,0.2,0.4,0.2
						c0.2,0,0.3-0.1,0.5-0.2C73.8,247.7,74,247.4,74.2,247.2z"/>
					<path id="XMLID_433_" class="st6" d="M84.3,247.8c-0.2,0.3-0.3,0.4-0.6,0.6c-0.2,0.1-0.4,0.2-0.6,0.2c-0.3,0-0.5-0.1-0.7-0.3
						s-0.3-0.6-0.3-1s0.1-0.7,0.2-1s0.3-0.5,0.5-0.7s0.5-0.2,0.8-0.2c0.1,0,0.2,0,0.4,0h0.1h0.5v2.2c0,0.4,0,0.7,0.1,0.9h-0.5
						C84.3,248.3,84.3,248.1,84.3,247.8z M84.3,247.2v-1.3c-0.2,0-0.4-0.1-0.5-0.1c-0.3,0-0.6,0.1-0.8,0.4c-0.2,0.2-0.3,0.6-0.3,1
						c0,0.3,0.1,0.5,0.2,0.7s0.2,0.2,0.4,0.2c0.2,0,0.3-0.1,0.5-0.2C84,247.7,84.1,247.4,84.3,247.2z"/>
					<path id="XMLID_436_" class="st6" d="M89.1,248.3v-0.5c0.2,0.1,0.4,0.2,0.7,0.3c0.2,0.1,0.4,0.1,0.6,0.1c0.3,0,0.4,0,0.6-0.1
						c0.1-0.1,0.2-0.2,0.2-0.3s0-0.2-0.1-0.2c-0.1-0.1-0.2-0.1-0.4-0.2l-0.2-0.1l-0.4-0.1c-0.4-0.1-0.6-0.3-0.7-0.4
						c-0.1-0.1-0.2-0.3-0.2-0.5c0-0.3,0.1-0.5,0.3-0.6c0.2-0.2,0.5-0.2,1-0.2c0.3,0,0.6,0,0.9,0.1v0.5c-0.3-0.1-0.7-0.2-1-0.2
						c-0.2,0-0.4,0-0.5,0.1s-0.2,0.2-0.2,0.3s0.1,0.2,0.2,0.3s0.3,0.1,0.5,0.2l0.3,0.1c0.3,0.1,0.5,0.2,0.7,0.4
						c0.1,0.1,0.2,0.3,0.2,0.5c0,0.3-0.1,0.5-0.3,0.7c-0.2,0.2-0.5,0.3-1,0.3C89.9,248.5,89.5,248.5,89.1,248.3z"/>
					<path id="XMLID_438_" class="st6" d="M95,248.4c-0.3,0.1-0.7,0.2-1,0.2s-0.6-0.1-0.8-0.2c-0.2-0.1-0.4-0.3-0.6-0.6
						c-0.1-0.2-0.2-0.5-0.2-0.8c0-0.5,0.2-0.9,0.5-1.2s0.7-0.5,1.1-0.5c0.3,0,0.7,0.1,1,0.2v0.5c-0.4-0.2-0.7-0.2-1-0.2
						c-0.2,0-0.4,0-0.5,0.1c-0.2,0.1-0.3,0.2-0.4,0.4s-0.1,0.4-0.1,0.6c0,0.3,0.1,0.5,0.3,0.8c0.2,0.3,0.4,0.4,0.8,0.4
						c0.1,0,0.2,0,0.3,0c0.1,0,0.3-0.1,0.6-0.2C95,247.9,95,248.4,95,248.4z"/>
					<path id="XMLID_440_" class="st6" d="M96.1,248.5v-3.1h0.5v0.7c0.2-0.3,0.3-0.4,0.5-0.6c0.2-0.1,0.4-0.2,0.7-0.2
						c0.2,0,0.4,0,0.6,0.1v1.1h-0.5v-0.7c-0.1,0-0.2,0-0.2,0c-0.2,0-0.4,0.1-0.6,0.2c-0.2,0.2-0.4,0.4-0.5,0.7v1.8H96.1z"/>
					<path id="XMLID_442_" class="st6" d="M100,248.5v-2.6h-0.9v-0.4h1.4v2.6h0.9v0.4H100z M100,244.3c0-0.1,0-0.2,0.1-0.3
						s0.2-0.1,0.2-0.1c0.1,0,0.1,0,0.2,0.1s0.1,0.1,0.1,0.3c0,0.1,0,0.2-0.1,0.3s-0.2,0.1-0.2,0.1c-0.1,0-0.1,0-0.2-0.1
						S100,244.4,100,244.3z"/>
					<path id="XMLID_445_" class="st6" d="M103,246.1c0.2-0.3,0.3-0.5,0.6-0.6c0.2-0.1,0.4-0.2,0.6-0.2c0.3,0,0.5,0.1,0.7,0.3
						s0.3,0.6,0.3,1s-0.1,0.7-0.2,1s-0.3,0.5-0.5,0.7s-0.5,0.2-0.8,0.2c-0.1,0-0.2,0-0.4,0h-0.1v1.2h-0.5v-4.3h0.5v0.7H103z
						 M103,246.7v1.3c0.2,0,0.4,0.1,0.5,0.1c0.3,0,0.6-0.1,0.8-0.4c0.2-0.2,0.3-0.6,0.3-1c0-0.3-0.1-0.5-0.2-0.7s-0.2-0.2-0.4-0.2
						c-0.2,0-0.3,0.1-0.5,0.2C103.4,246.2,103.2,246.4,103,246.7z"/>
					<path id="XMLID_448_" class="st6" d="M108.5,248.3c-0.2,0.1-0.4,0.2-0.5,0.2s-0.2,0-0.3,0c-0.2,0-0.4,0-0.6-0.1
						s-0.3-0.2-0.4-0.4s-0.1-0.4-0.1-0.7v-1.2h-0.8v-0.4h0.8v-1.2h0.5v1.2h1.4v0.4h-1.4v1.2c0,0.2,0,0.4,0.1,0.5s0.1,0.2,0.2,0.2
						s0.2,0.1,0.3,0.1c0.2,0,0.5-0.1,0.8-0.2V248.3z"/>
					<path id="XMLID_450_" class="st6" d="M115.3,248.3c-0.2,0.1-0.4,0.2-0.5,0.2s-0.2,0-0.3,0c-0.2,0-0.4,0-0.6-0.1
						s-0.3-0.2-0.4-0.4s-0.1-0.4-0.1-0.7v-1.2h-0.8v-0.4h0.8v-1.2h0.5v1.2h1.4v0.4h-1.4v1.2c0,0.2,0,0.4,0.1,0.5s0.1,0.2,0.2,0.2
						s0.2,0.1,0.3,0.1c0.2,0,0.5-0.1,0.8-0.2V248.3z"/>
					<path id="XMLID_452_" class="st6" d="M118.7,248.3c-0.4,0.2-0.8,0.3-1.2,0.3c-0.3,0-0.5-0.1-0.7-0.2c-0.2-0.1-0.4-0.3-0.5-0.6
						s-0.2-0.5-0.2-0.8s0.1-0.6,0.2-0.8c0.1-0.3,0.3-0.5,0.5-0.6s0.5-0.2,0.7-0.2c0.4,0,0.7,0.1,0.9,0.4c0.2,0.3,0.3,0.7,0.3,1.2
						v0.1h-2.1c0,0.2,0,0.4,0.1,0.6c0.1,0.2,0.2,0.3,0.4,0.4c0.1,0.1,0.3,0.1,0.5,0.1c0.3,0,0.7-0.1,1.1-0.3
						C118.7,247.9,118.7,248.3,118.7,248.3z M116.6,246.6h1.5v-0.1c0-0.3-0.1-0.5-0.2-0.6s-0.3-0.2-0.5-0.2s-0.4,0.1-0.5,0.2
						C116.8,246.1,116.7,246.3,116.6,246.6z"/>
					<path id="XMLID_455_" class="st6" d="M120.3,248.5v-4h-0.9v-0.4h1.4v4h1v0.4H120.3z"/>
					<path id="XMLID_457_" class="st6" d="M123.7,248.5v-4h-0.9v-0.4h1.4v4h1v0.4H123.7z"/>
					<path id="XMLID_459_" class="st6" d="M126.3,248.3v-0.5c0.2,0.1,0.4,0.2,0.7,0.3c0.2,0.1,0.4,0.1,0.6,0.1c0.3,0,0.4,0,0.6-0.1
						c0.1-0.1,0.2-0.2,0.2-0.3s0-0.2-0.1-0.2c-0.1-0.1-0.2-0.1-0.4-0.2l-0.2-0.1l-0.4-0.1c-0.4-0.1-0.6-0.3-0.7-0.4
						c-0.1-0.1-0.2-0.3-0.2-0.5c0-0.3,0.1-0.5,0.3-0.6c0.2-0.2,0.5-0.2,1-0.2c0.3,0,0.6,0,0.9,0.1v0.5c-0.3-0.1-0.7-0.2-1-0.2
						c-0.2,0-0.4,0-0.5,0.1s-0.2,0.2-0.2,0.3s0.1,0.2,0.2,0.3s0.3,0.1,0.5,0.2l0.3,0.1c0.3,0.1,0.5,0.2,0.7,0.4
						c0.1,0.1,0.2,0.3,0.2,0.5c0,0.3-0.1,0.5-0.3,0.7s-0.5,0.3-1,0.3C127.1,248.5,126.7,248.5,126.3,248.3z"/>
					<path id="XMLID_461_" class="st6" d="M65.5,255.2l-0.5-3.1h0.5l0.3,1.9l0.1,0.4L66,254l0.5-1.9H67l0.6,1.9l0.1,0.4l0.1-0.4
						l0.3-1.9h0.4l-0.5,3.1h-0.5l-0.6-2l-0.1-0.4l0,0l-0.1,0.4l-0.5,2H65.5z"/>
					<path id="XMLID_463_" class="st6" d="M68.7,255.2v-4.4h0.5v2c0.1-0.2,0.3-0.4,0.5-0.6c0.2-0.1,0.4-0.2,0.6-0.2s0.3,0,0.5,0.1
						c0.1,0.1,0.2,0.2,0.3,0.3c0,0.1,0.1,0.2,0.1,0.3s0,0.3,0,0.7v1.7h-0.5v-1.8c0-0.3,0-0.5,0-0.6s-0.1-0.2-0.2-0.2
						c-0.1-0.1-0.2-0.1-0.3-0.1c-0.2,0-0.4,0.1-0.6,0.3s-0.4,0.4-0.5,0.6v1.8L68.7,255.2L68.7,255.2z"/>
					<path id="XMLID_465_" class="st6" d="M74.1,254.5c-0.2,0.3-0.3,0.4-0.6,0.6c-0.2,0.1-0.4,0.2-0.6,0.2c-0.3,0-0.5-0.1-0.7-0.3
						s-0.3-0.6-0.3-1s0.1-0.7,0.2-1s0.3-0.5,0.5-0.7s0.5-0.2,0.8-0.2c0.1,0,0.2,0,0.4,0h0.1h0.5v2.2c0,0.4,0,0.7,0.1,0.9H74
						C74.2,255.1,74.1,254.8,74.1,254.5z M74.1,253.9v-1.3c-0.2,0-0.4-0.1-0.5-0.1c-0.3,0-0.6,0.1-0.8,0.4c-0.2,0.2-0.3,0.6-0.3,1
						c0,0.3,0.1,0.5,0.2,0.7s0.2,0.2,0.4,0.2c0.2,0,0.3-0.1,0.5-0.2C73.8,254.4,74,254.2,74.1,253.9z"/>
					<path id="XMLID_468_" class="st6" d="M78.1,255.1c-0.2,0.1-0.4,0.2-0.5,0.2s-0.2,0-0.3,0c-0.2,0-0.4,0-0.6-0.1
						s-0.3-0.2-0.4-0.4s-0.1-0.4-0.1-0.7v-1.2h-0.8v-0.4h0.8v-1.2h0.5v1.2H78v0.4h-1.4v1.2c0,0.2,0,0.4,0.1,0.5s0.1,0.2,0.2,0.2
						s0.2,0.1,0.3,0.1c0.2,0,0.5-0.1,0.8-0.2L78.1,255.1L78.1,255.1z"/>
					<path id="XMLID_470_" class="st6" d="M83.1,255.2v-2.6h-0.9v-0.4h1.4v2.6h0.9v0.4H83.1z M83,251c0-0.1,0-0.2,0.1-0.3
						s0.2-0.1,0.2-0.1c0.1,0,0.1,0,0.2,0.1s0.1,0.1,0.1,0.3c0,0.1,0,0.2-0.1,0.3s-0.2,0.1-0.2,0.1c-0.1,0-0.1,0-0.2-0.1
						C83.1,251.2,83,251.2,83,251z"/>
					<path id="XMLID_473_" class="st6" d="M88.2,255.1c-0.2,0.1-0.4,0.2-0.5,0.2s-0.2,0-0.3,0c-0.2,0-0.4,0-0.6-0.1
						s-0.3-0.2-0.4-0.4s-0.1-0.4-0.1-0.7v-1.2h-0.8v-0.4h0.8v-1.2h0.5v1.2h1.4v0.4h-1.4v1.2c0,0.2,0,0.4,0.1,0.5s0.1,0.2,0.2,0.2
						s0.2,0.1,0.3,0.1c0.2,0,0.5-0.1,0.8-0.2V255.1z"/>
					<path id="XMLID_475_" class="st6" d="M93.3,255.2v-2.6h-0.9v-0.4h1.4v2.6h0.9v0.4H93.3z M93.2,251c0-0.1,0-0.2,0.1-0.3
						s0.2-0.1,0.2-0.1c0.1,0,0.1,0,0.2,0.1s0.1,0.1,0.1,0.3c0,0.1,0,0.2-0.1,0.3s-0.2,0.1-0.2,0.1c-0.1,0-0.1,0-0.2-0.1
						S93.2,251.2,93.2,251z"/>
					<path id="XMLID_478_" class="st6" d="M95.8,255.1v-0.5c0.2,0.1,0.4,0.2,0.7,0.3c0.2,0.1,0.4,0.1,0.6,0.1c0.3,0,0.4,0,0.6-0.1
						c0.1-0.1,0.2-0.2,0.2-0.3s0-0.2-0.1-0.2c-0.1-0.1-0.2-0.1-0.4-0.2l-0.2-0.1l-0.4-0.1c-0.4-0.1-0.6-0.3-0.7-0.4
						c-0.1-0.1-0.2-0.3-0.2-0.5c0-0.3,0.1-0.5,0.3-0.6c0.2-0.2,0.5-0.2,1-0.2c0.3,0,0.6,0,0.9,0.1v0.5c-0.3-0.1-0.7-0.2-1-0.2
						c-0.2,0-0.4,0-0.5,0.1s-0.2,0.2-0.2,0.3s0.1,0.2,0.2,0.3s0.3,0.1,0.5,0.2l0.3,0.1c0.3,0.1,0.5,0.2,0.7,0.4
						c0.1,0.1,0.2,0.3,0.2,0.5c0,0.3-0.1,0.5-0.3,0.7c-0.2,0.2-0.5,0.3-1,0.3C96.6,255.3,96.2,255.2,95.8,255.1z"/>
					<path id="XMLID_480_" class="st6" d="M104.6,254.5c-0.2,0.3-0.3,0.5-0.6,0.6c-0.2,0.1-0.4,0.2-0.6,0.2c-0.3,0-0.5-0.1-0.7-0.3
						s-0.3-0.6-0.3-1s0.1-0.7,0.2-1s0.3-0.5,0.5-0.7s0.5-0.2,0.8-0.2c0.1,0,0.2,0,0.4,0h0.1v-1.4h0.5v4.4h-0.5v-0.6H104.6z
						 M104.6,253.9v-1.3c-0.2,0-0.4-0.1-0.5-0.1c-0.3,0-0.6,0.1-0.8,0.4c-0.2,0.2-0.3,0.6-0.3,1c0,0.3,0.1,0.5,0.2,0.7
						s0.2,0.2,0.4,0.2c0.2,0,0.3-0.1,0.5-0.2C104.3,254.4,104.5,254.2,104.6,253.9z"/>
					<path id="XMLID_483_" class="st6" d="M107.2,255.3c-0.4,0-0.8-0.2-1.1-0.5c-0.3-0.3-0.4-0.7-0.4-1.2s0.1-0.9,0.4-1.2
						s0.6-0.5,1.1-0.5c0.4,0,0.8,0.2,1.1,0.5c0.3,0.3,0.4,0.7,0.4,1.2s-0.1,0.9-0.4,1.2C108,255.2,107.7,255.3,107.2,255.3z
						 M107.2,254.9c0.3,0,0.5-0.1,0.7-0.3s0.2-0.5,0.2-0.9s-0.1-0.7-0.2-0.9c-0.2-0.2-0.4-0.3-0.7-0.3c-0.3,0-0.5,0.1-0.7,0.3
						s-0.2,0.5-0.2,0.9s0.1,0.7,0.2,0.9C106.7,254.8,106.9,254.9,107.2,254.9z"/>
					<path id="XMLID_486_" class="st6" d="M110.2,255.2v-2.6h-0.9v-0.4h1.4v2.6h0.9v0.4H110.2z M110.1,251c0-0.1,0-0.2,0.1-0.3
						s0.2-0.1,0.2-0.1s0.1,0,0.2,0.1s0.1,0.1,0.1,0.3c0,0.1,0,0.2-0.1,0.3s-0.2,0.1-0.2,0.1s-0.1,0-0.2-0.1
						C110.2,251.2,110.1,251.2,110.1,251z"/>
					<path id="XMLID_489_" class="st6" d="M112.7,255.2v-3.1h0.5v0.7c0.1-0.2,0.3-0.4,0.5-0.6c0.2-0.1,0.4-0.2,0.6-0.2
						s0.3,0,0.5,0.1c0.1,0.1,0.3,0.2,0.3,0.4c0.1,0.2,0.1,0.5,0.1,0.9v1.7h-0.5v-1.8c0-0.3,0-0.5,0-0.6s-0.1-0.2-0.2-0.2
						s-0.2-0.1-0.2-0.1c-0.2,0-0.4,0.1-0.6,0.3s-0.4,0.4-0.5,0.6v1.8h-0.5V255.2z"/>
					<path id="XMLID_491_" class="st6" d="M118.2,254.5c-0.2,0.3-0.3,0.5-0.6,0.6c-0.2,0.1-0.4,0.2-0.6,0.2c-0.3,0-0.5-0.1-0.7-0.3
						s-0.3-0.6-0.3-1s0.1-0.7,0.2-1s0.3-0.5,0.5-0.7s0.5-0.2,0.8-0.2c0.1,0,0.2,0,0.4,0h0.1h0.5v2.2c0,0.5,0,0.8,0,0.9
						c0,0.1,0,0.2-0.1,0.3c-0.1,0.3-0.2,0.5-0.5,0.6c-0.3,0.2-0.6,0.2-0.9,0.2c-0.4,0-0.8-0.1-1.1-0.3v-0.5c0.1,0.1,0.3,0.2,0.5,0.3
						s0.4,0.1,0.6,0.1s0.3,0,0.4-0.1s0.3-0.1,0.3-0.2c0.1-0.1,0.1-0.2,0.2-0.3c0-0.1,0-0.3,0-0.5v-0.3H118.2z M118.2,253.9v-1.3
						c-0.2,0-0.4-0.1-0.5-0.1c-0.3,0-0.6,0.1-0.8,0.4c-0.2,0.2-0.3,0.6-0.3,1c0,0.3,0.1,0.5,0.2,0.7s0.2,0.2,0.4,0.2
						c0.2,0,0.3-0.1,0.5-0.2C117.8,254.4,118,254.2,118.2,253.9z"/>
				</g>
				<g id="XMLID_95_">
					<path id="XMLID_317_" d="M78.9,253.8h-4.6v-18.3H72v-3.3h0.3c1.3-0.1,1.9-0.6,2.7-1.7l0.4-0.5h3.5V253.8z"/>
				</g>
			</g>
			<g id="XMLID_252_">
				<g id="XMLID_85_">
					<path id="XMLID_313_" class="st6" d="M493.8,311.2H378.9c-2.5,0-4.5-2-4.5-4.5V246c0-2.5,2-4.5,4.5-4.5h114.9
						c2.5,0,4.5,2,4.5,4.5v60.7C498.3,309.1,496.3,311.2,493.8,311.2z"/>
					<path id="XMLID_314_" class="st5" d="M493.2,312.6H379.5c-3.6,0-6.5-2.9-6.5-6.5v-59.5c0-3.6,2.9-6.5,6.5-6.5h113.7
						c3.6,0,6.5,2.9,6.5,6.5v59.5C499.7,309.7,496.8,312.6,493.2,312.6z M379.5,242.9c-2,0-3.7,1.6-3.7,3.7v59.5
						c0,2,1.6,3.7,3.7,3.7h113.7c2,0,3.7-1.6,3.7-3.7v-59.5c0-2-1.6-3.7-3.7-3.7L379.5,242.9L379.5,242.9z"/>
				</g>
				<g id="XMLID_79_">
					<g id="XMLID_33_">
						<g>
							<defs>
								<path id="SVGID_1_" d="M395.4,265.1H380c-2.5,0-4.5-2-4.5-4.5v-13.2c0-2.5,2-4.5,4.5-4.5h15.4c2.5,0,4.5,2,4.5,4.5v13.2
									C399.9,263.1,397.9,265.1,395.4,265.1z"/>
							</defs>
							<clipPath id="SVGID_2_">
								<use xlink:href="#SVGID_1_"  style="overflow:visible;"/>
							</clipPath>
							<g id="XMLID_70_" class="st7">
								<g id="XMLID_77_" class="st4">
									<g id="XMLID_78_">
										<path id="XMLID_863_" class="st3" d="M399.2,294.8c1-22.6-6.9-35.8-6.9-35.8c1.4-1.3,2.2-2.5,2.2-4.5
											c0-3.8-3.1-6.3-6.9-6.3h0.2c-3.8,0-6.9,2.5-6.9,6.3c0,2,0.8,3.5,2.2,4.8c0,0-8,13.1-6.9,35.6"/>
									</g>
								</g>
								<g id="XMLID_75_">
									<g id="XMLID_76_">
										<path id="XMLID_860_" class="st6" d="M387.8,258.3c-1.6,0-3-1-3-3h0.4c0,2,1.1,2.5,2.5,2.5s2.5-0.5,2.5-2.5h0.4
											C390.8,257.3,389.5,258.3,387.8,258.3z"/>
									</g>
								</g>
								<g id="XMLID_73_">
									<g id="XMLID_74_">
										<polygon id="XMLID_857_" class="st6" points="385.9,252.9 385.1,252 384.2,252.9 383.9,252.6 385.1,251.4 386.3,252.6 
																					"/>
									</g>
								</g>
								<g id="XMLID_71_">
									<g id="XMLID_72_">
										<polygon id="XMLID_854_" class="st6" points="389.7,252.9 389.4,252.6 390.6,251.4 391.8,252.6 391.5,252.9 390.6,252 
																					"/>
									</g>
								</g>
							</g>
						</g>
					</g>
					<g id="XMLID_80_">
						<g>
							<defs>
								<path id="SVGID_3_" d="M419.9,265.1h-15.4c-2.5,0-4.5-2-4.5-4.5v-13.2c0-2.5,2-4.5,4.5-4.5h15.4c2.5,0,4.5,2,4.5,4.5v13.2
									C424.4,263.1,422.3,265.1,419.9,265.1z"/>
							</defs>
							<clipPath id="SVGID_4_">
								<use xlink:href="#SVGID_3_"  style="overflow:visible;"/>
							</clipPath>
							<g id="XMLID_82_" class="st8">
								<g id="XMLID_107_" class="st4">
									<g id="XMLID_108_">
										<path id="XMLID_847_" class="st3" d="M423.6,294.8c1-22.6-6.9-35.8-6.9-35.8c1.4-1.3,2.2-2.5,2.2-4.5
											c0-3.8-3.1-6.3-6.9-6.3h0.2c-3.8,0-6.9,2.5-6.9,6.3c0,2,0.8,3.5,2.2,4.8c0,0-8,13.1-6.9,35.6"/>
									</g>
								</g>
								<g id="XMLID_105_">
									<g id="XMLID_106_">
										<path id="XMLID_844_" class="st6" d="M412.3,258.3c-1.6,0-3-1-3-3h0.4c0,2,1.1,2.5,2.5,2.5s2.5-0.5,2.5-2.5h0.4
											C415.2,257.3,413.9,258.3,412.3,258.3z"/>
									</g>
								</g>
								<g id="XMLID_102_">
									<g id="XMLID_104_">
										<polygon id="XMLID_841_" class="st6" points="410.4,252.9 409.5,252 408.6,252.9 408.3,252.6 409.5,251.4 410.7,252.6 
																					"/>
									</g>
								</g>
								<g id="XMLID_87_">
									<g id="XMLID_101_">
										<polygon id="XMLID_838_" class="st6" points="414.2,252.9 413.8,252.6 415,251.4 416.2,252.6 415.9,252.9 415,252 
																					"/>
									</g>
								</g>
							</g>
						</g>
					</g>
					<g id="XMLID_109_">
						<g>
							<defs>
								<path id="SVGID_5_" d="M444.3,265.1h-15.4c-2.5,0-4.5-2-4.5-4.5v-13.2c0-2.5,2-4.5,4.5-4.5h15.4c2.5,0,4.5,2,4.5,4.5v13.2
									C448.8,263.1,446.8,265.1,444.3,265.1z"/>
							</defs>
							<clipPath id="SVGID_6_">
								<use xlink:href="#SVGID_5_"  style="overflow:visible;"/>
							</clipPath>
							<g id="XMLID_111_" class="st9">
								<g id="XMLID_118_" class="st4">
									<g id="XMLID_119_">
										<path id="XMLID_831_" class="st3" d="M448,294.8c1-22.6-6.9-35.8-6.9-35.8c1.4-1.3,2.2-2.5,2.2-4.5c0-3.8-3.1-6.3-6.9-6.3
											h0.2c-3.8,0-6.9,2.5-6.9,6.3c0,2,0.8,3.5,2.2,4.8c0,0-8,13.1-6.9,35.6"/>
									</g>
								</g>
								<g id="XMLID_116_">
									<g id="XMLID_117_">
										<path id="XMLID_828_" class="st6" d="M436.7,258.3c-1.6,0-3-1-3-3h0.4c0,2,1.1,2.5,2.5,2.5s2.5-0.5,2.5-2.5h0.4
											C439.7,257.3,438.3,258.3,436.7,258.3z"/>
									</g>
								</g>
								<g id="XMLID_114_">
									<g id="XMLID_115_">
										<polygon id="XMLID_825_" class="st6" points="434.8,252.9 433.9,252 433.1,252.9 432.8,252.6 433.9,251.4 435.1,252.6 
																					"/>
									</g>
								</g>
								<g id="XMLID_112_">
									<g id="XMLID_113_">
										<polygon id="XMLID_822_" class="st6" points="438.6,252.9 438.3,252.6 439.5,251.4 440.6,252.6 440.3,252.9 439.5,252 
																					"/>
									</g>
								</g>
							</g>
						</g>
					</g>
					<g id="XMLID_142_">
						<g>
							<defs>
								<path id="SVGID_7_" d="M395.4,287.4H380c-2.5,0-4.5-2-4.5-4.5v-13.2c0-2.5,2-4.5,4.5-4.5h15.4c2.5,0,4.5,2,4.5,4.5v13.2
									C399.9,285.3,397.9,287.4,395.4,287.4z"/>
							</defs>
							<clipPath id="SVGID_8_">
								<use xlink:href="#SVGID_7_"  style="overflow:visible;"/>
							</clipPath>
							<g id="XMLID_144_" class="st10">
								<g id="XMLID_151_" class="st4">
									<g id="XMLID_152_">
										<path id="XMLID_815_" class="st3" d="M399.2,317.1c1-22.6-6.9-35.8-6.9-35.8c1.4-1.3,2.2-3.1,2.2-5.1
											c0-3.8-3.1-6.9-6.9-6.9h0.2c-3.8,0-6.9,3.1-6.9,6.9c0,2,0.8,3.8,2.2,5.1c0,0-8,13.2-6.9,35.8"/>
									</g>
								</g>
								<g id="XMLID_149_">
									<g id="XMLID_150_">
										<path id="XMLID_812_" class="st6" d="M387.8,280.3c-1.6,0-3-1-3-3h0.4c0,2,1.1,2.5,2.5,2.5s2.5-0.5,2.5-2.5h0.4
											C390.8,279.3,389.5,280.3,387.8,280.3z"/>
									</g>
								</g>
								<g id="XMLID_147_">
									<g id="XMLID_148_">
										<polygon id="XMLID_809_" class="st6" points="385.9,275.2 385.1,274.3 384.2,275.2 383.9,274.9 385.1,273.7 386.3,274.9 
																					"/>
									</g>
								</g>
								<g id="XMLID_145_">
									<g id="XMLID_146_">
										<polygon id="XMLID_806_" class="st6" points="389.7,275.2 389.4,274.9 390.6,273.7 391.8,274.9 391.5,275.2 390.6,274.3 
																					"/>
									</g>
								</g>
							</g>
						</g>
					</g>
					<g id="XMLID_131_">
						<g>
							<defs>
								<path id="SVGID_9_" d="M419.9,287.4h-15.4c-2.5,0-4.5-2-4.5-4.5v-13.2c0-2.5,2-4.5,4.5-4.5h15.4c2.5,0,4.5,2,4.5,4.5v13.2
									C424.4,285.3,422.3,287.4,419.9,287.4z"/>
							</defs>
							<clipPath id="SVGID_10_">
								<use xlink:href="#SVGID_9_"  style="overflow:visible;"/>
							</clipPath>
							<g id="XMLID_133_" class="st11">
								<g id="XMLID_140_" class="st4">
									<g id="XMLID_141_">
										<path id="XMLID_799_" class="st3" d="M423.6,317.1c1-22.6-6.9-35.8-6.9-35.8c1.4-1.3,2.2-3.1,2.2-5.1
											c0-3.8-3.1-6.9-6.9-6.9h0.2c-3.8,0-6.9,3.1-6.9,6.9c0,2,0.8,3.8,2.2,5.1c0,0-8,13.2-6.9,35.8"/>
									</g>
								</g>
								<g id="XMLID_138_">
									<g id="XMLID_139_">
										<path id="XMLID_796_" class="st6" d="M412.3,280.3c-1.6,0-3-1-3-3h0.4c0,2,1.1,2.5,2.5,2.5s2.5-0.5,2.5-2.5h0.4
											C415.2,279.3,413.9,280.3,412.3,280.3z"/>
									</g>
								</g>
								<g id="XMLID_136_">
									<g id="XMLID_137_">
										<polygon id="XMLID_793_" class="st6" points="410.4,275.2 409.5,274.3 408.6,275.2 408.3,274.9 409.5,273.7 410.7,274.9 
																					"/>
									</g>
								</g>
								<g id="XMLID_134_">
									<g id="XMLID_135_">
										<polygon id="XMLID_790_" class="st6" points="414.2,275.2 413.8,274.9 415,273.7 416.2,274.9 415.9,275.2 415,274.3 
																					"/>
									</g>
								</g>
							</g>
						</g>
					</g>
					<g id="XMLID_120_">
						<g>
							<defs>
								<path id="SVGID_11_" d="M444.3,287.4h-15.4c-2.5,0-4.5-2-4.5-4.5v-13.2c0-2.5,2-4.5,4.5-4.5h15.4c2.5,0,4.5,2,4.5,4.5v13.2
									C448.8,285.3,446.8,287.4,444.3,287.4z"/>
							</defs>
							<clipPath id="SVGID_12_">
								<use xlink:href="#SVGID_11_"  style="overflow:visible;"/>
							</clipPath>
							<g id="XMLID_122_" class="st12">
								<g id="XMLID_129_" class="st4">
									<g id="XMLID_130_">
										<path id="XMLID_783_" class="st3" d="M448,317.1c1-22.6-6.9-35.8-6.9-35.8c1.4-1.3,2.2-3.1,2.2-5.1c0-3.8-3.1-6.9-6.9-6.9
											h0.2c-3.8,0-6.9,3.1-6.9,6.9c0,2,0.8,3.8,2.2,5.1c0,0-8,13.2-6.9,35.8"/>
									</g>
								</g>
								<g id="XMLID_127_">
									<g id="XMLID_128_">
										<path id="XMLID_780_" class="st6" d="M436.7,280.3c-1.6,0-3-1-3-3h0.4c0,2,1.1,2.5,2.5,2.5s2.5-0.5,2.5-2.5h0.4
											C439.7,279.3,438.3,280.3,436.7,280.3z"/>
									</g>
								</g>
								<g id="XMLID_125_">
									<g id="XMLID_126_">
										<polygon id="XMLID_777_" class="st6" points="434.8,275.2 433.9,274.3 433.1,275.2 432.8,274.9 433.9,273.7 435.1,274.9 
																					"/>
									</g>
								</g>
								<g id="XMLID_123_">
									<g id="XMLID_124_">
										<polygon id="XMLID_774_" class="st6" points="438.6,275.2 438.3,274.9 439.5,273.7 440.6,274.9 440.3,275.2 439.5,274.3 
																					"/>
									</g>
								</g>
							</g>
						</g>
					</g>
					<g id="XMLID_175_">
						<g>
							<defs>
								<path id="SVGID_13_" d="M395.4,309.9H380c-2.5,0-4.5-2-4.5-4.5v-13.2c0-2.5,2-4.5,4.5-4.5h15.4c2.5,0,4.5,2,4.5,4.5v13.2
									C399.9,307.9,397.9,309.9,395.4,309.9z"/>
							</defs>
							<clipPath id="SVGID_14_">
								<use xlink:href="#SVGID_13_"  style="overflow:visible;"/>
							</clipPath>
							<g id="XMLID_177_" class="st13">
								<g id="XMLID_184_" class="st4">
									<g id="XMLID_185_">
										<path id="XMLID_767_" class="st3" d="M399.2,339.7c1-22.6-6.9-35.8-6.9-35.8c1.4-1.3,2.2-2.9,2.2-4.9
											c0-3.8-3.1-6.7-6.9-6.7h0.2c-3.8,0-6.9,2.9-6.9,6.7c0,2,0.8,3.7,2.2,5c0,0-8,13.2-6.9,35.7"/>
									</g>
								</g>
								<g id="XMLID_182_">
									<g id="XMLID_183_">
										<path id="XMLID_764_" class="st6" d="M387.8,302.3c-1.6,0-3,0-3-3h0.4c0,3,1.1,2.5,2.5,2.5s2.5,0.5,2.5-2.5h0.4
											C390.8,302.3,389.5,302.3,387.8,302.3z"/>
									</g>
								</g>
								<g id="XMLID_180_">
									<g id="XMLID_181_">
										<polygon id="XMLID_761_" class="st6" points="385.9,297.8 385.1,296.9 384.2,297.8 383.9,297.4 385.1,296.3 386.3,297.4 
																					"/>
									</g>
								</g>
								<g id="XMLID_178_">
									<g id="XMLID_179_">
										<polygon id="XMLID_758_" class="st6" points="389.7,297.8 389.4,297.4 390.6,296.3 391.8,297.4 391.5,297.8 390.6,296.9 
																					"/>
									</g>
								</g>
							</g>
						</g>
					</g>
					<g id="XMLID_164_">
						<g>
							<defs>
								<path id="SVGID_15_" d="M419.9,309.9h-15.4c-2.5,0-4.5-2-4.5-4.5v-13.2c0-2.5,2-4.5,4.5-4.5h15.4c2.5,0,4.5,2,4.5,4.5v13.2
									C424.4,307.9,422.3,309.9,419.9,309.9z"/>
							</defs>
							<clipPath id="SVGID_16_">
								<use xlink:href="#SVGID_15_"  style="overflow:visible;"/>
							</clipPath>
							<g id="XMLID_166_" class="st14">
								<g id="XMLID_173_" class="st4">
									<g id="XMLID_174_">
										<path id="XMLID_751_" class="st3" d="M423.6,339.7c1-22.6-6.9-35.8-6.9-35.8c1.4-1.3,2.2-2.9,2.2-4.9
											c0-3.8-3.1-6.7-6.9-6.7h0.2c-3.8,0-6.9,2.9-6.9,6.7c0,2,0.8,3.7,2.2,5c0,0-8,13.2-6.9,35.7"/>
									</g>
								</g>
								<g id="XMLID_171_">
									<g id="XMLID_172_">
										<path id="XMLID_748_" class="st6" d="M412.3,302.3c-1.6,0-3,0-3-3h0.4c0,3,1.1,2.5,2.5,2.5s2.5,0.5,2.5-2.5h0.4
											C415.2,302.3,413.9,302.3,412.3,302.3z"/>
									</g>
								</g>
								<g id="XMLID_169_">
									<g id="XMLID_170_">
										<polygon id="XMLID_745_" class="st6" points="410.4,297.8 409.5,296.9 408.6,297.8 408.3,297.4 409.5,296.3 410.7,297.4 
																					"/>
									</g>
								</g>
								<g id="XMLID_167_">
									<g id="XMLID_168_">
										<polygon id="XMLID_742_" class="st6" points="414.2,297.8 413.8,297.4 415,296.3 416.2,297.4 415.9,297.8 415,296.9 
																					"/>
									</g>
								</g>
							</g>
						</g>
					</g>
					<g id="XMLID_153_">
						<g>
							<defs>
								<path id="SVGID_17_" d="M444.3,309.9h-15.4c-2.5,0-4.5-2-4.5-4.5v-13.2c0-2.5,2-4.5,4.5-4.5h15.4c2.5,0,4.5,2,4.5,4.5v13.2
									C448.8,307.9,446.8,309.9,444.3,309.9z"/>
							</defs>
							<clipPath id="SVGID_18_">
								<use xlink:href="#SVGID_17_"  style="overflow:visible;"/>
							</clipPath>
							<g id="XMLID_155_" class="st15">
								<g id="XMLID_162_" class="st4">
									<g id="XMLID_163_">
										<path id="XMLID_735_" class="st3" d="M448,339.7c1-22.6-6.9-35.8-6.9-35.8c1.4-1.3,2.2-2.9,2.2-4.9c0-3.8-3.1-6.7-6.9-6.7
											h0.2c-3.8,0-6.9,2.9-6.9,6.7c0,2,0.8,3.7,2.2,5c0,0-8,13.2-6.9,35.7"/>
									</g>
								</g>
								<g id="XMLID_160_">
									<g id="XMLID_161_">
										<path id="XMLID_732_" class="st6" d="M436.7,302.3c-1.6,0-3,0-3-3h0.4c0,3,1.1,2.5,2.5,2.5s2.5,0.5,2.5-2.5h0.4
											C439.7,302.3,438.3,302.3,436.7,302.3z"/>
									</g>
								</g>
								<g id="XMLID_158_">
									<g id="XMLID_159_">
										<polygon id="XMLID_729_" class="st6" points="434.8,297.8 433.9,296.9 433.1,297.8 432.8,297.4 433.9,296.3 435.1,297.4 
																					"/>
									</g>
								</g>
								<g id="XMLID_156_">
									<g id="XMLID_157_">
										<polygon id="XMLID_726_" class="st6" points="438.6,297.8 438.3,297.4 439.5,296.3 440.6,297.4 440.3,297.8 439.5,296.9 
																					"/>
									</g>
								</g>
							</g>
						</g>
					</g>
					<g id="XMLID_208_">
						<g>
							<defs>
								<path id="SVGID_19_" d="M469.1,265.1h-15.4c-2.5,0-4.5-2-4.5-4.5v-13.2c0-2.5,2-4.5,4.5-4.5h15.4c2.5,0,4.5,2,4.5,4.5v13.2
									C473.6,263.1,471.6,265.1,469.1,265.1z"/>
							</defs>
							<clipPath id="SVGID_20_">
								<use xlink:href="#SVGID_19_"  style="overflow:visible;"/>
							</clipPath>
							<g id="XMLID_210_" class="st16">
								<g id="XMLID_217_" class="st4">
									<g id="XMLID_218_">
										<path id="XMLID_719_" class="st3" d="M472.9,294.8c1-22.6-6.9-35.8-6.9-35.8c1.4-1.3,2.2-2.5,2.2-4.5
											c0-3.8-3.1-6.3-6.9-6.3h0.2c-3.8,0-6.9,2.5-6.9,6.3c0,2,0.8,3.5,2.2,4.8c0,0-8,13.1-6.9,35.6"/>
									</g>
								</g>
								<g id="XMLID_215_">
									<g id="XMLID_216_">
										<path id="XMLID_716_" class="st6" d="M461.5,258.3c-1.6,0-3-1-3-3h0.4c0,2,1.1,2.5,2.5,2.5s2.5-0.5,2.5-2.5h0.4
											C464.5,257.3,463.2,258.3,461.5,258.3z"/>
									</g>
								</g>
								<g id="XMLID_213_">
									<g id="XMLID_214_">
										<polygon id="XMLID_713_" class="st6" points="459.6,252.9 458.8,252 457.9,252.9 457.6,252.6 458.8,251.4 459.9,252.6 
																					"/>
									</g>
								</g>
								<g id="XMLID_211_">
									<g id="XMLID_212_">
										<polygon id="XMLID_710_" class="st6" points="463.4,252.9 463.1,252.6 464.3,251.4 465.5,252.6 465.2,252.9 464.3,252 
																					"/>
									</g>
								</g>
							</g>
						</g>
					</g>
					<g id="XMLID_197_">
						<g>
							<defs>
								<path id="SVGID_21_" d="M469.1,287.4h-15.4c-2.5,0-4.5-2-4.5-4.5v-13.2c0-2.5,2-4.5,4.5-4.5h15.4c2.5,0,4.5,2,4.5,4.5v13.2
									C473.6,285.3,471.6,287.4,469.1,287.4z"/>
							</defs>
							<clipPath id="SVGID_22_">
								<use xlink:href="#SVGID_21_"  style="overflow:visible;"/>
							</clipPath>
							<g id="XMLID_199_" class="st17">
								<g id="XMLID_206_" class="st4">
									<g id="XMLID_207_">
										<path id="XMLID_703_" class="st3" d="M472.9,317.1c1-22.6-6.9-35.8-6.9-35.8c1.4-1.3,2.2-3.1,2.2-5.1
											c0-3.8-3.1-6.9-6.9-6.9h0.2c-3.8,0-6.9,3.1-6.9,6.9c0,2,0.8,3.8,2.2,5.1c0,0-8,13.2-6.9,35.8"/>
									</g>
								</g>
								<g id="XMLID_204_">
									<g id="XMLID_205_">
										<path id="XMLID_700_" class="st6" d="M461.5,280.3c-1.6,0-3-1-3-3h0.4c0,2,1.1,2.5,2.5,2.5s2.5-0.5,2.5-2.5h0.4
											C464.5,279.3,463.2,280.3,461.5,280.3z"/>
									</g>
								</g>
								<g id="XMLID_202_">
									<g id="XMLID_203_">
										<polygon id="XMLID_697_" class="st6" points="459.6,275.2 458.8,274.3 457.9,275.2 457.6,274.9 458.8,273.7 459.9,274.9 
																					"/>
									</g>
								</g>
								<g id="XMLID_200_">
									<g id="XMLID_201_">
										<polygon id="XMLID_694_" class="st6" points="463.4,275.2 463.1,274.9 464.3,273.7 465.5,274.9 465.2,275.2 464.3,274.3 
																					"/>
									</g>
								</g>
							</g>
						</g>
					</g>
					<g id="XMLID_186_">
						<g>
							<defs>
								<path id="SVGID_23_" d="M469.1,309.9h-15.4c-2.5,0-4.5-2-4.5-4.5v-13.2c0-2.5,2-4.5,4.5-4.5h15.4c2.5,0,4.5,2,4.5,4.5v13.2
									C473.6,307.9,471.6,309.9,469.1,309.9z"/>
							</defs>
							<clipPath id="SVGID_24_">
								<use xlink:href="#SVGID_23_"  style="overflow:visible;"/>
							</clipPath>
							<g id="XMLID_188_" class="st18">
								<g id="XMLID_195_" class="st4">
									<g id="XMLID_196_">
										<path id="XMLID_687_" class="st3" d="M472.9,339.7c1-22.6-6.9-35.8-6.9-35.8c1.4-1.3,2.2-2.9,2.2-4.9
											c0-3.8-3.1-6.7-6.9-6.7h0.2c-3.8,0-6.9,2.9-6.9,6.7c0,2,0.8,3.7,2.2,5c0,0-8,13.2-6.9,35.7"/>
									</g>
								</g>
								<g id="XMLID_193_">
									<g id="XMLID_194_">
										<path id="XMLID_684_" class="st6" d="M461.5,302.3c-1.6,0-3,0-3-3h0.4c0,3,1.1,2.5,2.5,2.5s2.5,0.5,2.5-2.5h0.4
											C464.5,302.3,463.2,302.3,461.5,302.3z"/>
									</g>
								</g>
								<g id="XMLID_191_">
									<g id="XMLID_192_">
										<polygon id="XMLID_681_" class="st6" points="459.6,297.8 458.8,296.9 457.9,297.8 457.6,297.4 458.8,296.3 459.9,297.4 
																					"/>
									</g>
								</g>
								<g id="XMLID_189_">
									<g id="XMLID_190_">
										<polygon id="XMLID_678_" class="st6" points="463.4,297.8 463.1,297.4 464.3,296.3 465.5,297.4 465.2,297.8 464.3,296.9 
																					"/>
									</g>
								</g>
							</g>
						</g>
					</g>
					<g id="XMLID_241_">
						<g>
							<defs>
								<path id="SVGID_25_" d="M493.9,265.1h-15.4c-2.5,0-4.5-2-4.5-4.5v-13.2c0-2.5,2-4.5,4.5-4.5h15.4c2.5,0,4.5,2,4.5,4.5v13.2
									C498.4,263.1,496.4,265.1,493.9,265.1z"/>
							</defs>
							<clipPath id="SVGID_26_">
								<use xlink:href="#SVGID_25_"  style="overflow:visible;"/>
							</clipPath>
							<g id="XMLID_243_" class="st19">
								<g id="XMLID_250_" class="st4">
									<g id="XMLID_251_">
										<path id="XMLID_671_" class="st3" d="M497.7,294.8c1-22.6-6.9-35.8-6.9-35.8c1.4-1.3,2.2-2.5,2.2-4.5
											c0-3.8-3.1-6.3-6.9-6.3h0.2c-3.8,0-6.9,2.5-6.9,6.3c0,2,0.8,3.5,2.2,4.8c0,0-8,13.1-6.9,35.6"/>
									</g>
								</g>
								<g id="XMLID_248_">
									<g id="XMLID_249_">
										<path id="XMLID_668_" class="st6" d="M486.3,258.3c-1.6,0-3-1-3-3h0.4c0,2,1.1,2.5,2.5,2.5s2.5-0.5,2.5-2.5h0.4
											C489.3,257.3,488,258.3,486.3,258.3z"/>
									</g>
								</g>
								<g id="XMLID_246_">
									<g id="XMLID_247_">
										<polygon id="XMLID_665_" class="st6" points="484.5,252.9 483.6,252 482.7,252.9 482.4,252.6 483.6,251.4 484.8,252.6 
																					"/>
									</g>
								</g>
								<g id="XMLID_244_">
									<g id="XMLID_245_">
										<polygon id="XMLID_662_" class="st6" points="488.2,252.9 487.9,252.6 489.1,251.4 490.3,252.6 490,252.9 489.1,252 
																					"/>
									</g>
								</g>
							</g>
						</g>
					</g>
					<g id="XMLID_230_">
						<g>
							<defs>
								<path id="SVGID_27_" d="M493.9,287.4h-15.4c-2.5,0-4.5-2-4.5-4.5v-13.2c0-2.5,2-4.5,4.5-4.5h15.4c2.5,0,4.5,2,4.5,4.5v13.2
									C498.4,285.3,496.4,287.4,493.9,287.4z"/>
							</defs>
							<clipPath id="SVGID_28_">
								<use xlink:href="#SVGID_27_"  style="overflow:visible;"/>
							</clipPath>
							<g id="XMLID_232_" class="st20">
								<g id="XMLID_239_" class="st4">
									<g id="XMLID_240_">
										<path id="XMLID_655_" class="st3" d="M497.7,317.1c1-22.6-6.9-35.8-6.9-35.8c1.4-1.3,2.2-3.1,2.2-5.1
											c0-3.8-3.1-6.9-6.9-6.9h0.2c-3.8,0-6.9,3.1-6.9,6.9c0,2,0.8,3.8,2.2,5.1c0,0-8,13.2-6.9,35.8"/>
									</g>
								</g>
								<g id="XMLID_237_">
									<g id="XMLID_238_">
										<path id="XMLID_652_" class="st6" d="M486.3,280.3c-1.6,0-3-1-3-3h0.4c0,2,1.1,2.5,2.5,2.5s2.5-0.5,2.5-2.5h0.4
											C489.3,279.3,488,280.3,486.3,280.3z"/>
									</g>
								</g>
								<g id="XMLID_235_">
									<g id="XMLID_236_">
										<polygon id="XMLID_649_" class="st6" points="484.5,275.2 483.6,274.3 482.7,275.2 482.4,274.9 483.6,273.7 484.8,274.9 
																					"/>
									</g>
								</g>
								<g id="XMLID_233_">
									<g id="XMLID_234_">
										<polygon id="XMLID_646_" class="st6" points="488.2,275.2 487.9,274.9 489.1,273.7 490.3,274.9 490,275.2 489.1,274.3 
																					"/>
									</g>
								</g>
							</g>
						</g>
					</g>
					<g id="XMLID_219_">
						<g>
							<defs>
								<path id="SVGID_29_" d="M493.9,309.9h-15.4c-2.5,0-4.5-2-4.5-4.5v-13.2c0-2.5,2-4.5,4.5-4.5h15.4c2.5,0,4.5,2,4.5,4.5v13.2
									C498.4,307.9,496.4,309.9,493.9,309.9z"/>
							</defs>
							<clipPath id="SVGID_30_">
								<use xlink:href="#SVGID_29_"  style="overflow:visible;"/>
							</clipPath>
							<g id="XMLID_221_" class="st21">
								<g id="XMLID_228_" class="st4">
									<g id="XMLID_229_">
										<path id="XMLID_639_" class="st3" d="M497.7,339.7c1-22.6-6.9-35.8-6.9-35.8c1.4-1.3,2.2-2.9,2.2-4.9
											c0-3.8-3.1-6.7-6.9-6.7h0.2c-3.8,0-6.9,2.9-6.9,6.7c0,2,0.8,3.7,2.2,5c0,0-8,13.2-6.9,35.7"/>
									</g>
								</g>
								<g id="XMLID_226_">
									<g id="XMLID_227_">
										<path id="XMLID_636_" class="st6" d="M486.3,302.3c-1.6,0-3,0-3-3h0.4c0,3,1.1,2.5,2.5,2.5s2.5,0.5,2.5-2.5h0.4
											C489.3,302.3,488,302.3,486.3,302.3z"/>
									</g>
								</g>
								<g id="XMLID_224_">
									<g id="XMLID_225_">
										<polygon id="XMLID_633_" class="st6" points="484.5,297.8 483.6,296.9 482.7,297.8 482.4,297.4 483.6,296.3 484.8,297.4 
																					"/>
									</g>
								</g>
								<g id="XMLID_222_">
									<g id="XMLID_223_">
										<polygon id="XMLID_630_" class="st6" points="488.2,297.8 487.9,297.4 489.1,296.3 490.3,297.4 490,297.8 489.1,296.9 
																					"/>
									</g>
								</g>
							</g>
						</g>
					</g>
				</g>
			</g>
			<g id="XMLID_94_">
				<path id="XMLID_309_" d="M171.7,60.3v6.3c0,2.9-1.5,4.4-4.4,4.4h-2.9c-2.9,0-4.4-1.5-4.4-4.4V51.3c0-2.9,1.5-4.4,4.4-4.4h2.8
					c2.9,0,4.4,1.5,4.4,4.4v5.6h-4.7v-5c0-0.6-0.3-0.8-0.8-0.8h-0.5c-0.6,0-0.8,0.3-0.8,0.8v14.3c0,0.6,0.3,0.8,0.8,0.8h0.6
					c0.6,0,0.8-0.3,0.8-0.8v-5.9H171.7z"/>
			</g>
			<g id="XMLID_93_">
				<path id="XMLID_305_" d="M497.3,129.6v4.8c0,2.9-1.5,4.4-4.4,4.4h-7v-23.7h7c2.9,0,4.4,1.5,4.4,4.4v3.5c0,2-0.7,3-2,3.5
					C496.7,127,497.3,127.9,497.3,129.6z M491.7,119.2h-1.1v5.6h1.1c0.6,0,0.8-0.3,0.8-0.8v-3.9
					C492.5,119.5,492.3,119.2,491.7,119.2z M490.6,134.8h1.2c0.6,0,0.8-0.3,0.8-0.8v-4.3c0-0.6-0.3-0.8-0.8-0.8h-1.2V134.8z"/>
			</g>
			<g id="XMLID_253_">
				<g id="XMLID_84_">
					<path id="XMLID_610_" class="st6" d="M446.5,185.1h-67.6c-2.5,0-4.5-2-4.5-4.5v-60.7c0-2.5,2-4.5,4.5-4.5h67.6
						c2.5,0,4.5,2,4.5,4.5v60.7C451,183.1,449,185.1,446.5,185.1z"/>
				</g>
				<g id="XMLID_20_">
					<g>
						<defs>
							<path id="SVGID_31_" d="M446.5,185.1h-67.6c-2.5,0-4.5-2-4.5-4.5v-60.7c0-2.5,2-4.5,4.5-4.5h67.6c2.5,0,4.5,2,4.5,4.5v60.7
								C451,183.1,449,185.1,446.5,185.1z"/>
						</defs>
						<clipPath id="SVGID_32_">
							<use xlink:href="#SVGID_31_"  style="overflow:visible;"/>
						</clipPath>
						<g id="XMLID_1_" class="st22">
							<g id="XMLID_100_" class="st4">
								<g id="XMLID_4_">
									<path id="XMLID_608_" class="st3" d="M448.6,278.5c3.3-70.8-21.7-112.3-21.7-112.3c4.3-4,6.9-9.3,6.9-15.6
										c0-11.9-9.7-21.3-21.6-21.3h0.5c-11.9,0-21.6,9.4-21.6,21.3c0,6.3,2.7,11.8,6.9,15.7c0,0-25,41.4-21.7,112.2"/>
								</g>
							</g>
							<g id="XMLID_103_">
								<g id="XMLID_8_">
									<path id="XMLID_605_" class="st6" d="M413,163.7c-5.2,0-9.4-3.4-9.4-9.4h1.4c0,6,3.6,8,8,8s8-2,8-8h1.4
										C422.3,160.3,418.2,163.7,413,163.7z"/>
								</g>
							</g>
							<g id="XMLID_2_">
								<g id="XMLID_7_">
									<polygon id="XMLID_602_" class="st6" points="407.1,146.9 404.3,144.1 401.6,146.9 400.6,145.9 404.3,142.2 408.1,145.9 
																			"/>
								</g>
							</g>
							<g id="XMLID_3_">
								<g id="XMLID_5_">
									<polygon id="XMLID_599_" class="st6" points="418.9,146.9 417.9,145.9 421.7,142.2 425.4,145.9 424.4,146.9 421.7,144.1 
																			"/>
								</g>
							</g>
						</g>
					</g>
				</g>
				<g id="XMLID_21_">
					<path id="XMLID_301_" class="st5" d="M445.9,186.5h-66.4c-3.6,0-6.5-2.9-6.5-6.5v-59.5c0-3.6,2.9-6.5,6.5-6.5h66.4
						c3.6,0,6.5,2.9,6.5,6.5V180C452.4,183.6,449.5,186.5,445.9,186.5z M379.5,116.8c-2,0-3.7,1.6-3.7,3.7V180c0,2,1.6,3.7,3.7,3.7
						h66.4c2,0,3.7-1.6,3.7-3.7v-59.5c0-2-1.6-3.7-3.7-3.7H379.5z"/>
				</g>
			</g>
			<g id="XMLID_32_">
				<g id="XMLID_86_">
					<path id="XMLID_584_" class="st6" d="M313.5,94.8H198.6c-2.5,0-4.5-2-4.5-4.5V29.7c0-2.5,2-4.5,4.5-4.5h114.9
						c2.5,0,4.5,2,4.5,4.5v60.6C318,92.8,316,94.8,313.5,94.8z"/>
				</g>
				<g id="XMLID_30_">
					<g>
						<defs>
							<path id="SVGID_33_" d="M313.5,94.8H198.6c-2.5,0-4.5-2-4.5-4.5V29.7c0-2.5,2-4.5,4.5-4.5h114.9c2.5,0,4.5,2,4.5,4.5v60.6
								C318,92.8,316,94.8,313.5,94.8z"/>
						</defs>
						<clipPath id="SVGID_34_">
							<use xlink:href="#SVGID_33_"  style="overflow:visible;"/>
						</clipPath>
						<g id="XMLID_23_" class="st23">
							<g id="XMLID_26_">
								<g id="XMLID_29_" class="st4">
									<path id="XMLID_292_" class="st3" d="M286.2,99.6c-3.4-15.3-19.2-24.3-30.4-34.5c-9-9-4.5-15.8,1.1-25.9
										c1.1-2.3,1.1-7.9-3.4-7.9c-13.5,1.1-14.7,15.8-16.9,25.9c-1.1,5.6,1.1,11.3,2.3,16.9c2.3,10.2,10.2,16.9,12.4,25.6"/>
								</g>
								<g id="XMLID_27_">
									<path id="XMLID_298_" class="st6" d="M244.1,50.7L244.1,50.7c-0.8,0-1.4-0.4-1.8-1c-0.7-1-0.7-2.6,0-4.3l1.1,0.4
										c-0.6,1.6-0.4,2.7-0.1,3.2c0.2,0.3,0.5,0.5,0.9,0.5c1.3,0.1,3.1-1.7,4.1-4l1,0.4C248,48.8,245.9,50.7,244.1,50.7z"/>
								</g>
							</g>
							<g id="XMLID_25_">
								<polygon id="XMLID_297_" class="st6" points="245.6,40.9 244.9,39.8 243.8,40.5 243.2,39.5 245.3,38.3 246.6,40.3 								
									"/>
							</g>
							<g id="XMLID_24_">
								<polygon id="XMLID_296_" class="st6" points="252.5,42.5 251.8,41.4 250.7,42.1 250.1,41.1 252.2,39.9 253.5,41.9 								
									"/>
							</g>
						</g>
					</g>
				</g>
				<g id="XMLID_31_">
					<path id="XMLID_293_" class="st24" d="M312.9,96.2H199.2c-3.6,0-6.5-2.9-6.5-6.5V30.2c0-3.6,2.9-6.5,6.5-6.5h113.7
						c3.6,0,6.5,2.9,6.5,6.5v59.5C319.4,93.3,316.5,96.2,312.9,96.2z M199.2,26.6c-2,0-3.7,1.6-3.7,3.7v59.5c0,2,1.6,3.7,3.7,3.7
						h113.7c2,0,3.7-1.6,3.7-3.7V30.2c0-2-1.6-3.7-3.7-3.7H199.2V26.6z"/>
				</g>
			</g>
			<g id="XMLID_58_">
				<g id="XMLID_68_">
					<path id="XMLID_564_" class="st6" d="M133,94.8H18.1c-2.5,0-4.5-2-4.5-4.5V29.7c0-2.5,2-4.5,4.5-4.5H133c2.5,0,4.5,2,4.5,4.5
						v60.6C137.5,92.8,135.5,94.8,133,94.8z"/>
				</g>
				<g id="XMLID_60_">
					<g>
						<defs>
							<path id="SVGID_35_" d="M133,94.8H18.1c-2.5,0-4.5-2-4.5-4.5V29.7c0-2.5,2-4.5,4.5-4.5H133c2.5,0,4.5,2,4.5,4.5v60.6
								C137.5,92.8,135.5,94.8,133,94.8z"/>
						</defs>
						<clipPath id="SVGID_36_">
							<use xlink:href="#SVGID_35_"  style="overflow:visible;"/>
						</clipPath>
						<g id="XMLID_62_" class="st25">
							<g id="XMLID_65_">
								<g id="XMLID_67_" class="st4">
									<path id="XMLID_279_" class="st3" d="M85.9,99.7c8.5-9.8-0.5-22.2,0.6-31.2c2.3-12.4,6.8-30.5-9-30.5
										c-7.9,0-3.4,11.3-6.8,15.8c-12.4,13.5-27.1,25.9-20,46.1"/>
								</g>
								<g id="XMLID_66_">
									<path id="XMLID_291_" class="st6" d="M79.4,59.8c-0.2,0-0.4,0-0.6,0c-1.7-0.2-2.4-0.9-2.8-1.6c-0.5-1-0.4-2.3,0.3-3.8
										l1,0.5C76.8,56,76.6,57,77,57.6c0.4,0.7,1.2,0.9,1.9,1c2.3,0.2,5.4-1.2,6.1-3.4l1.1,0.3C85.3,58.2,82.1,59.8,79.4,59.8z"/>
								</g>
							</g>
							<g id="XMLID_64_">
								<polygon id="XMLID_290_" class="st6" points="76.9,49.7 76,49 77.6,47.2 79.4,48.7 78.7,49.6 77.7,48.7 								"/>
							</g>
							<g id="XMLID_63_">
								<polygon id="XMLID_289_" class="st6" points="83.9,49.2 83.1,48.5 84.7,46.7 86.5,48.2 85.8,49.1 84.8,48.2 								"/>
							</g>
						</g>
					</g>
				</g>
				<g id="XMLID_59_">
					<path id="XMLID_286_" class="st24" d="M132.4,96.2H18.7c-3.6,0-6.5-2.9-6.5-6.5V30.2c0-3.6,2.9-6.5,6.5-6.5h113.7
						c3.6,0,6.5,2.9,6.5,6.5v59.5C138.9,93.3,136,96.2,132.4,96.2z M18.7,26.6c-2,0-3.7,1.6-3.7,3.7v59.5c0,2,1.6,3.7,3.7,3.7h113.7
						c2,0,3.7-1.6,3.7-3.7V30.2c0-2-1.6-3.7-3.7-3.7H18.7V26.6z"/>
				</g>
			</g>
			<g id="XMLID_254_">
				<g id="XMLID_57_">
					<path id="XMLID_282_" class="st6" d="M313.5,360.3H198.6c-2.5,0-4.5-2-4.5-4.5v-200c0-2.5,2-4.5,4.5-4.5h114.9
						c2.5,0,4.5,2,4.5,4.5v200C318,358.2,316,360.3,313.5,360.3z"/>
					<path id="XMLID_283_" class="st3" d="M312.9,361.7H199.2c-3.6,0-6.5-2.9-6.5-6.5V156.3c0-3.6,2.9-6.5,6.5-6.5h113.7
						c3.6,0,6.5,2.9,6.5,6.5v198.9C319.4,358.8,316.5,361.7,312.9,361.7z M199.2,152.7c-2,0-3.7,1.6-3.7,3.7v198.9
						c0,2,1.6,3.7,3.7,3.7h113.7c2,0,3.7-1.6,3.7-3.7v-199c0-2-1.6-3.7-3.7-3.7L199.2,152.7L199.2,152.7z"/>
				</g>
				<g id="XMLID_96_">
					<path id="XMLID_280_" d="M212.4,171c0.6-0.7,0.8-1.2,0.8-2v-2.9c0-0.6-0.3-0.8-0.8-0.8h-0.3c-0.6,0-0.8,0.3-0.8,0.8v3.9h-4.5
						v-4.4c0-2.9,1.5-4.4,4.4-4.4h2.3c2.9,0,4.4,1.5,4.4,4.4v3.6c0,1.7-0.4,2.9-1.9,4.8l-3.8,4.8c-0.6,0.7-0.8,1.2-0.8,2v0.2h6.5
						v4.2h-11.2v-4.5c0-1.8,0.4-2.9,1.9-4.8L212.4,171z"/>
				</g>
				<g id="XMLID_14_">
					<g id="XMLID_18_" class="st4">
						<path id="XMLID_275_" class="st3" d="M285,358.9c2.6-57.5-17.6-89.8-17.6-89.8c3.5-3.2,5.6-7.5,5.6-12.6
							c0-9.7-7.9-17.3-17.6-17.3h0.4c-9.7,0-17.6,7.6-17.6,17.3c0,5.1,2.2,9.5,5.6,12.7c0,0-20.3,32.1-17.6,89.6"/>
					</g>
					<g id="XMLID_17_">
						<path id="XMLID_278_" class="st6" d="M256.1,266.9c-4.2,0-7.6-3.6-7.6-7.6h1.1c0,4,2.9,6.5,6.5,6.5s6.5-2.5,6.5-6.5h1.1
							C263.7,263.3,260.3,266.9,256.1,266.9z"/>
					</g>
					<g id="XMLID_16_">
						<polygon id="XMLID_277_" class="st6" points="251.3,253.5 249,251.2 246.8,253.5 246,252.7 249,249.6 252.1,252.7 						"/>
					</g>
					<g id="XMLID_15_">
						<polygon id="XMLID_276_" class="st6" points="260.9,253.5 260.1,252.7 263.1,249.6 266.1,252.7 265.3,253.5 263.1,251.2 
													"/>
					</g>
				</g>
			</g>
			<g id="XMLID_257_">
				<g id="XMLID_262_">
					<g id="XMLID_265_">
						<path id="XMLID_272_" d="M113.8,497H79c-0.7,0-1.2-0.5-1.2-1.2v-28.5c0-0.7,0.5-1.2,1.2-1.2h34.8c0.7,0,1.2,0.5,1.2,1.2v28.5
							C115,496.4,114.4,497,113.8,497z"/>
					</g>
				</g>
				<g id="XMLID_258_">
					<g id="XMLID_261_">
						<path id="XMLID_271_" d="M131.6,467.5l-13.7,10.6c-0.3,0.2-0.5,0.5-0.5,0.9v5c0,0.4,0.2,0.7,0.5,0.9l13.7,10.5
							c0.8,0.6,1.9,0.1,1.9-0.9v-26.2C133.6,467.5,132.4,466.8,131.6,467.5z"/>
					</g>
				</g>
			</g>
			<g id="XMLID_256_" class="st4">
				<rect id="XMLID_274_" x="97" y="372.3" class="st3" width="3" height="93"/>
			</g>
			<g id="XMLID_259_" class="st4">
				<rect id="XMLID_273_" x="329" y="48.3" class="st24" width="98" height="3"/>
			</g>
			<g id="XMLID_260_">
				<g id="XMLID_266_">
					<g id="XMLID_267_">
						<path id="XMLID_270_" d="M444.7,64.9h-34.8c-0.7,0-1.2-0.5-1.2-1.2V35.2c0-0.7,0.5-1.2,1.2-1.2h34.8c0.7,0,1.2,0.5,1.2,1.2
							v28.5C445.9,64.3,445.4,64.9,444.7,64.9z"/>
					</g>
				</g>
				<g id="XMLID_263_">
					<g id="XMLID_264_">
						<path id="XMLID_269_" d="M462.6,35.4L448.9,46c-0.3,0.2-0.5,0.5-0.5,0.9v5c0,0.4,0.2,0.7,0.5,0.9l13.7,10.5
							c0.8,0.6,1.9,0.1,1.9-0.9V36.3C464.5,35.4,463.3,34.8,462.6,35.4z"/>
					</g>
				</g>
			</g>
		</g>
	</g>
</g>
<g id="Layer_3">
</g>
<g>
	<path d="M393.4,141.2c0-0.6-0.3-0.9-0.9-0.9h-3.6v-4.2h3.5c0.6,0,0.8-0.3,0.8-0.8v-4c0-0.6-0.3-0.8-0.8-0.8h-0.4
		c-0.6,0-0.9,0.3-0.9,0.8v2.9h-4.5v-3.4c0-3,1.5-4.4,4.4-4.4h2.4c3,0,4.4,1.5,4.4,4.4v3.7c0,2-0.7,3.1-2,3.5c1.4,0.4,2,1.3,2,3.1v5
		c0,3-1.5,4.4-4.4,4.4h-2.6c-3,0-4.4-1.5-4.4-4.4v-3.8h4.5v3.3c0,0.6,0.3,0.9,0.8,0.9h0.5c0.6,0,0.9-0.3,0.9-0.9V141.2z"/>
</g>
<g>
	<path d="M386.5,268l3.9-15.4h6.5v16.1h1.7v4.1h-1.7v3.6h-4.3v-3.6h-6.1V268z M392.6,258.5l-2.5,10.2h2.5V258.5z"/>
</g>
<g>
	<path d="M31.2,51c0,3-1.5,4.4-4.4,4.4h-2.6c-3,0-4.4-1.5-4.4-4.4v-4.3h4.6v3.8c0,0.6,0.3,0.9,0.9,0.9h0.4c0.6,0,0.9-0.3,0.9-0.9
		v-5.7c0-0.6-0.2-1-0.9-1c-0.5,0-0.9,0.3-1.4,1h-4.3V31.5h10.9v4.2h-6.5l-0.1,5.1c0.9-0.8,1.7-1.3,3.3-1.3h0.1
		c2.2,0,3.6,1.5,3.6,3.8V51z"/>
</g>
<g>
	<path d="M206,41.2c0.8-0.4,1.7-0.6,2.8-0.6h0.2c2.4,0,3.8,1.6,3.8,3.9V51c0,3-1.5,4.4-4.4,4.4h-2.7c-3,0-4.4-1.5-4.4-4.4V35.7
		c0-3,1.5-4.4,4.4-4.4h2.6c3,0,4.4,1.5,4.4,4.4v3.3h-4.6v-2.8c0-0.6-0.3-0.8-0.9-0.8h-0.4c-0.6,0-0.9,0.3-0.9,0.8V41.2z M206,50.5
		c0,0.6,0.3,0.9,0.9,0.9h0.4c0.6,0,0.9-0.3,0.9-0.9v-5.1c0-0.5-0.2-0.8-0.9-0.8c-0.5,0-1,0.1-1.3,0.2V50.5z"/>
</g>
</svg>
