<?xml version="1.0" encoding="utf-8"?>
<!-- Generator: Adobe Illustrator 19.0.0, SVG Export Plug-In . SVG Version: 6.00 Build 0)  -->
<svg version="1.1" xmlns="http://www.w3.org/2000/svg" xmlns:xlink="http://www.w3.org/1999/xlink" x="0px" y="0px"
	 viewBox="0 0 512 491.7" style="enable-background:new 0 0 512 491.7;" xml:space="preserve">
<style type="text/css">
	.st0{opacity:0.3;fill:#0071BC;}
	.st1{opacity:0.3;fill:#009245;}
	.st2{opacity:0.3;fill:#FF0000;}
	.st3{fill:#0071BC;}
	.st4{opacity:0.3;}
	.st5{fill:#009245;}
	.st6{fill:#FFFFFF;}
	.st7{clip-path:url(#XMLID_546_);}
	.st8{clip-path:url(#XMLID_547_);}
	.st9{clip-path:url(#XMLID_548_);}
	.st10{clip-path:url(#XMLID_549_);}
	.st11{clip-path:url(#XMLID_550_);}
	.st12{clip-path:url(#XMLID_551_);}
	.st13{clip-path:url(#XMLID_553_);}
	.st14{clip-path:url(#XMLID_554_);}
	.st15{clip-path:url(#XMLID_555_);}
	.st16{clip-path:url(#XMLID_556_);}
	.st17{clip-path:url(#XMLID_557_);}
	.st18{clip-path:url(#XMLID_558_);}
	.st19{clip-path:url(#XMLID_559_);}
	.st20{clip-path:url(#XMLID_560_);}
	.st21{clip-path:url(#XMLID_561_);}
	.st22{clip-path:url(#XMLID_562_);}
	.st23{clip-path:url(#XMLID_563_);}
	.st24{fill:#FF0000;}
	.st25{clip-path:url(#XMLID_565_);}
</style>
<g id="Layer_1">
</g>
<g id="Layer_2">
	<g id="XMLID_503_">
		<path id="XMLID_90_" class="st0" d="M324.8,360.4H54.4c-2.5,0-4.5-2-4.5-4.5V133.2c0-2.5,2-4.5,4.5-4.5h270.4c2.5,0,4.5,2,4.5,4.5
			v222.7C329.3,358.4,327.3,360.4,324.8,360.4z"/>
		<path id="XMLID_89_" class="st1" d="M505.1,311.2H367.6c-2.5,0-4.5-2-4.5-4.5V97.3c0-2.5,2-4.5,4.5-4.5h137.4c2.5,0,4.5,2,4.5,4.5
			v209.3C509.6,309.1,507.5,311.2,505.1,311.2z"/>
		<path id="XMLID_92_" class="st2" d="M324.5,94.8H7.1c-2.5,0-4.5-2-4.5-4.5V7.1c0-2.5,2-4.5,4.5-4.5h317.4c2.5,0,4.5,2,4.5,4.5
			v83.2C329,92.8,326.9,94.8,324.5,94.8z"/>
		<g id="XMLID_268_">
			<g id="XMLID_99_">
				<path id="XMLID_506_" class="st3" d="M240.1,430.3h-60.8c-8.2,0-14.9-6.7-14.9-14.9V349h2.8v66.4c0,6.7,5.4,12.1,12.1,12.1h60.8
					V430.3z"/>
			</g>
			<g id="XMLID_91_" class="st4">
				<path id="XMLID_505_" class="st5" d="M423,430.1H266.3v-2.8H423c6.7,0,12.1-5.4,12.1-12.1v-104h2.8v104
					C437.9,423.4,431.2,430.1,423,430.1z"/>
			</g>
			<g id="XMLID_48_">
				<g id="XMLID_55_">
					<circle id="XMLID_502_" class="st3" cx="165.8" cy="317.2" r="3.2"/>
				</g>
				<g id="XMLID_49_">
					<path id="XMLID_501_" class="st3" d="M182.9,297.1h-34.1c-1.6,0-2.9,1.3-2.9,2.9v46c0,1.6,1.3,2.9,2.9,2.9h34.1
						c1.6,0,2.9-1.3,2.9-2.9v-46C185.7,298.4,184.5,297.1,182.9,297.1z M150.7,299.6c1.2,0,2.2,0.9,2.2,2.2c0,1.2-0.9,2.2-2.2,2.2
						s-2.2-0.9-2.2-2.2C148.5,300.6,149.5,299.6,150.7,299.6z M167.1,332.2c-0.5,0.1-0.9-0.5-0.8-1l2.4-7c0.3-0.7-0.7-1.3-1.2-0.7
						l-7.2,7.3c-0.2,0.2-0.6,0.3-0.9,0.1c-5.1-2.3-8.8-7.6-8.8-13.7c0-8,6.3-14.7,14.3-15.2c8.8-0.4,16,6.5,16,15.1
						C180.9,325,174.9,331.5,167.1,332.2z M180.3,346.3c-1.2,0-2.2-0.9-2.2-2.2c0-1.2,0.9-2.2,2.2-2.2s2.2,0.9,2.2,2.2
						C182.5,345.4,181.5,346.3,180.3,346.3z M180.3,304c-1.2,0-2.2-0.9-2.2-2.2c0-1.2,0.9-2.2,2.2-2.2s2.2,0.9,2.2,2.2
						C182.5,303,181.5,304,180.3,304z"/>
				</g>
			</g>
			<g id="XMLID_56_">
				<g id="XMLID_47_">
					<path id="XMLID_299_" d="M273.2,403H239c-1.6,0-2.9,1.3-2.9,2.9v46c0,1.6,1.3,2.9,2.9,2.9h34.1c1.6,0,2.9-1.3,2.9-2.9v-46
						C276,404.3,274.8,403,273.2,403z"/>
				</g>
				<g id="XMLID_46_">
					<rect id="XMLID_1069_" x="238.8" y="448.5" class="st6" width="3.6" height="3.6"/>
				</g>
				<g id="XMLID_45_">
					<rect id="XMLID_1067_" x="271.5" y="448.5" class="st6" width="1.8" height="3.6"/>
				</g>
				<g id="XMLID_44_">
					<rect id="XMLID_1065_" x="268.6" y="448.5" class="st6" width="1.8" height="3.6"/>
				</g>
				<g id="XMLID_43_">
					<rect id="XMLID_1063_" x="265.6" y="448.5" class="st6" width="1.8" height="3.6"/>
				</g>
				<g id="XMLID_42_">
					<rect id="XMLID_1061_" x="262.7" y="448.5" class="st6" width="1.8" height="3.6"/>
				</g>
				<g id="XMLID_41_">
					<rect id="XMLID_500_" x="235" y="445" class="st6" width="41" height="1"/>
				</g>
			</g>
			<g id="XMLID_88_">
				<path id="XMLID_494_" d="M69.9,164.4l-0.4-3.5h-3l-0.3,3.5h-4.3l3.1-23.7h6.5l3.1,23.7H69.9z M66.9,156.8H69l-1-10.3L66.9,156.8
					z"/>
			</g>
			<g id="XMLID_22_">
				<g id="XMLID_83_">
					<path id="XMLID_495_" class="st3" d="M132.7,278.7H66.2c-3.6,0-6.5-2.9-6.5-6.5v-59.5c0-3.6,2.9-6.5,6.5-6.5h66.4
						c3.6,0,6.5,2.9,6.5,6.5v59.5C139.1,275.8,136.2,278.7,132.7,278.7z M66.2,209c-2,0-3.7,1.6-3.7,3.7v59.5c0,2,1.6,3.7,3.7,3.7
						h66.4c2,0,3.7-1.6,3.7-3.7v-59.5c0-2-1.6-3.7-3.7-3.7H66.2z"/>
				</g>
				<g id="XMLID_255_">
					<path id="XMLID_319_" class="st6" d="M67.9,213.8v3.1h-0.5v-0.7c-0.2,0.3-0.3,0.4-0.6,0.6c-0.2,0.1-0.4,0.2-0.6,0.2
						c-0.2,0-0.3,0-0.5-0.1c-0.1-0.1-0.3-0.2-0.3-0.4c-0.1-0.2-0.1-0.5-0.1-0.9v-1.7h0.5v1.8c0,0.3,0,0.5,0,0.6
						c0,0.1,0.1,0.2,0.2,0.2c0.1,0.1,0.2,0.1,0.2,0.1c0.2,0,0.4-0.1,0.6-0.3c0.2-0.2,0.4-0.4,0.5-0.6v-1.8H67.9z"/>
					<path id="XMLID_321_" class="st6" d="M68.7,216.7v-0.5c0.2,0.1,0.4,0.2,0.7,0.3c0.2,0.1,0.4,0.1,0.6,0.1c0.3,0,0.4,0,0.6-0.1
						c0.1-0.1,0.2-0.2,0.2-0.3c0-0.1,0-0.2-0.1-0.2c-0.1-0.1-0.2-0.1-0.4-0.2l-0.2-0.1l-0.4-0.1c-0.4-0.1-0.6-0.3-0.7-0.4
						c-0.1-0.1-0.2-0.3-0.2-0.5c0-0.3,0.1-0.5,0.3-0.6c0.2-0.2,0.5-0.2,1-0.2c0.3,0,0.6,0,0.9,0.1v0.5c-0.3-0.1-0.7-0.2-1-0.2
						c-0.2,0-0.4,0-0.5,0.1c-0.1,0.1-0.2,0.2-0.2,0.3c0,0.1,0.1,0.2,0.2,0.3c0.1,0.1,0.3,0.1,0.5,0.2l0.3,0.1
						c0.3,0.1,0.5,0.2,0.7,0.4c0.1,0.1,0.2,0.3,0.2,0.5c0,0.3-0.1,0.5-0.3,0.7c-0.2,0.2-0.5,0.3-1,0.3
						C69.6,216.9,69.2,216.9,68.7,216.7z"/>
					<path id="XMLID_323_" class="st6" d="M74.7,216.7c-0.4,0.2-0.8,0.3-1.2,0.3c-0.3,0-0.5-0.1-0.7-0.2c-0.2-0.1-0.4-0.3-0.5-0.6
						c-0.1-0.3-0.2-0.5-0.2-0.8c0-0.3,0.1-0.6,0.2-0.8c0.1-0.3,0.3-0.5,0.5-0.6c0.2-0.1,0.5-0.2,0.7-0.2c0.4,0,0.7,0.1,0.9,0.4
						c0.2,0.3,0.3,0.7,0.3,1.2v0.1h-2.1c0,0.2,0,0.4,0.1,0.6c0.1,0.2,0.2,0.3,0.4,0.4c0.1,0.1,0.3,0.1,0.5,0.1
						c0.3,0,0.7-0.1,1.1-0.3V216.7z M72.6,215h1.5v-0.1c0-0.3-0.1-0.5-0.2-0.6c-0.1-0.1-0.3-0.2-0.5-0.2c-0.2,0-0.4,0.1-0.5,0.2
						C72.8,214.5,72.7,214.7,72.6,215z"/>
					<path id="XMLID_326_" class="st6" d="M75.7,216.9v-3.1h0.5v0.7c0.2-0.3,0.3-0.4,0.5-0.6c0.2-0.1,0.4-0.2,0.7-0.2
						c0.2,0,0.4,0,0.6,0.1v1.1h-0.5v-0.7c-0.1,0-0.2,0-0.2,0c-0.2,0-0.4,0.1-0.6,0.2c-0.2,0.2-0.4,0.4-0.5,0.7v1.8H75.7z"/>
					<path id="XMLID_328_" class="st6" d="M80.1,214.6c-0.1,0-0.2,0-0.3-0.1s-0.1-0.2-0.1-0.3c0-0.1,0-0.2,0.1-0.3
						c0.1-0.1,0.2-0.1,0.3-0.1s0.2,0,0.3,0.1c0.1,0.1,0.1,0.2,0.1,0.3c0,0.1,0,0.2-0.1,0.3S80.3,214.6,80.1,214.6z M80.1,217
						c-0.1,0-0.2,0-0.3-0.1c-0.1-0.1-0.1-0.2-0.1-0.3c0-0.1,0-0.2,0.1-0.3c0.1-0.1,0.2-0.1,0.3-0.1s0.2,0,0.3,0.1
						c0.1,0.1,0.1,0.2,0.1,0.3c0,0.1,0,0.2-0.1,0.3C80.4,216.9,80.3,217,80.1,217z"/>
					<path id="XMLID_331_" class="st6" d="M82,215.7L82,215.7c0-0.3,0.1-0.5,0.2-0.7c0.1-0.2,0.3-0.3,0.6-0.3c0.1,0,0.1,0,0.2,0
						c0.1,0,0.1,0,0.2,0.1c0.1,0,0.2,0.1,0.3,0.2l0.3,0.2c0.2,0.1,0.4,0.2,0.5,0.2c0.1,0,0.2,0,0.3-0.1c0.1-0.1,0.1-0.2,0.1-0.3v0
						h0.3v0c0,0.3-0.1,0.5-0.3,0.7c-0.2,0.1-0.4,0.2-0.6,0.2c-0.2,0-0.4-0.1-0.7-0.3l-0.3-0.2c-0.2-0.1-0.4-0.2-0.5-0.2
						c-0.1,0-0.1,0-0.2,0.1c-0.1,0-0.1,0.1-0.2,0.2c0,0.1-0.1,0.2-0.1,0.2v0H82z"/>
					<path id="XMLID_333_" class="st6" d="M89.5,214.5c0.2-0.3,0.3-0.5,0.6-0.6c0.2-0.1,0.4-0.2,0.6-0.2c0.3,0,0.5,0.1,0.7,0.3
						c0.2,0.2,0.3,0.6,0.3,1c0,0.4-0.1,0.7-0.2,1s-0.3,0.5-0.5,0.7c-0.2,0.2-0.5,0.2-0.8,0.2c-0.1,0-0.2,0-0.4,0c0,0-0.1,0-0.1,0H89
						v-4.4h0.5V214.5z M89.5,215.1v1.3c0.2,0,0.4,0.1,0.5,0.1c0.3,0,0.6-0.1,0.8-0.4c0.2-0.2,0.3-0.6,0.3-1c0-0.3-0.1-0.5-0.2-0.7
						c-0.1-0.2-0.2-0.2-0.4-0.2c-0.2,0-0.3,0.1-0.5,0.2C89.8,214.6,89.7,214.8,89.5,215.1z"/>
					<path id="XMLID_336_" class="st6" d="M93.2,216.9v-4h-0.9v-0.4h1.4v4h1v0.4H93.2z"/>
					<path id="XMLID_338_" class="st6" d="M97.8,216.2c-0.2,0.3-0.3,0.4-0.6,0.6c-0.2,0.1-0.4,0.2-0.6,0.2c-0.3,0-0.5-0.1-0.7-0.3
						c-0.2-0.2-0.3-0.6-0.3-1c0-0.4,0.1-0.7,0.2-1c0.1-0.3,0.3-0.5,0.5-0.7c0.2-0.2,0.5-0.2,0.8-0.2c0.1,0,0.2,0,0.4,0
						c0,0,0.1,0,0.1,0h0.5v2.2c0,0.4,0,0.7,0.1,0.9h-0.5C97.9,216.7,97.8,216.5,97.8,216.2z M97.8,215.6v-1.3
						c-0.2,0-0.4-0.1-0.5-0.1c-0.3,0-0.6,0.1-0.8,0.4c-0.2,0.2-0.3,0.6-0.3,1c0,0.3,0.1,0.5,0.2,0.7c0.1,0.2,0.2,0.2,0.4,0.2
						c0.2,0,0.3-0.1,0.5-0.2C97.5,216,97.7,215.8,97.8,215.6z"/>
					<path id="XMLID_341_" class="st6" d="M99.2,216.9v-4.4h0.5v2c0.1-0.2,0.3-0.4,0.5-0.6c0.2-0.1,0.4-0.2,0.6-0.2
						c0.2,0,0.3,0,0.5,0.1s0.2,0.2,0.3,0.3c0,0.1,0.1,0.2,0.1,0.3c0,0.1,0,0.3,0,0.7v1.7h-0.5v-1.8c0-0.3,0-0.5,0-0.6
						c0-0.1-0.1-0.2-0.2-0.2c-0.1-0.1-0.2-0.1-0.2-0.1c-0.2,0-0.4,0.1-0.6,0.3c-0.2,0.2-0.4,0.4-0.5,0.6v1.8H99.2z"/>
					<path id="XMLID_343_" class="st6" d="M103.7,217.3v-0.4c-0.1,0-0.3,0-0.4,0c-0.1,0-0.3,0-0.4-0.1c-0.1,0-0.3-0.1-0.4-0.1v-0.5
						c0.1,0.1,0.2,0.1,0.4,0.2c0.1,0,0.2,0.1,0.4,0.1c0.1,0,0.3,0,0.4,0.1v-1.5l-0.3-0.2c-0.6-0.3-0.8-0.7-0.8-1.1
						c0-0.2,0.1-0.4,0.3-0.7c0.2-0.2,0.5-0.3,0.9-0.4v-0.5h0.4v0.5c0.2,0,0.5,0,0.8,0.1v0.5l-0.1,0c-0.3-0.1-0.5-0.1-0.7-0.1v1.5
						l0.3,0.2c0.3,0.2,0.5,0.3,0.6,0.5c0.1,0.2,0.2,0.3,0.2,0.5c0,0.2,0,0.3-0.1,0.5c-0.1,0.2-0.2,0.3-0.4,0.4
						c-0.2,0.1-0.4,0.2-0.6,0.2v0.5H103.7z M103.7,214.3V213c-0.2,0-0.3,0.1-0.4,0.2c-0.1,0.1-0.2,0.2-0.2,0.3c0,0.1,0,0.2,0.1,0.4
						C103.4,214,103.5,214.2,103.7,214.3z M104.1,215.1v1.3c0.2-0.1,0.3-0.2,0.4-0.3c0.1-0.1,0.1-0.2,0.1-0.3c0-0.1,0-0.2-0.1-0.3
						C104.5,215.4,104.3,215.3,104.1,215.1z"/>
					<path id="XMLID_347_" class="st6" d="M67.9,223.5c-0.2,0.1-0.4,0.2-0.5,0.2c-0.1,0-0.2,0-0.3,0c-0.2,0-0.4,0-0.6-0.1
						c-0.2-0.1-0.3-0.2-0.4-0.4c-0.1-0.2-0.1-0.4-0.1-0.7v-1.2h-0.8v-0.4h0.8v-1.2h0.5v1.2h1.4v0.4h-1.4v1.2c0,0.2,0,0.4,0.1,0.5
						c0.1,0.1,0.1,0.2,0.2,0.2c0.1,0,0.2,0.1,0.3,0.1c0.2,0,0.5-0.1,0.8-0.2V223.5z"/>
					<path id="XMLID_349_" class="st6" d="M68.7,223.6v-4.4h0.5v2c0.1-0.2,0.3-0.4,0.5-0.6c0.2-0.1,0.4-0.2,0.6-0.2
						c0.2,0,0.3,0,0.5,0.1c0.1,0.1,0.2,0.2,0.3,0.3c0,0.1,0.1,0.2,0.1,0.3s0,0.3,0,0.7v1.7h-0.5v-1.8c0-0.3,0-0.5,0-0.6
						c0-0.1-0.1-0.2-0.2-0.2c-0.1-0.1-0.2-0.1-0.3-0.1c-0.2,0-0.4,0.1-0.6,0.3c-0.2,0.2-0.4,0.4-0.5,0.6v1.8H68.7z"/>
					<path id="XMLID_351_" class="st6" d="M73,223.6V221h-0.9v-0.4h1.4v2.6h0.9v0.4H73z M72.9,219.4c0-0.1,0-0.2,0.1-0.3
						c0.1-0.1,0.2-0.1,0.2-0.1c0.1,0,0.1,0,0.2,0.1c0.1,0.1,0.1,0.1,0.1,0.3c0,0.1,0,0.2-0.1,0.3c-0.1,0.1-0.2,0.1-0.2,0.1
						c-0.1,0-0.1,0-0.2-0.1C72.9,219.6,72.9,219.6,72.9,219.4z"/>
					<path id="XMLID_354_" class="st6" d="M75.5,223.5v-0.5c0.2,0.1,0.4,0.2,0.7,0.3c0.2,0.1,0.4,0.1,0.6,0.1c0.3,0,0.4,0,0.6-0.1
						c0.1-0.1,0.2-0.2,0.2-0.3c0-0.1,0-0.2-0.1-0.2c-0.1-0.1-0.2-0.1-0.4-0.2l-0.2-0.1l-0.4-0.1c-0.4-0.1-0.6-0.3-0.7-0.4
						c-0.1-0.1-0.2-0.3-0.2-0.5c0-0.3,0.1-0.5,0.3-0.6c0.2-0.2,0.5-0.2,1-0.2c0.3,0,0.6,0,0.9,0.1v0.5c-0.3-0.1-0.7-0.2-1-0.2
						c-0.2,0-0.4,0-0.5,0.1c-0.1,0.1-0.2,0.2-0.2,0.3c0,0.1,0.1,0.2,0.2,0.3c0.1,0.1,0.3,0.1,0.5,0.2l0.3,0.1
						c0.3,0.1,0.5,0.2,0.7,0.4c0.1,0.1,0.2,0.3,0.2,0.5c0,0.3-0.1,0.5-0.3,0.7c-0.2,0.2-0.5,0.3-1,0.3
						C76.3,223.7,75.9,223.6,75.5,223.5z"/>
					<path id="XMLID_356_" class="st6" d="M83.1,223.6V221h-0.9v-0.4h1.4v2.6h0.9v0.4H83.1z M83,219.4c0-0.1,0-0.2,0.1-0.3
						c0.1-0.1,0.2-0.1,0.2-0.1c0.1,0,0.1,0,0.2,0.1c0.1,0.1,0.1,0.1,0.1,0.3c0,0.1,0,0.2-0.1,0.3c-0.1,0.1-0.2,0.1-0.2,0.1
						c-0.1,0-0.1,0-0.2-0.1C83.1,219.6,83,219.6,83,219.4z"/>
					<path id="XMLID_359_" class="st6" d="M85.7,223.5v-0.5c0.2,0.1,0.4,0.2,0.7,0.3c0.2,0.1,0.4,0.1,0.6,0.1c0.3,0,0.4,0,0.6-0.1
						c0.1-0.1,0.2-0.2,0.2-0.3c0-0.1,0-0.2-0.1-0.2c-0.1-0.1-0.2-0.1-0.4-0.2l-0.2-0.1l-0.4-0.1c-0.4-0.1-0.6-0.3-0.7-0.4
						c-0.1-0.1-0.2-0.3-0.2-0.5c0-0.3,0.1-0.5,0.3-0.6c0.2-0.2,0.5-0.2,1-0.2c0.3,0,0.6,0,0.9,0.1v0.5c-0.3-0.1-0.7-0.2-1-0.2
						c-0.2,0-0.4,0-0.5,0.1c-0.1,0.1-0.2,0.2-0.2,0.3c0,0.1,0.1,0.2,0.2,0.3c0.1,0.1,0.3,0.1,0.5,0.2l0.3,0.1
						c0.3,0.1,0.5,0.2,0.7,0.4c0.1,0.1,0.2,0.3,0.2,0.5c0,0.3-0.1,0.5-0.3,0.7c-0.2,0.2-0.5,0.3-1,0.3
						C86.5,223.7,86.1,223.6,85.7,223.5z"/>
					<path id="XMLID_361_" class="st6" d="M95,223.5c-0.2,0.1-0.4,0.2-0.5,0.2c-0.1,0-0.2,0-0.3,0c-0.2,0-0.4,0-0.6-0.1
						c-0.2-0.1-0.3-0.2-0.4-0.4c-0.1-0.2-0.1-0.4-0.1-0.7v-1.2h-0.8v-0.4H93v-1.2h0.5v1.2h1.4v0.4h-1.4v1.2c0,0.2,0,0.4,0.1,0.5
						c0.1,0.1,0.1,0.2,0.2,0.2c0.1,0,0.2,0.1,0.3,0.1c0.2,0,0.5-0.1,0.8-0.2V223.5z"/>
					<path id="XMLID_363_" class="st6" d="M95.8,223.6v-4.4h0.5v2c0.1-0.2,0.3-0.4,0.5-0.6c0.2-0.1,0.4-0.2,0.6-0.2
						c0.2,0,0.3,0,0.5,0.1c0.1,0.1,0.2,0.2,0.3,0.3c0,0.1,0.1,0.2,0.1,0.3s0,0.3,0,0.7v1.7h-0.5v-1.8c0-0.3,0-0.5,0-0.6
						c0-0.1-0.1-0.2-0.2-0.2c-0.1-0.1-0.2-0.1-0.3-0.1c-0.2,0-0.4,0.1-0.6,0.3c-0.2,0.2-0.4,0.4-0.5,0.6v1.8H95.8z"/>
					<path id="XMLID_365_" class="st6" d="M101.7,223.4c-0.4,0.2-0.8,0.3-1.2,0.3c-0.3,0-0.5-0.1-0.7-0.2c-0.2-0.1-0.4-0.3-0.5-0.6
						c-0.1-0.3-0.2-0.5-0.2-0.8c0-0.3,0.1-0.6,0.2-0.8c0.1-0.3,0.3-0.5,0.5-0.6c0.2-0.1,0.5-0.2,0.7-0.2c0.4,0,0.7,0.1,0.9,0.4
						c0.2,0.3,0.3,0.7,0.3,1.2v0.1h-2.1c0,0.2,0,0.4,0.1,0.6c0.1,0.2,0.2,0.3,0.4,0.4c0.1,0.1,0.3,0.1,0.5,0.1
						c0.3,0,0.7-0.1,1.1-0.3V223.4z M99.7,221.8h1.5v-0.1c0-0.3-0.1-0.5-0.2-0.6c-0.1-0.1-0.3-0.2-0.5-0.2c-0.2,0-0.4,0.1-0.5,0.2
						C99.9,221.3,99.8,221.5,99.7,221.8z"/>
					<path id="XMLID_368_" class="st6" d="M108.5,223.5c-0.2,0.1-0.4,0.2-0.5,0.2c-0.1,0-0.2,0-0.3,0c-0.2,0-0.4,0-0.6-0.1
						c-0.2-0.1-0.3-0.2-0.4-0.4c-0.1-0.2-0.1-0.4-0.1-0.7v-1.2h-0.8v-0.4h0.8v-1.2h0.5v1.2h1.4v0.4h-1.4v1.2c0,0.2,0,0.4,0.1,0.5
						c0.1,0.1,0.1,0.2,0.2,0.2c0.1,0,0.2,0.1,0.3,0.1c0.2,0,0.5-0.1,0.8-0.2V223.5z"/>
					<path id="XMLID_370_" class="st6" d="M111.9,223.4c-0.4,0.2-0.8,0.3-1.2,0.3c-0.3,0-0.5-0.1-0.7-0.2c-0.2-0.1-0.4-0.3-0.5-0.6
						c-0.1-0.3-0.2-0.5-0.2-0.8c0-0.3,0.1-0.6,0.2-0.8c0.1-0.3,0.3-0.5,0.5-0.6c0.2-0.1,0.5-0.2,0.7-0.2c0.4,0,0.7,0.1,0.9,0.4
						c0.2,0.3,0.3,0.7,0.3,1.2v0.1h-2.1c0,0.2,0,0.4,0.1,0.6c0.1,0.2,0.2,0.3,0.4,0.4c0.1,0.1,0.3,0.1,0.5,0.1
						c0.3,0,0.7-0.1,1.1-0.3V223.4z M109.8,221.8h1.5v-0.1c0-0.3-0.1-0.5-0.2-0.6c-0.1-0.1-0.3-0.2-0.5-0.2c-0.2,0-0.4,0.1-0.5,0.2
						C110,221.3,109.9,221.5,109.8,221.8z"/>
					<path id="XMLID_373_" class="st6" d="M113,223.6v-3.1h0.5v0.7c0.2-0.3,0.3-0.4,0.5-0.6c0.2-0.1,0.4-0.2,0.7-0.2
						c0.2,0,0.4,0,0.6,0.1v1.1h-0.5V221c-0.1,0-0.2,0-0.2,0c-0.2,0-0.4,0.1-0.6,0.2c-0.2,0.2-0.4,0.4-0.5,0.7v1.8H113z"/>
					<path id="XMLID_375_" class="st6" d="M115.9,223.6v-3.1h0.4v0.7c0.1-0.3,0.3-0.5,0.4-0.6c0.1-0.1,0.2-0.2,0.4-0.2
						c0.1,0,0.3,0.1,0.4,0.2c0.1,0.1,0.1,0.3,0.1,0.5v0.2c0.1-0.2,0.1-0.3,0.2-0.5c0.1-0.1,0.2-0.2,0.3-0.3c0.1-0.1,0.2-0.1,0.3-0.1
						c0.1,0,0.2,0.1,0.3,0.2c0.1,0.1,0.1,0.3,0.1,0.7v2.3h-0.4v-2.1c0-0.2,0-0.3,0-0.4c0-0.1,0-0.1-0.1-0.1c0,0-0.1,0-0.1,0
						c-0.1,0-0.2,0.1-0.3,0.2c-0.1,0.1-0.2,0.4-0.3,0.7v1.7h-0.4v-2.1c0-0.3,0-0.4-0.1-0.5c-0.1,0-0.1-0.1-0.1-0.1
						c-0.1,0-0.2,0.1-0.3,0.2c-0.1,0.2-0.2,0.4-0.3,0.6v1.8H115.9z"/>
					<path id="XMLID_377_" class="st6" d="M120.3,223.6V221h-0.9v-0.4h1.4v2.6h0.9v0.4H120.3z M120.3,219.4c0-0.1,0-0.2,0.1-0.3
						c0.1-0.1,0.2-0.1,0.2-0.1c0.1,0,0.1,0,0.2,0.1c0.1,0.1,0.1,0.1,0.1,0.3c0,0.1,0,0.2-0.1,0.3c-0.1,0.1-0.2,0.1-0.2,0.1
						c-0.1,0-0.1,0-0.2-0.1C120.3,219.6,120.3,219.6,120.3,219.4z"/>
					<path id="XMLID_380_" class="st6" d="M122.9,223.6v-3.1h0.5v0.7c0.1-0.2,0.3-0.4,0.5-0.6c0.2-0.1,0.4-0.2,0.6-0.2
						c0.2,0,0.3,0,0.5,0.1c0.1,0.1,0.3,0.2,0.3,0.4c0.1,0.2,0.1,0.5,0.1,0.9v1.7h-0.5v-1.8c0-0.3,0-0.5,0-0.6c0-0.1-0.1-0.2-0.2-0.2
						c-0.1-0.1-0.2-0.1-0.3-0.1c-0.2,0-0.4,0.1-0.6,0.3c-0.2,0.2-0.4,0.4-0.5,0.6v1.8H122.9z"/>
					<path id="XMLID_382_" class="st6" d="M128.3,222.9c-0.2,0.3-0.3,0.4-0.6,0.6c-0.2,0.1-0.4,0.2-0.6,0.2c-0.3,0-0.5-0.1-0.7-0.3
						c-0.2-0.2-0.3-0.6-0.3-1c0-0.4,0.1-0.7,0.2-1c0.1-0.3,0.3-0.5,0.5-0.7c0.2-0.2,0.5-0.2,0.8-0.2c0.1,0,0.2,0,0.4,0
						c0,0,0.1,0,0.1,0h0.5v2.2c0,0.4,0,0.7,0.1,0.9h-0.5C128.3,223.5,128.3,223.2,128.3,222.9z M128.3,222.3V221
						c-0.2,0-0.4-0.1-0.5-0.1c-0.3,0-0.6,0.1-0.8,0.4c-0.2,0.2-0.3,0.6-0.3,1c0,0.3,0.1,0.5,0.2,0.7c0.1,0.2,0.2,0.2,0.4,0.2
						c0.2,0,0.3-0.1,0.5-0.2C128,222.8,128.1,222.6,128.3,222.3z"/>
					<path id="XMLID_385_" class="st6" d="M130.5,223.6v-4h-0.9v-0.4h1.4v4h1v0.4H130.5z"/>
					<path id="XMLID_387_" class="st6" d="M67.9,230.3c-0.2,0.1-0.4,0.2-0.5,0.2c-0.1,0-0.2,0-0.3,0c-0.2,0-0.4,0-0.6-0.1
						c-0.2-0.1-0.3-0.2-0.4-0.4c-0.1-0.2-0.1-0.4-0.1-0.7V228h-0.8v-0.4h0.8v-1.2h0.5v1.2h1.4v0.4h-1.4v1.2c0,0.2,0,0.4,0.1,0.5
						c0.1,0.1,0.1,0.2,0.2,0.2c0.1,0,0.2,0.1,0.3,0.1c0.2,0,0.5-0.1,0.8-0.2V230.3z"/>
					<path id="XMLID_389_" class="st6" d="M68.7,230.4V226h0.5v2c0.1-0.2,0.3-0.4,0.5-0.6c0.2-0.1,0.4-0.2,0.6-0.2
						c0.2,0,0.3,0,0.5,0.1c0.1,0.1,0.2,0.2,0.3,0.3c0,0.1,0.1,0.2,0.1,0.3s0,0.3,0,0.7v1.7h-0.5v-1.8c0-0.3,0-0.5,0-0.6
						c0-0.1-0.1-0.2-0.2-0.2c-0.1-0.1-0.2-0.1-0.3-0.1c-0.2,0-0.4,0.1-0.6,0.3c-0.2,0.2-0.4,0.4-0.5,0.6v1.8H68.7z"/>
					<path id="XMLID_391_" class="st6" d="M73,230.4v-2.6h-0.9v-0.4h1.4v2.6h0.9v0.4H73z M72.9,226.2c0-0.1,0-0.2,0.1-0.3
						c0.1-0.1,0.2-0.1,0.2-0.1c0.1,0,0.1,0,0.2,0.1c0.1,0.1,0.1,0.1,0.1,0.3c0,0.1,0,0.2-0.1,0.3c-0.1,0.1-0.2,0.1-0.2,0.1
						c-0.1,0-0.1,0-0.2-0.1C72.9,226.4,72.9,226.3,72.9,226.2z"/>
					<path id="XMLID_394_" class="st6" d="M75.5,230.4v-3.1H76v0.7c0.1-0.2,0.3-0.4,0.5-0.6c0.2-0.1,0.4-0.2,0.6-0.2
						c0.2,0,0.3,0,0.5,0.1c0.1,0.1,0.3,0.2,0.3,0.4c0.1,0.2,0.1,0.5,0.1,0.9v1.7h-0.5v-1.8c0-0.3,0-0.5,0-0.6c0-0.1-0.1-0.2-0.2-0.2
						c-0.1-0.1-0.2-0.1-0.3-0.1c-0.2,0-0.4,0.1-0.6,0.3c-0.2,0.2-0.4,0.4-0.5,0.6v1.8H75.5z"/>
					<path id="XMLID_396_" class="st6" d="M80.9,229.7c-0.2,0.3-0.3,0.5-0.6,0.6c-0.2,0.1-0.4,0.2-0.6,0.2c-0.3,0-0.5-0.1-0.7-0.3
						c-0.2-0.2-0.3-0.6-0.3-1c0-0.4,0.1-0.7,0.2-1c0.1-0.3,0.3-0.5,0.5-0.7c0.2-0.2,0.5-0.2,0.8-0.2c0.1,0,0.2,0,0.4,0
						c0,0,0.1,0,0.1,0h0.5v2.2c0,0.5,0,0.8,0,0.9c0,0.1,0,0.2-0.1,0.3c-0.1,0.3-0.2,0.5-0.5,0.6c-0.3,0.2-0.6,0.2-0.9,0.2
						c-0.4,0-0.8-0.1-1.1-0.3v-0.5c0.1,0.1,0.3,0.2,0.5,0.3c0.2,0.1,0.4,0.1,0.6,0.1c0.2,0,0.3,0,0.4-0.1c0.1-0.1,0.3-0.1,0.3-0.2
						c0.1-0.1,0.1-0.2,0.2-0.3c0-0.1,0-0.3,0-0.5V229.7z M80.9,229.1v-1.3c-0.2,0-0.4-0.1-0.5-0.1c-0.3,0-0.6,0.1-0.8,0.4
						c-0.2,0.2-0.3,0.6-0.3,1c0,0.3,0.1,0.5,0.2,0.7c0.1,0.2,0.2,0.2,0.4,0.2c0.2,0,0.3-0.1,0.5-0.2
						C80.6,229.6,80.8,229.4,80.9,229.1z"/>
					<path id="XMLID_399_" class="st6" d="M82.3,230.2v-0.5c0.2,0.1,0.4,0.2,0.7,0.3c0.2,0.1,0.4,0.1,0.6,0.1c0.3,0,0.4,0,0.6-0.1
						c0.1-0.1,0.2-0.2,0.2-0.3c0-0.1,0-0.2-0.1-0.2c-0.1-0.1-0.2-0.1-0.4-0.2l-0.2-0.1l-0.4-0.1c-0.4-0.1-0.6-0.3-0.7-0.4
						c-0.1-0.1-0.2-0.3-0.2-0.5c0-0.3,0.1-0.5,0.3-0.6c0.2-0.2,0.5-0.2,1-0.2c0.3,0,0.6,0,0.9,0.1v0.5c-0.3-0.1-0.7-0.2-1-0.2
						c-0.2,0-0.4,0-0.5,0.1s-0.2,0.2-0.2,0.3c0,0.1,0.1,0.2,0.2,0.3c0.1,0.1,0.3,0.1,0.5,0.2l0.3,0.1c0.3,0.1,0.5,0.2,0.7,0.4
						c0.1,0.1,0.2,0.3,0.2,0.5c0,0.3-0.1,0.5-0.3,0.7c-0.2,0.2-0.5,0.3-1,0.3C83.1,230.5,82.7,230.4,82.3,230.2z"/>
					<path id="XMLID_401_" class="st6" d="M89.1,230.2v-0.5c0.2,0.1,0.4,0.2,0.7,0.3c0.2,0.1,0.4,0.1,0.6,0.1c0.3,0,0.4,0,0.6-0.1
						c0.1-0.1,0.2-0.2,0.2-0.3c0-0.1,0-0.2-0.1-0.2c-0.1-0.1-0.2-0.1-0.4-0.2l-0.2-0.1L90,229c-0.4-0.1-0.6-0.3-0.7-0.4
						c-0.1-0.1-0.2-0.3-0.2-0.5c0-0.3,0.1-0.5,0.3-0.6c0.2-0.2,0.5-0.2,1-0.2c0.3,0,0.6,0,0.9,0.1v0.5c-0.3-0.1-0.7-0.2-1-0.2
						c-0.2,0-0.4,0-0.5,0.1s-0.2,0.2-0.2,0.3c0,0.1,0.1,0.2,0.2,0.3c0.1,0.1,0.3,0.1,0.5,0.2l0.3,0.1c0.3,0.1,0.5,0.2,0.7,0.4
						c0.1,0.1,0.2,0.3,0.2,0.5c0,0.3-0.1,0.5-0.3,0.7c-0.2,0.2-0.5,0.3-1,0.3C89.9,230.5,89.5,230.4,89.1,230.2z"/>
					<path id="XMLID_403_" class="st6" d="M92.4,230.4V226h0.5v2c0.1-0.2,0.3-0.4,0.5-0.6c0.2-0.1,0.4-0.2,0.6-0.2
						c0.2,0,0.3,0,0.5,0.1c0.1,0.1,0.2,0.2,0.3,0.3c0,0.1,0.1,0.2,0.1,0.3s0,0.3,0,0.7v1.7h-0.5v-1.8c0-0.3,0-0.5,0-0.6
						c0-0.1-0.1-0.2-0.2-0.2c-0.1-0.1-0.2-0.1-0.2-0.1c-0.2,0-0.4,0.1-0.6,0.3c-0.2,0.2-0.4,0.4-0.5,0.6v1.8H92.4z"/>
					<path id="XMLID_405_" class="st6" d="M97.1,230.5c-0.4,0-0.8-0.2-1.1-0.5c-0.3-0.3-0.4-0.7-0.4-1.2c0-0.5,0.1-0.9,0.4-1.2
						c0.3-0.3,0.6-0.5,1.1-0.5c0.4,0,0.8,0.2,1.1,0.5c0.3,0.3,0.4,0.7,0.4,1.2c0,0.5-0.1,0.9-0.4,1.2
						C97.8,230.3,97.5,230.5,97.1,230.5z M97.1,230.1c0.3,0,0.5-0.1,0.7-0.3c0.2-0.2,0.2-0.5,0.2-0.9c0-0.4-0.1-0.7-0.2-0.9
						c-0.2-0.2-0.4-0.3-0.7-0.3c-0.3,0-0.5,0.1-0.7,0.3c-0.2,0.2-0.2,0.5-0.2,0.9c0,0.4,0.1,0.7,0.2,0.9
						C96.6,229.9,96.8,230.1,97.1,230.1z"/>
					<path id="XMLID_408_" class="st6" d="M99.3,230.4l-0.5-3.1h0.5l0.3,1.9l0.1,0.4l0.1-0.4l0.5-1.9h0.5l0.6,1.9l0.1,0.4l0.1-0.4
						l0.3-1.9h0.4l-0.5,3.1h-0.5l-0.6-2l-0.1-0.4h0l-0.1,0.4l-0.5,2H99.3z"/>
					<path id="XMLID_410_" class="st6" d="M108.5,227.3v3.1H108v-0.7c-0.2,0.3-0.3,0.4-0.6,0.6c-0.2,0.1-0.4,0.2-0.6,0.2
						c-0.2,0-0.3,0-0.5-0.1c-0.1-0.1-0.3-0.2-0.3-0.4c-0.1-0.2-0.1-0.5-0.1-0.9v-1.7h0.5v1.8c0,0.3,0,0.5,0,0.6
						c0,0.1,0.1,0.2,0.2,0.2c0.1,0.1,0.2,0.1,0.2,0.1c0.2,0,0.4-0.1,0.6-0.3c0.2-0.2,0.4-0.4,0.5-0.6v-1.8H108.5z"/>
					<path id="XMLID_412_" class="st6" d="M109.8,228c0.2-0.3,0.3-0.5,0.6-0.6c0.2-0.1,0.4-0.2,0.6-0.2c0.3,0,0.5,0.1,0.7,0.3
						c0.2,0.2,0.3,0.6,0.3,1c0,0.4-0.1,0.7-0.2,1c-0.1,0.3-0.3,0.5-0.5,0.7c-0.2,0.2-0.5,0.2-0.8,0.2c-0.1,0-0.2,0-0.4,0
						c0,0-0.1,0-0.1,0v1.2h-0.5v-4.3h0.5V228z M109.8,228.6v1.3c0.2,0,0.4,0.1,0.5,0.1c0.3,0,0.6-0.1,0.8-0.4c0.2-0.2,0.3-0.6,0.3-1
						c0-0.3-0.1-0.5-0.2-0.7s-0.2-0.2-0.4-0.2c-0.2,0-0.3,0.1-0.5,0.2C110.1,228.1,110,228.3,109.8,228.6z"/>
					<path id="XMLID_415_" class="st6" d="M116.1,230.4V226h0.5v2c0.1-0.2,0.3-0.4,0.5-0.6c0.2-0.1,0.4-0.2,0.6-0.2
						c0.2,0,0.3,0,0.5,0.1c0.1,0.1,0.2,0.2,0.3,0.3c0,0.1,0.1,0.2,0.1,0.3s0,0.3,0,0.7v1.7h-0.5v-1.8c0-0.3,0-0.5,0-0.6
						c0-0.1-0.1-0.2-0.2-0.2c-0.1-0.1-0.2-0.1-0.3-0.1c-0.2,0-0.4,0.1-0.6,0.3c-0.2,0.2-0.4,0.4-0.5,0.6v1.8H116.1z"/>
					<path id="XMLID_417_" class="st6" d="M122,230.2c-0.4,0.2-0.8,0.3-1.2,0.3c-0.3,0-0.5-0.1-0.7-0.2c-0.2-0.1-0.4-0.3-0.5-0.6
						c-0.1-0.3-0.2-0.5-0.2-0.8c0-0.3,0.1-0.6,0.2-0.8c0.1-0.3,0.3-0.5,0.5-0.6c0.2-0.1,0.5-0.2,0.7-0.2c0.4,0,0.7,0.1,0.9,0.4
						c0.2,0.3,0.3,0.7,0.3,1.2v0.1H120c0,0.2,0,0.4,0.1,0.6c0.1,0.2,0.2,0.3,0.4,0.4c0.1,0.1,0.3,0.1,0.5,0.1c0.3,0,0.7-0.1,1.1-0.3
						V230.2z M120,228.6h1.5v-0.1c0-0.3-0.1-0.5-0.2-0.6c-0.1-0.1-0.3-0.2-0.5-0.2c-0.2,0-0.4,0.1-0.5,0.2
						C120.2,228,120.1,228.3,120,228.6z"/>
					<path id="XMLID_420_" class="st6" d="M123.1,230.4v-3.1h0.5v0.7c0.2-0.3,0.3-0.4,0.5-0.6c0.2-0.1,0.4-0.2,0.7-0.2
						c0.2,0,0.4,0,0.6,0.1v1.1h-0.5v-0.7c-0.1,0-0.2,0-0.2,0c-0.2,0-0.4,0.1-0.6,0.2c-0.2,0.2-0.4,0.4-0.5,0.7v1.8H123.1z"/>
					<path id="XMLID_422_" class="st6" d="M128.8,230.2c-0.4,0.2-0.8,0.3-1.2,0.3c-0.3,0-0.5-0.1-0.7-0.2c-0.2-0.1-0.4-0.3-0.5-0.6
						c-0.1-0.3-0.2-0.5-0.2-0.8c0-0.3,0.1-0.6,0.2-0.8c0.1-0.3,0.3-0.5,0.5-0.6c0.2-0.1,0.5-0.2,0.7-0.2c0.4,0,0.7,0.1,0.9,0.4
						c0.2,0.3,0.3,0.7,0.3,1.2v0.1h-2.1c0,0.2,0,0.4,0.1,0.6c0.1,0.2,0.2,0.3,0.4,0.4c0.1,0.1,0.3,0.1,0.5,0.1
						c0.3,0,0.7-0.1,1.1-0.3V230.2z M126.8,228.6h1.5v-0.1c0-0.3-0.1-0.5-0.2-0.6c-0.1-0.1-0.3-0.2-0.5-0.2c-0.2,0-0.4,0.1-0.5,0.2
						C126.9,228,126.8,228.3,126.8,228.6z"/>
					<path id="XMLID_425_" class="st6" d="M67.4,236.5c-0.2,0.3-0.3,0.4-0.6,0.6s-0.4,0.2-0.6,0.2c-0.3,0-0.5-0.1-0.7-0.3
						c-0.2-0.2-0.3-0.6-0.3-1c0-0.4,0.1-0.7,0.2-1c0.1-0.3,0.3-0.5,0.5-0.7c0.2-0.2,0.5-0.2,0.8-0.2c0.1,0,0.2,0,0.4,0
						c0,0,0.1,0,0.1,0h0.5v2.2c0,0.4,0,0.7,0.1,0.9h-0.5C67.4,237,67.4,236.8,67.4,236.5z M67.4,235.9v-1.3c-0.2,0-0.4-0.1-0.5-0.1
						c-0.3,0-0.6,0.1-0.8,0.4s-0.3,0.6-0.3,1c0,0.3,0.1,0.5,0.2,0.7c0.1,0.2,0.2,0.2,0.4,0.2c0.2,0,0.3-0.1,0.5-0.2
						C67,236.4,67.2,236.1,67.4,235.9z"/>
					<path id="XMLID_428_" class="st6" d="M68.7,237.2v-3.1h0.5v0.7c0.1-0.2,0.3-0.4,0.5-0.6c0.2-0.1,0.4-0.2,0.6-0.2
						c0.2,0,0.3,0,0.5,0.1c0.1,0.1,0.3,0.2,0.3,0.4c0.1,0.2,0.1,0.5,0.1,0.9v1.7h-0.5v-1.8c0-0.3,0-0.5,0-0.6c0-0.1-0.1-0.2-0.2-0.2
						c-0.1-0.1-0.2-0.1-0.3-0.1c-0.2,0-0.4,0.1-0.6,0.3c-0.2,0.2-0.4,0.4-0.5,0.6v1.8H68.7z"/>
					<path id="XMLID_430_" class="st6" d="M74.2,236.5c-0.2,0.3-0.3,0.5-0.6,0.6c-0.2,0.1-0.4,0.2-0.6,0.2c-0.3,0-0.5-0.1-0.7-0.3
						c-0.2-0.2-0.3-0.6-0.3-1c0-0.4,0.1-0.7,0.2-1c0.1-0.3,0.3-0.5,0.5-0.7c0.2-0.2,0.5-0.2,0.8-0.2c0.1,0,0.2,0,0.4,0
						c0,0,0.1,0,0.1,0v-1.4h0.5v4.4h-0.5V236.5z M74.2,235.9v-1.3c-0.2,0-0.4-0.1-0.5-0.1c-0.3,0-0.6,0.1-0.8,0.4s-0.3,0.6-0.3,1
						c0,0.3,0.1,0.5,0.2,0.7c0.1,0.2,0.2,0.2,0.4,0.2c0.2,0,0.3-0.1,0.5-0.2C73.8,236.4,74,236.1,74.2,235.9z"/>
					<path id="XMLID_433_" class="st6" d="M84.3,236.5c-0.2,0.3-0.3,0.4-0.6,0.6c-0.2,0.1-0.4,0.2-0.6,0.2c-0.3,0-0.5-0.1-0.7-0.3
						c-0.2-0.2-0.3-0.6-0.3-1c0-0.4,0.1-0.7,0.2-1c0.1-0.3,0.3-0.5,0.5-0.7c0.2-0.2,0.5-0.2,0.8-0.2c0.1,0,0.2,0,0.4,0
						c0,0,0.1,0,0.1,0h0.5v2.2c0,0.4,0,0.7,0.1,0.9h-0.5C84.3,237,84.3,236.8,84.3,236.5z M84.3,235.9v-1.3c-0.2,0-0.4-0.1-0.5-0.1
						c-0.3,0-0.6,0.1-0.8,0.4c-0.2,0.2-0.3,0.6-0.3,1c0,0.3,0.1,0.5,0.2,0.7c0.1,0.2,0.2,0.2,0.4,0.2c0.2,0,0.3-0.1,0.5-0.2
						C84,236.4,84.1,236.1,84.3,235.9z"/>
					<path id="XMLID_436_" class="st6" d="M89.1,237v-0.5c0.2,0.1,0.4,0.2,0.7,0.3c0.2,0.1,0.4,0.1,0.6,0.1c0.3,0,0.4,0,0.6-0.1
						c0.1-0.1,0.2-0.2,0.2-0.3c0-0.1,0-0.2-0.1-0.2c-0.1-0.1-0.2-0.1-0.4-0.2l-0.2-0.1l-0.4-0.1c-0.4-0.1-0.6-0.3-0.7-0.4
						c-0.1-0.1-0.2-0.3-0.2-0.5c0-0.3,0.1-0.5,0.3-0.6c0.2-0.2,0.5-0.2,1-0.2c0.3,0,0.6,0,0.9,0.1v0.5c-0.3-0.1-0.7-0.2-1-0.2
						c-0.2,0-0.4,0-0.5,0.1c-0.1,0.1-0.2,0.2-0.2,0.3c0,0.1,0.1,0.2,0.2,0.3c0.1,0.1,0.3,0.1,0.5,0.2l0.3,0.1
						c0.3,0.1,0.5,0.2,0.7,0.4c0.1,0.1,0.2,0.3,0.2,0.5c0,0.3-0.1,0.5-0.3,0.7c-0.2,0.2-0.5,0.3-1,0.3
						C89.9,237.2,89.5,237.2,89.1,237z"/>
					<path id="XMLID_438_" class="st6" d="M95,237.1c-0.3,0.1-0.7,0.2-1,0.2c-0.3,0-0.6-0.1-0.8-0.2c-0.2-0.1-0.4-0.3-0.6-0.6
						c-0.1-0.2-0.2-0.5-0.2-0.8c0-0.5,0.2-0.9,0.5-1.2s0.7-0.5,1.1-0.5c0.3,0,0.7,0.1,1,0.2v0.5c-0.4-0.2-0.7-0.2-1-0.2
						c-0.2,0-0.4,0-0.5,0.1c-0.2,0.1-0.3,0.2-0.4,0.4c-0.1,0.2-0.1,0.4-0.1,0.6c0,0.3,0.1,0.5,0.3,0.8c0.2,0.3,0.4,0.4,0.8,0.4
						c0.1,0,0.2,0,0.3,0c0.1,0,0.3-0.1,0.6-0.2V237.1z"/>
					<path id="XMLID_440_" class="st6" d="M96.1,237.2v-3.1h0.5v0.7c0.2-0.3,0.3-0.4,0.5-0.6c0.2-0.1,0.4-0.2,0.7-0.2
						c0.2,0,0.4,0,0.6,0.1v1.1h-0.5v-0.7c-0.1,0-0.2,0-0.2,0c-0.2,0-0.4,0.1-0.6,0.2c-0.2,0.2-0.4,0.4-0.5,0.7v1.8H96.1z"/>
					<path id="XMLID_442_" class="st6" d="M100,237.2v-2.6h-0.9v-0.4h1.4v2.6h0.9v0.4H100z M100,233c0-0.1,0-0.2,0.1-0.3
						c0.1-0.1,0.2-0.1,0.2-0.1c0.1,0,0.1,0,0.2,0.1c0.1,0.1,0.1,0.1,0.1,0.3c0,0.1,0,0.2-0.1,0.3c-0.1,0.1-0.2,0.1-0.2,0.1
						c-0.1,0-0.1,0-0.2-0.1C100,233.2,100,233.1,100,233z"/>
					<path id="XMLID_445_" class="st6" d="M103,234.8c0.2-0.3,0.3-0.5,0.6-0.6c0.2-0.1,0.4-0.2,0.6-0.2c0.3,0,0.5,0.1,0.7,0.3
						c0.2,0.2,0.3,0.6,0.3,1c0,0.4-0.1,0.7-0.2,1c-0.1,0.3-0.3,0.5-0.5,0.7c-0.2,0.2-0.5,0.2-0.8,0.2c-0.1,0-0.2,0-0.4,0
						c0,0-0.1,0-0.1,0v1.2h-0.5v-4.3h0.5V234.8z M103,235.4v1.3c0.2,0,0.4,0.1,0.5,0.1c0.3,0,0.6-0.1,0.8-0.4c0.2-0.2,0.3-0.6,0.3-1
						c0-0.3-0.1-0.5-0.2-0.7c-0.1-0.2-0.2-0.2-0.4-0.2c-0.2,0-0.3,0.1-0.5,0.2C103.4,234.9,103.2,235.1,103,235.4z"/>
					<path id="XMLID_448_" class="st6" d="M108.5,237c-0.2,0.1-0.4,0.2-0.5,0.2c-0.1,0-0.2,0-0.3,0c-0.2,0-0.4,0-0.6-0.1
						c-0.2-0.1-0.3-0.2-0.4-0.4c-0.1-0.2-0.1-0.4-0.1-0.7v-1.2h-0.8v-0.4h0.8v-1.2h0.5v1.2h1.4v0.4h-1.4v1.2c0,0.2,0,0.4,0.1,0.5
						c0.1,0.1,0.1,0.2,0.2,0.2c0.1,0,0.2,0.1,0.3,0.1c0.2,0,0.5-0.1,0.8-0.2V237z"/>
					<path id="XMLID_450_" class="st6" d="M115.3,237c-0.2,0.1-0.4,0.2-0.5,0.2c-0.1,0-0.2,0-0.3,0c-0.2,0-0.4,0-0.6-0.1
						c-0.2-0.1-0.3-0.2-0.4-0.4c-0.1-0.2-0.1-0.4-0.1-0.7v-1.2h-0.8v-0.4h0.8v-1.2h0.5v1.2h1.4v0.4h-1.4v1.2c0,0.2,0,0.4,0.1,0.5
						c0.1,0.1,0.1,0.2,0.2,0.2c0.1,0,0.2,0.1,0.3,0.1c0.2,0,0.5-0.1,0.8-0.2V237z"/>
					<path id="XMLID_452_" class="st6" d="M118.7,237c-0.4,0.2-0.8,0.3-1.2,0.3c-0.3,0-0.5-0.1-0.7-0.2c-0.2-0.1-0.4-0.3-0.5-0.6
						c-0.1-0.3-0.2-0.5-0.2-0.8c0-0.3,0.1-0.6,0.2-0.8c0.1-0.3,0.3-0.5,0.5-0.6c0.2-0.1,0.5-0.2,0.7-0.2c0.4,0,0.7,0.1,0.9,0.4
						c0.2,0.3,0.3,0.7,0.3,1.2v0.1h-2.1c0,0.2,0,0.4,0.1,0.6c0.1,0.2,0.2,0.3,0.4,0.4c0.1,0.1,0.3,0.1,0.5,0.1
						c0.3,0,0.7-0.1,1.1-0.3V237z M116.6,235.3h1.5v-0.1c0-0.3-0.1-0.5-0.2-0.6c-0.1-0.1-0.3-0.2-0.5-0.2c-0.2,0-0.4,0.1-0.5,0.2
						C116.8,234.8,116.7,235,116.6,235.3z"/>
					<path id="XMLID_455_" class="st6" d="M120.3,237.2v-4h-0.9v-0.4h1.4v4h1v0.4H120.3z"/>
					<path id="XMLID_457_" class="st6" d="M123.7,237.2v-4h-0.9v-0.4h1.4v4h1v0.4H123.7z"/>
					<path id="XMLID_459_" class="st6" d="M126.3,237v-0.5c0.2,0.1,0.4,0.2,0.7,0.3c0.2,0.1,0.4,0.1,0.6,0.1c0.3,0,0.4,0,0.6-0.1
						c0.1-0.1,0.2-0.2,0.2-0.3c0-0.1,0-0.2-0.1-0.2c-0.1-0.1-0.2-0.1-0.4-0.2l-0.2-0.1l-0.4-0.1c-0.4-0.1-0.6-0.3-0.7-0.4
						c-0.1-0.1-0.2-0.3-0.2-0.5c0-0.3,0.1-0.5,0.3-0.6c0.2-0.2,0.5-0.2,1-0.2c0.3,0,0.6,0,0.9,0.1v0.5c-0.3-0.1-0.7-0.2-1-0.2
						c-0.2,0-0.4,0-0.5,0.1c-0.1,0.1-0.2,0.2-0.2,0.3c0,0.1,0.1,0.2,0.2,0.3c0.1,0.1,0.3,0.1,0.5,0.2l0.3,0.1
						c0.3,0.1,0.5,0.2,0.7,0.4c0.1,0.1,0.2,0.3,0.2,0.5c0,0.3-0.1,0.5-0.3,0.7c-0.2,0.2-0.5,0.3-1,0.3
						C127.1,237.2,126.7,237.2,126.3,237z"/>
					<path id="XMLID_461_" class="st6" d="M65.5,243.9l-0.5-3.1h0.5l0.3,1.9l0.1,0.4l0.1-0.4l0.5-1.9h0.5l0.6,1.9l0.1,0.4l0.1-0.4
						l0.3-1.9h0.4l-0.5,3.1h-0.5l-0.6-2l-0.1-0.4h0l-0.1,0.4l-0.5,2H65.5z"/>
					<path id="XMLID_463_" class="st6" d="M68.7,243.9v-4.4h0.5v2c0.1-0.2,0.3-0.4,0.5-0.6c0.2-0.1,0.4-0.2,0.6-0.2
						c0.2,0,0.3,0,0.5,0.1c0.1,0.1,0.2,0.2,0.3,0.3c0,0.1,0.1,0.2,0.1,0.3s0,0.3,0,0.7v1.7h-0.5v-1.8c0-0.3,0-0.5,0-0.6
						c0-0.1-0.1-0.2-0.2-0.2c-0.1-0.1-0.2-0.1-0.3-0.1c-0.2,0-0.4,0.1-0.6,0.3c-0.2,0.2-0.4,0.4-0.5,0.6v1.8H68.7z"/>
					<path id="XMLID_465_" class="st6" d="M74.1,243.2c-0.2,0.3-0.3,0.4-0.6,0.6c-0.2,0.1-0.4,0.2-0.6,0.2c-0.3,0-0.5-0.1-0.7-0.3
						c-0.2-0.2-0.3-0.6-0.3-1c0-0.4,0.1-0.7,0.2-1c0.1-0.3,0.3-0.5,0.5-0.7c0.2-0.2,0.5-0.2,0.8-0.2c0.1,0,0.2,0,0.4,0
						c0,0,0.1,0,0.1,0h0.5v2.2c0,0.4,0,0.7,0.1,0.9h-0.5C74.2,243.8,74.1,243.5,74.1,243.2z M74.1,242.6v-1.3
						c-0.2,0-0.4-0.1-0.5-0.1c-0.3,0-0.6,0.1-0.8,0.4c-0.2,0.2-0.3,0.6-0.3,1c0,0.3,0.1,0.5,0.2,0.7c0.1,0.2,0.2,0.2,0.4,0.2
						c0.2,0,0.3-0.1,0.5-0.2C73.8,243.1,74,242.9,74.1,242.6z"/>
					<path id="XMLID_468_" class="st6" d="M78.1,243.8c-0.2,0.1-0.4,0.2-0.5,0.2c-0.1,0-0.2,0-0.3,0c-0.2,0-0.4,0-0.6-0.1
						c-0.2-0.1-0.3-0.2-0.4-0.4c-0.1-0.2-0.1-0.4-0.1-0.7v-1.2h-0.8v-0.4h0.8v-1.2h0.5v1.2H78v0.4h-1.4v1.2c0,0.2,0,0.4,0.1,0.5
						c0.1,0.1,0.1,0.2,0.2,0.2c0.1,0,0.2,0.1,0.3,0.1c0.2,0,0.5-0.1,0.8-0.2V243.8z"/>
					<path id="XMLID_470_" class="st6" d="M83.1,243.9v-2.6h-0.9v-0.4h1.4v2.6h0.9v0.4H83.1z M83,239.7c0-0.1,0-0.2,0.1-0.3
						c0.1-0.1,0.2-0.1,0.2-0.1c0.1,0,0.1,0,0.2,0.1c0.1,0.1,0.1,0.1,0.1,0.3c0,0.1,0,0.2-0.1,0.3c-0.1,0.1-0.2,0.1-0.2,0.1
						c-0.1,0-0.1,0-0.2-0.1C83.1,239.9,83,239.9,83,239.7z"/>
					<path id="XMLID_473_" class="st6" d="M88.2,243.8c-0.2,0.1-0.4,0.2-0.5,0.2c-0.1,0-0.2,0-0.3,0c-0.2,0-0.4,0-0.6-0.1
						c-0.2-0.1-0.3-0.2-0.4-0.4c-0.1-0.2-0.1-0.4-0.1-0.7v-1.2h-0.8v-0.4h0.8v-1.2h0.5v1.2h1.4v0.4h-1.4v1.2c0,0.2,0,0.4,0.1,0.5
						c0.1,0.1,0.1,0.2,0.2,0.2c0.1,0,0.2,0.1,0.3,0.1c0.2,0,0.5-0.1,0.8-0.2V243.8z"/>
					<path id="XMLID_475_" class="st6" d="M93.3,243.9v-2.6h-0.9v-0.4h1.4v2.6h0.9v0.4H93.3z M93.2,239.7c0-0.1,0-0.2,0.1-0.3
						c0.1-0.1,0.2-0.1,0.2-0.1c0.1,0,0.1,0,0.2,0.1c0.1,0.1,0.1,0.1,0.1,0.3c0,0.1,0,0.2-0.1,0.3c-0.1,0.1-0.2,0.1-0.2,0.1
						c-0.1,0-0.1,0-0.2-0.1C93.2,239.9,93.2,239.9,93.2,239.7z"/>
					<path id="XMLID_478_" class="st6" d="M95.8,243.8v-0.5c0.2,0.1,0.4,0.2,0.7,0.3c0.2,0.1,0.4,0.1,0.6,0.1c0.3,0,0.4,0,0.6-0.1
						c0.1-0.1,0.2-0.2,0.2-0.3c0-0.1,0-0.2-0.1-0.2c-0.1-0.1-0.2-0.1-0.4-0.2l-0.2-0.1l-0.4-0.1c-0.4-0.1-0.6-0.3-0.7-0.4
						c-0.1-0.1-0.2-0.3-0.2-0.5c0-0.3,0.1-0.5,0.3-0.6c0.2-0.2,0.5-0.2,1-0.2c0.3,0,0.6,0,0.9,0.1v0.5c-0.3-0.1-0.7-0.2-1-0.2
						c-0.2,0-0.4,0-0.5,0.1c-0.1,0.1-0.2,0.2-0.2,0.3c0,0.1,0.1,0.2,0.2,0.3c0.1,0.1,0.3,0.1,0.5,0.2l0.3,0.1
						c0.3,0.1,0.5,0.2,0.7,0.4c0.1,0.1,0.2,0.3,0.2,0.5c0,0.3-0.1,0.5-0.3,0.7c-0.2,0.2-0.5,0.3-1,0.3
						C96.6,244,96.2,243.9,95.8,243.8z"/>
					<path id="XMLID_480_" class="st6" d="M104.6,243.2c-0.2,0.3-0.3,0.5-0.6,0.6c-0.2,0.1-0.4,0.2-0.6,0.2c-0.3,0-0.5-0.1-0.7-0.3
						c-0.2-0.2-0.3-0.6-0.3-1c0-0.4,0.1-0.7,0.2-1c0.1-0.3,0.3-0.5,0.5-0.7c0.2-0.2,0.5-0.2,0.8-0.2c0.1,0,0.2,0,0.4,0
						c0,0,0.1,0,0.1,0v-1.4h0.5v4.4h-0.5V243.2z M104.6,242.6v-1.3c-0.2,0-0.4-0.1-0.5-0.1c-0.3,0-0.6,0.1-0.8,0.4
						c-0.2,0.2-0.3,0.6-0.3,1c0,0.3,0.1,0.5,0.2,0.7c0.1,0.2,0.2,0.2,0.4,0.2c0.2,0,0.3-0.1,0.5-0.2
						C104.3,243.1,104.5,242.9,104.6,242.6z"/>
					<path id="XMLID_483_" class="st6" d="M107.2,244c-0.4,0-0.8-0.2-1.1-0.5c-0.3-0.3-0.4-0.7-0.4-1.2c0-0.5,0.1-0.9,0.4-1.2
						c0.3-0.3,0.6-0.5,1.1-0.5c0.4,0,0.8,0.2,1.1,0.5c0.3,0.3,0.4,0.7,0.4,1.2c0,0.5-0.1,0.9-0.4,1.2C108,243.9,107.7,244,107.2,244
						z M107.2,243.6c0.3,0,0.5-0.1,0.7-0.3c0.2-0.2,0.2-0.5,0.2-0.9c0-0.4-0.1-0.7-0.2-0.9c-0.2-0.2-0.4-0.3-0.7-0.3
						c-0.3,0-0.5,0.1-0.7,0.3c-0.2,0.2-0.2,0.5-0.2,0.9c0,0.4,0.1,0.7,0.2,0.9C106.7,243.5,106.9,243.6,107.2,243.6z"/>
					<path id="XMLID_486_" class="st6" d="M110.2,243.9v-2.6h-0.9v-0.4h1.4v2.6h0.9v0.4H110.2z M110.1,239.7c0-0.1,0-0.2,0.1-0.3
						c0.1-0.1,0.2-0.1,0.2-0.1s0.1,0,0.2,0.1c0.1,0.1,0.1,0.1,0.1,0.3c0,0.1,0,0.2-0.1,0.3c-0.1,0.1-0.2,0.1-0.2,0.1s-0.1,0-0.2-0.1
						C110.2,239.9,110.1,239.9,110.1,239.7z"/>
					<path id="XMLID_489_" class="st6" d="M112.7,243.9v-3.1h0.5v0.7c0.1-0.2,0.3-0.4,0.5-0.6c0.2-0.1,0.4-0.2,0.6-0.2
						c0.2,0,0.3,0,0.5,0.1c0.1,0.1,0.3,0.2,0.3,0.4c0.1,0.2,0.1,0.5,0.1,0.9v1.7h-0.5v-1.8c0-0.3,0-0.5,0-0.6c0-0.1-0.1-0.2-0.2-0.2
						s-0.2-0.1-0.2-0.1c-0.2,0-0.4,0.1-0.6,0.3c-0.2,0.2-0.4,0.4-0.5,0.6v1.8H112.7z"/>
					<path id="XMLID_491_" class="st6" d="M118.2,243.2c-0.2,0.3-0.3,0.5-0.6,0.6c-0.2,0.1-0.4,0.2-0.6,0.2c-0.3,0-0.5-0.1-0.7-0.3
						c-0.2-0.2-0.3-0.6-0.3-1c0-0.4,0.1-0.7,0.2-1c0.1-0.3,0.3-0.5,0.5-0.7c0.2-0.2,0.5-0.2,0.8-0.2c0.1,0,0.2,0,0.4,0
						c0,0,0.1,0,0.1,0h0.5v2.2c0,0.5,0,0.8,0,0.9c0,0.1,0,0.2-0.1,0.3c-0.1,0.3-0.2,0.5-0.5,0.6c-0.3,0.2-0.6,0.2-0.9,0.2
						c-0.4,0-0.8-0.1-1.1-0.3v-0.5c0.1,0.1,0.3,0.2,0.5,0.3c0.2,0.1,0.4,0.1,0.6,0.1c0.2,0,0.3,0,0.4-0.1c0.1-0.1,0.3-0.1,0.3-0.2
						c0.1-0.1,0.1-0.2,0.2-0.3c0-0.1,0-0.3,0-0.5V243.2z M118.2,242.6v-1.3c-0.2,0-0.4-0.1-0.5-0.1c-0.3,0-0.6,0.1-0.8,0.4
						c-0.2,0.2-0.3,0.6-0.3,1c0,0.3,0.1,0.5,0.2,0.7c0.1,0.2,0.2,0.2,0.4,0.2c0.2,0,0.3-0.1,0.5-0.2
						C117.8,243.1,118,242.9,118.2,242.6z"/>
				</g>
				<g id="XMLID_95_">
					<path id="XMLID_317_" d="M78.9,242.5h-4.6v-18.3H72v-3.3l0.3,0c1.3-0.1,1.9-0.6,2.7-1.7l0.4-0.5h3.5V242.5z"/>
				</g>
			</g>
			<g id="XMLID_252_">
				<g id="XMLID_85_">
					<path id="XMLID_313_" class="st6" d="M493.8,299.9H378.9c-2.5,0-4.5-2-4.5-4.5v-60.7c0-2.5,2-4.5,4.5-4.5h114.9
						c2.5,0,4.5,2,4.5,4.5v60.7C498.3,297.8,496.3,299.9,493.8,299.9z"/>
					<path id="XMLID_314_" class="st5" d="M493.2,301.3H379.5c-3.6,0-6.5-2.9-6.5-6.5v-59.5c0-3.6,2.9-6.5,6.5-6.5h113.7
						c3.6,0,6.5,2.9,6.5,6.5v59.5C499.7,298.4,496.8,301.3,493.2,301.3z M379.5,231.6c-2,0-3.7,1.6-3.7,3.7v59.5
						c0,2,1.6,3.7,3.7,3.7h113.7c2,0,3.7-1.6,3.7-3.7v-59.5c0-2-1.6-3.7-3.7-3.7H379.5z"/>
				</g>
				<g id="XMLID_79_">
					<g id="XMLID_33_">
						<defs>
							<path id="XMLID_850_" d="M395.4,253.8H380c-2.5,0-4.5-2-4.5-4.5v-13.2c0-2.5,2-4.5,4.5-4.5h15.4c2.5,0,4.5,2,4.5,4.5v13.2
								C399.9,251.8,397.9,253.8,395.4,253.8z"/>
						</defs>
						<clipPath id="XMLID_546_">
							<use xlink:href="#XMLID_850_"  style="overflow:visible;"/>
						</clipPath>
						<g id="XMLID_70_" class="st7">
							<g id="XMLID_77_" class="st4">
								<g id="XMLID_78_">
									<path id="XMLID_863_" class="st3" d="M399.2,283.5c1-22.6-6.9-35.8-6.9-35.8c1.4-1.3,2.2-2.5,2.2-4.5
										c0-3.8-3.1-6.3-6.9-6.3h0.2c-3.8,0-6.9,2.5-6.9,6.3c0,2,0.8,3.5,2.2,4.8c0,0-8,13.1-6.9,35.6"/>
								</g>
							</g>
							<g id="XMLID_75_">
								<g id="XMLID_76_">
									<path id="XMLID_860_" class="st6" d="M387.8,247c-1.6,0-3-1-3-3h0.4c0,2,1.1,2.5,2.5,2.5c1.4,0,2.5-0.5,2.5-2.5h0.4
										C390.8,246,389.5,247,387.8,247z"/>
								</g>
							</g>
							<g id="XMLID_73_">
								<g id="XMLID_74_">
									<polygon id="XMLID_857_" class="st6" points="385.9,241.6 385.1,240.7 384.2,241.6 383.9,241.3 385.1,240.1 386.3,241.3 
																			"/>
								</g>
							</g>
							<g id="XMLID_71_">
								<g id="XMLID_72_">
									<polygon id="XMLID_854_" class="st6" points="389.7,241.6 389.4,241.3 390.6,240.1 391.8,241.3 391.5,241.6 390.6,240.7 
																			"/>
								</g>
							</g>
						</g>
					</g>
					<g id="XMLID_80_">
						<defs>
							<path id="XMLID_834_" d="M419.9,253.8h-15.4c-2.5,0-4.5-2-4.5-4.5v-13.2c0-2.5,2-4.5,4.5-4.5h15.4c2.5,0,4.5,2,4.5,4.5v13.2
								C424.4,251.8,422.3,253.8,419.9,253.8z"/>
						</defs>
						<clipPath id="XMLID_547_">
							<use xlink:href="#XMLID_834_"  style="overflow:visible;"/>
						</clipPath>
						<g id="XMLID_82_" class="st8">
							<g id="XMLID_107_" class="st4">
								<g id="XMLID_108_">
									<path id="XMLID_847_" class="st3" d="M423.6,283.5c1-22.6-6.9-35.8-6.9-35.8c1.4-1.3,2.2-2.5,2.2-4.5
										c0-3.8-3.1-6.3-6.9-6.3h0.2c-3.8,0-6.9,2.5-6.9,6.3c0,2,0.8,3.5,2.2,4.8c0,0-8,13.1-6.9,35.6"/>
								</g>
							</g>
							<g id="XMLID_105_">
								<g id="XMLID_106_">
									<path id="XMLID_844_" class="st6" d="M412.3,247c-1.6,0-3-1-3-3h0.4c0,2,1.1,2.5,2.5,2.5s2.5-0.5,2.5-2.5h0.4
										C415.2,246,413.9,247,412.3,247z"/>
								</g>
							</g>
							<g id="XMLID_102_">
								<g id="XMLID_104_">
									<polygon id="XMLID_841_" class="st6" points="410.4,241.6 409.5,240.7 408.6,241.6 408.3,241.3 409.5,240.1 410.7,241.3 
																			"/>
								</g>
							</g>
							<g id="XMLID_87_">
								<g id="XMLID_101_">
									<polygon id="XMLID_838_" class="st6" points="414.2,241.6 413.8,241.3 415,240.1 416.2,241.3 415.9,241.6 415,240.7 
																			"/>
								</g>
							</g>
						</g>
					</g>
					<g id="XMLID_109_">
						<defs>
							<path id="XMLID_818_" d="M444.3,253.8h-15.4c-2.5,0-4.5-2-4.5-4.5v-13.2c0-2.5,2-4.5,4.5-4.5h15.4c2.5,0,4.5,2,4.5,4.5v13.2
								C448.8,251.8,446.8,253.8,444.3,253.8z"/>
						</defs>
						<clipPath id="XMLID_548_">
							<use xlink:href="#XMLID_818_"  style="overflow:visible;"/>
						</clipPath>
						<g id="XMLID_111_" class="st9">
							<g id="XMLID_118_" class="st4">
								<g id="XMLID_119_">
									<path id="XMLID_831_" class="st3" d="M448,283.5c1-22.6-6.9-35.8-6.9-35.8c1.4-1.3,2.2-2.5,2.2-4.5c0-3.8-3.1-6.3-6.9-6.3
										h0.2c-3.8,0-6.9,2.5-6.9,6.3c0,2,0.8,3.5,2.2,4.8c0,0-8,13.1-6.9,35.6"/>
								</g>
							</g>
							<g id="XMLID_116_">
								<g id="XMLID_117_">
									<path id="XMLID_828_" class="st6" d="M436.7,247c-1.6,0-3-1-3-3h0.4c0,2,1.1,2.5,2.5,2.5c1.4,0,2.5-0.5,2.5-2.5h0.4
										C439.7,246,438.3,247,436.7,247z"/>
								</g>
							</g>
							<g id="XMLID_114_">
								<g id="XMLID_115_">
									<polygon id="XMLID_825_" class="st6" points="434.8,241.6 433.9,240.7 433.1,241.6 432.8,241.3 433.9,240.1 435.1,241.3 
																			"/>
								</g>
							</g>
							<g id="XMLID_112_">
								<g id="XMLID_113_">
									<polygon id="XMLID_822_" class="st6" points="438.6,241.6 438.3,241.3 439.5,240.1 440.6,241.3 440.3,241.6 439.5,240.7 
																			"/>
								</g>
							</g>
						</g>
					</g>
					<g id="XMLID_142_">
						<defs>
							<path id="XMLID_802_" d="M395.4,276.1H380c-2.5,0-4.5-2-4.5-4.5v-13.2c0-2.5,2-4.5,4.5-4.5h15.4c2.5,0,4.5,2,4.5,4.5v13.2
								C399.9,274,397.9,276.1,395.4,276.1z"/>
						</defs>
						<clipPath id="XMLID_549_">
							<use xlink:href="#XMLID_802_"  style="overflow:visible;"/>
						</clipPath>
						<g id="XMLID_144_" class="st10">
							<g id="XMLID_151_" class="st4">
								<g id="XMLID_152_">
									<path id="XMLID_815_" class="st3" d="M399.2,305.8c1-22.6-6.9-35.8-6.9-35.8c1.4-1.3,2.2-3.1,2.2-5.1
										c0-3.8-3.1-6.9-6.9-6.9h0.2c-3.8,0-6.9,3.1-6.9,6.9c0,2,0.8,3.8,2.2,5.1c0,0-8,13.2-6.9,35.8"/>
								</g>
							</g>
							<g id="XMLID_149_">
								<g id="XMLID_150_">
									<path id="XMLID_812_" class="st6" d="M387.8,269c-1.6,0-3-1-3-3h0.4c0,2,1.1,2.5,2.5,2.5c1.4,0,2.5-0.5,2.5-2.5h0.4
										C390.8,268,389.5,269,387.8,269z"/>
								</g>
							</g>
							<g id="XMLID_147_">
								<g id="XMLID_148_">
									<polygon id="XMLID_809_" class="st6" points="385.9,263.9 385.1,263 384.2,263.9 383.9,263.6 385.1,262.4 386.3,263.6 
																			"/>
								</g>
							</g>
							<g id="XMLID_145_">
								<g id="XMLID_146_">
									<polygon id="XMLID_806_" class="st6" points="389.7,263.9 389.4,263.6 390.6,262.4 391.8,263.6 391.5,263.9 390.6,263 
																			"/>
								</g>
							</g>
						</g>
					</g>
					<g id="XMLID_131_">
						<defs>
							<path id="XMLID_786_" d="M419.9,276.1h-15.4c-2.5,0-4.5-2-4.5-4.5v-13.2c0-2.5,2-4.5,4.5-4.5h15.4c2.5,0,4.5,2,4.5,4.5v13.2
								C424.4,274,422.3,276.1,419.9,276.1z"/>
						</defs>
						<clipPath id="XMLID_550_">
							<use xlink:href="#XMLID_786_"  style="overflow:visible;"/>
						</clipPath>
						<g id="XMLID_133_" class="st11">
							<g id="XMLID_140_" class="st4">
								<g id="XMLID_141_">
									<path id="XMLID_799_" class="st3" d="M423.6,305.8c1-22.6-6.9-35.8-6.9-35.8c1.4-1.3,2.2-3.1,2.2-5.1
										c0-3.8-3.1-6.9-6.9-6.9h0.2c-3.8,0-6.9,3.1-6.9,6.9c0,2,0.8,3.8,2.2,5.1c0,0-8,13.2-6.9,35.8"/>
								</g>
							</g>
							<g id="XMLID_138_">
								<g id="XMLID_139_">
									<path id="XMLID_796_" class="st6" d="M412.3,269c-1.6,0-3-1-3-3h0.4c0,2,1.1,2.5,2.5,2.5s2.5-0.5,2.5-2.5h0.4
										C415.2,268,413.9,269,412.3,269z"/>
								</g>
							</g>
							<g id="XMLID_136_">
								<g id="XMLID_137_">
									<polygon id="XMLID_793_" class="st6" points="410.4,263.9 409.5,263 408.6,263.9 408.3,263.6 409.5,262.4 410.7,263.6 
																			"/>
								</g>
							</g>
							<g id="XMLID_134_">
								<g id="XMLID_135_">
									<polygon id="XMLID_790_" class="st6" points="414.2,263.9 413.8,263.6 415,262.4 416.2,263.6 415.9,263.9 415,263 
																			"/>
								</g>
							</g>
						</g>
					</g>
					<g id="XMLID_120_">
						<defs>
							<path id="XMLID_770_" d="M444.3,276.1h-15.4c-2.5,0-4.5-2-4.5-4.5v-13.2c0-2.5,2-4.5,4.5-4.5h15.4c2.5,0,4.5,2,4.5,4.5v13.2
								C448.8,274,446.8,276.1,444.3,276.1z"/>
						</defs>
						<clipPath id="XMLID_551_">
							<use xlink:href="#XMLID_770_"  style="overflow:visible;"/>
						</clipPath>
						<g id="XMLID_122_" class="st12">
							<g id="XMLID_129_" class="st4">
								<g id="XMLID_130_">
									<path id="XMLID_783_" class="st3" d="M448,305.8c1-22.6-6.9-35.8-6.9-35.8c1.4-1.3,2.2-3.1,2.2-5.1c0-3.8-3.1-6.9-6.9-6.9
										h0.2c-3.8,0-6.9,3.1-6.9,6.9c0,2,0.8,3.8,2.2,5.1c0,0-8,13.2-6.9,35.8"/>
								</g>
							</g>
							<g id="XMLID_127_">
								<g id="XMLID_128_">
									<path id="XMLID_780_" class="st6" d="M436.7,269c-1.6,0-3-1-3-3h0.4c0,2,1.1,2.5,2.5,2.5c1.4,0,2.5-0.5,2.5-2.5h0.4
										C439.7,268,438.3,269,436.7,269z"/>
								</g>
							</g>
							<g id="XMLID_125_">
								<g id="XMLID_126_">
									<polygon id="XMLID_777_" class="st6" points="434.8,263.9 433.9,263 433.1,263.9 432.8,263.6 433.9,262.4 435.1,263.6 
																			"/>
								</g>
							</g>
							<g id="XMLID_123_">
								<g id="XMLID_124_">
									<polygon id="XMLID_774_" class="st6" points="438.6,263.9 438.3,263.6 439.5,262.4 440.6,263.6 440.3,263.9 439.5,263 
																			"/>
								</g>
							</g>
						</g>
					</g>
					<g id="XMLID_175_">
						<defs>
							<path id="XMLID_754_" d="M395.4,298.6H380c-2.5,0-4.5-2-4.5-4.5v-13.2c0-2.5,2-4.5,4.5-4.5h15.4c2.5,0,4.5,2,4.5,4.5v13.2
								C399.9,296.6,397.9,298.6,395.4,298.6z"/>
						</defs>
						<clipPath id="XMLID_553_">
							<use xlink:href="#XMLID_754_"  style="overflow:visible;"/>
						</clipPath>
						<g id="XMLID_177_" class="st13">
							<g id="XMLID_184_" class="st4">
								<g id="XMLID_185_">
									<path id="XMLID_767_" class="st3" d="M399.2,328.4c1-22.6-6.9-35.8-6.9-35.8c1.4-1.3,2.2-2.9,2.2-4.9
										c0-3.8-3.1-6.7-6.9-6.7h0.2c-3.8,0-6.9,2.9-6.9,6.7c0,2,0.8,3.7,2.2,5c0,0-8,13.2-6.9,35.7"/>
								</g>
							</g>
							<g id="XMLID_182_">
								<g id="XMLID_183_">
									<path id="XMLID_764_" class="st6" d="M387.8,291c-1.6,0-3,0-3-3h0.4c0,3,1.1,2.5,2.5,2.5c1.4,0,2.5,0.5,2.5-2.5h0.4
										C390.8,291,389.5,291,387.8,291z"/>
								</g>
							</g>
							<g id="XMLID_180_">
								<g id="XMLID_181_">
									<polygon id="XMLID_761_" class="st6" points="385.9,286.5 385.1,285.6 384.2,286.5 383.9,286.1 385.1,285 386.3,286.1 
																			"/>
								</g>
							</g>
							<g id="XMLID_178_">
								<g id="XMLID_179_">
									<polygon id="XMLID_758_" class="st6" points="389.7,286.5 389.4,286.1 390.6,285 391.8,286.1 391.5,286.5 390.6,285.6 
																			"/>
								</g>
							</g>
						</g>
					</g>
					<g id="XMLID_164_">
						<defs>
							<path id="XMLID_738_" d="M419.9,298.6h-15.4c-2.5,0-4.5-2-4.5-4.5v-13.2c0-2.5,2-4.5,4.5-4.5h15.4c2.5,0,4.5,2,4.5,4.5v13.2
								C424.4,296.6,422.3,298.6,419.9,298.6z"/>
						</defs>
						<clipPath id="XMLID_554_">
							<use xlink:href="#XMLID_738_"  style="overflow:visible;"/>
						</clipPath>
						<g id="XMLID_166_" class="st14">
							<g id="XMLID_173_" class="st4">
								<g id="XMLID_174_">
									<path id="XMLID_751_" class="st3" d="M423.6,328.4c1-22.6-6.9-35.8-6.9-35.8c1.4-1.3,2.2-2.9,2.2-4.9
										c0-3.8-3.1-6.7-6.9-6.7h0.2c-3.8,0-6.9,2.9-6.9,6.7c0,2,0.8,3.7,2.2,5c0,0-8,13.2-6.9,35.7"/>
								</g>
							</g>
							<g id="XMLID_171_">
								<g id="XMLID_172_">
									<path id="XMLID_748_" class="st6" d="M412.3,291c-1.6,0-3,0-3-3h0.4c0,3,1.1,2.5,2.5,2.5s2.5,0.5,2.5-2.5h0.4
										C415.2,291,413.9,291,412.3,291z"/>
								</g>
							</g>
							<g id="XMLID_169_">
								<g id="XMLID_170_">
									<polygon id="XMLID_745_" class="st6" points="410.4,286.5 409.5,285.6 408.6,286.5 408.3,286.1 409.5,285 410.7,286.1 
																			"/>
								</g>
							</g>
							<g id="XMLID_167_">
								<g id="XMLID_168_">
									<polygon id="XMLID_742_" class="st6" points="414.2,286.5 413.8,286.1 415,285 416.2,286.1 415.9,286.5 415,285.6 
																			"/>
								</g>
							</g>
						</g>
					</g>
					<g id="XMLID_153_">
						<defs>
							<path id="XMLID_722_" d="M444.3,298.6h-15.4c-2.5,0-4.5-2-4.5-4.5v-13.2c0-2.5,2-4.5,4.5-4.5h15.4c2.5,0,4.5,2,4.5,4.5v13.2
								C448.8,296.6,446.8,298.6,444.3,298.6z"/>
						</defs>
						<clipPath id="XMLID_555_">
							<use xlink:href="#XMLID_722_"  style="overflow:visible;"/>
						</clipPath>
						<g id="XMLID_155_" class="st15">
							<g id="XMLID_162_" class="st4">
								<g id="XMLID_163_">
									<path id="XMLID_735_" class="st3" d="M448,328.4c1-22.6-6.9-35.8-6.9-35.8c1.4-1.3,2.2-2.9,2.2-4.9c0-3.8-3.1-6.7-6.9-6.7
										h0.2c-3.8,0-6.9,2.9-6.9,6.7c0,2,0.8,3.7,2.2,5c0,0-8,13.2-6.9,35.7"/>
								</g>
							</g>
							<g id="XMLID_160_">
								<g id="XMLID_161_">
									<path id="XMLID_732_" class="st6" d="M436.7,291c-1.6,0-3,0-3-3h0.4c0,3,1.1,2.5,2.5,2.5c1.4,0,2.5,0.5,2.5-2.5h0.4
										C439.7,291,438.3,291,436.7,291z"/>
								</g>
							</g>
							<g id="XMLID_158_">
								<g id="XMLID_159_">
									<polygon id="XMLID_729_" class="st6" points="434.8,286.5 433.9,285.6 433.1,286.5 432.8,286.1 433.9,285 435.1,286.1 
																			"/>
								</g>
							</g>
							<g id="XMLID_156_">
								<g id="XMLID_157_">
									<polygon id="XMLID_726_" class="st6" points="438.6,286.5 438.3,286.1 439.5,285 440.6,286.1 440.3,286.5 439.5,285.6 
																			"/>
								</g>
							</g>
						</g>
					</g>
					<g id="XMLID_208_">
						<defs>
							<path id="XMLID_706_" d="M469.1,253.8h-15.4c-2.5,0-4.5-2-4.5-4.5v-13.2c0-2.5,2-4.5,4.5-4.5h15.4c2.5,0,4.5,2,4.5,4.5v13.2
								C473.6,251.8,471.6,253.8,469.1,253.8z"/>
						</defs>
						<clipPath id="XMLID_556_">
							<use xlink:href="#XMLID_706_"  style="overflow:visible;"/>
						</clipPath>
						<g id="XMLID_210_" class="st16">
							<g id="XMLID_217_" class="st4">
								<g id="XMLID_218_">
									<path id="XMLID_719_" class="st3" d="M472.9,283.5c1-22.6-6.9-35.8-6.9-35.8c1.4-1.3,2.2-2.5,2.2-4.5
										c0-3.8-3.1-6.3-6.9-6.3h0.2c-3.8,0-6.9,2.5-6.9,6.3c0,2,0.8,3.5,2.2,4.8c0,0-8,13.1-6.9,35.6"/>
								</g>
							</g>
							<g id="XMLID_215_">
								<g id="XMLID_216_">
									<path id="XMLID_716_" class="st6" d="M461.5,247c-1.6,0-3-1-3-3h0.4c0,2,1.1,2.5,2.5,2.5c1.4,0,2.5-0.5,2.5-2.5h0.4
										C464.5,246,463.2,247,461.5,247z"/>
								</g>
							</g>
							<g id="XMLID_213_">
								<g id="XMLID_214_">
									<polygon id="XMLID_713_" class="st6" points="459.6,241.6 458.8,240.7 457.9,241.6 457.6,241.3 458.8,240.1 459.9,241.3 
																			"/>
								</g>
							</g>
							<g id="XMLID_211_">
								<g id="XMLID_212_">
									<polygon id="XMLID_710_" class="st6" points="463.4,241.6 463.1,241.3 464.3,240.1 465.5,241.3 465.2,241.6 464.3,240.7 
																			"/>
								</g>
							</g>
						</g>
					</g>
					<g id="XMLID_197_">
						<defs>
							<path id="XMLID_690_" d="M469.1,276.1h-15.4c-2.5,0-4.5-2-4.5-4.5v-13.2c0-2.5,2-4.5,4.5-4.5h15.4c2.5,0,4.5,2,4.5,4.5v13.2
								C473.6,274,471.6,276.1,469.1,276.1z"/>
						</defs>
						<clipPath id="XMLID_557_">
							<use xlink:href="#XMLID_690_"  style="overflow:visible;"/>
						</clipPath>
						<g id="XMLID_199_" class="st17">
							<g id="XMLID_206_" class="st4">
								<g id="XMLID_207_">
									<path id="XMLID_703_" class="st3" d="M472.9,305.8c1-22.6-6.9-35.8-6.9-35.8c1.4-1.3,2.2-3.1,2.2-5.1
										c0-3.8-3.1-6.9-6.9-6.9h0.2c-3.8,0-6.9,3.1-6.9,6.9c0,2,0.8,3.8,2.2,5.1c0,0-8,13.2-6.9,35.8"/>
								</g>
							</g>
							<g id="XMLID_204_">
								<g id="XMLID_205_">
									<path id="XMLID_700_" class="st6" d="M461.5,269c-1.6,0-3-1-3-3h0.4c0,2,1.1,2.5,2.5,2.5c1.4,0,2.5-0.5,2.5-2.5h0.4
										C464.5,268,463.2,269,461.5,269z"/>
								</g>
							</g>
							<g id="XMLID_202_">
								<g id="XMLID_203_">
									<polygon id="XMLID_697_" class="st6" points="459.6,263.9 458.8,263 457.9,263.9 457.6,263.6 458.8,262.4 459.9,263.6 
																			"/>
								</g>
							</g>
							<g id="XMLID_200_">
								<g id="XMLID_201_">
									<polygon id="XMLID_694_" class="st6" points="463.4,263.9 463.1,263.6 464.3,262.4 465.5,263.6 465.2,263.9 464.3,263 
																			"/>
								</g>
							</g>
						</g>
					</g>
					<g id="XMLID_186_">
						<defs>
							<path id="XMLID_674_" d="M469.1,298.6h-15.4c-2.5,0-4.5-2-4.5-4.5v-13.2c0-2.5,2-4.5,4.5-4.5h15.4c2.5,0,4.5,2,4.5,4.5v13.2
								C473.6,296.6,471.6,298.6,469.1,298.6z"/>
						</defs>
						<clipPath id="XMLID_558_">
							<use xlink:href="#XMLID_674_"  style="overflow:visible;"/>
						</clipPath>
						<g id="XMLID_188_" class="st18">
							<g id="XMLID_195_" class="st4">
								<g id="XMLID_196_">
									<path id="XMLID_687_" class="st3" d="M472.9,328.4c1-22.6-6.9-35.8-6.9-35.8c1.4-1.3,2.2-2.9,2.2-4.9
										c0-3.8-3.1-6.7-6.9-6.7h0.2c-3.8,0-6.9,2.9-6.9,6.7c0,2,0.8,3.7,2.2,5c0,0-8,13.2-6.9,35.7"/>
								</g>
							</g>
							<g id="XMLID_193_">
								<g id="XMLID_194_">
									<path id="XMLID_684_" class="st6" d="M461.5,291c-1.6,0-3,0-3-3h0.4c0,3,1.1,2.5,2.5,2.5c1.4,0,2.5,0.5,2.5-2.5h0.4
										C464.5,291,463.2,291,461.5,291z"/>
								</g>
							</g>
							<g id="XMLID_191_">
								<g id="XMLID_192_">
									<polygon id="XMLID_681_" class="st6" points="459.6,286.5 458.8,285.6 457.9,286.5 457.6,286.1 458.8,285 459.9,286.1 
																			"/>
								</g>
							</g>
							<g id="XMLID_189_">
								<g id="XMLID_190_">
									<polygon id="XMLID_678_" class="st6" points="463.4,286.5 463.1,286.1 464.3,285 465.5,286.1 465.2,286.5 464.3,285.6 
																			"/>
								</g>
							</g>
						</g>
					</g>
					<g id="XMLID_241_">
						<defs>
							<path id="XMLID_658_" d="M493.9,253.8h-15.4c-2.5,0-4.5-2-4.5-4.5v-13.2c0-2.5,2-4.5,4.5-4.5h15.4c2.5,0,4.5,2,4.5,4.5v13.2
								C498.4,251.8,496.4,253.8,493.9,253.8z"/>
						</defs>
						<clipPath id="XMLID_559_">
							<use xlink:href="#XMLID_658_"  style="overflow:visible;"/>
						</clipPath>
						<g id="XMLID_243_" class="st19">
							<g id="XMLID_250_" class="st4">
								<g id="XMLID_251_">
									<path id="XMLID_671_" class="st3" d="M497.7,283.5c1-22.6-6.9-35.8-6.9-35.8c1.4-1.3,2.2-2.5,2.2-4.5
										c0-3.8-3.1-6.3-6.9-6.3h0.2c-3.8,0-6.9,2.5-6.9,6.3c0,2,0.8,3.5,2.2,4.8c0,0-8,13.1-6.9,35.6"/>
								</g>
							</g>
							<g id="XMLID_248_">
								<g id="XMLID_249_">
									<path id="XMLID_668_" class="st6" d="M486.3,247c-1.6,0-3-1-3-3h0.4c0,2,1.1,2.5,2.5,2.5c1.4,0,2.5-0.5,2.5-2.5h0.4
										C489.3,246,488,247,486.3,247z"/>
								</g>
							</g>
							<g id="XMLID_246_">
								<g id="XMLID_247_">
									<polygon id="XMLID_665_" class="st6" points="484.5,241.6 483.6,240.7 482.7,241.6 482.4,241.3 483.6,240.1 484.8,241.3 
																			"/>
								</g>
							</g>
							<g id="XMLID_244_">
								<g id="XMLID_245_">
									<polygon id="XMLID_662_" class="st6" points="488.2,241.6 487.9,241.3 489.1,240.1 490.3,241.3 490,241.6 489.1,240.7 
																			"/>
								</g>
							</g>
						</g>
					</g>
					<g id="XMLID_230_">
						<defs>
							<path id="XMLID_642_" d="M493.9,276.1h-15.4c-2.5,0-4.5-2-4.5-4.5v-13.2c0-2.5,2-4.5,4.5-4.5h15.4c2.5,0,4.5,2,4.5,4.5v13.2
								C498.4,274,496.4,276.1,493.9,276.1z"/>
						</defs>
						<clipPath id="XMLID_560_">
							<use xlink:href="#XMLID_642_"  style="overflow:visible;"/>
						</clipPath>
						<g id="XMLID_232_" class="st20">
							<g id="XMLID_239_" class="st4">
								<g id="XMLID_240_">
									<path id="XMLID_655_" class="st3" d="M497.7,305.8c1-22.6-6.9-35.8-6.9-35.8c1.4-1.3,2.2-3.1,2.2-5.1
										c0-3.8-3.1-6.9-6.9-6.9h0.2c-3.8,0-6.9,3.1-6.9,6.9c0,2,0.8,3.8,2.2,5.1c0,0-8,13.2-6.9,35.8"/>
								</g>
							</g>
							<g id="XMLID_237_">
								<g id="XMLID_238_">
									<path id="XMLID_652_" class="st6" d="M486.3,269c-1.6,0-3-1-3-3h0.4c0,2,1.1,2.5,2.5,2.5c1.4,0,2.5-0.5,2.5-2.5h0.4
										C489.3,268,488,269,486.3,269z"/>
								</g>
							</g>
							<g id="XMLID_235_">
								<g id="XMLID_236_">
									<polygon id="XMLID_649_" class="st6" points="484.5,263.9 483.6,263 482.7,263.9 482.4,263.6 483.6,262.4 484.8,263.6 
																			"/>
								</g>
							</g>
							<g id="XMLID_233_">
								<g id="XMLID_234_">
									<polygon id="XMLID_646_" class="st6" points="488.2,263.9 487.9,263.6 489.1,262.4 490.3,263.6 490,263.9 489.1,263 
																			"/>
								</g>
							</g>
						</g>
					</g>
					<g id="XMLID_219_">
						<defs>
							<path id="XMLID_626_" d="M493.9,298.6h-15.4c-2.5,0-4.5-2-4.5-4.5v-13.2c0-2.5,2-4.5,4.5-4.5h15.4c2.5,0,4.5,2,4.5,4.5v13.2
								C498.4,296.6,496.4,298.6,493.9,298.6z"/>
						</defs>
						<clipPath id="XMLID_561_">
							<use xlink:href="#XMLID_626_"  style="overflow:visible;"/>
						</clipPath>
						<g id="XMLID_221_" class="st21">
							<g id="XMLID_228_" class="st4">
								<g id="XMLID_229_">
									<path id="XMLID_639_" class="st3" d="M497.7,328.4c1-22.6-6.9-35.8-6.9-35.8c1.4-1.3,2.2-2.9,2.2-4.9
										c0-3.8-3.1-6.7-6.9-6.7h0.2c-3.8,0-6.9,2.9-6.9,6.7c0,2,0.8,3.7,2.2,5c0,0-8,13.2-6.9,35.7"/>
								</g>
							</g>
							<g id="XMLID_226_">
								<g id="XMLID_227_">
									<path id="XMLID_636_" class="st6" d="M486.3,291c-1.6,0-3,0-3-3h0.4c0,3,1.1,2.5,2.5,2.5c1.4,0,2.5,0.5,2.5-2.5h0.4
										C489.3,291,488,291,486.3,291z"/>
								</g>
							</g>
							<g id="XMLID_224_">
								<g id="XMLID_225_">
									<polygon id="XMLID_633_" class="st6" points="484.5,286.5 483.6,285.6 482.7,286.5 482.4,286.1 483.6,285 484.8,286.1 
																			"/>
								</g>
							</g>
							<g id="XMLID_222_">
								<g id="XMLID_223_">
									<polygon id="XMLID_630_" class="st6" points="488.2,286.5 487.9,286.1 489.1,285 490.3,286.1 490,286.5 489.1,285.6 
																			"/>
								</g>
							</g>
						</g>
					</g>
				</g>
				<g id="XMLID_97_">
					<path id="XMLID_311_" d="M391.8,250.9c0.6-0.7,0.8-1.2,0.8-2V246c0-0.6-0.3-0.8-0.8-0.8h-0.3c-0.6,0-0.8,0.3-0.8,0.8v3.9h-4.5
						v-4.4c0-2.9,1.5-4.4,4.4-4.4h2.3c2.9,0,4.4,1.5,4.4,4.4v3.6c0,1.7-0.4,2.9-1.9,4.8l-3.8,4.8c-0.6,0.7-0.8,1.2-0.8,2v0.2h6.5
						v4.2h-11.2v-4.5c0-1.8,0.4-2.9,1.9-4.8L391.8,250.9z"/>
				</g>
			</g>
			<g id="XMLID_94_">
				<path id="XMLID_309_" d="M171.7,49v6.3c0,2.9-1.5,4.4-4.4,4.4h-2.9c-2.9,0-4.4-1.5-4.4-4.4V40c0-2.9,1.5-4.4,4.4-4.4h2.8
					c2.9,0,4.4,1.5,4.4,4.4v5.6h-4.7v-5c0-0.6-0.3-0.8-0.8-0.8h-0.5c-0.6,0-0.8,0.3-0.8,0.8v14.3c0,0.6,0.3,0.8,0.8,0.8h0.6
					c0.6,0,0.8-0.3,0.8-0.8V49H171.7z"/>
			</g>
			<g id="XMLID_93_">
				<path id="XMLID_305_" d="M497.3,118.3v4.8c0,2.9-1.5,4.4-4.4,4.4h-7v-23.7h7c2.9,0,4.4,1.5,4.4,4.4v3.5c0,2-0.7,3-2,3.5
					C496.7,115.7,497.3,116.6,497.3,118.3z M491.7,107.9h-1.1v5.6h1.1c0.6,0,0.8-0.3,0.8-0.8v-3.9
					C492.5,108.2,492.3,107.9,491.7,107.9z M490.6,123.5h1.2c0.6,0,0.8-0.3,0.8-0.8v-4.3c0-0.6-0.3-0.8-0.8-0.8h-1.2V123.5z"/>
			</g>
			<g id="XMLID_253_">
				<g id="XMLID_84_">
					<path id="XMLID_610_" class="st6" d="M446.5,173.8h-67.6c-2.5,0-4.5-2-4.5-4.5v-60.7c0-2.5,2-4.5,4.5-4.5h67.6
						c2.5,0,4.5,2,4.5,4.5v60.7C451,171.8,449,173.8,446.5,173.8z"/>
				</g>
				<g id="XMLID_20_">
					<defs>
						<path id="XMLID_595_" d="M446.5,173.8h-67.6c-2.5,0-4.5-2-4.5-4.5v-60.7c0-2.5,2-4.5,4.5-4.5h67.6c2.5,0,4.5,2,4.5,4.5v60.7
							C451,171.8,449,173.8,446.5,173.8z"/>
					</defs>
					<clipPath id="XMLID_562_">
						<use xlink:href="#XMLID_595_"  style="overflow:visible;"/>
					</clipPath>
					<g id="XMLID_1_" class="st22">
						<g id="XMLID_100_" class="st4">
							<g id="XMLID_4_">
								<path id="XMLID_608_" class="st3" d="M448.6,267.2c3.3-70.8-21.7-112.3-21.7-112.3c4.3-4,6.9-9.3,6.9-15.6
									c0-11.9-9.7-21.3-21.6-21.3h0.5c-11.9,0-21.6,9.4-21.6,21.3c0,6.3,2.7,11.8,6.9,15.7c0,0-25,41.4-21.7,112.2"/>
							</g>
						</g>
						<g id="XMLID_103_">
							<g id="XMLID_8_">
								<path id="XMLID_605_" class="st6" d="M413,152.4c-5.2,0-9.4-3.4-9.4-9.4h1.4c0,6,3.6,8,8,8s8-2,8-8h1.4
									C422.3,149,418.2,152.4,413,152.4z"/>
							</g>
						</g>
						<g id="XMLID_2_">
							<g id="XMLID_7_">
								<polygon id="XMLID_602_" class="st6" points="407.1,135.6 404.3,132.8 401.6,135.6 400.6,134.6 404.3,130.9 408.1,134.6 
																	"/>
							</g>
						</g>
						<g id="XMLID_3_">
							<g id="XMLID_5_">
								<polygon id="XMLID_599_" class="st6" points="418.9,135.6 417.9,134.6 421.7,130.9 425.4,134.6 424.4,135.6 421.7,132.8 
																	"/>
							</g>
						</g>
					</g>
				</g>
				<g id="XMLID_98_">
					<path id="XMLID_300_" d="M394.7,139h-4.6v-18.3h-2.2v-3.3l0.3,0c1.3-0.1,1.9-0.6,2.7-1.7l0.4-0.5h3.5V139z"/>
				</g>
				<g id="XMLID_21_">
					<path id="XMLID_301_" class="st5" d="M445.9,175.2h-66.4c-3.6,0-6.5-2.9-6.5-6.5v-59.5c0-3.6,2.9-6.5,6.5-6.5h66.4
						c3.6,0,6.5,2.9,6.5,6.5v59.5C452.4,172.3,449.5,175.2,445.9,175.2z M379.5,105.5c-2,0-3.7,1.6-3.7,3.7v59.5
						c0,2,1.6,3.7,3.7,3.7h66.4c2,0,3.7-1.6,3.7-3.7v-59.5c0-2-1.6-3.7-3.7-3.7H379.5z"/>
				</g>
			</g>
			<g id="XMLID_32_">
				<g id="XMLID_86_">
					<path id="XMLID_584_" class="st6" d="M313.5,83.5H198.6c-2.5,0-4.5-2-4.5-4.5V18.4c0-2.5,2-4.5,4.5-4.5h114.9
						c2.5,0,4.5,2,4.5,4.5V79C318,81.5,316,83.5,313.5,83.5z"/>
				</g>
				<g id="XMLID_30_">
					<defs>
						<path id="XMLID_572_" d="M313.5,83.5H198.6c-2.5,0-4.5-2-4.5-4.5V18.4c0-2.5,2-4.5,4.5-4.5h114.9c2.5,0,4.5,2,4.5,4.5V79
							C318,81.5,316,83.5,313.5,83.5z"/>
					</defs>
					<clipPath id="XMLID_563_">
						<use xlink:href="#XMLID_572_"  style="overflow:visible;"/>
					</clipPath>
					<g id="XMLID_23_" class="st23">
						<g id="XMLID_26_">
							<g id="XMLID_29_" class="st4">
								<path id="XMLID_292_" class="st3" d="M286.2,88.3C282.8,73,267,64,255.8,53.8c-9-9-4.5-15.8,1.1-25.9
									c1.1-2.3,1.1-7.9-3.4-7.9c-13.5,1.1-14.7,15.8-16.9,25.9c-1.1,5.6,1.1,11.3,2.3,16.9c2.3,10.2,10.2,16.9,12.4,25.6"/>
							</g>
							<g id="XMLID_27_">
								<path id="XMLID_298_" class="st6" d="M244.1,39.4C244.1,39.4,244.1,39.4,244.1,39.4c-0.8,0-1.4-0.4-1.8-1
									c-0.7-1-0.7-2.6,0-4.3l1.1,0.4c-0.6,1.6-0.4,2.7-0.1,3.2c0.2,0.3,0.5,0.5,0.9,0.5c1.3,0.1,3.1-1.7,4.1-4l1,0.4
									C248,37.5,245.9,39.4,244.1,39.4z"/>
							</g>
						</g>
						<g id="XMLID_25_">
							<polygon id="XMLID_297_" class="st6" points="245.6,29.6 244.9,28.5 243.8,29.2 243.2,28.2 245.3,27 246.6,29 							"/>
						</g>
						<g id="XMLID_24_">
							<polygon id="XMLID_296_" class="st6" points="252.5,31.2 251.8,30.1 250.7,30.8 250.1,29.8 252.2,28.6 253.5,30.6 							"/>
						</g>
					</g>
				</g>
				<g id="XMLID_31_">
					<path id="XMLID_293_" class="st24" d="M312.9,84.9H199.2c-3.6,0-6.5-2.9-6.5-6.5V18.9c0-3.6,2.9-6.5,6.5-6.5h113.7
						c3.6,0,6.5,2.9,6.5,6.5v59.5C319.4,82,316.5,84.9,312.9,84.9z M199.2,15.3c-2,0-3.7,1.6-3.7,3.7v59.5c0,2,1.6,3.7,3.7,3.7
						h113.7c2,0,3.7-1.6,3.7-3.7V18.9c0-2-1.6-3.7-3.7-3.7H199.2z"/>
				</g>
			</g>
			<g id="XMLID_58_">
				<g id="XMLID_68_">
					<path id="XMLID_564_" class="st6" d="M133,83.5H18.1c-2.5,0-4.5-2-4.5-4.5V18.4c0-2.5,2-4.5,4.5-4.5H133c2.5,0,4.5,2,4.5,4.5
						V79C137.5,81.5,135.5,83.5,133,83.5z"/>
				</g>
				<g id="XMLID_60_">
					<defs>
						<path id="XMLID_552_" d="M133,83.5H18.1c-2.5,0-4.5-2-4.5-4.5V18.4c0-2.5,2-4.5,4.5-4.5H133c2.5,0,4.5,2,4.5,4.5V79
							C137.5,81.5,135.5,83.5,133,83.5z"/>
					</defs>
					<clipPath id="XMLID_565_">
						<use xlink:href="#XMLID_552_"  style="overflow:visible;"/>
					</clipPath>
					<g id="XMLID_62_" class="st25">
						<g id="XMLID_65_">
							<g id="XMLID_67_" class="st4">
								<path id="XMLID_279_" class="st3" d="M85.9,88.4c8.5-9.8-0.5-22.2,0.6-31.2c2.3-12.4,6.8-30.5-9-30.5
									c-7.9,0-3.4,11.3-6.8,15.8c-12.4,13.5-27.1,25.9-20,46.1"/>
							</g>
							<g id="XMLID_66_">
								<path id="XMLID_291_" class="st6" d="M79.4,48.5c-0.2,0-0.4,0-0.6,0c-1.7-0.2-2.4-0.9-2.8-1.6c-0.5-1-0.4-2.3,0.3-3.8l1,0.5
									c-0.5,1.1-0.7,2.1-0.3,2.7c0.4,0.7,1.2,0.9,1.9,1c2.3,0.2,5.4-1.2,6.1-3.4l1.1,0.3C85.3,46.9,82.1,48.5,79.4,48.5z"/>
							</g>
						</g>
						<g id="XMLID_64_">
							<polygon id="XMLID_290_" class="st6" points="76.9,38.4 76,37.7 77.6,35.9 79.4,37.4 78.7,38.3 77.7,37.4 							"/>
						</g>
						<g id="XMLID_63_">
							<polygon id="XMLID_289_" class="st6" points="83.9,37.9 83.1,37.2 84.7,35.4 86.5,36.9 85.8,37.8 84.8,36.9 							"/>
						</g>
					</g>
				</g>
				<g id="XMLID_59_">
					<path id="XMLID_286_" class="st24" d="M132.4,84.9H18.7c-3.6,0-6.5-2.9-6.5-6.5V18.9c0-3.6,2.9-6.5,6.5-6.5h113.7
						c3.6,0,6.5,2.9,6.5,6.5v59.5C138.9,82,136,84.9,132.4,84.9z M18.7,15.3c-2,0-3.7,1.6-3.7,3.7v59.5c0,2,1.6,3.7,3.7,3.7h113.7
						c2,0,3.7-1.6,3.7-3.7V18.9c0-2-1.6-3.7-3.7-3.7H18.7z"/>
				</g>
			</g>
			<g id="XMLID_254_">
				<g id="XMLID_57_">
					<path id="XMLID_282_" class="st6" d="M313.5,349H198.6c-2.5,0-4.5-2-4.5-4.5v-200c0-2.5,2-4.5,4.5-4.5h114.9
						c2.5,0,4.5,2,4.5,4.5v200C318,346.9,316,349,313.5,349z"/>
					<path id="XMLID_283_" class="st3" d="M312.9,350.4H199.2c-3.6,0-6.5-2.9-6.5-6.5V145c0-3.6,2.9-6.5,6.5-6.5h113.7
						c3.6,0,6.5,2.9,6.5,6.5v198.9C319.4,347.5,316.5,350.4,312.9,350.4z M199.2,141.4c-2,0-3.7,1.6-3.7,3.7v198.9
						c0,2,1.6,3.7,3.7,3.7h113.7c2,0,3.7-1.6,3.7-3.7V145c0-2-1.6-3.7-3.7-3.7H199.2z"/>
				</g>
				<g id="XMLID_96_">
					<path id="XMLID_280_" d="M212.4,159.7c0.6-0.7,0.8-1.2,0.8-2v-2.9c0-0.6-0.3-0.8-0.8-0.8h-0.3c-0.6,0-0.8,0.3-0.8,0.8v3.9h-4.5
						v-4.4c0-2.9,1.5-4.4,4.4-4.4h2.3c2.9,0,4.4,1.5,4.4,4.4v3.6c0,1.7-0.4,2.9-1.9,4.8l-3.8,4.8c-0.6,0.7-0.8,1.2-0.8,2v0.2h6.5
						v4.2h-11.2v-4.5c0-1.8,0.4-2.9,1.9-4.8L212.4,159.7z"/>
				</g>
				<g id="XMLID_14_">
					<g id="XMLID_18_" class="st4">
						<path id="XMLID_275_" class="st3" d="M285,347.6c2.6-57.5-17.6-89.8-17.6-89.8c3.5-3.2,5.6-7.5,5.6-12.6
							c0-9.7-7.9-17.3-17.6-17.3h0.4c-9.7,0-17.6,7.6-17.6,17.3c0,5.1,2.2,9.5,5.6,12.7c0,0-20.3,32.1-17.6,89.6"/>
					</g>
					<g id="XMLID_17_">
						<path id="XMLID_278_" class="st6" d="M256.1,255.6c-4.2,0-7.6-3.6-7.6-7.6h1.1c0,4,2.9,6.5,6.5,6.5c3.6,0,6.5-2.5,6.5-6.5h1.1
							C263.7,252,260.3,255.6,256.1,255.6z"/>
					</g>
					<g id="XMLID_16_">
						<polygon id="XMLID_277_" class="st6" points="251.3,242.2 249,239.9 246.8,242.2 246,241.4 249,238.3 252.1,241.4 						"/>
					</g>
					<g id="XMLID_15_">
						<polygon id="XMLID_276_" class="st6" points="260.9,242.2 260.1,241.4 263.1,238.3 266.1,241.4 265.3,242.2 263.1,239.9 
													"/>
					</g>
				</g>
			</g>
			<g id="XMLID_257_">
				<g id="XMLID_262_">
					<g id="XMLID_265_">
						<path id="XMLID_272_" d="M113.8,485.7H79c-0.7,0-1.2-0.5-1.2-1.2V456c0-0.7,0.5-1.2,1.2-1.2h34.8c0.7,0,1.2,0.5,1.2,1.2v28.5
							C115,485.1,114.4,485.7,113.8,485.7z"/>
					</g>
				</g>
				<g id="XMLID_258_">
					<g id="XMLID_261_">
						<path id="XMLID_271_" d="M131.6,456.2l-13.7,10.6c-0.3,0.2-0.5,0.5-0.5,0.9v5c0,0.4,0.2,0.7,0.5,0.9l13.7,10.5
							c0.8,0.6,1.9,0.1,1.9-0.9v-26.2C133.6,456.2,132.4,455.5,131.6,456.2z"/>
					</g>
				</g>
			</g>
			<g id="XMLID_256_" class="st4">
				<rect id="XMLID_274_" x="97" y="361" class="st3" width="3" height="93"/>
			</g>
			<g id="XMLID_259_" class="st4">
				<rect id="XMLID_273_" x="329" y="37" class="st24" width="98" height="3"/>
			</g>
			<g id="XMLID_260_">
				<g id="XMLID_266_">
					<g id="XMLID_267_">
						<path id="XMLID_270_" d="M444.7,53.6h-34.8c-0.7,0-1.2-0.5-1.2-1.2V23.9c0-0.7,0.5-1.2,1.2-1.2h34.8c0.7,0,1.2,0.5,1.2,1.2
							v28.5C445.9,53,445.4,53.6,444.7,53.6z"/>
					</g>
				</g>
				<g id="XMLID_263_">
					<g id="XMLID_264_">
						<path id="XMLID_269_" d="M462.6,24.1l-13.7,10.6c-0.3,0.2-0.5,0.5-0.5,0.9v5c0,0.4,0.2,0.7,0.5,0.9l13.7,10.5
							c0.8,0.6,1.9,0.1,1.9-0.9V25C464.5,24.1,463.3,23.5,462.6,24.1z"/>
					</g>
				</g>
			</g>
		</g>
	</g>
</g>
<g id="Layer_3">
</g>
</svg>
