<?xml version="1.0" encoding="utf-8"?>
<!-- Generator: Adobe Illustrator 19.0.0, SVG Export Plug-In . SVG Version: 6.00 Build 0)  -->
<svg version="1.1" id="Layer_1" xmlns="http://www.w3.org/2000/svg" xmlns:xlink="http://www.w3.org/1999/xlink" x="0px" y="0px"
	 viewBox="0 0 512 512" style="enable-background:new 0 0 512 512;" xml:space="preserve">
<style type="text/css">
	.st0{fill:#FFFFFF;stroke:#000000;stroke-width:2;}
	.st1{font-family:'Arial-BoldMT';}
	.st2{font-size:12.1889px;}
	.st3{fill:none;stroke:#000000;stroke-width:2;}
	.st4{font-family:'ArialMT';}
	.st5{font-size:9.1417px;}
	.st6{fill:none;stroke:#000000;stroke-width:2;stroke-linecap:round;stroke-miterlimit:6;}
	.st7{fill:none;stroke:#000000;stroke-width:2;stroke-linecap:round;}
	.st8{fill:#FFFFFF;stroke:#000000;stroke-width:2;stroke-linecap:round;stroke-linejoin:round;stroke-miterlimit:6;}
	.st9{stroke:#000000;}
</style>
<g id="XMLID_96_" transform="matrix(1.56931979795,0,0,1.56931979795,-3453.20239322,-1864.29248119)">
	<rect id="XMLID_94_" x="2359.4" y="1298.4" class="st0" width="85" height="109.2"/>
	<text id="XMLID_93_" transform="matrix(0.6372 0 0 0.6372 2396.9561 1341.3602)" class="st1 st2">U1</text>
	<path id="XMLID_92_" class="st3" d="M2353.4,1316.6h6.1"/>
	<text id="XMLID_91_" transform="matrix(0.6372 0 0 0.6372 2363.0854 1318.5442)" class="st4 st5">RESET</text>
	<text id="XMLID_90_" transform="matrix(0.6372 0 0 0.6372 2354.1836 1315.1465)" class="st4 st5">1</text>
	<path id="XMLID_89_" class="st3" d="M2353.4,1340.9h6.1"/>
	<text id="XMLID_88_" transform="matrix(0.6372 0 0 0.6372 2363.0854 1342.8164)" class="st4 st5">PIN 3</text>
	<text id="XMLID_87_" transform="matrix(0.6372 0 0 0.6372 2354.1836 1339.4181)" class="st4 st5">2</text>
	<path id="XMLID_86_" class="st3" d="M2353.4,1365.1h6.1"/>
	<text id="XMLID_85_" transform="matrix(0.6372 0 0 0.6372 2363.0854 1367.0876)" class="st4 st5">PIN 4</text>
	<text id="XMLID_84_" transform="matrix(0.6372 0 0 0.6372 2354.1836 1363.6893)" class="st4 st5">3</text>
	<path id="XMLID_83_" class="st3" d="M2353.4,1389.4h6.1"/>
	<text id="XMLID_82_" transform="matrix(0.6372 0 0 0.6372 2363.0854 1391.3597)" class="st4 st5">GND</text>
	<text id="XMLID_81_" transform="matrix(0.6372 0 0 0.6372 2354.1836 1387.9615)" class="st4 st5">4</text>
	<path id="XMLID_80_" class="st3" d="M2450.5,1316.6h-6.1"/>
	<text id="XMLID_79_" transform="matrix(0.6372 0 0 0.6372 2428.4561 1318.5442)" class="st4 st5">VCC</text>
	<text id="XMLID_78_" transform="matrix(0.6372 0 0 0.6372 2446.4165 1315.1465)" class="st4 st5">8</text>
	<path id="XMLID_77_" class="st3" d="M2450.5,1340.9h-6.1"/>
	<text id="XMLID_76_" transform="matrix(0.6372 0 0 0.6372 2426.186 1342.8164)" class="st4 st5">PIN 2</text>
	<text id="XMLID_75_" transform="matrix(0.6372 0 0 0.6372 2446.4165 1339.4181)" class="st4 st5">7</text>
	<path id="XMLID_74_" class="st3" d="M2450.5,1365.1h-6.1"/>
	<text id="XMLID_73_" transform="matrix(0.6372 0 0 0.6372 2426.186 1367.0876)" class="st4 st5">PIN 1</text>
	<text id="XMLID_72_" transform="matrix(0.6372 0 0 0.6372 2446.4165 1363.6893)" class="st4 st5">6</text>
	<path id="XMLID_71_" class="st3" d="M2450.5,1389.4h-6.1"/>
	<text id="XMLID_70_" transform="matrix(0.6372 0 0 0.6372 2426.186 1391.3597)" class="st4 st5">PIN 5</text>
	<text id="XMLID_69_" transform="matrix(0.6372 0 0 0.6372 2446.4165 1387.9615)" class="st4 st5">5</text>
	<path id="XMLID_68_" d="M2225.2,1353l6.8,12.1l6.8-12.1"/>
	<path id="XMLID_67_" class="st6" d="M2232,1353v-12.1"/>
	<path id="XMLID_66_" class="st6" d="M2232,1365.1v12.1"/>
	<path id="XMLID_65_" class="st6" d="M2225.2,1365.1h13.7"/>
	<path id="XMLID_64_" d="M2246.2,1370.4c4,1.3,4.8,2.1,9.7,5.4c-3.2-4.8-4-5.6-5.4-9.7C2249.4,1368.3,2248.3,1369.3,2246.2,1370.4"
		/>
	<path id="XMLID_63_" class="st6" d="M2243.7,1363.6l6.1,6.1"/>
	<path id="XMLID_62_" d="M2246.2,1361.3c4,1.3,4.8,2.1,9.7,5.4c-3.2-4.8-4-5.6-5.4-9.7C2249.4,1359.2,2248.3,1360.2,2246.2,1361.3"
		/>
	<path id="XMLID_61_" class="st6" d="M2243.7,1354.5l6.1,6.1"/>
	<text id="XMLID_60_" transform="matrix(0.6372 0 0 0.6372 2207.3818 1362.5723)" class="st1 st2">LED</text>
	<path id="XMLID_59_" class="st7" d="M2232,1340.9h45.1c0-1.9,1.5-3.4,3.4-3.4s3.4,1.5,3.4,3.4h69.4"/>
	<path id="XMLID_58_" class="st6" d="M2280.6,1280.2h-7.3"/>
	<path id="XMLID_57_" class="st6" d="M2280.6,1304.5h-7.3"/>
	<path id="XMLID_56_" class="st8" d="M2261,1274.8c9.7,0,17.5,7.8,17.5,17.5c0,9.7-7.8,17.5-17.5,17.5v-17.5V1274.8z"/>
	<path id="XMLID_55_" class="st7" d="M2232,1377.3v48.5"/>
	<path id="XMLID_54_" class="st7" d="M2329.1,1389.4h24.3"/>
	<path id="XMLID_53_" class="st7" d="M2329.1,1389.4v36.4"/>
	<path id="XMLID_52_" class="st7" d="M2280.6,1304.5v72.8"/>
	<path id="XMLID_51_" class="st6" d="M2280.6,1387.9v-10.6"/>
	<path id="XMLID_50_" class="st6" d="M2280.6,1415.2v10.6"/>
	<path id="XMLID_49_" class="st6" d="M2280.6,1387.9l-5.3,2.3l10.6,4.6l-10.6,4.6l10.6,4.6l-10.6,4.6l10.6,4.6l-5.3,2.3"/>
	<text id="XMLID_48_" transform="matrix(0.6372 0 0 0.6372 2289.6621 1400.3885)" class="st1 st2">R</text>
	<text id="XMLID_47_" transform="matrix(0.6372 0 0 0.6372 2295.272 1400.3885)" class="st1 st2"> </text>
	<text id="XMLID_46_" transform="matrix(0.6372 0 0 0.6372 2289.6621 1409.7085)" class="st1 st2">10 kΩ</text>
	<path id="XMLID_45_" class="st7" d="M2232,1425.8h254.9"/>
	<path id="XMLID_44_" class="st7" d="M2280.6,1365.1h72.8"/>
	<text id="XMLID_43_" transform="matrix(0.6372 0 0 0.6372 2502.041 1339.7087)" class="st1 st2">BAT</text>
	<text id="XMLID_42_" transform="matrix(0.6372 0 0 0.6372 2517.4277 1339.7087)" class="st1 st2"> </text>
	<text id="XMLID_41_" transform="matrix(0.6372 0 0 0.6372 2502.041 1349.0293)" class="st1 st2">5 V</text>
	<path id="XMLID_40_" class="st7" d="M2499,1338.4h-24.3"/>
	<path id="XMLID_39_" class="st7" d="M2486.9,1338.2v-21.6"/>
	<path id="XMLID_38_" class="st7" d="M2492.9,1343.3h-12.1"/>
	<path id="XMLID_37_" class="st7" d="M2486.9,1343.5v21.6"/>
	<path id="XMLID_36_" d="M2480.7,1331.2h-0.6v2.6h-2.6v0.6h2.6v2.6h0.6v-2.6h2.6v-0.6h-2.6V1331.2"/>
	<path id="XMLID_35_" class="st7" d="M2486.9,1365.1v60.7"/>
	<path id="XMLID_34_" class="st7" d="M2280.6,1280.2h206.3"/>
	<path id="XMLID_33_" class="st7" d="M2486.9,1280.2v36.4"/>
	<path id="XMLID_32_" class="st7" d="M2450.5,1316.6h24.3"/>
	<path id="XMLID_31_" class="st7" d="M2474.7,1316.6h12.1"/>
	<circle id="XMLID_30_" class="st9" cx="2280.6" cy="1425.8" r="1.5"/>
	<circle id="XMLID_29_" class="st9" cx="2486.9" cy="1316.6" r="1.5"/>
	<circle id="XMLID_28_" class="st9" cx="2329.1" cy="1425.8" r="1.5"/>
	<circle id="XMLID_27_" class="st9" cx="2280.6" cy="1365.1" r="1.5"/>
</g>
</svg>
