<?xml version="1.0" encoding="utf-8"?>
<!-- Generator: Adobe Illustrator 19.0.0, SVG Export Plug-In . SVG Version: 6.00 Build 0)  -->
<svg version="1.1" id="Layer_1" xmlns="http://www.w3.org/2000/svg" xmlns:xlink="http://www.w3.org/1999/xlink" x="0px" y="0px"
	 viewBox="0 0 512 439.3" style="enable-background:new 0 0 512 439.3;" xml:space="preserve">
<style type="text/css">
	.st0{fill:#414042;}
	.st1{fill:#D1D3D4;}
	.st2{fill:#939598;}
</style>
<g id="XMLID_1_">
	<path id="XMLID_172_" class="st0" d="M228.4,34.7v370H14.1v-370H228.4 M228.4,30.7H14.1c-2.2,0-4,1.8-4,4v370c0,2.2,1.8,4,4,4
		h214.4c2.2,0,4-1.8,4-4v-370C232.4,32.5,230.6,30.7,228.4,30.7L228.4,30.7z"/>
</g>
<g id="XMLID_3_">
	<path id="XMLID_169_" class="st0" d="M497.9,34.7v370H283.6v-370H497.9 M497.9,30.7H283.6c-2.2,0-4,1.8-4,4v370c0,2.2,1.8,4,4,4
		h214.4c2.2,0,4-1.8,4-4v-370C501.9,32.5,500.1,30.7,497.9,30.7L497.9,30.7z"/>
</g>
<rect id="XMLID_4_" x="14.1" y="34.7" class="st1" width="214.4" height="277.9"/>
<g id="XMLID_254_">
	<g id="XMLID_14_">
		<g id="XMLID_8_">
			<path id="XMLID_275_" class="st2" d="M174.9,312.5c4.7-104.9-32.1-163.8-32.1-163.8c6.4-5.8,10.2-13.7,10.2-23
				c0-17.7-14.4-31.6-32.1-31.6h0.7c-17.7,0-32.1,13.9-32.1,31.6c0,9.3,4,17.3,10.2,23.2c0,0-37,58.6-32.1,163.4"/>
		</g>
		<g id="XMLID_7_">
			<path id="XMLID_278_" class="st1" d="M122.2,144.7c-7.7,0-13.9-6.6-13.9-13.9h2c0,7.3,5.3,11.9,11.9,11.9
				c6.6,0,11.9-4.6,11.9-11.9h2C136,138.1,129.8,144.7,122.2,144.7z"/>
		</g>
		<g id="XMLID_6_">
			<polygon id="XMLID_277_" class="st1" points="113.4,120.3 109.2,116.1 105.2,120.3 103.7,118.8 109.2,113.2 114.9,118.8 			"/>
		</g>
		<g id="XMLID_5_">
			<polygon id="XMLID_276_" class="st1" points="130.9,120.3 129.5,118.8 134.9,113.2 140.4,118.8 139,120.3 134.9,116.1 			"/>
		</g>
	</g>
</g>
<path id="XMLID_9_" class="st2" d="M193.6,364.9H48.9c-2,0-3.6,1.6-3.6,3.6v18.6c0,2,1.6,3.6,3.6,3.6h144.7c2,0,3.6-1.6,3.6-3.6
	v-18.6C197.2,366.5,195.6,364.9,193.6,364.9z"/>
<path id="XMLID_19_" class="st2" d="M445.6,48.5H300.9c-2,0-3.6,1.6-3.6,3.6v22.2h148.3c2,0,3.6-1.6,3.6-3.6V52
	C449.2,50.1,447.6,48.5,445.6,48.5z"/>
<path id="XMLID_24_" class="st2" d="M378.8,88.2h-77.9c-2,0-3.6,1.6-3.6,3.6v22.2h81.5c2,0,3.6-1.6,3.6-3.6V91.7
	C382.4,89.8,380.8,88.2,378.8,88.2z"/>
<path id="XMLID_11_" class="st2" d="M411.4,128H300.9c-2,0-3.6,1.6-3.6,3.6v22.2h114c2,0,3.6-1.6,3.6-3.6v-18.6
	C414.9,129.6,413.3,128,411.4,128z"/>
<path id="XMLID_15_" class="st2" d="M395.5,167.6h-94.6c-2,0-3.6,1.6-3.6,3.6v22.2h98.2c2,0,3.6-1.6,3.6-3.6v-18.6
	C399.1,169.2,397.5,167.6,395.5,167.6z"/>
<path id="XMLID_16_" class="st1" d="M402.7,207.1h77.9c2,0,3.6,1.6,3.6,3.6v56.8h-81.5c-2,0-3.6-1.6-3.6-3.6v-53.2
	C399.1,208.7,400.7,207.1,402.7,207.1z"/>
<path id="XMLID_17_" class="st1" d="M321,281.3h159.6c2,0,3.6,1.6,3.6,3.6V307H321c-2,0-3.6-1.6-3.6-3.6v-18.6
	C317.4,282.9,319.1,281.3,321,281.3z"/>
<path id="XMLID_13_" class="st1" d="M193.6,328.2H48.9c-2,0-3.6,1.6-3.6,3.6v18.6c0,2,1.6,3.6,3.6,3.6h144.7c2,0,3.6-1.6,3.6-3.6
	v-18.6C197.2,329.8,195.6,328.2,193.6,328.2z"/>
<g id="XMLID_18_" transform="translate(0,-952.36216)">
	<path id="XMLID_25_" class="st2" d="M472.2,1189.2L472.2,1189.2C472.1,1189.1,472.1,1189.1,472.2,1189.2c-1.3,0-2.3,0.7-3,1.7
		s-0.7,2.2-0.2,3.3c0.3,0.6,0.7,1.1,1.1,1.4c0.4,0.4,0.9,0.6,1.3,0.9c0.9,0.4,1.7,0.8,2.2,1.2c0.7,0.5,1.1,1.3,1.2,2.2
		c0,0.5,0,0.9-0.2,1.4c-0.2,0.4-0.5,0.7-0.9,0.7h-3.2h-2.6h-8.1v2.1c0,1.9-0.9,3.6-2.2,4.6c-0.8,0.6-1.7,0.9-2.7,1.1
		c0.8,1.6,2.5,2.7,4.4,2.8c0.4,1.6,0.3,3.3-0.1,4.4c-0.2,0.7,0.2,1.5,0.9,1.8s1.5-0.2,1.8-0.9c0,0,0,0,0,0c0.5-1.5,0.6-3.3,0.3-5.2
		h8.2c0.3,0,0.7,0,1-0.1c0.3,1.6,0.1,3.2-0.2,4.3c-0.2,0.7,0.2,1.5,0.9,1.8s1.5-0.2,1.8-0.9c0,0,0,0,0,0c0.5-1.6,0.7-3.5,0.3-5.6
		c-0.1-0.5,0-1,0.3-1.4c0,0,0,0,0.1-0.1c0,0,0,0,0,0h0c0.7-0.9,1.1-2,1.1-3.3v-3.2c0-0.3,0-0.5,0.3-0.9h0c0.7-1,1-2.3,0.9-3.5
		c-0.1-1.4-0.9-2.7-2-3.6c-0.9-0.7-1.8-1-2.6-1.4c-0.4-0.2-0.7-0.4-0.9-0.6c-0.3-0.2-0.4-0.5-0.6-0.7c-0.2-0.4-0.1-0.9,0.1-1.3
		c0.2-0.4,0.7-0.6,1.1-0.7c0.6,0,1.1-0.5,1-1.1C473.2,1189.6,472.7,1189.2,472.2,1189.2L472.2,1189.2z M447.2,1194.9
		c-0.2,0-0.3,0.2-0.3,0.4v8.6c0,1.6,0.7,2.9,1.8,3.7c1.1,0.8,2.6,1.1,4.2,1.1s3.1-0.4,4.2-1.1c1.1-0.8,1.8-2,1.8-3.7v-8.6
		c0-0.2-0.2-0.4-0.4-0.4c-0.1,0-0.2,0-0.3,0.1l-3.3,3.3c-0.6-0.2-1.4-0.4-2.1-0.4s-1.4,0.1-2.1,0.4l-3.3-3.3
		C447.4,1194.9,447.3,1194.9,447.2,1194.9z M455.5,1211.9c0.3,1.6,0.2,3.1-0.1,4.2c-0.2,0.7,0.2,1.5,0.9,1.8
		c0.7,0.2,1.5-0.2,1.8-0.9c0,0,0,0,0,0c0.3-1,0.5-2.3,0.4-3.5C457.3,1213.2,456.3,1212.7,455.5,1211.9L455.5,1211.9z M470.5,1213.5
		C470.5,1213.5,470.5,1213.5,470.5,1213.5h-2.9c0,0.9-0.1,1.7-0.4,2.4c-0.2,0.7,0.2,1.5,0.9,1.8c0.7,0.2,1.5-0.2,1.8-0.9
		c0,0,0,0,0,0C470.3,1215.8,470.5,1214.7,470.5,1213.5L470.5,1213.5z"/>
</g>
<g id="XMLID_56_">
	<path id="XMLID_57_" d="M71.8,345.1l1.4-13.7h2.7l-2.3,19.3h-3.5L68.8,339l-1.3,11.6H64l-2.3-19.3h3l1.4,13.7l1.5-13.7h2.8
		L71.8,345.1z"/>
	<path id="XMLID_59_" d="M82.1,350.8h-1.6c-2.4,0-3.6-1.2-3.6-3.6v-12.4c0-2.4,1.2-3.6,3.6-3.6h1.6c2.4,0,3.6,1.2,3.6,3.6v12.4
		C85.7,349.6,84.5,350.8,82.1,350.8z M81.7,333.8H81c-0.8,0-1.1,0.4-1.1,1.1v12.2c0,0.8,0.4,1.1,1.1,1.1h0.6c0.7,0,1.1-0.4,1.1-1.1
		v-12.2C82.8,334.2,82.4,333.8,81.7,333.8z"/>
	<path id="XMLID_62_" d="M95.8,344.1v6.5h-2.9v-6.5c0-0.9-0.4-1.2-1.2-1.2h-1.3v7.7h-2.9v-19.3h4.8c2.4,0,3.6,1.2,3.6,3.6v3.6
		c0,1.7-0.6,2.5-1.7,3C95.3,341.9,95.8,342.6,95.8,344.1z M91.8,334h-1.4v6.4h1.3c0.8,0,1.2-0.4,1.2-1.2v-4.1
		C92.9,334.4,92.5,334,91.8,334z"/>
	<path id="XMLID_65_" d="M97.5,331.4h4.4c2.9,0,4.2,1.4,4.2,4.2v10.8c0,2.8-1.3,4.2-4.2,4.2h-4.4V331.4z M100.5,348.1h1.1
		c1.2,0,1.7-0.5,1.7-1.7v-10.7c0-1.2-0.5-1.7-1.7-1.7h-1.1V348.1z"/>
	<path id="XMLID_68_" d="M113.4,350.6v-16.6h-2.6v-2.7h8.2v2.7h-2.6v16.6H113.4z"/>
	<path id="XMLID_70_" d="M125,350.8h-1.6c-2.4,0-3.6-1.2-3.6-3.6v-12.4c0-2.4,1.2-3.6,3.6-3.6h1.6c2.4,0,3.6,1.2,3.6,3.6v12.4
		C128.6,349.6,127.4,350.8,125,350.8z M124.6,333.8H124c-0.8,0-1.1,0.4-1.1,1.1v12.2c0,0.8,0.4,1.1,1.1,1.1h0.6
		c0.7,0,1.1-0.4,1.1-1.1v-12.2C125.7,334.2,125.3,333.8,124.6,333.8z"/>
	<path id="XMLID_73_" d="M138.1,342.7v-2.5h4.4v7.1c0,2.4-1.2,3.6-3.6,3.6h-1.6c-2.4,0-3.6-1.2-3.6-3.6v-12.4c0-2.4,1.2-3.6,3.6-3.6
		h1.5c2.4,0,3.5,1.2,3.5,3.5v3.1h-2.9v-2.9c0-0.8-0.4-1.1-1.1-1.1h-0.6c-0.8,0-1.1,0.4-1.1,1.1v12.2c0,0.8,0.4,1.1,1.1,1.1h0.7
		c0.8,0,1.1-0.4,1.1-1.1v-4.4H138.1z"/>
	<path id="XMLID_75_" d="M152.7,347.2c0,2.4-1.2,3.6-3.6,3.6h-1.4c-2.4,0-3.6-1.2-3.6-3.6v-15.8h2.9v15.7c0,0.8,0.4,1.1,1.1,1.1h0.5
		c0.7,0,1.1-0.4,1.1-1.1v-15.7h2.9V347.2z"/>
	<path id="XMLID_77_" d="M161,331.4v2.7h-3.6v5.4h3.5v2.7h-3.5v5.8h3.7v2.7h-6.6v-19.3H161z"/>
	<path id="XMLID_79_" d="M170.9,344.1v3.1c0,2.4-1.2,3.6-3.6,3.6H166c-2.4,0-3.5-1.2-3.5-3.5v-4.1h2.9v4c0,0.7,0.4,1.1,1.1,1.1h0.4
		c0.8,0,1.1-0.4,1.1-1.1v-2.6c0-0.8-0.3-1.2-0.8-1.6l-3-2.2c-1.3-0.9-1.7-1.8-1.7-3.3v-2.6c0-2.4,1.2-3.6,3.6-3.6h1.2
		c2.4,0,3.5,1.2,3.5,3.5v3.5H168v-3.4c0-0.7-0.4-1.1-1.1-1.1h-0.4c-0.7,0-1.1,0.4-1.1,1.1v2.1c0,0.8,0.3,1.2,0.8,1.6l3,2.2
		C170.5,341.7,170.9,342.5,170.9,344.1z"/>
	<path id="XMLID_81_" d="M180.8,344.1v3.1c0,2.4-1.2,3.6-3.6,3.6H176c-2.4,0-3.5-1.2-3.5-3.5v-4.1h2.9v4c0,0.7,0.4,1.1,1.1,1.1h0.4
		c0.8,0,1.1-0.4,1.1-1.1v-2.6c0-0.8-0.3-1.2-0.8-1.6l-3-2.2c-1.3-0.9-1.7-1.8-1.7-3.3v-2.6c0-2.4,1.2-3.6,3.6-3.6h1.2
		c2.4,0,3.5,1.2,3.5,3.5v3.5h-2.9v-3.4c0-0.7-0.4-1.1-1.1-1.1h-0.4c-0.7,0-1.1,0.4-1.1,1.1v2.1c0,0.8,0.3,1.2,0.8,1.6l3,2.2
		C180.4,341.7,180.8,342.5,180.8,344.1z"/>
</g>
<g id="XMLID_10_">
	<path id="XMLID_36_" d="M77,379.4v-2.5h4.4v7.1c0,2.4-1.2,3.6-3.6,3.6h-1.6c-2.4,0-3.6-1.2-3.6-3.6v-12.4c0-2.4,1.2-3.6,3.6-3.6
		h1.5c2.4,0,3.5,1.2,3.5,3.5v3.1h-2.9v-2.9c0-0.8-0.4-1.1-1.1-1.1h-0.6c-0.8,0-1.1,0.4-1.1,1.1v12.2c0,0.8,0.4,1.1,1.1,1.1h0.7
		c0.8,0,1.1-0.4,1.1-1.1v-4.4H77z"/>
	<path id="XMLID_38_" d="M91.6,384c0,2.4-1.2,3.6-3.6,3.6h-1.4c-2.4,0-3.6-1.2-3.6-3.6v-15.8H86v15.7c0,0.8,0.4,1.1,1.1,1.1h0.5
		c0.7,0,1.1-0.4,1.1-1.1v-15.7h2.9V384z"/>
	<path id="XMLID_40_" d="M99.9,368.2v2.7h-3.6v5.4h3.5v2.7h-3.5v5.8h3.7v2.7h-6.6v-19.3H99.9z"/>
	<path id="XMLID_42_" d="M109.8,380.9v3.1c0,2.4-1.2,3.6-3.6,3.6H105c-2.4,0-3.5-1.2-3.5-3.5V380h2.9v4c0,0.7,0.4,1.1,1.1,1.1h0.4
		c0.8,0,1.1-0.4,1.1-1.1v-2.6c0-0.8-0.3-1.2-0.8-1.6l-3-2.2c-1.3-0.9-1.7-1.8-1.7-3.3v-2.6c0-2.4,1.2-3.6,3.6-3.6h1.2
		c2.4,0,3.5,1.2,3.5,3.5v3.5h-2.9v-3.4c0-0.7-0.4-1.1-1.1-1.1h-0.4c-0.7,0-1.1,0.4-1.1,1.1v2.1c0,0.8,0.3,1.2,0.8,1.6l3,2.2
		C109.4,378.5,109.8,379.3,109.8,380.9z"/>
	<path id="XMLID_44_" d="M119.8,380.9v3.1c0,2.4-1.2,3.6-3.6,3.6h-1.3c-2.4,0-3.5-1.2-3.5-3.5V380h2.9v4c0,0.7,0.4,1.1,1.1,1.1h0.4
		c0.8,0,1.1-0.4,1.1-1.1v-2.6c0-0.8-0.3-1.2-0.8-1.6l-3-2.2c-1.3-0.9-1.7-1.8-1.7-3.3v-2.6c0-2.4,1.2-3.6,3.6-3.6h1.2
		c2.4,0,3.5,1.2,3.5,3.5v3.5h-2.9v-3.4c0-0.7-0.4-1.1-1.1-1.1h-0.4c-0.7,0-1.1,0.4-1.1,1.1v2.1c0,0.8,0.3,1.2,0.8,1.6l3,2.2
		C119.3,378.5,119.8,379.3,119.8,380.9z"/>
	<path id="XMLID_46_" d="M129.1,379.4v-2.5h4.4v7.1c0,2.4-1.2,3.6-3.6,3.6h-1.6c-2.4,0-3.6-1.2-3.6-3.6v-12.4c0-2.4,1.2-3.6,3.6-3.6
		h1.5c2.4,0,3.5,1.2,3.5,3.5v3.1h-2.9v-2.9c0-0.8-0.4-1.1-1.1-1.1h-0.6c-0.8,0-1.1,0.4-1.1,1.1v12.2c0,0.8,0.4,1.1,1.1,1.1h0.7
		c0.8,0,1.1-0.4,1.1-1.1v-4.4H129.1z"/>
	<path id="XMLID_48_" d="M138.2,387.4h-2.9v-19.3h2.9V387.4z"/>
	<path id="XMLID_50_" d="M142.2,387.4l-2.8-19.3h3l1.7,14.4l1.8-14.4h2.8l-2.9,19.3H142.2z"/>
	<path id="XMLID_52_" d="M156.4,368.2v2.7h-3.6v5.4h3.5v2.7h-3.5v5.8h3.7v2.7h-6.6v-19.3H156.4z"/>
	<path id="XMLID_54_" d="M163.7,387.4l-3-13l0,3.4v9.6H158v-19.3h3.4l2.8,11.9l0-3.2v-8.7h2.6v19.3H163.7z"/>
</g>
<g id="XMLID_21_">
	<path id="XMLID_129_" d="M307.8,69.5H305V56.8h-1v-2.4h1v-2.5h2.8v2.5h1.5v2.4h-1.5V69.5z"/>
	<path id="XMLID_131_" d="M310.4,50h2.8v5.4c0.7-0.6,1.5-1.2,2.6-1.2h0.1c1.6,0,2.4,0.9,2.4,2.6v12.7h-2.8V57.7
		c0-0.6-0.3-0.9-0.9-0.9c-0.5,0-1,0.2-1.5,0.5v12.3h-2.8V50z"/>
	<path id="XMLID_133_" d="M322.6,63.1v3.1c0,0.7,0.3,1,1,1h0.4c0.7,0,1-0.3,1-1v-1.6h2.7v1.7c0,2.2-1.1,3.4-3.4,3.4h-1.1
		c-2.2,0-3.4-1.1-3.4-3.4v-8.7c0-2.2,1.1-3.4,3.4-3.4h1.1c2.2,0,3.4,1.1,3.4,3.4v5.5H322.6z M322.6,60.7h2.3v-3c0-0.7-0.3-1-1-1
		h-0.3c-0.7,0-1,0.3-1,1V60.7z"/>
	<path id="XMLID_136_" d="M334.1,57.7c0-0.7-0.3-1-1-1h-0.3c-0.6,0-1,0.3-1,1v1.2c0,0.6,0.2,0.9,0.7,1.2l2.6,1.7
		c1.2,0.7,1.7,1.4,1.7,2.9v1.8c0,2.2-1.1,3.4-3.4,3.4h-1c-2.2,0-3.3-1.1-3.3-3.3v-2.3h2.7v2.2c0,0.7,0.3,1,1,1h0.4c0.7,0,1-0.3,1-1
		V65c0-0.5-0.2-0.9-0.7-1.2l-2.6-1.6c-1.2-0.7-1.7-1.4-1.7-2.9v-1.7c0-2.2,1.1-3.4,3.4-3.4h0.9c2.2,0,3.3,1.1,3.3,3.3v2.2h-2.7V57.7
		z"/>
	<path id="XMLID_138_" d="M341,63.1v3.1c0,0.7,0.3,1,1,1h0.4c0.7,0,1-0.3,1-1v-1.6h2.7v1.7c0,2.2-1.1,3.4-3.4,3.4h-1.1
		c-2.2,0-3.4-1.1-3.4-3.4v-8.7c0-2.2,1.1-3.4,3.4-3.4h1.1c2.2,0,3.4,1.1,3.4,3.4v5.5H341z M341,60.7h2.3v-3c0-0.7-0.3-1-1-1H342
		c-0.7,0-1,0.3-1,1V60.7z"/>
	<path id="XMLID_141_" d="M350.9,64.1c0-1.8,0.6-2.5,2.1-3.1l2.9-1v-2.3c0-0.7-0.3-1-1-1h-0.2c-0.7,0-1,0.4-1,1v1.9h-2.6v-2
		c0-2.2,1.1-3.4,3.4-3.4h0.9c2.2,0,3.4,1.1,3.4,3.4v11.9h-2.8v-1c-0.7,0.6-1.4,1.1-2.6,1.1h0c-1.6,0-2.4-0.9-2.4-2.6V64.1z
		 M355.9,66.8v-4.4l-1.5,0.6c-0.6,0.3-0.8,0.6-0.8,1.2v2.2c0,0.6,0.3,0.9,0.9,0.9C355,67.2,355.4,67.1,355.9,66.8z"/>
	<path id="XMLID_144_" d="M360.2,54.4h2.8V56c0.6-1.2,1.2-1.8,2.3-1.8v3.1c-1,0.1-1.7,0.4-2.3,0.9v11.3h-2.8V54.4z"/>
	<path id="XMLID_146_" d="M369,63.1v3.1c0,0.7,0.3,1,1,1h0.4c0.7,0,1-0.3,1-1v-1.6h2.7v1.7c0,2.2-1.1,3.4-3.4,3.4h-1.1
		c-2.2,0-3.4-1.1-3.4-3.4v-8.7c0-2.2,1.1-3.4,3.4-3.4h1.1c2.2,0,3.4,1.1,3.4,3.4v5.5H369z M369,60.7h2.3v-3c0-0.7-0.3-1-1-1H370
		c-0.7,0-1,0.3-1,1V60.7z"/>
	<path id="XMLID_149_" d="M387,69.5c0,2.2-1,3.2-3.3,3.2H382c-2,0-2.9-0.9-2.9-2.9v-0.9h2.5v0.7c0,0.6,0.3,0.9,0.9,0.9h1
		c0.6,0,0.9-0.3,0.9-0.9V67c-0.7,0.6-1.5,1-2.6,1h0c-1.7,0-2.6-1.1-2.6-2.8v-8.2c0-1.8,0.9-2.8,2.6-2.8h0c1.2,0,2,0.5,2.6,1.1v-0.9
		h2.8V69.5z M384.2,57.3c-0.4-0.3-0.9-0.5-1.5-0.5c-0.7,0-1,0.3-1,0.9v7c0,0.7,0.3,0.9,1,0.9c0.6,0,1-0.2,1.5-0.5V57.3z"/>
	<path id="XMLID_152_" d="M396.6,69.5h-2.8v-1c-0.7,0.6-1.5,1.2-2.6,1.2h-0.1c-1.6,0-2.5-0.9-2.5-2.6V54.4h2.8v11.9
		c0,0.6,0.3,0.9,0.9,0.9c0.5,0,1-0.2,1.5-0.5V54.4h2.8V69.5z"/>
	<path id="XMLID_154_" d="M400.9,63.1v3.1c0,0.7,0.3,1,1,1h0.4c0.7,0,1-0.3,1-1v-1.6h2.7v1.7c0,2.2-1.1,3.4-3.4,3.4h-1.1
		c-2.2,0-3.4-1.1-3.4-3.4v-8.7c0-2.2,1.1-3.4,3.4-3.4h1.1c2.2,0,3.4,1.1,3.4,3.4v5.5H400.9z M400.9,60.7h2.3v-3c0-0.7-0.3-1-1-1
		h-0.3c-0.7,0-1,0.3-1,1V60.7z"/>
	<path id="XMLID_157_" d="M412.4,57.7c0-0.7-0.3-1-1-1h-0.3c-0.6,0-1,0.3-1,1v1.2c0,0.6,0.2,0.9,0.7,1.2l2.6,1.7
		c1.2,0.7,1.7,1.4,1.7,2.9v1.8c0,2.2-1.1,3.4-3.4,3.4h-1c-2.2,0-3.3-1.1-3.3-3.3v-2.3h2.7v2.2c0,0.7,0.3,1,1,1h0.4c0.7,0,1-0.3,1-1
		V65c0-0.5-0.2-0.9-0.7-1.2l-2.6-1.6c-1.2-0.7-1.7-1.4-1.7-2.9v-1.7c0-2.2,1.1-3.4,3.4-3.4h0.9c2.2,0,3.3,1.1,3.3,3.3v2.2h-2.7V57.7
		z"/>
	<path id="XMLID_159_" d="M421.5,57.7c0-0.7-0.3-1-1-1h-0.3c-0.6,0-1,0.3-1,1v1.2c0,0.6,0.2,0.9,0.7,1.2l2.6,1.7
		c1.2,0.7,1.7,1.4,1.7,2.9v1.8c0,2.2-1.1,3.4-3.4,3.4h-1c-2.2,0-3.3-1.1-3.3-3.3v-2.3h2.7v2.2c0,0.7,0.3,1,1,1h0.4c0.7,0,1-0.3,1-1
		V65c0-0.5-0.2-0.9-0.7-1.2l-2.6-1.6c-1.2-0.7-1.7-1.4-1.7-2.9v-1.7c0-2.2,1.1-3.4,3.4-3.4h0.9c2.2,0,3.3,1.1,3.3,3.3v2.2h-2.7V57.7
		z"/>
	<path id="XMLID_161_" d="M428.4,63.1v3.1c0,0.7,0.3,1,1,1h0.4c0.7,0,1-0.3,1-1v-1.6h2.7v1.7c0,2.2-1.1,3.4-3.4,3.4H429
		c-2.2,0-3.4-1.1-3.4-3.4v-8.7c0-2.2,1.1-3.4,3.4-3.4h1.1c2.2,0,3.4,1.1,3.4,3.4v5.5H428.4z M428.4,60.7h2.3v-3c0-0.7-0.3-1-1-1
		h-0.3c-0.7,0-1,0.3-1,1V60.7z"/>
	<path id="XMLID_164_" d="M439.8,57.7c0-0.7-0.3-1-1-1h-0.3c-0.6,0-1,0.3-1,1v1.2c0,0.6,0.2,0.9,0.7,1.2l2.6,1.7
		c1.2,0.7,1.7,1.4,1.7,2.9v1.8c0,2.2-1.1,3.4-3.4,3.4h-1c-2.2,0-3.3-1.1-3.3-3.3v-2.3h2.7v2.2c0,0.7,0.3,1,1,1h0.4c0.7,0,1-0.3,1-1
		V65c0-0.5-0.2-0.9-0.7-1.2l-2.6-1.6c-1.2-0.7-1.7-1.4-1.7-2.9v-1.7c0-2.2,1.1-3.4,3.4-3.4h0.9c2.2,0,3.3,1.1,3.3,3.3v2.2h-2.7V57.7
		z"/>
</g>
<g id="XMLID_12_">
	<path id="XMLID_22_" d="M328.9,302.4h-2.8v-12.7h-1v-2.4h1v-2.5h2.8v2.5h1.5v2.4h-1.5V302.4z"/>
	<path id="XMLID_34_" d="M331.4,282.8h2.8v5.4c0.7-0.6,1.5-1.2,2.6-1.2h0.1c1.6,0,2.4,0.9,2.4,2.6v12.7h-2.8v-11.9
		c0-0.6-0.3-0.9-0.9-0.9c-0.5,0-1,0.2-1.5,0.5v12.3h-2.8V282.8z"/>
	<path id="XMLID_83_" d="M343.7,295.9v3.1c0,0.7,0.3,1,1,1h0.4c0.7,0,1-0.3,1-1v-1.6h2.7v1.7c0,2.2-1.1,3.4-3.4,3.4h-1.1
		c-2.2,0-3.4-1.1-3.4-3.4v-8.7c0-2.2,1.1-3.4,3.4-3.4h1.1c2.2,0,3.4,1.1,3.4,3.4v5.5H343.7z M343.7,293.6h2.3v-3c0-0.7-0.3-1-1-1
		h-0.3c-0.7,0-1,0.3-1,1V293.6z"/>
	<path id="XMLID_87_" d="M355.1,290.5c0-0.7-0.3-1-1-1h-0.3c-0.6,0-1,0.3-1,1v1.2c0,0.6,0.2,0.9,0.7,1.2l2.6,1.7
		c1.2,0.7,1.7,1.4,1.7,2.9v1.8c0,2.2-1.1,3.4-3.4,3.4h-1c-2.2,0-3.3-1.1-3.3-3.3v-2.3h2.7v2.2c0,0.7,0.3,1,1,1h0.4c0.7,0,1-0.3,1-1
		v-1.3c0-0.5-0.2-0.9-0.7-1.2l-2.6-1.6c-1.2-0.7-1.7-1.4-1.7-2.9v-1.7c0-2.2,1.1-3.4,3.4-3.4h0.9c2.2,0,3.3,1.1,3.3,3.3v2.2h-2.7
		V290.5z"/>
	<path id="XMLID_92_" d="M362.1,295.9v3.1c0,0.7,0.3,1,1,1h0.4c0.7,0,1-0.3,1-1v-1.6h2.7v1.7c0,2.2-1.1,3.4-3.4,3.4h-1.1
		c-2.2,0-3.4-1.1-3.4-3.4v-8.7c0-2.2,1.1-3.4,3.4-3.4h1.1c2.2,0,3.4,1.1,3.4,3.4v5.5H362.1z M362.1,293.6h2.3v-3c0-0.7-0.3-1-1-1
		H363c-0.7,0-1,0.3-1,1V293.6z"/>
	<path id="XMLID_95_" d="M372,296.9c0-1.8,0.6-2.5,2.1-3.1l2.9-1v-2.3c0-0.7-0.3-1-1-1h-0.2c-0.7,0-1,0.4-1,1v1.9h-2.6v-2
		c0-2.2,1.1-3.4,3.4-3.4h0.9c2.2,0,3.4,1.1,3.4,3.4v11.9H377v-1c-0.7,0.6-1.4,1.1-2.6,1.1h0c-1.6,0-2.4-0.9-2.4-2.6V296.9z
		 M377,299.6v-4.4l-1.5,0.6c-0.6,0.3-0.8,0.6-0.8,1.2v2.2c0,0.6,0.3,0.9,0.9,0.9C376.1,300.1,376.5,299.9,377,299.6z"/>
	<path id="XMLID_98_" d="M381.3,287.3h2.8v1.6c0.6-1.2,1.2-1.8,2.3-1.8v3.1c-1,0.1-1.7,0.4-2.3,0.9v11.3h-2.8V287.3z"/>
	<path id="XMLID_100_" d="M390,295.9v3.1c0,0.7,0.3,1,1,1h0.4c0.7,0,1-0.3,1-1v-1.6h2.7v1.7c0,2.2-1.1,3.4-3.4,3.4h-1.1
		c-2.2,0-3.4-1.1-3.4-3.4v-8.7c0-2.2,1.1-3.4,3.4-3.4h1.1c2.2,0,3.4,1.1,3.4,3.4v5.5H390z M390,293.6h2.3v-3c0-0.7-0.3-1-1-1H391
		c-0.7,0-1,0.3-1,1V293.6z"/>
	<path id="XMLID_103_" d="M403.5,302.4h-2.8v-12.7h-1v-2.4h1v-2.5h2.8v2.5h1.5v2.4h-1.5V302.4z"/>
	<path id="XMLID_105_" d="M406,282.8h2.8v5.4c0.7-0.6,1.5-1.2,2.6-1.2h0.1c1.6,0,2.4,0.9,2.4,2.6v12.7h-2.8v-11.9
		c0-0.6-0.3-0.9-0.9-0.9c-0.5,0-1,0.2-1.5,0.5v12.3H406V282.8z"/>
	<path id="XMLID_107_" d="M418.3,295.9v3.1c0,0.7,0.3,1,1,1h0.4c0.7,0,1-0.3,1-1v-1.6h2.7v1.7c0,2.2-1.1,3.4-3.4,3.4h-1.1
		c-2.2,0-3.4-1.1-3.4-3.4v-8.7c0-2.2,1.1-3.4,3.4-3.4h1.1c2.2,0,3.4,1.1,3.4,3.4v5.5H418.3z M418.3,293.6h2.3v-3c0-0.7-0.3-1-1-1
		h-0.3c-0.7,0-1,0.3-1,1V293.6z"/>
	<path id="XMLID_110_" d="M428.2,287.3c0-1.6,0.1-2,1-3.4l0.6-1l1.1,0.3l-0.3,0.8c-0.4,1-0.7,1.5-0.7,2.1h1v3.7h-2.7V287.3z
		 M432,287.3c0-1.6,0.1-2,1-3.4l0.6-1l1.1,0.3l-0.4,0.8c-0.4,1-0.6,1.5-0.7,2.1h1v3.7H432V287.3z"/>
	<path id="XMLID_113_" d="M441.7,302.6L441.7,302.6c-1.2,0-2-0.5-2.6-1.1v3.9h-2.8v-18.2h2.8v1c0.6-0.6,1.5-1.2,2.6-1.2h0
		c1.7,0,2.6,1,2.6,2.8v9.8C444.3,301.5,443.4,302.6,441.7,302.6z M440.5,289.6c-0.6,0-1,0.2-1.5,0.5v9.4c0.4,0.3,0.9,0.5,1.5,0.5
		c0.7,0,1-0.3,1-0.9v-8.5C441.5,289.9,441.2,289.6,440.5,289.6z"/>
	<path id="XMLID_116_" d="M445.9,287.3h2.8v1.6c0.6-1.2,1.2-1.8,2.3-1.8v3.1c-1,0.1-1.7,0.4-2.3,0.9v11.3h-2.8V287.3z"/>
	<path id="XMLID_118_" d="M452.1,283.3h2.9v2.7h-2.9V283.3z M452.2,287.3h2.8v15.1h-2.8V287.3z"/>
	<path id="XMLID_121_" d="M456.4,289.7v-2.4h6.6v2.4l-3.9,10.3h3.9v2.4h-6.8V300l3.9-10.3H456.4z"/>
	<path id="XMLID_123_" d="M466.8,295.9v3.1c0,0.7,0.3,1,1,1h0.4c0.7,0,1-0.3,1-1v-1.6h2.7v1.7c0,2.2-1.1,3.4-3.4,3.4h-1.1
		c-2.2,0-3.4-1.1-3.4-3.4v-8.7c0-2.2,1.1-3.4,3.4-3.4h1.1c2.2,0,3.4,1.1,3.4,3.4v5.5H466.8z M466.8,293.6h2.3v-3c0-0.7-0.3-1-1-1
		h-0.3c-0.7,0-1,0.3-1,1V293.6z"/>
	<path id="XMLID_126_" d="M476,285.6c0,1.6-0.1,2-1,3.4l-0.6,1l-1.1-0.3l0.4-0.8c0.4-0.9,0.6-1.5,0.7-2.1h-1v-3.7h2.7V285.6z
		 M479.8,285.6c0,1.6-0.1,2-1,3.4l-0.6,1l-1.1-0.3l0.3-0.8c0.4-0.9,0.6-1.5,0.7-2.1h-1v-3.7h2.7V285.6z"/>
</g>
</svg>
