<?xml version="1.0" encoding="utf-8"?>
<!-- Generator: Adobe Illustrator 19.0.0, SVG Export Plug-In . SVG Version: 6.00 Build 0)  -->
<svg version="1.1" id="Layer_1" xmlns="http://www.w3.org/2000/svg" xmlns:xlink="http://www.w3.org/1999/xlink" x="0px" y="0px"
	 viewBox="0 0 40 40" style="enable-background:new 0 0 40 40;" xml:space="preserve">
<path id="XMLID_1_" d="M20,38.9c-5.8,0-10.6-4.8-10.6-10.6V10.2c0-0.6,0.5-1,1-1c0.6,0,1,0.5,1,1v18.1c0,4.7,3.8,8.5,8.5,8.5
	s8.5-3.8,8.5-8.5V8.7c0-3-2.4-5.4-5.4-5.4s-5.4,2.4-5.4,5.4v17.2c0,1.5,1.3,2.8,2.8,2.8c1.5,0,2.8-1.3,2.8-2.8V10.7c0-0.6,0.5-1,1-1
	s1,0.5,1,1v15.2c0,2.7-2.2,4.9-4.9,4.9s-4.9-2.2-4.9-4.9V8.7c0-4.1,3.4-7.5,7.5-7.5s7.5,3.4,7.5,7.5v19.6
	C30.6,34.1,25.8,38.9,20,38.9z"/>
</svg>
