<?xml version="1.0" encoding="utf-8"?>
<!-- Generator: Adobe Illustrator 19.0.0, SVG Export Plug-In . SVG Version: 6.00 Build 0)  -->
<svg version="1.1" id="Layer_1" xmlns="http://www.w3.org/2000/svg" xmlns:xlink="http://www.w3.org/1999/xlink" x="0px" y="0px"
	 viewBox="0 0 512 536.1" style="enable-background:new 0 0 512 536.1;" xml:space="preserve">
<g>
	<g>
		<path d="M54.9,93.7c-0.2,5.2,0.3,10.4,1.6,15.5c0.5,1.8,1.1,6,3.8,5.9c2.8,0,3.9-4.7,4.6-6.7c1.5-4.8,1.9-9.8,1.4-14.8
			c-0.1-1-1.6-1-1.5,0c0.3,3.4,0.3,6.7-0.3,10.1c-0.2,1.2-0.5,2.4-0.9,3.6c-0.6,2.1-0.6,4.9-3.3,4.5c-2.1-0.3-1.9-1.2-2.4-3.1
			c-0.4-1.5-0.7-3-1-4.5c-0.6-3.5-0.7-7-0.6-10.6C56.5,92.7,55,92.7,54.9,93.7L54.9,93.7z"/>
	</g>
</g>
<g>
	<g>
		<path d="M75.2,88.5c-3.5,3.7-4.9,8.2-4.2,13.2c0,0.3,0.4,0.5,0.7,0.6c2.3,0.1,5.5-0.6,6.2,1.9c0.4,1.3-0.1,3-0.6,4.2
			c-0.2,0.7-0.6,1.3-1.1,1.8c-1,1.7-2.7,2.2-5.2,1.6c0.2-0.9-1.3-1.4-1.4-0.4c-0.6,3.6,4,3,5.9,1.6c3.6-2.6,4.8-7.3,3.3-11.4
			c-0.1-0.3-0.4-0.5-0.7-0.6c-3-0.1-5.9,0.6-5.7-3.5c0.1-3,1.8-5.8,3.8-8C77,88.9,75.9,87.8,75.2,88.5L75.2,88.5z"/>
	</g>
</g>
<g>
	<g>
		<path d="M81,93.7c-0.4,4.4-0.3,8.7,0.3,13.1c0.3,2.3,0.7,5.2,2.8,6.6c1.1,0.8,2.7,0.9,3.8,0.2c2.1-1.3,1.2-4.2,2.3-6.2
			c0.5-0.8-0.8-1.6-1.3-0.8c-0.5,0.8-0.7,1.5-0.8,2.4c-0.4,2,0.5,2-2.2,2c-2.6,0-2.4-0.7-2.9-3c-1-4.6-0.9-9.6-0.5-14.3
			C82.6,92.7,81.1,92.7,81,93.7L81,93.7z"/>
	</g>
</g>
<g>
	<g>
		<path d="M79.9,94.6c3.5-0.6,7.1-1.1,10.6-1.7c1-0.2,0.5-1.6-0.4-1.4c-3.5,0.6-7.1,1.1-10.6,1.7C78.6,93.3,79,94.8,79.9,94.6
			L79.9,94.6z"/>
	</g>
</g>
<g>
	<g>
		<path d="M79,104.5c3.8-0.2,7.1-2,9.3-5.2c0.6-0.8-0.7-1.5-1.3-0.8c-1.9,2.7-4.8,4.3-8,4.4C78,103.1,78,104.6,79,104.5L79,104.5z"
			/>
	</g>
</g>
<g>
	<g>
		<path d="M92.7,92.6c1.4,8,2.3,16.1,2.8,24.2c0.5-0.1,1-0.1,1.5-0.2c-0.3-1-0.5-2.1-0.8-3.1c-0.2-0.9-1.7-0.5-1.4,0.4
			c0.3,1,0.5,2.1,0.8,3.1c0.2,0.8,1.5,0.7,1.5-0.2c-0.5-8.3-1.5-16.5-2.9-24.6C94,91.2,92.5,91.6,92.7,92.6L92.7,92.6z"/>
	</g>
</g>
<g>
	<g>
		<path d="M94.5,94.7c1.4-2.6,3.7,1.4,4.1,2.6c0.3,0.8,0.3,1.7,0.4,2.5c0.2,1.2,1.6,6.4-1.1,6.4c-1,0-0.9,1.4,0,1.5
			c2.8,0.3,5.2,1.3,7.3,3.2c0.3,0.3,0.8,0.3,1.1,0c0.7-0.7,0.8-1.6-0.1-2.2c-0.7-0.6-1.8,0.4-1.1,1.1c0,0,0,0.1,0.1,0.1
			c0.4,0,0.7,0,1.1,0c-2.4-2.2-5.1-3.3-8.3-3.7c0,0.5,0,1,0,1.5c4.8,0,2.7-7.8,2.2-10.4c-0.4-1.9-1-4.1-3.1-4.8
			c-1.6-0.5-3.1,0-3.9,1.4C92.7,94.8,94,95.5,94.5,94.7L94.5,94.7z"/>
	</g>
</g>
<g>
	<g>
		<path d="M125.6,91.3c-3.1,6.1-3.7,13.3-1,19.7c1.1,2.6,4.9,6.5,6.9,2.3c0.4-0.9-0.9-1.6-1.3-0.8c-2.2,4.7-5.1-4.8-5.3-5.4
			c-0.4-1.6-0.5-3.3-0.5-4.9c0-3.6,0.9-7,2.5-10.2C127.3,91.2,126,90.4,125.6,91.3L125.6,91.3z"/>
	</g>
</g>
<g>
	<g>
		<path d="M134.3,92.3c-0.3,6.1,0.4,12.1,2.1,17.9c0.2,0.6,1.3,0.8,1.4,0c0.2-1.7,0.9-10.5,5.1-7.5c1.7,1.2,1.8,5.4,2.8,7.3
			c0.5,0.9,1.8,0.1,1.3-0.8c-1.6-2.9-1.4-8.9-6-9c-4.1-0.1-4.3,6.9-4.7,9.6c0.5,0,1,0,1.4,0c-1.7-5.7-2.4-11.6-2.1-17.5
			C135.8,91.4,134.3,91.4,134.3,92.3L134.3,92.3z"/>
	</g>
</g>
<g>
	<g>
		<path d="M153.5,96.7c-2.4,0.4-3.9,2-4.9,4.2c-0.9,2-1.8,5.3-0.8,7.3c0.8,1.8,2.7,2.1,4.3,0.9c2.3-1.8,2.7-5.3,2.4-8
			c-0.5,0.1-1,0.1-1.5,0.2c1,3.5,2.3,6.8,4,10c0.5,0.9,1.7,0.1,1.3-0.8c-1.6-3.1-2.9-6.3-3.8-9.7c-0.2-0.8-1.6-0.7-1.5,0.2
			c0.2,1.6,0.3,3.7-0.7,5.2c-0.2,0.9-0.8,1.1-1.8,0.5c-1.1,0.3-1.6,0.2-1.5-0.6c-0.2-0.3,0.2-2.2,0.2-2.3c0.5-2.6,1.8-5.3,4.7-5.9
			C154.8,98,154.4,96.5,153.5,96.7L153.5,96.7z"/>
	</g>
</g>
<g>
	<g>
		<path d="M163.5,94.1c-2.9,3.2-4.5,7-4.5,11.4c0,0.4,0.2,0.6,0.6,0.7c1.9,0.7,3.3-0.1,5.1-0.7c0.4-0.1,1.4-0.6,1.7-0.5
			c1.2,0.5,1.4,2.9,0.8,3.9c-1.3,2.1-4,2.9-6.3,2c-0.9-0.3-1.3,1.1-0.4,1.4c3.9,1.5,11-2.3,8.6-7.3c-1-2-3-1.7-4.8-1.1
			c-1.8,0.6-3.5,1.9-3.6-0.6c-0.1-2.9,2.1-6.2,3.9-8.2C165.2,94.5,164.1,93.4,163.5,94.1L163.5,94.1z"/>
	</g>
</g>
<g>
	<g>
		<path d="M183.3,93c0.4,5.3,0.9,10.7,1.3,16c0.1,1,1.6,1,1.5,0c-0.4-5.3-0.9-10.7-1.3-16C184.7,92.1,183.2,92.1,183.3,93L183.3,93z
			"/>
	</g>
</g>
<g>
	<g>
		<path d="M189.7,91.7c0.4,3.1,0.8,6.2,1.2,9.4c0.3,1.8,0,5.3,1.4,6.6c0.3,0.2,0.6,0.3,0.9,0.1c0.4-0.2,0.6-0.4,0.7-0.8
			c0.1-0.3-0.1-0.6-0.3-0.8c-0.1,0-0.1-0.1-0.2-0.1c-0.8-0.6-1.5,0.7-0.8,1.3c0.6,0.5,0.1-3.7,0.1-3.6c-0.2-1.6-0.4-3.1-0.6-4.7
			c-0.3-2.4-0.6-4.9-0.9-7.3C191.1,90.7,189.6,90.7,189.7,91.7L189.7,91.7z"/>
	</g>
</g>
<g>
	<g>
		<path d="M191.6,91.7c3.6-0.2,7.1,3.1,8.6,6.1c2,3.8,0.6,10.4-5,9.4c-0.9-0.2-1.3,1.3-0.4,1.4c4.7,0.8,8.4-3.6,7.9-8.2
			c-0.6-4.9-6-10.6-11.1-10.4C190.7,90.3,190.7,91.8,191.6,91.7L191.6,91.7z"/>
	</g>
</g>
<g>
	<g>
		<path d="M202.4,86.2c3.8,2.6,7.7,5.5,9.6,9.8c2.2,4.8,1,11.3-4.6,13.2c-0.9,0.3-0.5,1.8,0.4,1.4c4.8-1.6,7.2-6.4,6.7-11.3
			c-0.6-6.5-6.3-11-11.4-14.4C202.4,84.4,201.6,85.7,202.4,86.2L202.4,86.2z"/>
	</g>
</g>
<g>
	<g>
		<path d="M122.2,144.3c-3.4,82.4,10.8,164.5,4.9,246.8c0.4-0.2,0.9-0.4,1.3-0.5c-3-3.4-4.9-7.1-5.9-11.5c-0.4,0.3-0.7,0.6-1.1,0.8
			c3.7,2.8,6.2,6.1,7.8,10.4c0.2,0.6,1,0.8,1.4,0.2c1.5-2.8,3-5.6,4.6-8.4c0.5-0.8-0.8-1.6-1.3-0.8c-1.5,2.8-3,5.6-4.6,8.4
			c0.5,0.1,0.9,0.1,1.4,0.2c-1.8-4.7-4.5-8.3-8.5-11.3c-0.6-0.4-1.2,0.3-1.1,0.8c1,4.7,3.1,8.6,6.3,12.2c0.5,0.5,1.2,0.1,1.3-0.5
			c5.9-82.3-8.3-164.5-4.9-246.8C123.7,143.4,122.2,143.4,122.2,144.3L122.2,144.3z"/>
	</g>
</g>
<g>
	<g>
		<path d="M76.2,412.1c-3.6,3.6-4.8,9.4-1.8,13.8c2.5,3.8,7.8,4.8,10.6,0.8c0.6-0.8-0.7-1.5-1.3-0.8c-3.4,4.7-8.6-0.1-9.3-4.1
			c-0.6-3.3,0.6-6.4,2.9-8.8C77.9,412.5,76.8,411.4,76.2,412.1L76.2,412.1z"/>
	</g>
</g>
<g>
	<g>
		<path d="M90.7,412.8c-1,5.4-0.5,10.7,1.6,15.8c0.1,0.3,0.4,0.5,0.7,0.6c3.6,0.2,6.4-2.8,6.7-6.3c0.4-4.3-3-7.7-6.4-9.7
			c-0.8-0.5-1.6,0.8-0.8,1.3c2.3,1.3,4.5,3.2,5.3,5.8c0.8,2.5,0,6.4-3,7.1c-4.2,1-3.3-11.7-2.8-14.2
			C92.3,412.2,90.8,411.8,90.7,412.8L90.7,412.8z"/>
	</g>
</g>
<g>
	<g>
		<path d="M104.1,427.7c-0.6-5-0.5-10,0.2-15.1c-0.5,0.1-0.9,0.1-1.4,0.2c2.3,4.3,3.8,8.7,4.6,13.5c0.2,0.9,1.4,0.6,1.5-0.2
			c0.4-4.1,0.7-8.1,1.1-12.2c-0.5,0.1-0.9,0.3-1.4,0.4c2.1,3.7,3.7,7.5,4.9,11.6c0.3,0.9,1.7,0.5,1.4-0.4c-1.3-4.2-3-8.1-5.1-11.9
			c-0.4-0.7-1.3-0.3-1.4,0.4c-0.4,4.1-0.7,8.1-1.1,12.2c0.5-0.1,1-0.1,1.5-0.2c-0.8-4.9-2.4-9.5-4.7-13.9c-0.3-0.5-1.3-0.5-1.4,0.2
			c-0.7,5.2-0.8,10.3-0.2,15.5C102.7,428.6,104.2,428.7,104.1,427.7L104.1,427.7z"/>
	</g>
</g>
<g>
	<g>
		<path d="M115.6,411.7c-0.1,7,0.7,13.9,2.4,20.7c0.2,0.6,1.1,0.7,1.4,0.2c0.3-0.6,0.6-1.2,1-1.8c0.5-0.9-0.8-1.6-1.3-0.8
			c-0.3,0.6-0.6,1.2-1,1.8c0.5,0.1,0.9,0.1,1.4,0.2c-1.7-6.7-2.4-13.4-2.4-20.3C117.1,410.7,115.6,410.7,115.6,411.7L115.6,411.7z"
			/>
	</g>
</g>
<g>
	<g>
		<path d="M115.2,413.1c2-0.3,4.2-0.2,5.9,1c1.7,1.2,2.6,3.4,1.5,5.3c-1.3,2.3-4.3,3.1-6.7,3.7c-0.9,0.2-0.5,1.7,0.4,1.4
			c3.5-0.9,8.4-2.7,8.3-7c-0.1-5.1-5.8-6.5-9.9-5.9C113.9,411.8,114.3,413.3,115.2,413.1L115.2,413.1z"/>
	</g>
</g>
<g>
	<g>
		<path d="M128.5,425.7c-0.3-5.4,0.2-10.7,1.5-15.9c-0.5,0.1-0.9,0.1-1.4,0.2c2.6,5.6,4.9,11.4,6.9,17.3c0.3,0.9,1.8,0.5,1.4-0.4
			c-2-6-4.4-11.9-7-17.7c-0.3-0.6-1.2-0.4-1.4,0.2c-1.3,5.4-1.9,10.8-1.6,16.3C127,426.6,128.5,426.6,128.5,425.7L128.5,425.7z"/>
	</g>
</g>
<g>
	<g>
		<path d="M125.9,422.2c2.3-1.7,4.9-2.6,7.7-2.9c1-0.1,1-1.6,0-1.5c-3.1,0.2-6,1.3-8.5,3.1C124.4,421.4,125.2,422.7,125.9,422.2
			L125.9,422.2z"/>
	</g>
</g>
<g>
	<g>
		<path d="M141.3,426.3c-0.3-4.6-0.6-9.2-0.8-13.8c-0.5,0.1-1,0.1-1.5,0.2c2,4.8,5.5,8.3,10.3,10.3c0.5,0.2,0.9-0.3,0.9-0.7
			c0.6-5-0.3-9.8-2.8-14.2c-0.5-0.8-1.8-0.1-1.3,0.8c2.4,4.2,3.2,8.7,2.6,13.4c0.3-0.2,0.6-0.5,0.9-0.7c-4.3-1.7-7.5-5-9.3-9.3
			c-0.3-0.7-1.5-0.7-1.5,0.2c0.3,4.6,0.6,9.2,0.8,13.8C139.8,427.3,141.3,427.3,141.3,426.3L141.3,426.3z"/>
	</g>
</g>
<g>
	<g>
		<path d="M150.6,411.9c2.1,3.4,4.7,6.5,7.7,9.2c0.7,0.6,1.8-0.4,1.1-1.1c-2.9-2.6-5.4-5.5-7.5-8.9
			C151.4,410.3,150.1,411.1,150.6,411.9L150.6,411.9z"/>
	</g>
</g>
<g>
	<g>
		<path d="M158.9,407.7c0.3,8-0.2,15.9-1.8,23.8c-0.2,0.9,1.3,1.3,1.4,0.4c1.6-8,2.2-16.1,1.8-24.2
			C160.3,406.7,158.8,406.7,158.9,407.7L158.9,407.7z"/>
	</g>
</g>
<g>
	<g>
		<path d="M163.8,404.2c-0.8,4-0.6,8,0.6,11.9c0.3,0.9,1.7,0.5,1.4-0.4c-1.1-3.6-1.3-7.3-0.6-11.1
			C165.4,403.6,164,403.2,163.8,404.2L163.8,404.2z"/>
	</g>
</g>
<g>
	<g>
		<path d="M172.2,408.5c-2.4,3.5-3.7,7.3-3.9,11.6c0,0.2,0.1,0.6,0.4,0.6c1.3,0.6,2.2,0.5,3.6,0c0.7-0.2,1.7-0.9,2.5-1
			c2.2,0.2,3.2,1.2,3,3c0.1,1.8-0.8,3.3-2.8,4.3c-0.9-0.3-1.3,1.1-0.4,1.4c4.8,1.8,6.1-6.7,3.7-9.4c-1.3-1.4-3-1.2-4.7-0.6
			c-2.7,0.9-4.2,1.4-3.2-2.5c0.6-2.5,1.7-4.7,3.2-6.9C174.1,408.5,172.8,407.7,172.2,408.5L172.2,408.5z"/>
	</g>
</g>
<g>
	<g>
		<path d="M94.4,443.1c-2.3,1.9-3.4,4.4-3.4,7.4c0,0.4,0.3,0.8,0.8,0.8c1.3-0.1,2.6-0.3,4-0.4c0.7-0.1,3.3-0.7,4-0.4
			c1.7,0.7,1.4,3.9,1,5.2c-0.7,2.4-2.6,4.4-5.4,3.9c-0.9-0.2-1.3,1.3-0.4,1.4c4.6,0.8,7.3-3.1,7.6-7.3c0.1-1.4,0.3-3.7-1.1-4.5
			c-0.9-0.6-2.1-0.2-3.1-0.1c-2.2,0.2-4.4,0.4-6.6,0.7c0.2,0.2,0.5,0.5,0.8,0.8c0-2.6,1-4.7,3-6.3C96.2,443.5,95.1,442.4,94.4,443.1
			L94.4,443.1z"/>
	</g>
</g>
<g>
	<g>
		<path d="M103.2,445.5c-0.9,4.4-0.4,10.5,2.9,14c3.3,3.4,6.3-3.2,7.8-5.3c0.6-0.8-0.7-1.5-1.3-0.8c-0.9,1.2-1.7,3-2.8,4
			c-0.8,0.7-2.3,1.1-3.1,0.5c-0.4-0.3-0.9-1.5-1.1-2c-1.4-3.1-1.7-6.6-1-10C104.8,445,103.3,444.6,103.2,445.5L103.2,445.5z"/>
	</g>
</g>
<g>
	<g>
		<path d="M100.8,447.8c2.8-2,5.8-3.6,9-4.8c0.9-0.3,0.5-1.8-0.4-1.4c-3.3,1.2-6.5,2.9-9.4,4.9C99.3,447,100,448.3,100.8,447.8
			L100.8,447.8z"/>
	</g>
</g>
<g>
	<g>
		<path d="M103.9,452.5c2.4-0.4,4.5-1.8,5.7-3.8c0.5-0.8-0.8-1.6-1.3-0.8c-1.1,1.8-2.8,2.8-4.8,3.1
			C102.5,451.2,102.9,452.6,103.9,452.5L103.9,452.5z"/>
	</g>
</g>
<g>
	<g>
		<path d="M111.3,443.3c1,5.5,1.9,11.1,2.9,16.6c0.2,0.9,1.6,0.5,1.4-0.4c-1-5.5-1.9-11.1-2.9-16.6
			C112.5,441.9,111.1,442.3,111.3,443.3L111.3,443.3z"/>
	</g>
</g>
<g>
	<g>
		<path d="M112.4,443c0.6-0.7,1.9-2.2,2.8-2.1c0.6,0.5,1.2,1,1.9,1.4c-0.1,0.4-0.1,0.8-0.2,1.2c-0.1,0.6-0.4,1.2-0.6,1.7
			c-0.9,2.3-1.9,4.6-2.9,6.9c-0.2,0.5,0.3,0.9,0.7,0.9c3.2,0,6.4,0.1,9.6,0.1c1,0,1-1.5,0-1.5c-3.2,0-6.4-0.1-9.6-0.1
			c0.2,0.3,0.5,0.6,0.7,0.9c1-2.4,2.1-4.9,3.1-7.3c0.5-1.4,1.1-3.1,0.3-4.5c-1.7-3.1-5.3-0.5-6.9,1.2
			C110.7,442.6,111.7,443.7,112.4,443L112.4,443z"/>
	</g>
</g>
<g>
	<g>
		<path d="M120.7,441.2c0.8,5.7,2.3,11.2,4.4,16.6c0.3,0.7,1.2,0.7,1.4,0c1.9-4.6,2.7-9.2,2.5-14.1c0-1-1.5-1-1.5,0
			c0.2,4.8-0.6,9.3-2.5,13.7c0.5,0,1,0,1.4,0c-2.1-5.4-3.6-10.9-4.4-16.6C122,439.9,120.6,440.3,120.7,441.2L120.7,441.2z"/>
	</g>
</g>
<g>
	<g>
		<path d="M130.2,445.7c0.2,3.7,0.9,7.3,2.2,10.8c0.3,0.9,1.8,0.5,1.4-0.4c-1.2-3.4-1.9-6.8-2.1-10.4
			C131.6,444.7,130.1,444.7,130.2,445.7L130.2,445.7z"/>
	</g>
</g>
<g>
	<g>
		<path d="M130.3,437.1c1,0,1-1.5,0-1.5C129.4,435.6,129.4,437.1,130.3,437.1L130.3,437.1z"/>
	</g>
</g>
<g>
	<g>
		<path d="M137.4,440.4c-1.8,4-4.8,12.3-1.4,16.2c2,2.3,6.1,1.6,6.5-1.6c0.1-1-1.4-0.9-1.5,0c-0.4,3.2-4.3,0.5-4.7-1.2
			c-0.3-1.3-0.1-2.8,0.1-4.1c0.4-3,1.1-5.8,2.3-8.5C139.1,440.3,137.8,439.5,137.4,440.4L137.4,440.4z"/>
	</g>
</g>
<g>
	<g>
		<path d="M143,440.3c-0.2,3-0.1,6.1,0.5,9.1c0.4,1.9,0.8,4.5,2.7,5.5c4.1,2.1,6.8-2.7,8-5.7c0.4-0.9-1.1-1.3-1.4-0.4
			c-0.6,1.5-1.2,3.1-2.4,4.1c-1.4,1.1-2.2,1.1-3.5-0.1c-1.3-1.2-1.3-1.2-1.7-2.7c-0.7-3.2-0.9-6.4-0.6-9.6
			C144.5,439.4,143,439.4,143,440.3L143,440.3z"/>
	</g>
</g>
<g>
	<g>
		<path d="M141.4,441c2.5-1.5,5-2.5,7.8-3.2c0.9-0.2,0.5-1.7-0.4-1.4c-2.9,0.7-5.6,1.8-8.2,3.4C139.8,440.2,140.5,441.5,141.4,441
			L141.4,441z"/>
	</g>
</g>
<g>
	<g>
		<path d="M143.2,447.2c2.7-0.4,5.1-1.7,6.9-3.7c0.6-0.7-0.4-1.8-1.1-1.1c-1.7,1.9-3.8,3-6.2,3.4
			C141.9,445.9,142.3,447.3,143.2,447.2L143.2,447.2z"/>
	</g>
</g>
<g>
	<g>
		<path d="M155.2,437.9c-2.2,2.1-3.2,4.6-2.9,7.6c0,0.4,0.3,0.7,0.8,0.8c2.7,0.1,7.2-0.8,7.3,3c0.1,3.1-1.8,6-4.7,7.2
			c0.3,0.2,0.6,0.5,0.9,0.7c-0.1-0.7-0.1-1.5-0.2-2.2c-0.1-1-1.6-1-1.5,0c0.1,0.7,0.1,1.5,0.2,2.2c0,0.4,0.5,0.9,0.9,0.7
			c5-2,7.2-7.7,4.7-12.5c-0.1-0.2-0.4-0.4-0.6-0.4c-1.1,0-4.8,0.4-5.6-0.2c-2-1.5,0.5-4.6,1.8-5.9
			C157,438.3,155.9,437.3,155.2,437.9L155.2,437.9z"/>
	</g>
</g>
<g>
	<g>
		<path d="M277.7,223.7c0,7.8,1.1,15.4,3.3,22.8c0.3,0.9,1.7,0.5,1.4-0.4c-2.2-7.3-3.3-14.8-3.3-22.4
			C279.2,222.7,277.7,222.7,277.7,223.7L277.7,223.7z"/>
	</g>
</g>
<g>
	<g>
		<path d="M277.6,227c3.9-3.8,8.7,0.8,6.8,5.4c-1.3,3-4.3,4.7-7,6.2c-0.8,0.5-0.1,1.7,0.8,1.3c4.1-2.1,8.4-3.3,13.1-3.5
			c-0.2-0.3-0.5-0.6-0.7-0.9c-1.1,4-3.7,6.9-7.4,8.7c-0.9,0.4-0.1,1.7,0.8,1.3c4.1-2,6.8-5.3,8.1-9.6c0.1-0.5-0.2-1-0.7-0.9
			c-4.9,0.2-9.5,1.5-13.8,3.7c0.3,0.4,0.5,0.9,0.8,1.3c4.2-2.4,10.2-6.6,7.9-12.3c-1.6-4-6.7-4.4-9.6-1.6
			C275.9,226.6,277,227.7,277.6,227L277.6,227z"/>
	</g>
</g>
<g>
	<g>
		<path d="M293.5,224.3c0.1,5.6-1.6,15.8,3.7,19.6c3.5,2.5,8.8-0.1,7.2-4.6c-0.3-0.9-1.8-0.5-1.4,0.4c-3.3,3.5-5.5,3.8-6.5,0.9
			c-0.8-1.1-1.2-2.4-1.2-3.9c-0.1-1.3-0.1-2.7-0.2-4.1c-0.1-2.8-0.1-5.5-0.2-8.3C295,223.4,293.5,223.4,293.5,224.3L293.5,224.3z"/>
	</g>
</g>
<g>
	<g>
		<path d="M289.4,229.6c3.6-2.4,7.6-3.9,11.9-4.5c1-0.1,0.5-1.6-0.4-1.4c-4.4,0.6-8.5,2.2-12.2,4.6
			C287.8,228.8,288.5,230.1,289.4,229.6L289.4,229.6z"/>
	</g>
</g>
<g>
	<g>
		<path d="M291,235.8c2.9,0,5.6-1,7.9-2.9c0.7-0.6-0.3-1.7-1.1-1.1c-1.9,1.7-4.3,2.5-6.8,2.5C290,234.2,290,235.7,291,235.8
			L291,235.8z"/>
	</g>
</g>
<g>
	<g>
		<path d="M303.5,243.7c-0.7-3.1,1-7.8,1.6-10.9c0.6-3,1.1-5.9,1.7-8.9c-0.5,0.1-0.9,0.1-1.4,0.2c2.5,4.9,4.9,9.8,7.4,14.8
			c0.4,0.9,1.7,0.1,1.3-0.8c-2.5-4.9-4.9-9.8-7.4-14.8c-0.3-0.6-1.3-0.4-1.4,0.2c-0.8,3.9-1.5,7.9-2.3,11.8c-0.5,2.8-1.7,5.9-1,8.7
			C302.3,245,303.8,244.6,303.5,243.7L303.5,243.7z"/>
	</g>
</g>
<g>
	<g>
		<path d="M302.1,239.1c4.2-2.3,8.3-4.6,12.5-7c0.8-0.5,0.1-1.8-0.8-1.3c-4.2,2.3-8.3,4.6-12.5,7
			C300.5,238.2,301.2,239.5,302.1,239.1L302.1,239.1z"/>
	</g>
</g>
<g>
	<g>
		<path d="M319.4,223.5c-2.2,3.2-5,8.8-3.7,12.9c1.1,3.4,5.2,3,8,2.4c0.9-0.2,0.5-1.7-0.4-1.4c-1.1,0.2-2.3,0.5-3.4,0.4
			c-2.9-0.3-3-3.6-2.6-5.8c0.6-2.8,1.7-5.3,3.4-7.7C321.3,223.5,320,222.7,319.4,223.5L319.4,223.5z"/>
	</g>
</g>
<g>
	<g>
		<path d="M324,228.1c-0.4,2.5-2.1,9.3,1.6,10.1c3,0.7,5.7-2.5,6.7-4.9c1.2-2.9,1-6.7-1-9.2c-1.5-1.8-4.8-2.9-6.1-0.4
			c-0.4,0.9,0.9,1.6,1.3,0.8c1.6-3.1,4.5,1.9,4.8,3c0.4,1.7,0.3,3.5-0.3,5.1c-0.6,1.5-2.1,3.9-3.8,4.1c-3.3,0.4-1.8-6.8-1.6-8.2
			C325.6,227.6,324.1,227.2,324,228.1L324,228.1z"/>
	</g>
</g>
<g>
	<g>
		<path d="M336.8,239.5c0.2,0.1,0.1-5.4,0.1-5.9c0.1-2,0.5-4,1-5.9c-0.5,0.1-0.9,0.1-1.4,0.2c2.6,3.8,5.2,7.5,7.8,11.3
			c0.3,0.4,1,0.6,1.3,0c1.9-4.4,4.4-10.8,3.5-15.7c-0.3-1.4-2.1-2.6-2.6-0.7c-0.3,0.9,1.2,1.3,1.4,0.4c-0.7,2.3-0.5,5-1,7.5
			c-0.6,2.7-1.4,5.2-2.6,7.7c0.4,0,0.9,0,1.3,0c-2.6-3.8-5.2-7.5-7.8-11.3c-0.4-0.5-1.2-0.5-1.4,0.2c-0.8,2.9-1.2,5.8-1,8.8
			c0.1,1.4-0.1,3,1.1,3.9c0.2,0.1,0.6,0.1,0.8,0c0.4-0.3,0.6-0.5,0.6-1.1c0-0.3-0.2-0.6-0.6-0.7c-0.1,0-0.1,0-0.2-0.1
			C336.3,237.8,335.9,239.2,336.8,239.5L336.8,239.5z"/>
	</g>
</g>
<g>
	<g>
		<path d="M121.9,246.8c1.2,1.3,3.3,0.5,3.9-1c0.8-2-1.4-3.6-3.2-3.5c-2.6,0.1-3.2,3-2.3,5c0.9,2.1,3.4,3.3,5.6,2.6
			c2.1-0.7,3.6-3.2,2.6-5.3c-0.8-1.7-3.1-2.5-4.7-1.5c-1.7,1-2,3-0.7,4.5c1.5,1.8,4,1.2,5.4-0.4c1.5-1.7,2.1-4.8-1-4.9
			c-3-0.1-5.8,2.5-7,5.1c-0.2,0.3-0.1,0.6,0.1,0.9c2,2.4,6.5,1.9,7.6-1.1c1.4-3.4-2.6-6.9-5.9-5.6c-0.3,0.1-0.5,0.4-0.6,0.7
			c-0.2,2,1.8,3.6,3.7,3.3c2.2-0.3,2.8-2.7,1.7-4.4c-1.1-1.9-3.4-2-4.9-0.4c-1.4,1.5-1.4,4-0.2,5.7c3.1,4.4,9.8-1.3,6.1-4.9
			c-1.5-1.4-4.3-1.4-5.2,0.7c-0.7,1.7,0.2,4.1,2.2,4.1c2.2,0,3.7-3,1.7-4.4c-1.9-1.3-4.5,0.2-4.7,2.3c0,0.3,0.2,0.5,0.4,0.6
			c1.1,0.7,2.1,0.9,3.4,0.6c0.9-0.2,0.5-1.6-0.4-1.4c-0.8,0.2-1.5,0-2.2-0.5c0.1,0.2,0.2,0.4,0.4,0.6c0.1-0.7,0.6-1.1,1.2-1.2
			c0.4-0.1,0.8-0.1,1.1,0.1c0,0.5-0.1,0.9-0.1,1.4c-0.9,1.5-1.8-0.7-1.7-1.3c0.2-0.8,0.8-1.2,1.6-1.1c3.6,0.1,1.2,6.2-1.8,4.2
			c-1.5-1-2-5.2,0.6-5.1c1.2,0,2.2,1.8,1.1,2.6c-1.1,0.8-2.6-0.4-2.5-1.6c-0.2,0.2-0.4,0.5-0.6,0.7c2.2-0.9,5.5,1.7,3.9,4.1
			c-1.1,1.6-3.7,1.7-4.9,0.2c0,0.3,0.1,0.6,0.1,0.9c0.6-1.3,1.4-2.4,2.5-3.2c0.7-0.5,4-2.3,3.8-0.1c-0.1,1.2-2.1,2.7-3.2,2.3
			c-1.6-0.5-1.5-2.9,0.3-3c1.7-0.1,2.5,1.6,1.8,3c-0.7,1.5-2.6,1.9-4,1.1c-1.1-0.6-2.5-3.4-1-4.3c0.4-0.3,1.5-0.1,1.9,0.2
			c1.4,0.9-0.1,2.5-0.8,1.7C122.3,245,121.3,246,121.9,246.8L121.9,246.8z"/>
	</g>
</g>
<g>
	<g>
		<path d="M166.3,215c0.5,4.7,1.1,9.3,1.6,14c0.1,0.9,1.6,1,1.5,0c-0.5-4.7-1.1-9.3-1.6-14C167.7,214,166.2,214,166.3,215L166.3,215
			z"/>
	</g>
</g>
<g>
	<g>
		<path d="M166.8,210.9c0.5-1.3,2.3-1.6,3.5-1c1.5,0.8,1.7,2.9,1.3,4.4c-0.7,2.5-2.9,4.2-4.9,5.7c-0.8,0.6,0.3,1.6,1.1,1.1
			c3.1-2.5,7.3-6.6,4.7-11c-1.7-2.8-6-2.7-7.2,0.4C165,211.4,166.5,211.8,166.8,210.9L166.8,210.9z"/>
	</g>
</g>
<g>
	<g>
		<path d="M174.3,219c0.3,2.4,0.5,4.7,0.8,7.1c0.5,0,1,0,1.5,0c-0.5-3.7-0.2-7.4,0.7-11c0.3-0.9-1.2-1.3-1.4-0.4
			c-1,3.8-1.3,7.6-0.8,11.4c0.1,0.9,1.6,1,1.5,0c-0.3-2.4-0.5-4.7-0.8-7.1C175.7,218,174.2,218,174.3,219L174.3,219z"/>
	</g>
</g>
<g>
	<g>
		<path d="M183.6,217c-2.1,1.8-2.4,5.4-0.1,7.3c2,1.6,5.3,1.2,6.7-1c1.4-2.1,0.6-5.3-1.6-6.5c-2.5-1.4-5.6,0.1-6.6,2.6
			c-0.4,0.9,1.1,1.3,1.4,0.4c0.7-1.7,3-2.6,4.6-1.5c1.3,0.9,1.7,3,0.8,4.3c-1,1.5-3.4,1.6-4.6,0.5c-1.5-1.4-1-3.7,0.4-4.9
			C185.4,217.4,184.3,216.4,183.6,217L183.6,217z"/>
	</g>
</g>
<g>
	<g>
		<path d="M191.9,220c1.1,2.8,2.6,5.4,4.3,7.9c0.3,0.4,1.3,0.5,1.4-0.2c0.5-4,1.1-7.9,1.6-11.9c0.1-0.9-1.3-1.4-1.4-0.4
			c-0.5,4-1.1,7.9-1.6,11.9c0.5-0.1,0.9-0.1,1.4-0.2c-1.7-2.3-3.1-4.8-4.2-7.5C193,218.7,191.6,219.1,191.9,220L191.9,220z"/>
	</g>
</g>
<g>
	<g>
		<path d="M202.2,217.9c0.9,2.7,1.8,5.3,2.7,8c0.3,0.9,1.8,0.5,1.4-0.4c-0.9-2.7-1.8-5.3-2.7-8C203.4,216.6,201.9,217,202.2,217.9
			L202.2,217.9z"/>
	</g>
</g>
<g>
	<g>
		<path d="M203.1,213c0-0.2,0-0.4,0-0.7c0-1-1.5-1-1.5,0c0,0.2,0,0.4,0,0.7C201.6,214,203.1,214,203.1,213L203.1,213z"/>
	</g>
</g>
<g>
	<g>
		<path d="M212.2,213.4c-2.4,2-3.8,4.9-3.5,8c0.2,1.8,0.9,4.2,3.1,4.3c2.1,0.1,3.3-1.9,3.6-3.7c0.8-4.5,0.4-9.6,0.5-14.2
			c-0.5,0.1-1,0.1-1.5,0.2c1.4,5.5,2.9,11,4.3,16.6c0.2,0.9,1.7,0.5,1.4-0.4c-1.4-5.5-2.9-11-4.3-16.6c-0.2-0.8-1.4-0.6-1.5,0.2
			c-0.1,3.7-0.2,7.4-0.3,11.1c0,0.4,0.2,1.8-0.1,2.2c-1.2,0.4-2.4,0.7-3.7,1.1c-0.1-0.6-0.1-1.1-0.2-1.7c0.1-2.5,1.3-4.5,3.1-6
			C214,213.8,213,212.8,212.2,213.4L212.2,213.4z"/>
	</g>
</g>
<g>
	<g>
		<path d="M220.8,219c4.3,1.5,8.3-2.6,6.6-6.8c-0.1-0.3-0.4-0.6-0.7-0.6c-3.8,0.1-5.7,6.6-5,9.6c0.7,2.7,4.8,4.4,6.5,1.6
			c0.5-0.8-0.8-1.6-1.3-0.8c-0.5,1-1.7,0.9-2.6,0.4c-1.3-0.8-1.4-2.5-1.1-3.9c0.3-1.7,1.3-5.3,3.5-5.4c-0.2-0.2-0.5-0.4-0.7-0.6
			c1.3,3.2-1.4,6.1-4.7,5C220.3,217.2,219.9,218.6,220.8,219L220.8,219z"/>
	</g>
</g>
<g>
	<g>
		<path d="M235.6,207.7c-2.3,0.2-4.2,2.3-3.7,4.7c0.3,1.6,1.7,2.2,2.7,3.4c0.9,1.1,1.6,2.8,1.1,4.2c-0.6,2.1-3.3,1.8-5,1
			c-0.9-0.4-1.6,0.9-0.8,1.3c2.5,1.3,6.7,1.4,7.2-2.1c0.3-1.6-0.1-3.3-0.9-4.7c-0.4-0.7-1-1.2-1.6-1.7c-0.8-0.8-1.4-1.5-1.2-2.6
			c0.2-1.1,1-1.9,2.2-2C236.6,209.1,236.6,207.6,235.6,207.7L235.6,207.7z"/>
	</g>
</g>
<g>
	<g>
		<path d="M183.5,238.4c-3,4.2-6.5,9.3-5.3,14.8c0.9,4,4.1,7.2,8.3,7.1c1,0,1-1.5,0-1.5c-5.5,0.1-7.8-5.8-6.7-10.4
			c0.9-3.4,3-6.4,5-9.2C185.3,238.3,184,237.6,183.5,238.4L183.5,238.4z"/>
	</g>
</g>
<g>
	<g>
		<path d="M227.6,235.9c3,1.7,5.5,4,7.1,7.1c1.7,3.2,4.4,12.9-2.5,12.6c-1,0-1,1.5,0,1.5c5.1,0.2,6.4-5.2,5.7-9.3
			c-0.9-5.7-4.6-10.4-9.6-13.3C227.5,234.1,226.7,235.4,227.6,235.9L227.6,235.9z"/>
	</g>
</g>
<g>
	<g>
		<path d="M270.1,235.5c-10.7,2.2-21.5,3.6-32.4,4.2c-1,0.1-1,1.6,0,1.5c11.1-0.6,22-2,32.8-4.3
			C271.5,236.7,271.1,235.3,270.1,235.5L270.1,235.5z"/>
	</g>
</g>
<g>
	<g>
		<path d="M173.7,242.2c-13.1,0.4-26.2,0.9-39.3,1.3c0.2,0.4,0.4,0.9,0.5,1.3c3.9-3.3,8.2-5.9,12.8-8c-0.3-0.4-0.5-0.9-0.8-1.3
			c-4.1,2.3-8.2,4.7-12.3,7c-0.4,0.2-0.5,0.8-0.2,1.2c2.9,3.3,5.8,6.5,8.7,9.8c0.6,0.7,1.7-0.3,1.1-1.1c-1.3-1.4-8.2-7.4-7.3-9.5
			c0.3-0.6,4-2.3,4.6-2.6c2.1-1.2,4.1-2.3,6.2-3.5c0.9-0.5,0.1-1.7-0.8-1.3c-4.8,2.2-9.1,4.9-13.1,8.3c-0.5,0.4-0.1,1.3,0.5,1.3
			c13.1-0.4,26.2-0.9,39.3-1.3C174.6,243.7,174.6,242.2,173.7,242.2L173.7,242.2z"/>
	</g>
</g>
<g>
	<g>
		<path d="M191.4,257.2c0.3-1.9,0.6-3.7,0.9-5.6c0.1-0.8,0.3-1.6,0.4-2.4c0.1-0.5,0.2-1.1,0.3-1.6c0.3-0.5,0.6-0.5,0.9,0.1
			c1.2,0.8,2.1,3.3,2.8,4.5c0.9,1.6,1.8,3.1,2.7,4.7c0.3-0.3,0.7-0.7,1-1c-0.5-0.3-1.1-0.6-1.6-0.8c-0.9-0.4-1.6,0.9-0.8,1.3
			c0.5,0.3,1.1,0.6,1.6,0.8c0.7,0.3,1.4-0.4,1-1c-1.3-2.2-2.6-4.5-3.9-6.7c-0.7-1.3-1.7-3.6-3.4-3.8c-1.8-0.3-1.8,1.4-2,2.8
			c-0.5,2.8-0.9,5.6-1.4,8.4C189.8,257.7,191.3,258.1,191.4,257.2L191.4,257.2z"/>
	</g>
</g>
<g>
	<g>
		<path d="M189,254.2c3.1-0.4,5.9-1.4,8.5-3.1c0.8-0.5,0.1-1.8-0.8-1.3c-2.4,1.5-4.9,2.5-7.7,2.9C188,252.8,188,254.3,189,254.2
			L189,254.2z"/>
	</g>
</g>
<g>
	<g>
		<path d="M200.6,246.6c0.8,4.5,2.2,8.7,4.4,12.7c0.4-0.3,0.9-0.5,1.3-0.8c-0.4-0.6-0.9-1.3-1.3-1.9c-0.5-0.8-1.8,0-1.3,0.8
			c0.4,0.6,0.9,1.3,1.3,1.9c0.5,0.8,1.8,0.1,1.3-0.8c-2.1-3.9-3.5-8-4.2-12.4C201.9,245.2,200.4,245.6,200.6,246.6L200.6,246.6z"/>
	</g>
</g>
<g>
	<g>
		<path d="M201.1,246.8c0.9-1.2,3-0.8,3.6,0.5c0.8,1.6-0.4,3.4-1.8,4.1c-0.9,0.4-0.1,1.7,0.8,1.3c2.3-1.1,3.8-4.3,2.1-6.6
			c-1.4-1.9-4.5-2-6-0.1C199.3,246.9,200.6,247.6,201.1,246.8L201.1,246.8z"/>
	</g>
</g>
<g>
	<g>
		<path d="M210.2,246.3c-0.1,2.2,0.4,4.4,0.8,6.5c0.2,1,0.5,2,0.7,3c0.1,0.4,0.1,0.8,0.3,1.1c0.2,0.4,0,0.9,0.3,0.4
			c-0.4,0.9,0.8,1.6,1.3,0.8c0.5-0.9-0.5-2.9-0.7-3.8c-0.6-2.6-1.3-5.3-1.2-7.9C211.8,245.4,210.3,245.4,210.2,246.3L210.2,246.3z"
			/>
	</g>
</g>
<g>
	<g>
		<path d="M209.8,243.3c2-1.5,5.3-1,6.5,1.3c1.4,2.6-0.8,5.7-3.5,6.1c-1,0.1-0.5,1.6,0.4,1.4c3.5-0.5,6-4.6,4.6-7.9
			c-1.4-3.3-5.9-4.3-8.7-2.3C208.2,242.6,209,243.9,209.8,243.3L209.8,243.3z"/>
	</g>
</g>
<g>
	<g>
		<path d="M206.3,305.8c1,0,1-1.5,0-1.5C205.4,304.2,205.4,305.8,206.3,305.8L206.3,305.8z"/>
	</g>
</g>
<g>
	<g>
		<path d="M319.2,259.6c-0.6,2.8-1,7,2.5,8.3c3.1,1.1,5.1-2.3,5.5-4.9c0.4-2.5-0.3-6.2-3.2-6.8c-2.3-0.5-5,1.5-4.2,4
			c0.3,0.9,1.7,0.5,1.4-0.4c-0.8-2.3,2.8-2.7,3.9-1.1c0.9,1.3,0.9,3.3,0.5,4.8c-0.5,1.8-2.1,4.1-4.1,2.6c-1.8-1.4-1.3-4.1-0.9-6
			C320.8,259,319.4,258.6,319.2,259.6L319.2,259.6z"/>
	</g>
</g>
<g>
	<g>
		<path d="M328.8,254.3c0.1,4.5,0.4,8.9,1,13.3c0.1,0.8,1.3,0.7,1.4,0c0.5-1.7,1-3.3,1.4-5c0.3-1,0.6-2,0.9-3
			c0.2-0.9,0.1-2.1,1.2-1.9c1.4,0.3,1.5,3.4,1.8,4.6c0.4,1.8,0.9,3.6,1.3,5.4c0.2,0.9,1.7,0.5,1.4-0.4c-0.7-2.9-1.2-6-2.1-8.9
			c-0.4-1.2-1.1-2.7-2.4-3c-1.6-0.4-1.9,0.9-2.2,2.2c-0.9,3.2-1.8,6.3-2.7,9.5c0.5,0,1,0,1.4,0c-0.6-4.3-0.9-8.6-1-12.9
			C330.3,253.4,328.8,253.4,328.8,254.3L328.8,254.3z"/>
	</g>
</g>
<g>
	<g>
		<path d="M349.8,243.6c0.9,7.8,1.7,15.6,2.6,23.4c0.1,0.9,1.6,1,1.5,0c-0.9-7.8-1.7-15.6-2.6-23.4
			C351.2,242.6,349.7,242.6,349.8,243.6L349.8,243.6z"/>
	</g>
</g>
<g>
	<g>
		<path d="M357.6,257.5c1.3,2.2-0.2,6.4,2.8,7.6c3,1.2,4.7-2.6,5.2-4.9c0.7-2.9,0.7-7.4-3.1-8.1C359.3,251.5,358.1,255,357.6,257.5
			c-0.1,0.9,1.3,1.3,1.5,0.3c0.4-1.9,1.9-6.2,4.5-3.4c1.7,1.8,0.8,5.6-0.3,7.6c-0.7,1.3-2.6,2.4-3.3,0.5c-0.3-0.8-0.2-1.6-0.3-2.4
			c-0.1-1.2-0.3-2.4-0.9-3.4C358.4,255.9,357.1,256.6,357.6,257.5L357.6,257.5z"/>
	</g>
</g>
<g>
	<g>
		<path d="M372,251.4c-3.5,4.5-4.2,10.1-2,15.4c0.1,0.3,0.5,0.4,0.8,0.3c2.6-0.6,4.6-1.8,6.3-3.8c0.6-0.7-0.4-1.8-1.1-1.1
			c-1,1.2-2.4,2.7-4,3c-1.1,0.2-1.1,0-1.4-1c-0.3-0.8-0.4-1.9-0.5-2.7c-0.2-3.3,0.8-6.4,2.9-9C373.7,251.7,372.6,250.7,372,251.4
			L372,251.4z"/>
	</g>
</g>
<g>
	<g>
		<path d="M381.4,252.6c-2,1.8-3.4,4.2-3.7,6.9c-0.3,1.9-0.4,4.6,1.8,5.4c2,0.7,4.1-0.3,5.1-2.1c1.8-3,0.6-6.5,1.2-9.7
			c-0.5-0.1-1-0.1-1.5-0.2c0.5,4,1.4,7.8,2.9,11.5c0.4,0.9,1.8,0.5,1.4-0.4c-1.4-3.6-2.4-7.3-2.9-11.1c-0.1-0.8-1.3-1.1-1.5-0.2
			c-0.5,2.9,1.1,10.1-3.1,10.9c-2.8,0.5-2.3-3.3-1.9-5c0.5-2,1.6-3.6,3.1-5C383.1,253,382.1,251.9,381.4,252.6L381.4,252.6z"/>
	</g>
</g>
<g>
	<g>
		<path d="M388.6,240.3c1,8.2,2.3,16.3,3.9,24.3c0.2,0.9,1.6,0.5,1.4-0.4c-1.6-7.9-2.9-15.9-3.9-23.9
			C389.9,239.3,388.4,239.3,388.6,240.3L388.6,240.3z"/>
	</g>
</g>
<g>
	<g>
		<path d="M388.5,255.6c2.4-0.6,4.7-0.8,7.2-0.5c1,0.1,0.9-1.4,0-1.5c-2.6-0.3-5.1-0.1-7.6,0.5C387.2,254.4,387.6,255.9,388.5,255.6
			L388.5,255.6z"/>
	</g>
</g>
<g>
	<g>
		<path d="M397.7,253.2c0.7,4,1.3,8,2,12c0.2,1,1.6,0.5,1.4-0.4c-0.7-4-1.3-8-2-12C399,251.8,397.6,252.2,397.7,253.2L397.7,253.2z"
			/>
	</g>
</g>
<g>
	<g>
		<path d="M399.7,246.4c1,0,1-1.5,0-1.5C398.7,244.9,398.7,246.4,399.7,246.4L399.7,246.4z"/>
	</g>
</g>
<g>
	<g>
		<path d="M405.4,255.1c-0.8,2.9-1.6,6.8,1.5,8.7c2.9,1.7,5-0.4,5.6-3.3c0.5-2.6,0.3-6.3-2.6-7.4c-2.2-0.8-4.8,0.2-5.1,2.6
			c-0.1,1,1.4,0.9,1.5,0c0.2-1.8,2.9-1.7,3.9-0.7c1.4,1.4,1.2,3.8,0.8,5.5c-0.2,1-0.6,2.2-1.8,2.3c-0.8,0.1-1.7-0.5-2.2-1
			c-1.5-1.7-0.6-4.4-0.1-6.3C407.1,254.6,405.6,254.2,405.4,255.1L405.4,255.1z"/>
	</g>
</g>
<g>
	<g>
		<path d="M414,250.5c0.7,4.8,1.5,9.6,2.2,14.5c0.1,0.9,1.4,0.6,1.5-0.2c0.5-3.8,1-7.6,1.5-11.5c-0.4,0.2-0.8,0.4-1.1,0.6
			c3.4,2.4,5.2,6.2,5.1,10.4c0,1,1.5,1,1.5,0c0.2-4.7-2-8.9-5.8-11.7c-0.5-0.4-1.1,0.1-1.1,0.6c-0.5,3.8-1,7.6-1.5,11.5
			c0.5-0.1,1-0.1,1.5-0.2c-0.7-4.8-1.5-9.6-2.2-14.5C415.3,249.1,413.8,249.5,414,250.5L414,250.5z"/>
	</g>
</g>
<g>
	<g>
		<path d="M306.2,264.2c1.5-1.3,3.4-1.9,5.4-1.8c1,0.1,1-1.4,0-1.5c-2.4-0.1-4.7,0.7-6.5,2.3C304.4,263.8,305.5,264.8,306.2,264.2
			L306.2,264.2z"/>
	</g>
</g>
<g>
	<g>
		<path d="M427.9,259.9c3.4-1,6.9-1.4,10.4-1.5c1,0,1-1.5,0-1.5c-3.7,0-7.3,0.6-10.8,1.5C426.6,258.7,427,260.1,427.9,259.9
			L427.9,259.9z"/>
	</g>
</g>
</svg>
