<?xml version="1.0" encoding="utf-8"?>
<!-- Generator: Adobe Illustrator 19.0.0, SVG Export Plug-In . SVG Version: 6.00 Build 0)  -->
<svg version="1.1" id="Layer_1" xmlns="http://www.w3.org/2000/svg" xmlns:xlink="http://www.w3.org/1999/xlink" x="0px" y="0px"
	 viewBox="-319 75.5 281.7 218" style="enable-background:new -319 75.5 281.7 218;" xml:space="preserve">
<style type="text/css">
	.st0{fill:#E6E7E8;}
	.st1{opacity:0.5;fill:#F1F2F2;enable-background:new    ;}
	.st2{fill:#F1F2F2;stroke:#E6E7E8;stroke-width:3;stroke-miterlimit:10;}
	.st3{fill:#D1D3D4;}
	.st4{fill:#A7A9AC;}
	.st5{opacity:0.5;enable-background:new    ;}
</style>
<path class="st0" d="M-222.4,184.2h-17.5c-4.6,0-8.3-3.8-8.3-8.3v-17.5c0-4.6,3.8-8.3,8.3-8.3h17.5c4.6,0,8.3,3.8,8.3,8.3v17.5
	C-214.1,180.5-217.8,184.2-222.4,184.2z"/>
<path class="st1" d="M-229.4,146.6h-17.5c-4.6,0-8.3-3.8-8.3-8.3v-17.5c0-4.6,3.8-8.3,8.3-8.3h17.5c4.6,0,8.3,3.8,8.3,8.3v17.5
	C-221,142.8-224.8,146.6-229.4,146.6z"/>
<path class="st1" d="M-192.6,146.6h-17.5c-4.6,0-8.3-3.8-8.3-8.3v-17.5c0-4.6,3.8-8.3,8.3-8.3h17.5c4.6,0,8.3,3.8,8.3,8.3v17.5
	C-184.3,142.8-188,146.6-192.6,146.6z"/>
<path class="st1" d="M-155.1,146.6h-17.5c-4.6,0-8.3-3.8-8.3-8.3v-17.5c0-4.6,3.8-8.3,8.3-8.3h17.5c4.6,0,8.3,3.8,8.3,8.3v17.5
	C-146.8,142.8-150.6,146.6-155.1,146.6z"/>
<path class="st1" d="M-116.4,146.6h-17.5c-4.6,0-8.3-3.8-8.3-8.3v-17.5c0-4.6,3.8-8.3,8.3-8.3h17.5c4.6,0,8.3,3.8,8.3,8.3v17.5
	C-108,142.8-111.8,146.6-116.4,146.6z"/>
<path class="st1" d="M-203,222h-17.5c-4.6,0-8.3-3.8-8.3-8.3v-17.5c0-4.6,3.8-8.3,8.3-8.3h17.5c4.6,0,8.3,3.8,8.3,8.3v17.5
	C-194.6,218.2-198.4,222-203,222z"/>
<path class="st1" d="M-165.6,222h-17.5c-4.6,0-8.3-3.8-8.3-8.3v-17.5c0-4.6,3.8-8.3,8.3-8.3h17.5c4.6,0,8.3,3.8,8.3,8.3v17.5
	C-157.2,218.2-160.9,222-165.6,222z"/>
<path class="st1" d="M-126.7,222h-17.5c-4.6,0-8.3-3.8-8.3-8.3v-17.5c0-4.6,3.8-8.3,8.3-8.3h17.5c4.6,0,8.3,3.8,8.3,8.3v17.5
	C-118.4,218.2-122.1,222-126.7,222z"/>
<path class="st0" d="M-184.8,184.2h-17.5c-4.6,0-8.3-3.8-8.3-8.3v-17.5c0-4.6,3.8-8.3,8.3-8.3h17.5c4.6,0,8.3,3.8,8.3,8.3v17.5
	C-176.4,180.5-180.2,184.2-184.8,184.2z"/>
<path class="st0" d="M-147.1,184.2h-17.5c-4.6,0-8.3-3.8-8.3-8.3v-17.5c0-4.6,3.8-8.3,8.3-8.3h17.5c4.6,0,8.3,3.8,8.3,8.3v17.5
	C-138.7,180.5-142.5,184.2-147.1,184.2z"/>
<path class="st0" d="M-109.4,184.2h-17.5c-4.6,0-8.3-3.8-8.3-8.3v-17.5c0-4.6,3.8-8.3,8.3-8.3h17.5c4.6,0,8.3,3.8,8.3,8.3v17.5
	C-101.1,180.5-104.8,184.2-109.4,184.2z"/>
<polyline class="st2" points="-222.2,239.8 -132.9,239.8 -132.9,250.1 -110.7,222 -132.9,193.8 -132.9,204.1 -222.2,204.1 "/>
<path class="st3" d="M-247.2,256.5v-63.7c0-8.8,7.2-16,16-16l0,0c8.8,0,16,7.2,16,16v63.7"/>
<path class="st0" d="M-231.2,207.9L-231.2,207.9c-11.1,0-11.1-5-11.1-11.1v-6c0-6.1,5-11.1,11.1-11.1l0,0c6.1,0,11.1,5,11.1,11.1v6
	C-220.1,202.9-220.5,207.9-231.2,207.9z"/>
<path class="st4" d="M-242.3,249.3c0,0,0-0.1,0-0.3s0.1-0.5,0.2-0.8c0.1-0.3,0.4-0.7,0.8-1c0.3-0.3,0.8-0.6,1.4-0.9
	c0.6-0.3,1.2-0.5,1.8-0.7c0.7-0.2,1.4-0.3,2.2-0.5c0.8-0.1,1.5-0.2,2.3-0.3s1.6-0.1,2.4-0.1s1.6,0.1,2.4,0.1
	c0.8,0.1,1.5,0.1,2.3,0.3c0.8,0.1,1.5,0.3,2.2,0.5s1.3,0.4,1.8,0.7c0.6,0.3,1,0.6,1.4,0.9c0.4,0.3,0.6,0.7,0.8,1
	c0.1,0.3,0.2,0.6,0.2,0.8s0,0.3,0,0.3s0-0.1-0.1-0.3c0-0.2-0.1-0.4-0.3-0.7s-0.5-0.6-0.8-0.8c-0.2-0.1-0.4-0.3-0.6-0.3
	c-0.2-0.1-0.5-0.2-0.8-0.3c-0.6-0.2-1.2-0.4-1.8-0.6c-0.6-0.1-1.4-0.3-2.1-0.3c-0.7-0.1-1.5-0.1-2.3-0.2c-0.8-0.1-1.5-0.1-2.4-0.1
	c-0.8,0-1.6,0-2.4,0.1c-0.8,0.1-1.5,0.1-2.3,0.2c-0.7,0.1-1.5,0.2-2.1,0.3s-1.3,0.3-1.8,0.6c-0.3,0.1-0.6,0.2-0.8,0.3
	s-0.5,0.3-0.6,0.3c-0.4,0.3-0.7,0.6-0.8,0.8c-0.1,0.3-0.3,0.6-0.3,0.7C-242.3,249.2-242.3,249.3-242.3,249.3z"/>
<path class="st4" d="M-242.3,256.2c0,0,0-0.1,0-0.3c0.1-0.1,0.2-0.4,0.5-0.6c0.6-0.4,1.4-0.8,2.5-1s2.4-0.5,3.8-0.6
	c1.4-0.1,2.9-0.2,4.4-0.2s3,0.1,4.4,0.2c1.4,0.1,2.6,0.3,3.8,0.6c1.1,0.3,1.9,0.6,2.5,1c0.3,0.2,0.4,0.4,0.5,0.6
	c0.1,0.1,0,0.3,0,0.3s0-0.1-0.1-0.3c-0.1-0.1-0.2-0.3-0.5-0.5c-0.6-0.3-1.5-0.6-2.5-0.8c-1.1-0.2-2.4-0.3-3.8-0.4
	c-1.4-0.1-2.9-0.1-4.3-0.1c-1.4,0-2.9,0.1-4.3,0.1c-1.4,0.1-2.6,0.2-3.8,0.4c-1,0.2-1.9,0.4-2.5,0.8c-0.3,0.1-0.4,0.3-0.5,0.5
	C-242.3,256.2-242.3,256.2-242.3,256.2z"/>
<path class="st4" d="M-242.3,252.8c0,0,0-0.1,0-0.3c0-0.1,0-0.1,0-0.1c0-0.1,0.1-0.1,0.1-0.1c0.1-0.1,0.1-0.3,0.2-0.4
	c0.1-0.1,0.1-0.1,0.1-0.2c0.1-0.1,0.1-0.1,0.2-0.2s0.3-0.3,0.6-0.4c0.4-0.3,0.9-0.5,1.5-0.7s1.2-0.4,1.8-0.6
	c0.6-0.1,1.3-0.3,2.1-0.4c1.5-0.2,3-0.3,4.6-0.3c1.5,0,3.1,0.1,4.6,0.3c0.7,0.1,1.4,0.2,2.1,0.4c0.6,0.1,1.3,0.3,1.8,0.6
	c0.6,0.2,1,0.4,1.5,0.7c0.2,0.1,0.4,0.3,0.6,0.4c0.1,0.1,0.1,0.1,0.2,0.2s0.1,0.1,0.1,0.2c0.1,0.1,0.1,0.3,0.2,0.4
	c0,0.1,0.1,0.1,0.1,0.1c0,0.1,0,0.1,0,0.1c0,0.2,0,0.3,0,0.3s0-0.1-0.1-0.3c0-0.1,0-0.1,0-0.1c0-0.1-0.1-0.1-0.1-0.1
	c-0.1-0.1-0.1-0.2-0.3-0.3c-0.1-0.1-0.1-0.1-0.1-0.2c-0.1-0.1-0.1-0.1-0.2-0.1c-0.1-0.1-0.3-0.2-0.6-0.3c-0.4-0.2-0.9-0.4-1.5-0.6
	c-0.6-0.1-1.1-0.3-1.8-0.4c-0.6-0.1-1.3-0.2-2-0.3c-1.4-0.1-2.9-0.2-4.4-0.2c-0.8,0-1.5,0-2.3,0.1s-1.5,0.1-2.2,0.1
	c-0.7,0.1-1.4,0.1-2,0.3c-0.6,0.1-1.3,0.3-1.8,0.4c-0.6,0.2-1,0.3-1.5,0.6c-0.2,0.1-0.4,0.2-0.6,0.3c-0.1,0.1-0.1,0.1-0.2,0.1
	c-0.1,0.1-0.1,0.1-0.1,0.2c-0.1,0.1-0.2,0.2-0.3,0.3c0,0.1-0.1,0.1-0.1,0.1c0,0.1,0,0.1,0,0.1C-242.3,252.7-242.3,252.8-242.3,252.8
	z"/>
<path class="st5" d="M-229.1,160.1v1.5h-2.7v4.7h2.6v1.5h-2.6v6.4h-1.6v-14h4.3V160.1z"/>
<path class="st5" d="M-193.5,168.2v-1.5h2.9v5c0,1.7-0.9,2.6-2.6,2.6h-0.6c-1.8,0-2.6-0.9-2.6-2.6v-9c0-1.7,0.9-2.6,2.6-2.6h0.6
	c1.7,0,2.6,0.9,2.6,2.6v1.9h-1.6v-2c0-0.7-0.3-1.1-1.1-1.1h-0.5c-0.7,0-1.1,0.3-1.1,1.1v9.2c0,0.7,0.3,1.1,1.1,1.1h0.5
	c0.7,0,1.1-0.3,1.1-1.1v-3.6L-193.5,168.2L-193.5,168.2z"/>
<path class="st5" d="M-154.5,166.3v-6.1h1.6v14h-1.6v-6.4h-2.6v6.4h-1.6v-14h1.6v6.1H-154.5z"/>
<path class="st5" d="M-116.3,171.6c0,1.7-0.9,2.6-2.6,2.6h-1v-1.5h0.9c0.7,0,1.1-0.4,1.1-1.1v-11.4h1.6
	C-116.3,160.2-116.3,171.6-116.3,171.6z"/>
</svg>
