<?xml version="1.0" encoding="utf-8"?>
<!-- Generator: Adobe Illustrator 19.0.0, SVG Export Plug-In . SVG Version: 6.00 Build 0)  -->
<svg version="1.1" id="Layer_1" xmlns="http://www.w3.org/2000/svg" xmlns:xlink="http://www.w3.org/1999/xlink" x="0px" y="0px"
	 viewBox="256 491 1024 43" style="enable-background:new 256 491 1024 43;" xml:space="preserve">
<style type="text/css">
	.st0{enable-background:new    ;}
</style>
<g id="Layer_1_1_">
</g>
<g id="Layer_2">
	<g class="st0">
		<path d="M713.4,511.2v-0.8h1.9v3.5c0,1.1-0.6,1.7-1.7,1.7h-0.4c-1.1,0-1.7-0.6-1.7-1.7v-6.5c0-1.1,0.6-1.7,1.7-1.7h0.4
			c1.1,0,1.7,0.6,1.7,1.7v1.4h-0.8v-1.5c0-0.6-0.3-0.9-0.9-0.9h-0.4c-0.6,0-0.9,0.3-0.9,0.9v6.6c0,0.6,0.3,0.9,0.9,0.9h0.4
			c0.6,0,0.9-0.3,0.9-0.9v-2.7H713.4z"/>
		<path d="M716.5,508h0.8v0.8c0.3-0.5,0.7-0.8,1.3-0.8v0.9c-0.6,0-0.9,0.2-1.3,0.5v6.1h-0.8V508z"/>
		<path d="M719.1,512.9c0-0.9,0.3-1.2,1.1-1.5l1.5-0.5v-1.4c0-0.5-0.3-0.8-0.8-0.8h-0.1c-0.5,0-0.8,0.3-0.8,0.8v1h-0.8v-0.9
			c0-1,0.5-1.6,1.6-1.6h0.1c1.1,0,1.6,0.5,1.6,1.6v6h-0.8V515c-0.4,0.3-0.8,0.6-1.4,0.6h0c-0.8,0-1.2-0.4-1.2-1.3V512.9z
			 M721.7,514.4v-2.8l-1.1,0.4c-0.5,0.2-0.6,0.4-0.6,0.9v1.2c0,0.4,0.2,0.7,0.7,0.7h0C720.9,514.8,721.2,514.7,721.7,514.4z"/>
		<path d="M727.1,515.5h-0.8V515c-0.4,0.3-0.8,0.6-1.4,0.6h0c-0.8,0-1.3-0.5-1.3-1.3V508h0.8v6.2c0,0.5,0.2,0.7,0.7,0.7h0
			c0.4,0,0.7-0.1,1.2-0.5V508h0.8V515.5z"/>
		<path d="M730.8,515.5H730v-9.8h1.8c1.1,0,1.8,0.6,1.8,1.7v2.5c0,1.2-0.6,1.8-1.8,1.8h-0.9V515.5z M731.8,506.5h-0.9v4.4h0.9
			c0.6,0,1-0.3,1-1v-2.6C732.7,506.8,732.4,506.5,731.8,506.5z"/>
		<path d="M738,515.5h-0.8V515c-0.4,0.3-0.8,0.6-1.4,0.6h0c-0.8,0-1.3-0.5-1.3-1.3V508h0.8v6.2c0,0.5,0.2,0.7,0.7,0.7h0
			c0.4,0,0.7-0.1,1.2-0.5V508h0.8V515.5z"/>
		<path d="M741.8,509.5c0-0.6-0.3-0.9-0.8-0.9h-0.2c-0.6,0-0.8,0.3-0.8,0.9v4.5c0,0.6,0.3,0.8,0.8,0.8h0.2c0.6,0,0.8-0.3,0.8-0.8
			v-1.4h0.8v1.4c0,1.1-0.5,1.6-1.6,1.6h-0.2c-1.1,0-1.6-0.6-1.6-1.6v-4.4c0-1.1,0.5-1.6,1.6-1.6h0.2c1.1,0,1.6,0.5,1.6,1.6v1.2h-0.8
			V509.5z"/>
		<path d="M743.7,505.6h0.8v2.9c0.4-0.3,0.8-0.6,1.4-0.6h0c0.8,0,1.3,0.5,1.3,1.3v6.3h-0.8v-6.2c0-0.5-0.2-0.7-0.7-0.7h0
			c-0.4,0-0.7,0.1-1.2,0.5v6.4h-0.8V505.6z"/>
		<path d="M749.1,512.1v1.9c0,0.6,0.3,0.8,0.9,0.8h0.2c0.6,0,0.9-0.3,0.9-0.8v-0.9h0.8v0.8c0,1.1-0.6,1.6-1.6,1.6h-0.2
			c-1.1,0-1.6-0.6-1.6-1.6v-4.4c0-1.1,0.5-1.6,1.6-1.6h0.2c1.1,0,1.6,0.6,1.6,1.6v2.5H749.1z M749.1,511.3h1.8v-1.8
			c0-0.6-0.3-0.9-0.8-0.9H750c-0.6,0-0.9,0.3-0.9,0.9V511.3z"/>
		<path d="M755.2,512.1h-0.8v-1.4h0.8V512.1z"/>
		<path d="M761,515.5l-2.2-8.1l0,3.9v4.2H758v-9.8h1.1l2.1,7.9l0-3.7v-4.1h0.8v9.8H761z"/>
		<path d="M763.9,512.1v1.9c0,0.6,0.3,0.8,0.9,0.8h0.2c0.6,0,0.9-0.3,0.9-0.8v-0.9h0.8v0.8c0,1.1-0.6,1.6-1.6,1.6h-0.2
			c-1.1,0-1.6-0.6-1.6-1.6v-4.4c0-1.1,0.5-1.6,1.6-1.6h0.2c1.1,0,1.6,0.6,1.6,1.6v2.5H763.9z M763.9,511.3h1.8v-1.8
			c0-0.6-0.3-0.9-0.8-0.9h-0.2c-0.6,0-0.9,0.3-0.9,0.9V511.3z"/>
		<path d="M770.2,509.6l-0.9,5.9h-0.8l-1.2-7.5h0.8l0.8,6.1l0.9-6.1h0.8l0.9,6.1l0.8-6.1h0.8l-1.2,7.5h-0.8L770.2,509.6z"/>
		<path d="M777.7,512.1v3.4h-0.8v-3.4l-1.6-6.4h0.9l1.2,5.2l1.2-5.2h0.8L777.7,512.1z"/>
		<path d="M781.3,515.6c-1.1,0-1.6-0.6-1.6-1.6v-4.4c0-1.1,0.5-1.6,1.6-1.6h0.3c1.1,0,1.6,0.5,1.6,1.6v4.4c0,1.1-0.5,1.6-1.6,1.6
			H781.3z M781.3,508.7c-0.6,0-0.8,0.3-0.8,0.9v4.5c0,0.6,0.3,0.8,0.8,0.8h0.3c0.6,0,0.8-0.3,0.8-0.8v-4.5c0-0.6-0.3-0.9-0.8-0.9
			H781.3z"/>
		<path d="M784.3,508h0.8v0.8c0.3-0.5,0.7-0.8,1.3-0.8v0.9c-0.6,0-0.9,0.2-1.3,0.5v6.1h-0.8V508z"/>
		<path d="M790.7,508l-2,3.7l1.9,3.9h-0.9l-1.8-3.8v3.8h-0.8v-9.9h0.8v6.1l1.9-3.6H790.7z"/>
		<path d="M796.9,511.8v2.1c0,1.1-0.6,1.7-1.7,1.7h-0.4c-1.1,0-1.7-0.6-1.7-1.7v-6.5c0-1.1,0.6-1.7,1.7-1.7h0.4
			c1.1,0,1.7,0.6,1.7,1.7v1.8h-0.8v-1.8c0-0.6-0.3-0.9-0.9-0.9h-0.3c-0.6,0-0.9,0.3-0.9,0.9v6.6c0,0.6,0.3,0.9,0.9,0.9h0.3
			c0.6,0,0.9-0.3,0.9-0.9v-2.1H796.9z"/>
		<path d="M798.1,506h0.8v1.1h-0.8V506z M798.1,508h0.8v7.5h-0.8V508z"/>
		<path d="M801.2,515.5h-0.8v-6.8h-0.5V508h0.5v-1.3h0.8v1.3h0.9v0.7h-0.9V515.5z"/>
		<path d="M803.6,517l0.3-1.6l-1.5-7.5h0.8l1.1,6l1.1-6h0.8l-1.8,9.1H803.6z"/>
		<path d="M811.1,509.9c0.3-0.4,0.5-0.8,0.5-1.2v-1.5c0-0.6-0.3-0.9-0.9-0.9h-0.3c-0.6,0-0.9,0.3-0.9,0.9v1.9h-0.8v-1.8
			c0-1.1,0.6-1.7,1.7-1.7h0.3c1.1,0,1.7,0.6,1.7,1.7v1.3c0,0.6-0.2,1.2-0.7,1.8l-1.7,2.1c-0.4,0.5-0.5,0.8-0.5,1.5v0.7h2.9v0.8h-3.7
			V514c0-0.8,0.2-1.3,0.7-2L811.1,509.9z"/>
		<path d="M815.6,515.6h-0.4c-1.1,0-1.7-0.6-1.7-1.7v-6.5c0-1.1,0.6-1.7,1.7-1.7h0.4c1.1,0,1.7,0.6,1.7,1.7v6.5
			C817.3,515,816.7,515.6,815.6,515.6z M815.6,506.4h-0.4c-0.6,0-0.9,0.3-0.9,0.9v6.6c0,0.6,0.3,0.9,0.9,0.9h0.4
			c0.6,0,0.9-0.3,0.9-0.9v-6.6C816.5,506.7,816.2,506.4,815.6,506.4z"/>
		<path d="M819.8,515.5H819v-8.4h-0.9v-0.6l0.2,0c0.5-0.1,0.7-0.2,1-0.6l0.1-0.2h0.4V515.5z"/>
		<path d="M820.8,506.5v-0.8h3.3v0.8l-2,9h-0.8l2-9H820.8z"/>
	</g>
	<g class="st0">
		<path d="M734.4,529.3c0-1.8,0.6-3,1.2-3.8h0.6c-0.7,0.9-1.2,2.1-1.2,3.8c0,1.6,0.5,2.8,1.2,3.7h-0.6
			C735,532.3,734.4,531.1,734.4,529.3z"/>
	</g>
	<g class="st0">
		<path d="M740.1,525.5c0,0.8-0.2,1.5-0.5,1.9c-0.4,0.6-0.8,1-1.3,1.2c-0.5,0.3-1.1,0.4-1.7,0.4v-0.4c0.6,0,1.1-0.1,1.4-0.3
			s0.7-0.4,0.9-0.8c0.3-0.3,0.4-0.6,0.5-0.9c0.1-0.3,0.1-0.7,0.1-1.2H740.1z"/>
	</g>
	<g class="st0">
		<path d="M743.5,527c0-0.7,0.5-1.2,1.2-1.2c0.7,0,1.2,0.5,1.2,1.1c0,0.7-0.6,1.2-1.2,1.2C744,528.1,743.5,527.6,743.5,527z
			 M745.3,526.9c0-0.3-0.2-0.7-0.7-0.7c-0.5,0-0.7,0.4-0.7,0.8c0,0.4,0.3,0.7,0.7,0.7S745.3,527.4,745.3,526.9z"/>
	</g>
	<g class="st0">
		<path d="M751.3,531.8H747v-4.4h4.4V531.8z M750.9,531.4v-3.5h-3.5v3.5H750.9z"/>
	</g>
	<g class="st0">
		<path d="M752.2,527c0-0.7,0.5-1.2,1.2-1.2c0.7,0,1.2,0.5,1.2,1.1c0,0.7-0.6,1.2-1.2,1.2C752.7,528.1,752.2,527.6,752.2,527z
			 M754,526.9c0-0.3-0.2-0.7-0.7-0.7c-0.5,0-0.7,0.4-0.7,0.8c0,0.4,0.3,0.7,0.7,0.7S754,527.4,754,526.9z"/>
		<path d="M756.3,529.2c0-1.6-0.5-2.8-1.2-3.7h0.6c0.6,0.8,1.2,1.9,1.2,3.7c0,1.8-0.6,3-1.2,3.8h-0.6
			C755.8,532.1,756.3,530.9,756.3,529.2z"/>
	</g>
	<g class="st0">
		<path d="M765.7,525.5c0,0.8-0.2,1.5-0.5,1.9c-0.4,0.6-0.8,1-1.3,1.2c-0.5,0.3-1.1,0.4-1.7,0.4v-0.4c0.6,0,1.1-0.1,1.4-0.3
			s0.7-0.4,0.9-0.8c0.3-0.3,0.4-0.6,0.5-0.9c0.1-0.3,0.1-0.7,0.1-1.2H765.7z"/>
	</g>
	<g class="st0">
		<path d="M775.5,532.1l-0.3,0.4c-0.8-0.8-1.8-1.2-2.9-1.2c-1.1,0-2,0.4-2.8,1.2l-0.3-0.4c0.9-0.9,2-1.3,3.2-1.3
			C773.5,530.8,774.6,531.2,775.5,532.1z"/>
	</g>
	<g class="st0">
	</g>
	<g class="st0">
		<path d="M782,523.6v4.7h2.9v0.9h-6.6v-0.9h2.8v-4.7H782z"/>
		<path d="M791.4,528.4v0.9h-6.6v-0.9H791.4z"/>
		<path d="M798,528.4v0.9h-6.6v-0.9H798z"/>
		<path d="M801.7,523.6v4.7h2.9v0.9H798v-0.9h2.8v-4.7H801.7z"/>
	</g>
</g>
</svg>
