<?xml version="1.0" encoding="utf-8"?>
<!-- Generator: Adobe Illustrator 19.0.0, SVG Export Plug-In . SVG Version: 6.00 Build 0)  -->
<svg version="1.1" id="Layer_1" xmlns="http://www.w3.org/2000/svg" xmlns:xlink="http://www.w3.org/1999/xlink" x="0px" y="0px"
	 viewBox="256 491 1024 43" style="enable-background:new 256 491 1024 43;" xml:space="preserve">
<style type="text/css">
	.st0{font-family:'Tungsten-Book';}
	.st1{font-size:14px;}
	.st2{font-family:'MyriadArabic-Regular';}
	.st3{font-size:12.2747px;}
	.st4{font-family:'AppleSymbols';}
	.st5{font-family:'Muna';}
	.st6{font-family:'ArialUnicodeMS';}
	.st7{font-size:7px;}
</style>
<g id="Layer_1_1_">
</g>
<g id="Layer_2">
	<text transform="matrix(1 0 0 1 710.8673 515.4998)" class="st0 st1">Grau Puche · New York City 2017</text>
	<text transform="matrix(1 0 0 1 731.4334 531.7969)" class="st2 st3"> (</text>
	<text transform="matrix(1 0 0 1 736.6334 531.7969)" class="st4 st3">╯</text>
	<text transform="matrix(1 0 0 1 743.2334 531.7969)" class="st2 st3">°</text>
	<text transform="matrix(1 0 0 1 746.0334 531.7969)" class="st5 st3">□</text>
	<text transform="matrix(1 0 0 1 751.9334 531.7969)" class="st2 st3">°)  </text>
	<text transform="matrix(1 0 0 1 762.2334 531.7969)" class="st4 st3">╯</text>
	<text transform="matrix(1 0 0 1 768.8334 532.7043)" class="st6 st7">︵</text>
	<text transform="matrix(1 0 0 1 775.8334 531.7969)" class="st2 st3"> </text>
	<text transform="matrix(1 0 0 1 778.2334 531.7969)" class="st4 st3">┻━━┻</text>
</g>
</svg>
