<?xml version="1.0" encoding="utf-8"?>
<!-- Generator: Adobe Illustrator 19.0.0, SVG Export Plug-In . SVG Version: 6.00 Build 0)  -->
<svg version="1.1" id="Layer_1" xmlns="http://www.w3.org/2000/svg" xmlns:xlink="http://www.w3.org/1999/xlink" x="0px" y="0px"
	 viewBox="51 163.5 1024 43" style="enable-background:new 51 163.5 1024 43;" xml:space="preserve">
<style type="text/css">
	.st0{enable-background:new    ;}
</style>
<g id="Layer_1_1_">
</g>
<g id="Layer_2">
	<g class="st0">
		<path d="M508.4,183.7v-0.8h1.9v3.5c0,1.1-0.6,1.7-1.7,1.7h-0.4c-1.1,0-1.7-0.6-1.7-1.7v-6.5c0-1.1,0.6-1.7,1.7-1.7h0.4
			c1.1,0,1.7,0.6,1.7,1.7v1.4h-0.8v-1.5c0-0.6-0.3-0.9-0.9-0.9h-0.4c-0.6,0-0.9,0.3-0.9,0.9v6.6c0,0.6,0.3,0.9,0.9,0.9h0.4
			c0.6,0,0.9-0.3,0.9-0.9v-2.7H508.4z"/>
		<path d="M511.5,180.5h0.8v0.8c0.3-0.5,0.7-0.8,1.3-0.8v0.9c-0.6,0-0.9,0.2-1.3,0.5v6.1h-0.8V180.5z"/>
		<path d="M514.1,185.4c0-0.9,0.3-1.2,1.1-1.5l1.5-0.5v-1.4c0-0.5-0.3-0.8-0.8-0.8h-0.1c-0.5,0-0.8,0.3-0.8,0.8v1h-0.8V182
			c0-1,0.5-1.6,1.6-1.6h0.1c1.1,0,1.6,0.5,1.6,1.6v6h-0.8v-0.5c-0.4,0.3-0.8,0.6-1.4,0.6h0c-0.8,0-1.2-0.4-1.2-1.3V185.4z
			 M516.7,186.9v-2.8l-1.1,0.4c-0.5,0.2-0.6,0.4-0.6,0.9v1.2c0,0.4,0.2,0.7,0.7,0.7h0C515.9,187.3,516.2,187.2,516.7,186.9z"/>
		<path d="M522.1,188h-0.8v-0.5c-0.4,0.3-0.8,0.6-1.4,0.6h0c-0.8,0-1.3-0.5-1.3-1.3v-6.3h0.8v6.2c0,0.5,0.2,0.7,0.7,0.7h0
			c0.4,0,0.7-0.1,1.2-0.5v-6.4h0.8V188z"/>
		<path d="M525.8,188H525v-9.8h1.8c1.1,0,1.8,0.6,1.8,1.7v2.5c0,1.2-0.6,1.8-1.8,1.8h-0.9V188z M526.8,179h-0.9v4.4h0.9
			c0.6,0,1-0.3,1-1v-2.6C527.7,179.3,527.4,179,526.8,179z"/>
		<path d="M533,188h-0.8v-0.5c-0.4,0.3-0.8,0.6-1.4,0.6h0c-0.8,0-1.3-0.5-1.3-1.3v-6.3h0.8v6.2c0,0.5,0.2,0.7,0.7,0.7h0
			c0.4,0,0.7-0.1,1.2-0.5v-6.4h0.8V188z"/>
		<path d="M536.8,182c0-0.6-0.3-0.9-0.8-0.9h-0.2c-0.6,0-0.8,0.3-0.8,0.9v4.5c0,0.6,0.3,0.8,0.8,0.8h0.2c0.6,0,0.8-0.3,0.8-0.8V185
			h0.8v1.4c0,1.1-0.5,1.6-1.6,1.6h-0.2c-1.1,0-1.6-0.6-1.6-1.6V182c0-1.1,0.5-1.6,1.6-1.6h0.2c1.1,0,1.6,0.5,1.6,1.6v1.2h-0.8V182z"
			/>
		<path d="M538.7,178.1h0.8v2.9c0.4-0.3,0.8-0.6,1.4-0.6h0c0.8,0,1.3,0.5,1.3,1.3v6.3h-0.8v-6.2c0-0.5-0.2-0.7-0.7-0.7h0
			c-0.4,0-0.7,0.1-1.2,0.5v6.4h-0.8V178.1z"/>
		<path d="M544.1,184.6v1.9c0,0.6,0.3,0.8,0.9,0.8h0.2c0.6,0,0.9-0.3,0.9-0.8v-0.9h0.8v0.8c0,1.1-0.6,1.6-1.6,1.6h-0.2
			c-1.1,0-1.6-0.6-1.6-1.6V182c0-1.1,0.5-1.6,1.6-1.6h0.2c1.1,0,1.6,0.6,1.6,1.6v2.5H544.1z M544.1,183.8h1.8V182
			c0-0.6-0.3-0.9-0.8-0.9H545c-0.6,0-0.9,0.3-0.9,0.9V183.8z"/>
		<path d="M550.2,184.6h-0.8v-1.4h0.8V184.6z"/>
		<path d="M556,188l-2.2-8.1l0,3.9v4.2H553v-9.8h1.1l2.1,7.9l0-3.7v-4.1h0.8v9.8H556z"/>
		<path d="M558.9,184.6v1.9c0,0.6,0.3,0.8,0.9,0.8h0.2c0.6,0,0.9-0.3,0.9-0.8v-0.9h0.8v0.8c0,1.1-0.6,1.6-1.6,1.6h-0.2
			c-1.1,0-1.6-0.6-1.6-1.6V182c0-1.1,0.5-1.6,1.6-1.6h0.2c1.1,0,1.6,0.6,1.6,1.6v2.5H558.9z M558.9,183.8h1.8V182
			c0-0.6-0.3-0.9-0.8-0.9h-0.2c-0.6,0-0.9,0.3-0.9,0.9V183.8z"/>
		<path d="M565.2,182.1l-0.9,5.9h-0.8l-1.2-7.5h0.8l0.8,6.1l0.9-6.1h0.8l0.9,6.1l0.8-6.1h0.8l-1.2,7.5h-0.8L565.2,182.1z"/>
		<path d="M572.7,184.6v3.4h-0.8v-3.4l-1.6-6.4h0.9l1.2,5.2l1.2-5.2h0.8L572.7,184.6z"/>
		<path d="M576.3,188.1c-1.1,0-1.6-0.6-1.6-1.6V182c0-1.1,0.5-1.6,1.6-1.6h0.3c1.1,0,1.6,0.5,1.6,1.6v4.4c0,1.1-0.5,1.6-1.6,1.6
			H576.3z M576.3,181.2c-0.6,0-0.8,0.3-0.8,0.9v4.5c0,0.6,0.3,0.8,0.8,0.8h0.3c0.6,0,0.8-0.3,0.8-0.8V182c0-0.6-0.3-0.9-0.8-0.9
			H576.3z"/>
		<path d="M579.3,180.5h0.8v0.8c0.3-0.5,0.7-0.8,1.3-0.8v0.9c-0.6,0-0.9,0.2-1.3,0.5v6.1h-0.8V180.5z"/>
		<path d="M585.7,180.5l-2,3.7l1.9,3.9h-0.9l-1.8-3.8v3.8h-0.8v-9.9h0.8v6.1l1.9-3.6H585.7z"/>
		<path d="M591.9,184.3v2.1c0,1.1-0.6,1.7-1.7,1.7h-0.4c-1.1,0-1.7-0.6-1.7-1.7v-6.5c0-1.1,0.6-1.7,1.7-1.7h0.4
			c1.1,0,1.7,0.6,1.7,1.7v1.8h-0.8v-1.8c0-0.6-0.3-0.9-0.9-0.9h-0.3c-0.6,0-0.9,0.3-0.9,0.9v6.6c0,0.6,0.3,0.9,0.9,0.9h0.3
			c0.6,0,0.9-0.3,0.9-0.9v-2.1H591.9z"/>
		<path d="M593.1,178.5h0.8v1.1h-0.8V178.5z M593.1,180.5h0.8v7.5h-0.8V180.5z"/>
		<path d="M596.2,188h-0.8v-6.8h-0.5v-0.7h0.5v-1.3h0.8v1.3h0.9v0.7h-0.9V188z"/>
		<path d="M598.6,189.5l0.3-1.6l-1.5-7.5h0.8l1.1,6l1.1-6h0.8l-1.8,9.1H598.6z"/>
		<path d="M606.1,182.4c0.3-0.4,0.5-0.8,0.5-1.2v-1.5c0-0.6-0.3-0.9-0.9-0.9h-0.3c-0.6,0-0.9,0.3-0.9,0.9v1.9h-0.8v-1.8
			c0-1.1,0.6-1.7,1.7-1.7h0.3c1.1,0,1.7,0.6,1.7,1.7v1.3c0,0.6-0.2,1.2-0.7,1.8L605,185c-0.4,0.5-0.5,0.8-0.5,1.5v0.7h2.9v0.8h-3.7
			v-1.5c0-0.8,0.2-1.3,0.7-2L606.1,182.4z"/>
		<path d="M610.6,188.1h-0.4c-1.1,0-1.7-0.6-1.7-1.7v-6.5c0-1.1,0.6-1.7,1.7-1.7h0.4c1.1,0,1.7,0.6,1.7,1.7v6.5
			C612.3,187.5,611.7,188.1,610.6,188.1z M610.6,178.9h-0.4c-0.6,0-0.9,0.3-0.9,0.9v6.6c0,0.6,0.3,0.9,0.9,0.9h0.4
			c0.6,0,0.9-0.3,0.9-0.9v-6.6C611.5,179.2,611.2,178.9,610.6,178.9z"/>
		<path d="M614.8,188H614v-8.4h-0.9V179l0.2,0c0.5-0.1,0.7-0.2,1-0.6l0.1-0.2h0.4V188z"/>
		<path d="M615.8,179v-0.8h3.3v0.8l-2,9h-0.8l2-9H615.8z"/>
	</g>
	<g class="st0">
		<path d="M529.4,201.8c0-1.8,0.6-3,1.2-3.8h0.6c-0.7,0.9-1.2,2.1-1.2,3.8c0,1.6,0.5,2.8,1.2,3.7h-0.6
			C530,204.8,529.4,203.6,529.4,201.8z"/>
	</g>
	<g class="st0">
		<path d="M535.1,198c0,0.8-0.2,1.5-0.5,1.9c-0.4,0.6-0.8,1-1.3,1.2c-0.5,0.3-1.1,0.4-1.7,0.4v-0.4c0.6,0,1.1-0.1,1.4-0.3
			s0.7-0.4,0.9-0.8c0.3-0.3,0.4-0.6,0.5-0.9c0.1-0.3,0.1-0.7,0.1-1.2H535.1z"/>
	</g>
	<g class="st0">
		<path d="M538.5,199.5c0-0.7,0.5-1.2,1.2-1.2c0.7,0,1.2,0.5,1.2,1.1c0,0.7-0.6,1.2-1.2,1.2C539,200.6,538.5,200.1,538.5,199.5z
			 M540.3,199.4c0-0.3-0.2-0.7-0.7-0.7c-0.5,0-0.7,0.4-0.7,0.8c0,0.4,0.3,0.7,0.7,0.7S540.3,199.9,540.3,199.4z"/>
	</g>
	<g class="st0">
		<path d="M546.3,204.3H542v-4.4h4.4V204.3z M545.9,203.9v-3.5h-3.5v3.5H545.9z"/>
	</g>
	<g class="st0">
		<path d="M547.2,199.5c0-0.7,0.5-1.2,1.2-1.2c0.7,0,1.2,0.5,1.2,1.1c0,0.7-0.6,1.2-1.2,1.2C547.7,200.6,547.2,200.1,547.2,199.5z
			 M549,199.4c0-0.3-0.2-0.7-0.7-0.7c-0.5,0-0.7,0.4-0.7,0.8c0,0.4,0.3,0.7,0.7,0.7S549,199.9,549,199.4z"/>
		<path d="M551.3,201.7c0-1.6-0.5-2.8-1.2-3.7h0.6c0.6,0.8,1.2,1.9,1.2,3.7c0,1.8-0.6,3-1.2,3.8h-0.6
			C550.8,204.6,551.3,203.4,551.3,201.7z"/>
	</g>
	<g class="st0">
		<path d="M560.7,198c0,0.8-0.2,1.5-0.5,1.9c-0.4,0.6-0.8,1-1.3,1.2c-0.5,0.3-1.1,0.4-1.7,0.4v-0.4c0.6,0,1.1-0.1,1.4-0.3
			s0.7-0.4,0.9-0.8c0.3-0.3,0.4-0.6,0.5-0.9c0.1-0.3,0.1-0.7,0.1-1.2H560.7z"/>
	</g>
	<g class="st0">
		<path d="M570.5,204.6l-0.3,0.4c-0.8-0.8-1.8-1.2-2.9-1.2c-1.1,0-2,0.4-2.8,1.2l-0.3-0.4c0.9-0.9,2-1.3,3.2-1.3
			C568.5,203.3,569.6,203.7,570.5,204.6z"/>
	</g>
	<g class="st0">
	</g>
	<g class="st0">
		<path d="M577,196.1v4.7h2.9v0.9h-6.6v-0.9h2.8v-4.7H577z"/>
		<path d="M586.4,200.9v0.9h-6.6v-0.9H586.4z"/>
		<path d="M593,200.9v0.9h-6.6v-0.9H593z"/>
		<path d="M596.7,196.1v4.7h2.9v0.9H593v-0.9h2.8v-4.7H596.7z"/>
	</g>
</g>
</svg>
